<svg width="33" height="32" viewBox="0 0 33 32" fill="none" xmlns="http://www.w3.org/2000/svg">
<path fill-rule="evenodd" clip-rule="evenodd" d="M8.66936 18.509C9.88838 18.509 11.1645 19.1222 12.378 20.3099C13.8437 22.1606 14.3041 23.7313 13.7461 24.9742C12.5271 27.694 6.82978 28.9112 3.37714 29.3181C3.95719 27.9334 4.63667 25.6832 4.63667 22.7038C4.63667 21.076 5.75073 19.4279 7.28278 18.7871C7.73025 18.6011 8.19611 18.509 8.66936 18.509ZM12.5142 15.7083C13.4202 16.1925 14.2986 16.8039 15.1143 17.6104L15.3463 17.8719C15.8159 18.4649 16.1952 19.0449 16.5267 19.6176C16.0313 20.0577 15.5231 20.5015 15.0057 20.9508C14.6889 20.356 14.2838 19.7446 13.7848 19.1186L13.713 19.0375C12.9028 18.2384 12.0465 17.6399 11.17 17.244C11.6119 16.7303 12.0594 16.2183 12.5142 15.7083ZM30.0537 2.24755C30.1844 2.37828 30.3575 2.61216 30.3372 3.12222C30.236 5.73151 25.5717 11.4086 17.9261 18.3617C17.591 17.8204 17.2227 17.2753 16.79 16.7284L16.4125 16.3049C15.5875 15.4891 14.7129 14.8152 13.7977 14.2756C19.6736 7.80862 26.0026 1.96766 29.0538 1.84243C29.5731 1.8406 29.7996 1.99344 30.0537 2.24755ZM32.1768 3.19404C32.2118 2.29544 31.9282 1.51835 31.2359 0.825984C30.6613 0.251459 29.8622 -0.0321075 28.9801 0.00288789C23.8757 0.21095 13.6909 11.4565 9.21074 16.6989C8.31213 16.6087 7.42273 16.7339 6.57199 17.0912C4.34942 18.0174 2.79526 20.3265 2.79526 22.7038C2.79526 27.2042 1.05328 29.8392 1.03672 29.865L0 31.4044L1.84877 31.3013C3.00887 31.2387 13.2674 30.5408 15.4273 25.7292C15.8361 24.814 15.9172 23.8326 15.6943 22.7922C21.968 17.3987 31.9871 8.04801 32.1768 3.19404Z" fill="#2D2D2D"/>
</svg>
