<svg width="32" height="31" viewBox="0 0 32 31" fill="none" xmlns="http://www.w3.org/2000/svg">
<path d="M14.7708 22.7917H3.83333C3.44656 22.7917 3.07563 22.638 2.80214 22.3645C2.52865 22.091 2.375 21.7201 2.375 21.3333V3.83333C2.375 3.44656 2.52865 3.07563 2.80214 2.80214C3.07563 2.52865 3.44656 2.375 3.83333 2.375H27.1667C27.5534 2.375 27.9244 2.52865 28.1979 2.80214C28.4714 3.07563 28.625 3.44656 28.625 3.83333V16.9583H2.375M9.66667 28.625H14.7708M12.5833 22.7917L11.8542 28.625M27.1667 28.625L30.0833 25.7083L27.1667 22.7917M22.7917 22.7917L19.875 25.7083L22.7917 28.625" stroke="#2D2D2D" stroke-width="2.91667" stroke-linecap="round" stroke-linejoin="round"/>
</svg>
