<svg width="36" height="36" viewBox="0 0 36 36" fill="none" xmlns="http://www.w3.org/2000/svg">
<path d="M18 0.5C8.33475 0.5 0.5 8.33475 0.5 18C0.5 27.6652 8.33475 35.5 18 35.5C27.6652 35.5 35.5 27.6652 35.5 18C35.5 8.33475 27.6652 0.5 18 0.5ZM30.1065 11H24.4802C24.2187 9.03091 23.8889 7.07148 23.4915 5.12525C26.2703 6.32214 28.5898 8.38205 30.1065 11ZM19.7745 4.126C19.8935 4.742 20.4518 7.6925 20.9033 11H15.0967C15.5482 7.6925 16.1065 4.742 16.2255 4.126C16.8083 4.05075 17.398 4 18 4C18.602 4 19.1917 4.05075 19.7745 4.126ZM21.5 18C21.5 19.0465 21.4247 20.2505 21.3092 21.5H14.6908C14.5753 20.2505 14.5 19.0465 14.5 18C14.5 16.9535 14.5753 15.7495 14.6908 14.5H21.3092C21.4247 15.7495 21.5 16.9535 21.5 18ZM12.5085 5.12525C12.1111 7.07148 11.7813 9.03091 11.5197 11H5.8935C7.41024 8.38205 9.72972 6.32214 12.5085 5.12525ZM4.46025 14.5H11.147C11.0577 15.669 11 16.852 11 18C11 19.148 11.0578 20.331 11.1488 21.5H4.46025C4.16975 20.3783 4 19.211 4 18C4 16.789 4.1715 15.6217 4.46025 14.5ZM5.8935 25H11.5197C11.8487 27.492 12.2548 29.6375 12.5085 30.8748C9.72972 29.6779 7.41024 27.6179 5.8935 25ZM16.2255 31.874C15.7903 29.5927 15.4139 27.3006 15.0967 25H20.9033C20.5853 27.3005 20.2089 29.5926 19.7745 31.874C19.1917 31.9492 18.602 32 18 32C17.398 32 16.8083 31.9492 16.2255 31.874ZM23.4915 30.8748C23.7452 29.6375 24.1512 27.492 24.4802 25H30.1065C28.5898 27.6179 26.2703 29.6779 23.4915 30.8748ZM31.5397 21.5H24.853C24.9423 20.331 25 19.148 25 18C25 16.852 24.9422 15.669 24.8512 14.5H31.538C31.8285 15.6217 32 16.789 32 18C32 19.211 31.8302 20.3783 31.5397 21.5Z" fill="#2D2D2D"/>
</svg>
