<svg width="34" height="38" viewBox="0 0 34 38" fill="none" xmlns="http://www.w3.org/2000/svg">
<path d="M22.875 33.6738L19.4756 30.2744L17.625 32.125L22.875 37.375L33.375 26.875L31.5244 25.0244L22.875 33.6738Z" fill="#2D2D2D"/>
<path d="M26.8125 4.5625H22.875V3.25C22.8729 2.55445 22.5957 1.88797 22.1039 1.39614C21.612 0.904306 20.9456 0.627077 20.25 0.625H9.75C9.05445 0.627077 8.38797 0.904306 7.89614 1.39614C7.40431 1.88797 7.12708 2.55445 7.125 3.25V4.5625H3.1875C2.49195 4.56458 1.82547 4.84181 1.33364 5.33364C0.841806 5.82547 0.564577 6.49195 0.5625 7.1875V34.75C0.564577 35.4456 0.841806 36.112 1.33364 36.6039C1.82547 37.0957 2.49195 37.3729 3.1875 37.375H15V34.75H3.1875V7.1875H7.125V11.125H22.875V7.1875H26.8125V21.625H29.4375V7.1875C29.4354 6.49195 29.1582 5.82547 28.6664 5.33364C28.1745 4.84181 27.5081 4.56458 26.8125 4.5625ZM20.25 8.5H9.75V3.25H20.25V8.5Z" fill="#2D2D2D"/>
</svg>
