<svg width="34" height="32" viewBox="0 0 34 32" fill="none" xmlns="http://www.w3.org/2000/svg">
<path fill-rule="evenodd" clip-rule="evenodd" d="M2.11989 4.3838H5.78226V8.04617H20.4317V4.3838H24.0942V7.13058H25.9253V2.55261H20.2755C19.8983 1.48578 18.881 0.721436 17.6849 0.721436H8.52904C7.33307 0.721436 6.31563 1.48578 5.93855 2.55261H0.288696V31.8516H25.9253V26.358H24.0942V30.0204H2.11989V4.3838ZM7.61345 6.215V3.46822C7.61345 2.96253 8.02337 2.55261 8.52904 2.55261H17.6849C18.1907 2.55261 18.6006 2.96253 18.6006 3.46822V6.215H7.61345Z" fill="#6F7748"/>
<path fill-rule="evenodd" clip-rule="evenodd" d="M29.0881 8.86997L32.9659 12.7478C33.3439 13.1259 33.3439 13.7386 32.9659 14.1186L21.3324 25.752C21.1501 25.9323 20.9039 26.0351 20.6461 26.0351H16.7683C16.2331 26.0351 15.7988 25.6008 15.7988 25.0657V21.1878C15.7988 20.9299 15.9016 20.6837 16.0819 20.5035L27.7153 8.86997C28.0954 8.48996 28.7081 8.48996 29.0881 8.86997ZM26.4202 12.9068L28.9271 15.4138L30.9087 13.4322L28.4016 10.9252L26.4202 12.9068ZM17.7378 24.0963H20.2447L27.5563 16.7847L25.0494 14.2776L17.7378 21.5891V24.0963Z" fill="#6F7748"/>
</svg>
