<svg width="38" height="28" viewBox="0 0 38 28" fill="none" xmlns="http://www.w3.org/2000/svg">
<path d="M25.5625 19.25C25.2144 19.25 24.8806 19.3883 24.6344 19.6344C24.3883 19.8806 24.25 20.2144 24.25 20.5625C24.25 20.9106 24.3883 21.2444 24.6344 21.4906C24.8806 21.7367 25.2144 21.875 25.5625 21.875H30.8125C31.1606 21.875 31.4944 21.7367 31.7406 21.4906C31.9867 21.2444 32.125 20.9106 32.125 20.5625C32.125 20.2144 31.9867 19.8806 31.7406 19.6344C31.4944 19.3883 31.1606 19.25 30.8125 19.25H25.5625ZM0.625 7.4375C0.625 5.69702 1.3164 4.02782 2.54711 2.79711C3.77782 1.5664 5.44702 0.875 7.1875 0.875H30.8125C32.553 0.875 34.2222 1.5664 35.4529 2.79711C36.6836 4.02782 37.375 5.69702 37.375 7.4375V20.5625C37.375 22.303 36.6836 23.9722 35.4529 25.2029C34.2222 26.4336 32.553 27.125 30.8125 27.125H7.1875C5.44702 27.125 3.77782 26.4336 2.54711 25.2029C1.3164 23.9722 0.625 22.303 0.625 20.5625V7.4375ZM34.75 8.75V7.4375C34.75 6.39321 34.3352 5.39169 33.5967 4.65327C32.8583 3.91484 31.8568 3.5 30.8125 3.5H7.1875C6.14321 3.5 5.14169 3.91484 4.40327 4.65327C3.66484 5.39169 3.25 6.39321 3.25 7.4375V8.75H34.75ZM3.25 11.375V20.5625C3.25 21.6068 3.66484 22.6083 4.40327 23.3467C5.14169 24.0852 6.14321 24.5 7.1875 24.5H30.8125C31.8568 24.5 32.8583 24.0852 33.5967 23.3467C34.3352 22.6083 34.75 21.6068 34.75 20.5625V11.375H3.25Z" fill="#2D2D2D"/>
</svg>
