<svg width="165" height="131" viewBox="0 0 165 131" fill="none" xmlns="http://www.w3.org/2000/svg">
<path d="M33.2127 114.592C33.033 114.052 32.9648 113.481 33.0123 112.915C33.0597 112.348 33.2219 111.796 33.4889 111.294C31.2253 109.359 28.7051 107.746 25.9999 106.502C24.0334 108.559 21.583 111.517 20.6391 112.512C22.2636 111.44 37.1602 122.113 37.7451 124.777C38.0212 121.106 34.2421 117.818 33.2127 114.592Z" fill="#C7CDA7"/>
<path d="M76.4893 108.597C75.8415 107.834 75.5103 106.852 75.5634 105.852C72.7564 105.387 69.9025 105.272 67.0672 105.51C67.0308 106.418 66.9452 107.324 66.8107 108.223C66.5021 110.189 66.0634 110.968 65.7548 112.804C66.2259 111.033 84.5178 114.315 85.3625 116.362C84.7093 112.431 78.8124 111.457 76.4893 108.597Z" fill="#C7CDA7"/>
<path d="M153.881 84.9126C152.922 84.2286 150.632 82.8332 147.639 81.0463L133.703 83.9866L129.611 64.7038L131.901 64.2165C130.1 52.1413 129.753 50.2475 128.23 43.8127C123.796 48.5426 113.073 50.9691 108.46 49.6772C108.581 50.0414 108.671 50.2757 109.077 51.253C101.553 67.6766 100.386 70.682 100.158 73.3786C99.9018 76.5421 100.24 78.6583 106.283 102.132C109.959 103.158 116.104 101.429 118.109 99.3057C116.42 92.0117 114.698 84.7501 112.829 75.2468C113.059 74.6124 113.331 73.9942 113.642 73.3949C115.28 68.6222 116.338 63.6698 116.793 58.6444C119.81 72.3159 120.696 76.9748 122.771 79.2918C124.867 81.6149 127.303 83.0932 147.577 94.5108C150.618 93.7234 154.406 88.2864 153.881 84.9126Z" fill="#C7CDA7"/>
<path d="M37.4526 78.7393C27.5911 79.9559 26.0811 80.1303 17.6825 81.2247L35.0321 93.3726C35.7811 92.6151 39.2943 89.06 40.0356 88.2879C39.6423 87.0456 38.0776 81.2376 37.4526 78.7393Z" fill="#C7CDA7"/>
<path d="M23.6281 76.8384L23.6606 73.7843C22.8774 73.8991 22.1697 74.3144 21.6875 74.9421C21.2053 75.5699 20.9866 76.3607 21.0776 77.147L21.4838 80.054L24.018 79.7291L23.6281 76.8384Z" fill="#C7CDA7"/>
<path d="M34.3635 75.5232C34.27 74.784 33.9042 74.1063 33.3375 73.6226C32.7081 73.8449 32.0531 73.9868 31.3881 74.0449C31.5258 74.6434 31.5694 74.8555 31.713 75.572C31.8464 75.7053 31.8062 75.6763 32.2166 78.7355L34.7508 78.4106L34.3635 75.5232Z" fill="#C7CDA7"/>
<path d="M153.864 86.5044C153.186 89.5404 151.388 92.2089 148.828 93.9771C149.085 97.2911 150.502 104.845 151.85 106.876C154.5 103.708 157.958 92.3039 158.137 87.934C156.75 87.3508 155.322 86.8729 153.864 86.5044Z" fill="#6F7748"/>
<path d="M117.183 100.085C114.524 101.659 111.484 102.473 108.394 102.44C105.96 105.556 104.056 109.051 102.757 112.786C106.947 112.315 116.371 108.091 119.49 104.891C118.893 103.212 118.12 101.601 117.183 100.085Z" fill="#6F7748"/>
<path d="M36.8866 125.205C33.2682 124.324 19.1445 114.998 20.5253 112.61C21.7693 111.117 35.8008 121.203 37.5544 124.353C37.9545 125.079 37.7527 125.417 36.8866 125.205Z" fill="#6F7748"/>
<path d="M77.388 113.534C72.2751 112.472 66.4867 111.852 65.8224 112.712C64.3997 114.552 74.6383 116.303 76.9502 116.603C80.7721 117.104 84.3143 117.234 85.1993 116.783C87.0213 115.859 79.5127 113.978 77.388 113.534Z" fill="#6F7748"/>
<path d="M78.8124 107.688C78.7799 107.103 78.0002 106.356 75.5797 105.869C75.5187 106.869 75.851 107.854 76.5056 108.614C78.1464 108.614 78.8449 108.175 78.8124 107.688Z" fill="#6F7748"/>
<path d="M64.5655 106.778C64.5005 107.476 65.329 107.964 66.8235 108.24C66.9535 107.33 67.0347 106.437 67.08 105.527C65.3615 105.738 64.6305 106.197 64.5655 106.778Z" fill="#6F7748"/>
<path d="M25.9999 106.486C25.3013 107.201 24.4609 108.159 23.6118 109.118C22.3447 108.078 21.9018 106.908 22.361 106.291L22.4585 106.177C22.9296 105.739 24.083 105.69 25.9999 106.486Z" fill="#6F7748"/>
<path d="M33.5085 111.294C35.5229 113.016 36.289 114.287 36.0265 114.836C35.8016 115.308 34.8244 115.29 33.2161 114.592C33.0291 114.053 32.9585 113.48 33.0089 112.912C33.0593 112.343 33.2296 111.792 33.5085 111.294Z" fill="#6F7748"/>
<path d="M108.749 50.4726C107.687 47.5023 108.639 50.4127 105.938 42.7725C106.38 45.9906 106.549 49.2404 106.442 52.487C107.42 51.6585 108.216 50.9437 108.749 50.4726Z" fill="#6F7748"/>
<path d="M127.644 41.4244C123.664 45.9559 112.083 48.8971 107.598 47.4188C107.906 48.2636 108.196 49.0433 108.442 49.6931C113.155 51.0124 123.854 48.4619 128.213 43.8125C128.018 43.0002 127.84 42.188 127.644 41.4244Z" fill="#6F7748"/>
<path d="M116.793 58.6438C116.338 63.6692 115.28 68.6215 113.642 73.3943C114.486 71.721 115.9 69.3168 118.173 64.8981L116.793 58.6438Z" fill="#6F7748"/>
<path d="M145.79 50.3916C145.469 49.7121 145.208 49.0054 145.011 48.2798C145.994 48.3217 146.517 48.5636 146.721 48.8783C147.094 49.4511 146.509 50.1582 145.79 50.3916Z" fill="#6F7748"/>
<path d="M137.701 49.7905C136.531 50.3266 136.076 50.8627 136.092 51.2526C136.141 51.7562 136.758 52.0811 137.879 51.8861C138.141 51.3637 137.807 50.3659 137.701 49.7905Z" fill="#6F7748"/>
<path d="M126.167 35.5924C124.753 35.3975 122.934 35.2025 120.546 34.9751C122.808 36.144 124.98 37.4798 127.044 38.9714C126.703 37.6393 126.394 36.4696 126.167 35.5924Z" fill="#6F7748"/>
<path d="M108.834 18.2264C108.527 19.3202 108.066 20.3648 107.466 21.3292C107.498 20.8744 107.498 20.3032 107.547 19.591C107.907 19.2174 108.33 18.7625 108.834 18.2264Z" fill="#6F7748"/>
<path d="M107.534 11.1762C107.436 10.0391 107.062 9.80822 103.781 9.60045C100.305 9.35678 100.045 9.92535 100.402 11.7773C100.646 13.0281 101.295 13.3855 102.611 13.3855C103.424 13.3855 104.492 13.2393 105.844 13.0931C106.884 14.409 107.566 15.0913 107.566 14.2953C107.566 12.7845 109.142 12.817 109.174 15.2358C109.759 15.8343 110.409 16.5516 111.107 17.2501C110.393 11.5011 110.246 11.4199 107.534 11.1762Z" fill="#6F7748"/>
<path d="M109.126 26.9337C109.512 26.3591 109.834 25.7435 110.084 25.098C109.597 24.3994 109.158 23.6684 108.716 22.9049C108.424 23.5889 108.118 24.2857 107.855 24.968C107.982 25.6486 108.212 26.3061 108.539 26.9174C108.344 28.7531 107.337 41.8953 107.337 42.7563C107.885 43.896 108.561 44.9697 109.351 45.9566C110.233 44.997 111.016 43.9522 111.691 42.8375C111.367 40.4008 109.386 27.8109 109.126 26.9337Z" fill="#6F7748"/>
<path d="M88.6406 53.0888C88.9339 52.8793 89.5341 52.9751 90.3951 53.5437C89.6641 54.161 89.2417 54.5346 88.933 54.7945C88.267 53.966 88.2516 53.3667 88.6406 53.0888Z" fill="#6F7748"/>
<path d="M95.5448 59.3264C96.0484 60.2669 96.1433 60.8859 95.9671 61.1946C95.9549 61.2281 95.9321 61.2566 95.9021 61.2758C95.6097 61.5845 94.8462 61.422 94.0015 60.691C94.6025 60.1549 95.5448 59.3264 95.5448 59.3264Z" fill="#6F7748"/>
<path d="M23.2382 66.7019C23.2047 67.2102 23.1885 67.7195 23.1895 68.2289C22.0036 68.2777 21.4436 68.0673 21.4188 67.7578C21.3957 67.4663 21.9874 67.043 23.2382 66.7019Z" fill="#6F7748"/>
<path d="M32.3679 66.6691C32.4167 66.9615 31.9943 67.3189 30.711 67.5138C30.4432 67.0628 30.3133 66.5433 30.3373 66.0193C31.6369 66.0979 32.3192 66.3767 32.3679 66.6691Z" fill="#6F7748"/>
<path d="M51.5046 45.2906C51.1318 49.8487 50.9993 54.676 50.9061 56.8733C43.4829 57.052 37.2132 58.2054 34.3379 60.3173C34.3541 61.1945 34.3704 62.0555 34.4191 62.8823C38.7411 59.7513 48.1701 59.2126 53.5232 59.1134C52.6486 55.873 51.9817 49.6965 51.5046 45.2906Z" fill="#6F7748"/>
<path d="M35.0321 48.9459C34.9371 49.7676 34.8559 50.5908 34.7884 51.4152C34.0086 51.6717 32.9852 51.9991 31.978 52.3086C30.9221 52.6327 29.8824 52.9259 29.1676 53.1371C31.192 51.8401 33.1494 50.4412 35.0321 48.9459Z" fill="#6F7748"/>
<path d="M56.7842 30.4917C56.7329 30.5737 56.673 30.65 56.6055 30.7192C56.207 31.1338 54.9365 31.0774 53.7994 30.8987C53.556 30.22 53.423 29.5068 53.4052 28.786C54.8023 30.1831 56.2318 31.2877 56.7842 30.4917Z" fill="#6F7748"/>
<path d="M57.2066 19.2176C57.304 17.4307 55.0785 17.7881 54.8981 18.7953C54.7642 18.5605 54.5571 18.3761 54.3085 18.2703C54.0598 18.1645 53.7833 18.1431 53.5213 18.2095C53.2594 18.2758 53.0264 18.4263 52.8581 18.6377C52.6898 18.8491 52.5955 19.1099 52.5896 19.3801C51.7936 18.4396 50.1691 18.7816 50.4452 20.2086C49.3243 19.1202 46.449 19.77 51.0437 28.5585C51.9291 27.8057 52.7958 27.0311 53.6429 26.2355C52.3433 24.2048 53.8379 23.243 54.5039 24.5622C54.8613 25.2608 55.5299 25.1958 55.4444 23.2301C55.9697 23.0947 56.481 22.9098 56.9714 22.6778C57.9399 22.2494 58.7637 21.5498 59.3432 20.6634C60.1956 19.2989 58.5549 17.6744 57.2066 19.2176Z" fill="#6F7748"/>
<path d="M53.0478 77.9758C54.0387 86.2445 54.2824 89.2823 54.2336 91.0043C52.2504 85.3999 49.9554 79.9108 47.3594 74.5626C48.9215 75.539 50.8059 76.6437 53.0478 77.9758Z" fill="#6F7748"/>
<path d="M147.447 57.28L148.078 60.2844L150.58 59.7484L149.833 56.2557C149.702 55.6529 149.36 55.1169 148.868 54.7444C148.377 54.372 147.768 54.1878 147.153 54.2251C147.377 55.2271 147.476 56.2531 147.447 57.28Z" fill="#6F7748"/>
<path d="M138.789 55.9796L138.626 56.0121C138.295 56.0802 137.979 56.2135 137.699 56.4043C137.419 56.5951 137.18 56.8396 136.995 57.1236C136.811 57.408 136.685 57.7262 136.625 58.0597C136.565 58.3932 136.571 58.7353 136.645 59.0662L137.359 62.5588L139.861 62.0228C139.832 61.8834 138.885 56.2652 138.789 55.9796Z" fill="#6F7748"/>
<path d="M147.447 57.28L148.177 60.7385L150.679 60.2024L149.833 56.2557C149.702 55.6529 149.36 55.1169 148.868 54.7444C148.377 54.372 147.768 54.1878 147.153 54.2251C147.377 55.2271 147.476 56.2531 147.447 57.28Z" stroke="#2D2D2D" stroke-width="0.64125" stroke-linejoin="round"/>
<path d="M138.789 55.9796L138.626 56.0121C138.295 56.0802 137.979 56.2135 137.699 56.4043C137.419 56.5951 137.18 56.8396 136.995 57.1236C136.811 57.408 136.685 57.7262 136.625 58.0597C136.565 58.3932 136.571 58.7353 136.645 59.0662L137.448 63.0325L139.95 62.4964C139.921 62.3571 138.885 56.2652 138.789 55.9796Z" stroke="#2D2D2D" stroke-width="0.64125" stroke-linejoin="round"/>
<path d="M22.4423 64.0535C23.0758 63.7619 23.0758 65.1581 22.556 65.3206C22.0362 65.483 22.0515 64.233 22.4423 64.0535Z" fill="#6F7748"/>
<path d="M73.8576 64.7688C74.1877 64.1378 75.5283 64.2148 75.2547 64.8338C74.9811 65.4528 73.4575 65.5358 73.8576 64.7688Z" fill="#6F7748"/>
<path d="M96.8281 58.5633C96.9581 59.2293 98.1534 58.3068 97.949 57.751C97.7447 57.1953 96.6819 57.816 96.8281 58.5633Z" fill="#6F7748"/>
<path d="M144.345 45.1121C144.978 45.1044 145.371 46.5579 144.588 46.5417C143.806 46.5254 143.662 45.1198 144.345 45.1121Z" fill="#6F7748"/>
<path d="M159.144 59.6003L159.306 70.2878C159.308 70.3407 159.291 70.3924 159.258 70.4339C159.226 70.4755 159.179 70.5043 159.128 70.5153L155.391 71.3113L155.895 73.6506L153.474 74.1704L152.971 71.8311L140.495 74.4816L140.998 76.8209L138.578 77.3407L138.075 75.0032L134.339 75.7992C134.288 75.8056 134.236 75.7967 134.19 75.7735C134.145 75.7504 134.107 75.714 134.082 75.6692L129.893 65.8367L133.74 83.9986L163.03 77.7768L159.144 59.6003Z" fill="#6F7748"/>
<path d="M158.673 58.5142L129.838 64.6548L134.387 75.3277L137.96 74.5642L137.473 72.2899L139.894 71.7701L140.381 74.0444L152.857 71.3964L152.386 69.1221L154.807 68.6023L155.294 70.8766L158.852 70.1293L158.673 58.5142Z" fill="#6F7748"/>
<path d="M133.74 83.9983L129.615 64.701L158.9 58.4629L163.03 77.7765L133.74 83.9983Z" stroke="#2D2D2D" stroke-width="0.64125" stroke-linecap="round" stroke-linejoin="round"/>
<path d="M134.608 63.626L136.904 60.3667" stroke="#2D2D2D" stroke-width="0.64125" stroke-linecap="round" stroke-linejoin="round"/>
<path d="M146.359 46.8996L163.725 22.0934L133.054 0.617554L118.45 21.4599" stroke="#2D2D2D" stroke-width="0.64125" stroke-linecap="round" stroke-linejoin="round"/>
<path d="M116.013 90.2414L123.291 79.8284" stroke="#2D2D2D" stroke-width="0.64125" stroke-linecap="round" stroke-linejoin="round"/>
<path d="M47.5408 102.132L87.8934 130.382L107.517 102.376" stroke="#2D2D2D" stroke-width="0.64125" stroke-linecap="round" stroke-linejoin="round"/>
<path d="M27.2508 42.2206L22.7509 39.0691L1.27504 69.7397L35.0321 93.3761" stroke="#2D2D2D" stroke-width="0.64125" stroke-linecap="round" stroke-linejoin="round"/>
<path d="M86.545 67.0273L78.6987 78.2364L75.9533 76.3195" stroke="#2D2D2D" stroke-width="0.64125" stroke-linecap="round" stroke-linejoin="round"/>
<path d="M66.1089 27.3408L75.1411 14.426L83.6697 20.3879L93.7416 6.02734" stroke="#2D2D2D" stroke-width="0.64125" stroke-linecap="round" stroke-linejoin="round"/>
<path d="M87.3897 7.132L93.7415 6.02734L94.8624 12.3629" stroke="#2D2D2D" stroke-width="0.64125" stroke-linecap="round" stroke-linejoin="round"/>
<path d="M26.5685 25.0015L32.4167 23.9619C35.8975 23.3292 34.9014 18.1786 31.507 18.796L28.2418 19.3483C24.7645 19.9408 23.9334 14.7621 27.3321 14.1824L33.1803 13.1427" stroke="#2D2D2D" stroke-width="0.64125" stroke-linecap="round" stroke-linejoin="round"/>
<path d="M28.6153 11.973L31.1333 26.1712" stroke="#2D2D2D" stroke-width="0.64125" stroke-linecap="round" stroke-linejoin="round"/>
<path d="M84.6444 89.2339L91.6947 87.983" stroke="#2D2D2D" stroke-width="0.64125" stroke-linecap="round" stroke-linejoin="round"/>
<path d="M87.5523 85.0754L88.7869 92.142" stroke="#2D2D2D" stroke-width="0.64125" stroke-linecap="round" stroke-linejoin="round"/>
<path d="M128.62 102.636L138.48 100.898" stroke="#2D2D2D" stroke-width="0.64125" stroke-linecap="round" stroke-linejoin="round"/>
<path d="M132.681 96.8363L134.419 106.713" stroke="#2D2D2D" stroke-width="0.64125" stroke-linecap="round" stroke-linejoin="round"/>
<path d="M50.9035 123.446C51.208 123.452 51.5106 123.397 51.7936 123.285C52.0766 123.172 52.3343 123.004 52.5517 122.791C52.7691 122.578 52.9418 122.323 53.0597 122.043C53.1776 121.762 53.2383 121.46 53.2383 121.156C53.2383 120.851 53.1776 120.55 53.0597 120.269C52.9418 119.988 52.7691 119.734 52.5517 119.521C52.3343 119.307 52.0766 119.14 51.7936 119.027C51.5106 118.915 51.208 118.86 50.9035 118.866C50.3038 118.877 49.7326 119.124 49.3125 119.552C48.8925 119.98 48.6572 120.556 48.6572 121.156C48.6572 121.756 48.8925 122.332 49.3125 122.76C49.7326 123.188 50.3038 123.434 50.9035 123.446Z" stroke="#2D2D2D" stroke-width="0.64125" stroke-linecap="round" stroke-linejoin="round"/>
<path d="M29.5576 98.9304L16.9515 100.506L14.5959 81.6107L37.4689 78.7524" stroke="#2D2D2D" stroke-width="0.64125" stroke-linecap="round" stroke-linejoin="round"/>
<path d="M56.9646 22.7079C57.9473 22.2826 58.7829 21.5772 59.3671 20.6798C60.1956 19.3118 58.5873 17.6745 57.2228 19.234C57.3202 17.4308 55.1109 17.8045 54.9143 18.8117C54.7792 18.5788 54.5719 18.3962 54.3238 18.2917C54.0757 18.1872 53.8002 18.1665 53.5392 18.2326C53.2783 18.2987 53.0459 18.4481 52.8775 18.6581C52.709 18.8682 52.6137 19.1274 52.6058 19.3965C51.8098 18.456 50.1853 18.798 50.4614 20.225C49.3405 19.1366 46.4652 19.7864 51.0599 28.5749" stroke="#2D2D2D" stroke-width="0.64125" stroke-linecap="round" stroke-linejoin="round"/>
<path d="M53.7994 30.8987C53.5606 30.2194 53.433 29.506 53.4215 28.786C54.704 30.0813 56.037 31.139 56.6654 30.6525" stroke="#2D2D2D" stroke-width="0.64125" stroke-linecap="round" stroke-linejoin="round"/>
<path d="M35.9419 41.6523C34.1712 54.7133 33.7736 62.1227 35.2109 69.1714C36.5199 75.5899 38.8497 84.263 40.0519 88.308C34.4636 94.01 23.5145 104.943 22.3611 106.307" stroke="#2D2D2D" stroke-width="0.64125" stroke-linecap="round" stroke-linejoin="round"/>
<path d="M23.6119 109.134C22.3448 108.095 21.9087 106.928 22.361 106.308C22.9988 105.434 25.498 105.671 30.386 108.958C34.7089 111.865 36.401 114.061 36.0231 114.858C35.7982 115.33 34.8209 115.313 33.2127 114.614" stroke="#2D2D2D" stroke-width="0.64125" stroke-linecap="round" stroke-linejoin="round"/>
<path d="M66.8074 108.241C65.3129 107.965 64.4767 107.477 64.5493 106.779C64.6528 105.787 66.7262 105.17 72.1683 105.479C77.2983 105.771 78.7518 106.876 78.8125 107.689C78.8484 108.176 78.1464 108.615 76.4894 108.615" stroke="#2D2D2D" stroke-width="0.64125" stroke-linecap="round" stroke-linejoin="round"/>
<path d="M36.0068 114.834C52.9828 96.3793 53.7224 95.1926 54.1328 92.1556C54.356 90.514 54.2953 88.4518 53.0444 77.9575" stroke="#2D2D2D" stroke-width="0.64125" stroke-linecap="round" stroke-linejoin="round"/>
<path d="M20.5416 112.627C21.5822 110.84 38.8985 123.349 37.6964 125.152C36.7576 126.565 18.9992 115.276 20.5416 112.627Z" stroke="#2D2D2D" stroke-width="0.64125" stroke-linecap="round" stroke-linejoin="round"/>
<path d="M65.7514 112.854C65.9096 110.905 85.6832 114.511 85.3916 116.542C85.1633 118.134 65.518 115.729 65.7514 112.854Z" stroke="#2D2D2D" stroke-width="0.64125" stroke-linecap="round" stroke-linejoin="round"/>
<path d="M26 106.486C24.2618 108.289 21.4839 111.616 20.5417 112.611" stroke="#2D2D2D" stroke-width="0.64125" stroke-linecap="round" stroke-linejoin="round"/>
<path d="M33.5085 111.295C31.0231 115.795 38.4795 120.067 37.698 125.152" stroke="#2D2D2D" stroke-width="0.64125" stroke-linecap="round" stroke-linejoin="round"/>
<path d="M65.7514 112.854C66.1738 110.304 66.8561 109.8 67.0835 105.528" stroke="#2D2D2D" stroke-width="0.64125" stroke-linecap="round" stroke-linejoin="round"/>
<path d="M75.5796 105.869C75.3231 111.213 84.7581 111.392 85.4079 116.541" stroke="#2D2D2D" stroke-width="0.64125" stroke-linecap="round" stroke-linejoin="round"/>
<path d="M64.5655 106.779C64.7767 101.418 64.1269 86.9597 63.867 84.6042C48.1743 74.5486 42.1312 72.6641 41.1565 68.2292" stroke="#2D2D2D" stroke-width="0.64125" stroke-linecap="round" stroke-linejoin="round"/>
<path d="M78.8124 107.688C77.8214 81.6313 77.5299 78.6105 75.4822 75.5556C73.4823 72.5674 71.827 71.2994 63.1035 65.9548" stroke="#2D2D2D" stroke-width="0.64125" stroke-linecap="round" stroke-linejoin="round"/>
<path d="M21.4188 67.7575C20.4441 54.7452 20.5424 49.6819 22.6209 46.6039C25.6134 42.1861 34.3011 37.3922 43.447 34.9759C54.9322 31.9373 59.5945 32.3605 61.6901 34.2449C63.4001 35.789 63.9131 38.2104 64.4193 54.2562C67.5623 54.6281 74.8657 55.5088 76.3431 55.7695C78.4387 57.6052 78.7961 63.892 76.3431 66.2151C64.8742 66.2151 59.6416 66.0877 57.3365 64.6393C53.7763 62.4018 53.1128 60.2694 51.4883 45.3078C51.1155 49.8572 50.9693 54.664 50.8898 56.8674" stroke="#2D2D2D" stroke-width="0.64125" stroke-linecap="round" stroke-linejoin="round"/>
<path d="M63.4771 54.1445L64.4176 54.2557" stroke="#2D2D2D" stroke-width="0.64125" stroke-linecap="round" stroke-linejoin="round"/>
<path d="M23.1733 68.2294C21.9874 68.2619 21.4334 68.067 21.4026 67.7583C21.3522 67.2547 23.0434 66.4544 26.666 66.1013C30.3699 65.7397 32.2705 66.1663 32.3517 66.6537C32.4005 66.9461 31.9781 67.3035 30.6948 67.4984" stroke="#2D2D2D" stroke-width="0.64125" stroke-linecap="round" stroke-linejoin="round"/>
<path d="M34.791 51.4154C32.93 52.0261 31.056 52.5962 29.1702 53.1254C31.2007 51.8432 33.1586 50.4494 35.0347 48.9504" stroke="#2D2D2D" stroke-width="0.64125" stroke-linecap="round" stroke-linejoin="round"/>
<path d="M32.368 66.67C32.2055 63.2586 31.9781 55.9971 31.9781 52.306" stroke="#2D2D2D" stroke-width="0.64125" stroke-linecap="round" stroke-linejoin="round"/>
<path d="M21.111 63.3395C22.5243 61.3088 30.8093 60.594 32.1739 61.9715" stroke="#2D2D2D" stroke-width="0.64125" stroke-linecap="round" stroke-linejoin="round"/>
<path d="M71.5185 55.1196C73.5653 56.9878 73.3704 64.0869 70.7712 66.1987" stroke="#2D2D2D" stroke-width="0.64125" stroke-linecap="round" stroke-linejoin="round"/>
<path d="M34.4148 62.8848C37.7605 60.4652 44.774 59.2305 53.5096 59.116" stroke="#2D2D2D" stroke-width="0.64125" stroke-linecap="round" stroke-linejoin="round"/>
<path d="M34.3336 60.3181C37.4672 58.0096 44.6791 56.8425 53.0043 56.8417" stroke="#2D2D2D" stroke-width="0.64125" stroke-linecap="round" stroke-linejoin="round"/>
<path d="M30.3373 66.0035C30.3108 66.5901 30.4827 67.1681 30.8247 67.6443C31.0812 67.9692 32.7912 69.4937 33.164 70.0485C33.5744 70.6633 33.7813 73.2488 33.4564 73.525C33.034 73.8832 30.1911 74.1748 29.054 74.1748C28.2417 74.1748 28.4367 72.794 31.1171 72.1117C28.8941 72.2416 27.397 71.5918 27.0234 69.6587" stroke="#2D2D2D" stroke-width="0.64125" stroke-linecap="round" stroke-linejoin="round"/>
<path d="M23.2383 66.7019C23.1084 69.0899 23.1518 71.4842 23.3682 73.866" stroke="#2D2D2D" stroke-width="0.64125" stroke-linecap="round" stroke-linejoin="round"/>
<path d="M25.5288 74.0776C25.4433 72.5993 27.2046 72.4044 27.3807 73.8211C27.5124 74.8771 27.5774 75.6243 27.6569 76.4716C27.7107 76.728 27.6605 76.9952 27.5174 77.2146C27.3742 77.4339 27.1497 77.5874 26.8934 77.6413C26.637 77.6951 26.3698 77.645 26.1504 77.5018C25.9311 77.3586 25.7776 77.1341 25.7237 76.8778C25.6109 75.9483 25.5458 75.0137 25.5288 74.0776Z" stroke="#2D2D2D" stroke-width="0.64125" stroke-linecap="round" stroke-linejoin="round"/>
<path d="M31.3933 74.0123C31.5395 74.6963 31.6574 75.2461 31.7831 75.848C31.8283 76.0298 31.8208 76.2207 31.7615 76.3984C31.7023 76.5761 31.5937 76.7333 31.4485 76.8516C31.3033 76.9699 31.1274 77.0445 30.9414 77.0666C30.7554 77.0888 30.567 77.0575 30.398 76.9766C30.1713 76.8694 29.994 76.6799 29.9021 76.4465C29.7126 75.6983 29.5715 74.9386 29.4798 74.1722" stroke="#2D2D2D" stroke-width="0.64125" stroke-linecap="round" stroke-linejoin="round"/>
<path d="M23.6607 74.0776C23.6607 72.648 25.3707 72.5506 25.4639 73.9314C25.5323 74.9574 25.5494 75.6858 25.5776 76.4964C25.6164 76.7484 25.5534 77.0056 25.4026 77.2112C25.2518 77.4168 25.0255 77.5541 24.7735 77.5929C24.5214 77.6317 24.2643 77.5688 24.0587 77.418C23.853 77.2672 23.7157 77.0408 23.6769 76.7888C23.5966 76.1082 23.6607 75.3772 23.6607 74.0776Z" stroke="#2D2D2D" stroke-width="0.64125" stroke-linecap="round" stroke-linejoin="round"/>
<path d="M29.4439 74.1744C29.5738 74.9542 29.6576 75.5715 29.7525 76.2538C29.81 76.5091 29.7659 76.7767 29.6295 77C29.4932 77.2234 29.2752 77.3849 29.0219 77.4503C28.7685 77.5158 28.4996 77.48 28.2721 77.3507C28.0447 77.2214 27.8764 77.0086 27.8031 76.7574C27.6473 75.8158 27.5389 74.867 27.4782 73.9145C27.3465 72.6474 28.5829 72.2575 29.1352 73.0048" stroke="#2D2D2D" stroke-width="0.64125" stroke-linecap="round" stroke-linejoin="round"/>
<path d="M84.5794 65.4998C84.771 64.1506 83.2568 63.7598 82.9225 65.0286C82.7899 65.5314 82.6147 66.2145 82.5001 66.7386C82.4405 66.9698 82.4739 67.2152 82.5931 67.422C82.7124 67.6289 82.908 67.7807 83.1379 67.845C83.368 67.9093 83.6142 67.8804 83.8232 67.7646C84.0322 67.6487 84.1872 67.4552 84.2546 67.226C84.3922 66.6566 84.5008 66.0803 84.5794 65.4998Z" stroke="#2D2D2D" stroke-width="0.64125" stroke-linecap="round" stroke-linejoin="round"/>
<path d="M82.8574 65.0941C83.2071 63.7517 81.6168 63.2567 81.2005 64.5255C81.027 65.0489 80.8591 65.5742 80.6969 66.1013C80.3164 67.3778 82.0469 67.9378 82.4026 66.816C82.5984 66.1987 82.7514 65.5002 82.8574 65.0941Z" stroke="#2D2D2D" stroke-width="0.64125" stroke-linecap="round" stroke-linejoin="round"/>
<path d="M81.1029 64.7039C81.5125 63.4162 80.0992 62.8699 79.5109 64.0541C79.3493 64.3798 79.1005 64.9621 78.8774 65.5486C78.7696 65.764 78.7519 66.0134 78.8281 66.2419C78.9043 66.4704 79.0681 66.6593 79.2835 66.767C79.4989 66.8747 79.7483 66.8924 79.9768 66.8163C80.2053 66.7401 80.3941 66.5763 80.5019 66.3609C80.6763 65.9855 80.9687 65.1245 81.1029 64.7039Z" stroke="#2D2D2D" stroke-width="0.64125" stroke-linecap="round" stroke-linejoin="round"/>
<path d="M86.2851 65.7433C86.3287 64.4275 84.9 64.1188 84.6606 65.3697C84.5614 65.8895 84.4126 66.9087 84.3844 67.1891C84.3959 67.3977 84.4804 67.5955 84.6231 67.748C84.7658 67.9005 84.9577 67.9979 85.165 68.0231C85.3724 68.0483 85.582 67.9997 85.7571 67.8858C85.9322 67.7719 86.0616 67.6001 86.1226 67.4003C86.2081 66.8514 86.262 66.2982 86.2851 65.7433Z" stroke="#2D2D2D" stroke-width="0.64125" stroke-linecap="round" stroke-linejoin="round"/>
<path d="M73.4678 105.593C72.7838 83.5159 73.0292 79.9095 71.421 77.5215C69.1458 74.1425 66.4132 72.6394 53.7139 65.1103C51.6337 63.8774 51.0173 62.4949 50.9198 59.2108" stroke="#2D2D2D" stroke-width="0.64125" stroke-linecap="round" stroke-linejoin="round"/>
<path d="M47.3596 74.548C49.9474 79.9048 52.2422 85.3983 54.2338 91.0042" stroke="#2D2D2D" stroke-width="0.64125" stroke-linecap="round" stroke-linejoin="round"/>
<path d="M102.628 13.3698C103.748 19.7823 104.073 20.7441 105.081 20.8587C106.071 20.9716 106.689 20.5663 108.849 18.227C108.608 19.3504 108.147 20.4154 107.495 21.3614" stroke="#2D2D2D" stroke-width="0.64125" stroke-linecap="round" stroke-linejoin="round"/>
<path d="M107.534 11.1762C107.42 10.0553 107.046 9.82788 103.797 9.60045C100.321 9.35678 100.061 9.92535 100.418 11.7773C100.792 13.8079 102.286 13.483 105.844 13.0931C106.884 14.409 107.566 15.1075 107.566 14.2953C107.566 12.7845 109.142 12.817 109.174 15.2358C109.735 16.0202 110.384 16.7374 111.108 17.3733C110.393 11.6157 110.248 11.4199 107.534 11.1762Z" stroke="#2D2D2D" stroke-width="0.64125" stroke-linecap="round" stroke-linejoin="round"/>
<path d="M107.535 19.5962C107.646 21.0497 107.463 22.811 106.413 23.4095C103.342 25.1802 102.109 25.8958 101.068 27.3733C99.0734 30.2025 99.1999 32.0843 98.8263 44.658C95.0574 47.907 90.3618 51.5621 88.6407 53.1054" stroke="#2D2D2D" stroke-width="0.64125" stroke-linecap="round" stroke-linejoin="round"/>
<path d="M88.933 54.7946C88.249 53.9661 88.249 53.3693 88.6406 53.1051C89.1801 52.7374 90.7336 53.3342 93.108 56.0454C95.6559 58.9524 96.3031 60.624 95.9671 61.2114C95.7363 61.6158 94.9112 61.5038 94.0006 60.7078" stroke="#2D2D2D" stroke-width="0.64125" stroke-linecap="round" stroke-linejoin="round"/>
<path d="M137.895 51.8863C136.775 52.0813 136.151 51.7572 136.109 51.2528C136.052 50.5876 137.345 49.5539 141.096 48.7348C145.305 47.8165 146.725 48.3928 146.814 49.1247C146.809 49.4202 146.706 49.7056 146.52 49.9352C146.334 50.1649 146.076 50.3257 145.788 50.3918" stroke="#2D2D2D" stroke-width="0.64125" stroke-linecap="round" stroke-linejoin="round"/>
<path d="M136.109 51.2695C133.396 39.4269 133.116 38.212 131.999 37.3963C130.468 36.2797 129.399 35.8368 120.53 35.0083C122.792 36.1772 124.964 37.513 127.028 39.0046" stroke="#2D2D2D" stroke-width="0.64125" stroke-linecap="round" stroke-linejoin="round"/>
<path d="M147.626 81.0464C150.619 82.8496 152.922 84.2304 153.881 84.9127C154.449 88.5037 150.274 93.9449 147.578 94.5135C127.304 83.0933 124.869 81.6133 122.771 79.2945C120.775 77.0835 120.075 73.495 116.777 58.6634C116.058 58.6208 115.35 58.4617 114.681 58.1923" stroke="#2D2D2D" stroke-width="0.64125" stroke-linecap="round" stroke-linejoin="round"/>
<path d="M126.167 35.6093C127.076 39.0857 129.171 47.1757 130.147 53.0076C130.682 56.2079 131.333 60.5316 131.901 64.2167" stroke="#2D2D2D" stroke-width="0.64125" stroke-linecap="round" stroke-linejoin="round"/>
<path d="M103.391 29.4523C103.204 31.256 103.204 33.0743 103.391 34.8781C103.525 36.1144 108.086 48.9001 109.077 51.2531C101.553 67.6443 100.374 70.6821 100.158 73.3625C99.9018 76.526 100.24 78.6421 106.283 102.116C109.97 103.205 116.355 101.255 118.093 99.2895C116.403 91.9955 114.681 84.7178 112.813 75.2307C113.447 73.4112 114.909 71.1857 118.158 64.8852" stroke="#2D2D2D" stroke-width="0.64125" stroke-linecap="round" stroke-linejoin="round"/>
<path d="M153.864 86.4889C155.325 86.8674 156.758 87.345 158.153 87.9185C157.974 92.2884 154.514 103.692 151.866 106.86C150.518 104.829 149.105 97.2756 148.845 93.9616" stroke="#2D2D2D" stroke-width="0.64125" stroke-linecap="round" stroke-linejoin="round"/>
<path d="M117.167 100.069C118.104 101.586 118.878 103.198 119.475 104.878C116.356 108.078 106.934 112.302 102.743 112.773C104.058 109.05 105.961 105.562 108.38 102.441" stroke="#2D2D2D" stroke-width="0.64125" stroke-linecap="round" stroke-linejoin="round"/>
<path d="M95.95 61.2392C99.4119 58.5553 106.537 52.4618 108.768 50.4568" stroke="#2D2D2D" stroke-width="0.64125" stroke-linecap="round" stroke-linejoin="round"/>
<path d="M92.377 49.9863C95.4148 50.23 99.7035 55.867 99.3948 58.4662" stroke="#2D2D2D" stroke-width="0.64125" stroke-linecap="round" stroke-linejoin="round"/>
<path d="M135.083 46.7694C136.23 44.2805 144.099 42.7723 145.762 44.1189" stroke="#2D2D2D" stroke-width="0.64125" stroke-linecap="round" stroke-linejoin="round"/>
<path d="M107.42 21.7683C107.777 22.2343 108.231 22.6173 108.752 22.8892C110.656 22.0639 112.446 20.9981 114.079 19.718" stroke="#2D2D2D" stroke-width="0.64125" stroke-linecap="round" stroke-linejoin="round"/>
<path d="M115.055 20.339C114.371 22.5808 111.985 25.9598 111.416 26.707C110.353 25.5773 109.455 24.3027 108.749 22.9211C108.139 24.18 107.66 25.4979 107.319 26.8541C107.005 25.3731 106.977 23.8456 107.238 22.3542" stroke="#2D2D2D" stroke-width="0.64125" stroke-linecap="round" stroke-linejoin="round"/>
<path d="M107.894 24.973C108.024 25.6536 108.254 26.3102 108.578 26.9224C108.383 28.7419 107.375 41.8849 107.375 42.7613C107.917 43.9042 108.594 44.9786 109.39 45.9616C110.263 44.9992 111.041 43.9547 111.713 42.8425C111.388 40.4058 109.404 27.8159 109.148 26.9395C109.521 26.3607 109.837 25.7459 110.088 25.1038" stroke="#2D2D2D" stroke-width="0.64125" stroke-linecap="round" stroke-linejoin="round"/>
<path d="M107.615 47.4197C112.066 48.898 123.649 45.9576 127.645 41.4253" stroke="#2D2D2D" stroke-width="0.64125" stroke-linecap="round" stroke-linejoin="round"/>
<path d="M108.46 49.6938C113.154 51.0259 124.071 48.4113 128.23 43.8293" stroke="#2D2D2D" stroke-width="0.64125" stroke-linecap="round" stroke-linejoin="round"/>
<path d="M106.461 52.4879C106.569 49.2414 106.401 45.9915 105.958 42.7734" stroke="#2D2D2D" stroke-width="0.64125" stroke-linecap="round" stroke-linejoin="round"/>
<path d="M116.777 58.6281C116.321 63.6534 115.263 68.6058 113.625 73.3785" stroke="#2D2D2D" stroke-width="0.64125" stroke-linecap="round" stroke-linejoin="round"/>
<path d="M113.122 49.9696C114.062 53.9334 114.113 54.307 115.494 54.2258" stroke="#2D2D2D" stroke-width="0.64125" stroke-linecap="round" stroke-linejoin="round"/>
<path d="M143.874 81.8427C148.26 84.6205 152.224 87.1223 153.491 87.9345" stroke="#2D2D2D" stroke-width="0.64125" stroke-linecap="round" stroke-linejoin="round"/>
<path d="M124.867 46.4125C126.784 54.535 128.961 65.4841 129.643 72.7294C130.286 73.1721 130.936 73.6054 131.592 74.029" stroke="#2D2D2D" stroke-width="0.64125" stroke-linecap="round" stroke-linejoin="round"/>
<path d="M90.3951 53.5436C88.8194 54.8594 88.7056 55.1544 88.0233 55.1843C86.4151 55.2553 85.0548 54.7329 84.4982 55.3468C83.4542 56.5583 82.4936 57.8392 81.6228 59.1806C80.9217 60.2066 82.8412 60.9188 85.1967 58.1896C85.8909 58.5495 86.6528 58.7599 87.4332 58.8075C88.2137 58.8551 88.9955 58.7387 89.7282 58.4658" stroke="#2D2D2D" stroke-width="0.64125" stroke-linecap="round" stroke-linejoin="round"/>
<path d="M77.2529 57.0354C79.2835 57.3278 79.7042 57.4227 80.2907 57.0841C81.6835 56.2813 82.2572 55.2886 83.0524 55.5246C83.3781 55.6195 83.7022 55.7196 84.0433 55.8333" stroke="#2D2D2D" stroke-width="0.64125" stroke-linecap="round" stroke-linejoin="round"/>
<path d="M95.5285 59.3264C94.8138 59.96 93.0918 61.487 92.365 62.2018" stroke="#2D2D2D" stroke-width="0.64125" stroke-linecap="round" stroke-linejoin="round"/>
<path d="M88.1696 58.8071C92.3933 60.984 93.1893 62.381 91.776 63.6644" stroke="#2D2D2D" stroke-width="0.64125" stroke-linecap="round" stroke-linejoin="round"/>
<path d="M89.2092 61.8444C91.6297 63.079 92.3727 63.775 91.5972 64.8369C91.1569 65.4354 90.5575 65.4542 88.267 63.8622" stroke="#2D2D2D" stroke-width="0.64125" stroke-linecap="round" stroke-linejoin="round"/>
<path d="M77.123 65.2434C77.7565 65.3084 78.5201 65.4059 78.9262 65.4708" stroke="#2D2D2D" stroke-width="0.64125" stroke-linecap="round" stroke-linejoin="round"/>
<path d="M87.2598 65.3378C88.0396 65.8576 89.8103 67.5471 90.6388 65.1591" stroke="#2D2D2D" stroke-width="0.64125" stroke-linecap="round" stroke-linejoin="round"/>
<path d="M86.1876 66.946C86.9024 67.1247 88.202 67.5795 88.6731 66.262" stroke="#2D2D2D" stroke-width="0.64125" stroke-linecap="round" stroke-linejoin="round"/>
<path d="M145.011 48.2643C145.417 50.035 146.521 51.3833 147.234 54.5058C147.461 55.7216 147.5 56.9656 147.347 58.1934C147.249 58.4429 147.073 58.654 146.845 58.7957C146.617 58.9373 146.349 59.0019 146.082 58.98C145.905 58.9654 145.732 58.9132 145.577 58.8269" stroke="#2D2D2D" stroke-width="0.64125" stroke-linecap="round" stroke-linejoin="round"/>
<path d="M145.612 56.4998C145.677 57.2077 145.677 57.9199 145.612 58.6278C145.531 59.376 144.635 60.0258 143.56 59.3119" stroke="#2D2D2D" stroke-width="0.64125" stroke-linecap="round" stroke-linejoin="round"/>
<path d="M143.581 57.0851C143.633 57.728 143.644 58.3736 143.614 59.0182C143.597 59.2622 143.509 59.496 143.361 59.6908C143.213 59.8855 143.012 60.0328 142.781 60.1146C142.551 60.1963 142.301 60.2089 142.064 60.1509C141.826 60.0928 141.611 59.9666 141.444 59.7877" stroke="#2D2D2D" stroke-width="0.64125" stroke-linecap="round" stroke-linejoin="round"/>
<path d="M141.404 57.5884C141.504 58.2168 141.536 58.8538 141.502 59.489C141.485 59.765 141.364 60.0243 141.164 60.2145C140.963 60.4048 140.698 60.5117 140.421 60.5138C140.145 60.5158 139.878 60.4129 139.674 60.2256C139.471 60.0384 139.346 59.781 139.325 59.5053C139.187 57.963 138.916 56.4356 138.513 54.9404" stroke="#2D2D2D" stroke-width="0.64125" stroke-linecap="round" stroke-linejoin="round"/>
<path d="M137.701 49.7914C137.885 50.3745 137.972 50.9833 137.957 51.5946C137.892 52.2931 136.544 53.7064 136.544 54.4862C136.586 55.2813 136.845 56.05 137.291 56.7092" stroke="#2D2D2D" stroke-width="0.64125" stroke-linecap="round" stroke-linejoin="round"/>
<path d="M140.365 56.6136C141.421 56.2887 144.913 55.3953 146.002 55.2003" stroke="#2D2D2D" stroke-width="0.64125" stroke-linecap="round" stroke-linejoin="round"/>
<path d="M55.3708 32.668C54.6581 32.2775 54.1028 31.6521 53.7993 30.8982C54.9348 31.076 56.2164 31.1401 56.6055 30.7186C57.2895 30.0047 57.4989 28.3169 56.9646 22.7073C56.4787 22.9345 55.9722 23.1149 55.4521 23.2459C55.5333 25.2124 54.8655 25.2774 54.5116 24.578C53.8429 23.2639 52.351 24.2206 53.6506 26.2513C50.2887 29.378 44.88 34.0164 38.9805 36.3445" stroke="#2D2D2D" stroke-width="0.64125" stroke-linecap="round" stroke-linejoin="round"/>
<path d="M146.796 49.1253C143.889 34.3261 142.179 30.8659 139.047 27.9743C133.737 23.0521 127.644 22.5793 117.213 21.3139C116.044 21.1617 113.187 19.279 111.106 17.3749" stroke="#2D2D2D" stroke-width="0.64125" stroke-linecap="round" stroke-linejoin="round"/>
<path d="M140.438 74.271L152.914 71.623" stroke="#2D2D2D" stroke-width="0.64125" stroke-linecap="round" stroke-linejoin="round"/>
<path d="M139.894 71.7709L137.473 72.2907L138.578 77.3412L140.998 76.8214L139.894 71.7709Z" stroke="#2D2D2D" stroke-width="0.64125" stroke-linecap="round" stroke-linejoin="round"/>
<path d="M154.807 68.6025L152.386 69.1224L153.474 74.1703L155.895 73.6505L154.807 68.6025Z" stroke="#2D2D2D" stroke-width="0.64125" stroke-linecap="round" stroke-linejoin="round"/>
<path d="M155.344 71.1128L159.089 70.3125L158.935 58.6281" stroke="#2D2D2D" stroke-width="0.64125" stroke-linecap="round" stroke-linejoin="round"/>
<path d="M138.011 74.8009L134.28 75.579L129.648 64.8599" stroke="#2D2D2D" stroke-width="0.64125" stroke-linecap="round" stroke-linejoin="round"/>
<path d="M23.6282 76.8393L23.6607 73.7853C22.8775 73.9001 22.1698 74.3153 21.6876 74.9431C21.2054 75.5708 20.9867 76.3617 21.0777 77.148L21.5565 80.715L24.0916 80.3902L23.6282 76.8393Z" stroke="#2D2D2D" stroke-width="0.64125" stroke-linejoin="round"/>
<path d="M34.3635 75.5232C34.27 74.784 33.9042 74.1063 33.3375 73.6226C32.7081 73.8449 32.0531 73.9868 31.3881 74.0449C31.5258 74.6434 31.5694 74.8555 31.713 75.572C31.8464 75.7053 31.8797 76.315 32.2901 79.3741L34.8243 79.0492L34.3635 75.5232Z" stroke="#2D2D2D" stroke-width="0.64125" stroke-linejoin="round"/>
</svg>
