<svg width="168" height="151" viewBox="0 0 168 151" fill="none" xmlns="http://www.w3.org/2000/svg">
<path d="M124.215 83.4772C118.583 77.5676 103.792 69.6922 96.6658 65.7781C94.244 69.8774 85.328 70.4191 80.3812 68.9155C77.7591 70.9392 75.7903 73.6896 74.7197 76.8241C75.963 78.6247 74.7197 84.7396 74.2497 89.2085C74.9034 92.8361 75.8947 96.3947 77.2106 99.8378C74.5022 96.8166 71.6662 93.8452 69.3754 91.5876C59.5902 85.768 61.8076 87.0444 58.27 84.9808C57.8052 85.2167 57.3561 85.4832 56.9254 85.7776C54.7815 87.2269 53.0332 89.1883 51.839 91.4841C50.6447 93.7798 50.0423 96.3373 50.0862 98.9248C51.4675 100.061 70.1268 113.603 77.941 118.662C87.1872 124.622 93.6612 121.385 94.6074 112.935C95.0853 108.544 96.6781 87.9697 96.7654 86.7902C99.1995 89.3693 106.826 95.4694 110.444 96.3518C110.206 98.847 107.784 119.83 107.622 121.185C112.078 124.924 120.357 125.912 124.089 124.19C125.005 118.773 127.172 99.3127 127.475 92.7662C127.625 89.5056 127.548 86.9719 124.215 83.4772Z" fill="#C7CDA7"/>
<path d="M122.612 15.647C121.039 15.9616 120.864 20.1902 120.852 21.8056C122.63 21.5957 124.433 21.836 126.094 22.5046C125.218 18.3694 123.823 15.4976 122.612 15.647Z" fill="#C7CDA7"/>
<path d="M126.977 29.6074C125.533 30.6545 123.852 31.3275 122.085 31.5662C122.477 33.0969 123.689 37.2085 125.255 37.1106C126.461 36.9612 127.11 33.8404 126.977 29.6074Z" fill="#C7CDA7"/>
<path d="M114.677 23.9976L105.497 25.1264C104.634 26.6536 104.885 29.7744 105.879 31.4344C106.578 30.9198 108.15 30.7704 109.431 30.6376C110.494 30.538 110.709 30.87 110.875 31.4676C110.909 31.5838 110.925 31.7 110.958 31.8328C111.738 31.368 113.353 30.8219 113.946 31.119L115.519 30.9198C114.142 29.5586 113.681 25.7406 114.677 23.9976Z" fill="#C7CDA7"/>
<path d="M64.4452 134.237L59.4818 130.751C58.9379 130.356 58.5708 129.763 58.4596 129.101C58.3483 128.438 58.5018 127.758 58.8869 127.207C59.2721 126.656 59.8581 126.278 60.5188 126.155C61.1796 126.032 61.8623 126.173 62.42 126.549L63.1836 127.08L63.7148 126.316C64.1108 125.776 64.7028 125.412 65.364 125.302C66.0252 125.193 66.7029 125.347 67.252 125.731C67.8012 126.115 68.178 126.699 68.3018 127.358C68.4257 128.016 68.2866 128.697 67.9146 129.254L64.4452 134.237Z" fill="#C7CDA7"/>
<path d="M45.5543 37.1772C46.0775 37.1772 46.5956 37.0742 47.0789 36.874C47.5623 36.6737 48.0015 36.3803 48.3714 36.0103C48.7414 35.6404 49.0349 35.2012 49.2351 34.7178C49.4353 34.2345 49.5383 33.7164 49.5383 33.1932C49.5383 32.67 49.4353 32.152 49.2351 31.6686C49.0349 31.1853 48.7414 30.7461 48.3714 30.3761C48.0015 30.0062 47.5623 29.7127 47.0789 29.5125C46.5956 29.3123 46.0775 29.2092 45.5543 29.2092C44.4977 29.2092 43.4844 29.629 42.7372 30.3761C41.9901 31.1233 41.5703 32.1366 41.5703 33.1932C41.5703 34.2498 41.9901 35.2632 42.7372 36.0103C43.4844 36.7575 44.4977 37.1772 45.5543 37.1772Z" fill="#5F6342"/>
<path d="M118.877 124.99C115.494 124.907 112.185 123.983 109.249 122.301C108.369 125.009 106.709 126.8 106.111 128.144C108.701 133.589 118.976 142.735 124.919 146.317C124.56 136.611 118.538 132.096 118.877 124.99Z" fill="#5F6342"/>
<path d="M53.7548 83.0251C54.6014 83.5895 55.5642 84.7017 56.9088 85.7807C55.1898 86.9601 53.7212 88.4678 52.5873 90.217C51.4534 91.9663 50.6767 93.9225 50.302 95.9731C45.4382 96.6205 40.176 99.5255 32.6536 98.4797C35.196 93.8815 47.9614 84.6353 53.7548 83.0251Z" fill="#5F6342"/>
<path d="M75.6667 95.226C76.129 96.7813 76.6439 98.3204 77.2105 99.8408C74.5021 96.8362 71.6661 93.8482 69.3753 91.5574C72.0147 93.1178 74.3387 94.4833 75.6667 95.226Z" fill="#5F6342"/>
<path d="M96.7487 86.7954C96.5993 88.6048 96.4499 90.63 96.2839 92.7365C97.3961 93.0187 105.265 95.0771 109.083 96.0399C104.597 93.4916 100.453 90.3854 96.7487 86.7954Z" fill="#5F6342"/>
<path d="M96.4333 60.1183C97.2137 62.5085 98.1281 64.8528 99.1723 67.1401C98.339 66.6823 97.5035 66.2286 96.6657 65.7789C96.6394 63.8903 96.5619 62.0027 96.4333 60.1183Z" fill="#5F6342"/>
<path d="M58.0375 74.0791C57.3386 75.2909 57.1909 76.4031 57.6881 77.0496C58.2027 77.697 59.1323 77.946 61.0247 77.365C59.8453 76.4519 58.8345 75.3399 58.0375 74.0791Z" fill="#5F6342"/>
<path d="M69.8899 69.5139C70.077 69.8334 70.1414 70.2101 70.0711 70.5736C70.0009 70.9371 69.8008 71.2626 69.5081 71.4893C68.4291 70.4269 67.4331 69.4309 66.5865 68.5188C68.4973 68.2681 69.3107 68.8132 69.8899 69.5139Z" fill="#5F6342"/>
<path d="M74.5877 55.0222C73.8122 56.6533 72.9534 58.2435 72.0147 59.7864C70.7199 58.4759 69.5745 57.3794 68.7943 56.7285C70.7209 56.1444 72.6521 55.5756 74.5877 55.0222Z" fill="#5F6342"/>
<path d="M101.745 45.4771C100.135 45.8091 98.9566 46.4896 99.0064 47.1204C99.0064 48.0474 101.879 48.32 101.994 48.3322C101.945 47.7346 101.845 46.6723 101.745 45.4771Z" fill="#5F6342"/>
<path d="M114.361 46.1575C114.329 46.7219 113.199 47.3693 111.34 47.8341C111.274 47.2531 111.041 46.0745 110.809 44.8959C113.349 45.0785 114.395 45.5765 114.361 46.1575Z" fill="#5F6342"/>
<path d="M114.195 39.1857C113.55 39.5963 112.826 39.8672 112.071 39.9825C110.809 40.1817 109.946 39.1193 111.788 38.0403C110.444 38.3024 109.365 37.1937 111.324 35.9487C111.165 35.9468 111.008 35.9187 110.859 35.8657C110.46 36.2807 109.697 35.9653 108.966 33.1267C109.276 34.3118 109.287 35.555 109 36.7455C109.068 38.5238 109.557 40.2605 110.427 41.8129C110.461 41.8906 110.506 41.9632 110.56 42.0287C112.003 41.6953 113.39 41.1528 114.677 40.4185C114.477 40.0238 114.316 39.611 114.195 39.1857Z" fill="#5F6342"/>
<path d="M98.94 22.8009C101.762 21.7717 100.517 18.3687 98.5084 17.6715C100.534 16.6589 99.9194 13.1563 97.3796 13.2891C98.8072 11.3801 97.6618 8.70748 94.7236 9.12248C95.1054 6.69888 93.4454 5.10353 90.8226 6.21748C90.889 3.49508 87.59 2.31648 86.1248 4.14248C85.5132 1.45328 82.5226 0.473003 80.265 3.09406C79.6534 0.355056 75.3016 0.272056 74.9032 3.02766C73.0606 0.668708 69.0102 2.01506 69.2924 4.70426C66.7858 2.13126 63.3828 4.95326 63.6135 7.76215C61.0073 6.30135 58.6003 9.90355 59.6819 12.2442C56.3785 12.7255 55.6629 15.9136 57.7895 17.8357C54.6853 18.9313 55.1335 21.9525 57.1587 23.3469C54.7849 24.9737 55.3659 28.2107 58.1879 28.6423C56.1627 30.9139 58.3207 34.6183 61.0929 34.0871C59.5491 36.6601 61.6573 39.4987 64.4129 38.3682C64.177 39.0259 64.1902 39.7472 64.45 40.3958C64.7098 41.0444 65.1983 41.5753 65.823 41.8883C67.7984 41.1745 72.4962 39.3983 72.4962 39.3983C77.9078 37.2901 79.2026 33.1899 80.2484 28.9237C77.2438 27.9626 78.5552 24.9563 80.0658 26.1183C81.51 27.2305 81.0452 25.7365 80.8958 24.1429C82.8255 23.5779 84.8142 23.2381 86.822 23.1303C89.2806 30.533 88.8621 34.1492 85.8706 34.0137C84.4328 33.8085 83.0544 33.3024 81.8254 32.5285C82.2382 33.5644 82.8469 34.511 83.6182 35.3164C83.6182 37.0402 84.8361 39.2244 87.4196 40.6625L88.3492 41.1771C88.7974 41.4261 89.2954 41.7083 89.81 42.0237C90.4104 41.869 90.9289 41.4905 91.2591 40.9658C91.5894 40.4411 91.7064 39.8099 91.5862 39.2017C92.1058 39.5421 92.719 39.7111 93.3396 39.685C93.9602 39.6589 94.557 39.4389 95.0462 39.0561C95.5353 38.6732 95.8922 38.1466 96.0666 37.5504C96.2409 36.9543 96.2241 36.3184 96.0184 35.7323C98.9068 35.6991 99.2886 32.5119 97.7448 30.9847C100.185 30.4037 100.085 27.9801 98.2926 27.0007C100.55 26.2869 100.666 23.7803 98.94 22.8009Z" fill="#5F6342"/>
<path d="M108.518 113.421L93.9268 115.994" stroke="#2D2D2D" stroke-width="0.655263" stroke-linecap="round" stroke-linejoin="round"/>
<path d="M124.388 36.7777L137.02 108.39L125.849 110.366" stroke="#2D2D2D" stroke-width="0.655263" stroke-linecap="round" stroke-linejoin="round"/>
<path d="M97.2136 32.0147L102.526 31.0685" stroke="#2D2D2D" stroke-width="0.655263" stroke-linecap="round" stroke-linejoin="round"/>
<path d="M45.0896 53.4278L42.998 41.5754L61.6983 38.2728" stroke="#2D2D2D" stroke-width="0.655263" stroke-linecap="round" stroke-linejoin="round"/>
<path d="M50.5345 84.3201L47.1149 64.8981" stroke="#2D2D2D" stroke-width="0.655263" stroke-linecap="round" stroke-linejoin="round"/>
<path d="M78.1402 118.782L57.2574 122.468L53.5556 101.518" stroke="#2D2D2D" stroke-width="0.655263" stroke-linecap="round" stroke-linejoin="round"/>
<path d="M152.84 150.225L128.853 14.1926C128.593 12.7094 128.044 11.292 127.235 10.0217C126.426 8.7514 125.375 7.65313 124.141 6.78983C122.908 5.92644 121.516 5.31481 120.046 4.98994C118.576 4.66506 117.056 4.63333 115.573 4.89656L94.832 8.5503M53.788 150.225L44.4379 97.4162M56.6144 15.2829L42.0195 17.8542C40.5358 18.1142 39.1179 18.664 37.8468 19.4723C36.5757 20.2805 35.4764 21.3313 34.6115 22.5646C33.7467 23.7978 33.1334 25.1894 32.8065 26.6599C32.4797 28.1303 32.4459 29.6507 32.7069 31.1342V31.1508L42.9508 89.0105" stroke="#2D2D2D" stroke-width="0.655263" stroke-linecap="round" stroke-linejoin="round"/>
<path d="M150.184 47.9C151.302 47.9 152.375 47.4557 153.166 46.665C153.956 45.8743 154.401 44.8018 154.401 43.6836C154.401 42.5653 153.956 41.4928 153.166 40.7021C152.375 39.9114 151.302 39.4672 150.184 39.4672C149.066 39.4672 147.993 39.9114 147.203 40.7021C146.412 41.4928 145.968 42.5653 145.968 43.6836C145.968 44.8018 146.412 45.8743 147.203 46.665C147.993 47.4557 149.066 47.9 150.184 47.9Z" stroke="#2D2D2D" stroke-width="0.655263" stroke-linecap="round" stroke-linejoin="round"/>
<path d="M162.784 56.5654C163.902 56.5654 164.974 56.1211 165.765 55.3304C166.556 54.5397 167 53.4672 167 52.349C167 51.2307 166.556 50.1583 165.765 49.3675C164.974 48.5768 163.902 48.1326 162.784 48.1326C161.665 48.1326 160.593 48.5768 159.802 49.3675C159.011 50.1583 158.567 51.2307 158.567 52.349C158.567 53.4672 159.011 54.5397 159.802 55.3304C160.593 56.1211 161.665 56.5654 162.784 56.5654Z" stroke="#2D2D2D" stroke-width="0.655263" stroke-linecap="round" stroke-linejoin="round"/>
<path d="M148.624 59.138L164.311 36.728" stroke="#2D2D2D" stroke-width="0.655263" stroke-linecap="round" stroke-linejoin="round"/>
<path d="M164.641 13.1066C164.222 12.8055 163.701 12.682 163.191 12.7628C162.681 12.8436 162.224 13.1222 161.919 13.5382L161.504 14.1026C161.504 14.1026 160.892 13.671 160.873 13.6544C160.553 13.4458 160.178 13.336 159.796 13.3385C159.414 13.3411 159.042 13.4558 158.724 13.6686C158.407 13.8813 158.159 14.1826 158.012 14.535C157.865 14.8875 157.824 15.2754 157.895 15.6507C157.99 16.1537 158.278 16.5993 158.698 16.8914L162.466 19.5308L165.106 15.7626C165.387 15.3457 165.496 14.8361 165.409 14.3408C165.322 13.8455 165.047 13.4031 164.641 13.1066Z" stroke="#2D2D2D" stroke-width="0.655263" stroke-linecap="round" stroke-linejoin="round"/>
<path d="M81.6594 129.19C82.0238 128.432 82.14 127.578 81.9914 126.75C81.9332 126.034 81.7137 125.34 81.3491 124.72C80.9846 124.101 80.4846 123.572 79.8866 123.173C79.2886 122.774 78.6081 122.516 77.8961 122.417C77.184 122.319 76.459 122.383 75.7752 122.604C75.0911 122.825 74.4659 123.198 73.9464 123.695C73.4269 124.192 73.0267 124.8 72.7757 125.474C72.5247 126.147 72.4295 126.869 72.4971 127.585C72.5648 128.3 72.7936 128.991 73.1664 129.606C73.6641 130.429 74.3994 131.082 75.2754 131.479C76.1514 131.876 77.127 131.998 78.0738 131.83C79.0367 131.66 79.9301 131.216 80.6468 130.551L82.7384 131L81.6594 129.19Z" stroke="#2D2D2D" stroke-width="0.655263" stroke-linecap="round" stroke-linejoin="round"/>
<path d="M130.945 123.33L134.564 119.113L139.394 121.836L137.884 113.303L129.434 114.797L130.945 123.33Z" stroke="#2D2D2D" stroke-width="0.655263" stroke-linecap="round" stroke-linejoin="round"/>
<path d="M51.7961 32.0974L57.3789 31.1128" stroke="#2D2D2D" stroke-width="0.655263" stroke-linecap="round" stroke-linejoin="round"/>
<path d="M15.1764 93.3182C15.7268 93.3182 16.2546 93.0996 16.6437 92.7105C17.0328 92.3213 17.2514 91.7935 17.2514 91.2432C17.2514 90.6929 17.0328 90.1651 16.6437 89.776C16.2546 89.3868 15.7268 89.1682 15.1764 89.1682C14.6261 89.1682 14.0983 89.3868 13.7092 89.776C13.3201 90.1651 13.1014 90.6929 13.1014 91.2432C13.1014 91.7935 13.3201 92.3213 13.7092 92.7105C14.0983 93.0996 14.6261 93.3182 15.1764 93.3182Z" stroke="#2D2D2D" stroke-width="0.655263" stroke-linecap="round" stroke-linejoin="round"/>
<path d="M27.5601 91.1266C28.1104 91.1266 28.6382 90.9079 29.0273 90.5188C29.4164 90.1297 29.6351 89.6019 29.6351 89.0516C29.6351 88.5012 29.4164 87.9735 29.0273 87.5843C28.6382 87.1952 28.1104 86.9766 27.5601 86.9766C27.0097 86.9766 26.482 87.1952 26.0928 87.5843C25.7037 87.9735 25.4851 88.5012 25.4851 89.0516C25.4851 89.6019 25.7037 90.1297 26.0928 90.5188C26.482 90.9079 27.0097 91.1266 27.5601 91.1266Z" stroke="#2D2D2D" stroke-width="0.655263" stroke-linecap="round" stroke-linejoin="round"/>
<path d="M17.2016 90.8779L25.5182 89.4171" stroke="#2D2D2D" stroke-width="0.655263" stroke-linecap="round" stroke-linejoin="round"/>
<path d="M1 72.3179L5.5152 71.5211L14.2634 89.3827" stroke="#2D2D2D" stroke-width="0.655263" stroke-linecap="round" stroke-linejoin="round"/>
<path d="M12.7859 86.3782L28.3235 81.946L30.0665 73.5298L8.37035 77.3644" stroke="#2D2D2D" stroke-width="0.655263" stroke-linecap="round" stroke-linejoin="round"/>
<path d="M15.9732 37.0107L17.766 47.1865" stroke="#2D2D2D" stroke-width="0.655263" stroke-linecap="round" stroke-linejoin="round"/>
<path d="M21.9658 41.2111L11.79 43.0039" stroke="#2D2D2D" stroke-width="0.655263" stroke-linecap="round" stroke-linejoin="round"/>
<path d="M156.276 75.9204L159.414 93.782" stroke="#2D2D2D" stroke-width="0.655263" stroke-linecap="round" stroke-linejoin="round"/>
<path d="M166.784 83.2917L148.906 86.4291" stroke="#2D2D2D" stroke-width="0.655263" stroke-linecap="round" stroke-linejoin="round"/>
<path d="M111.34 47.817C111.207 46.5886 110.278 42.6876 110.427 41.7886" stroke="#2D2D2D" stroke-width="0.655263" stroke-linecap="round" stroke-linejoin="round"/>
<path d="M109.016 36.8953C109.16 38.6951 109.686 40.4442 110.56 42.0247C112.006 41.6988 113.394 41.1559 114.677 40.4145C114.475 40.0281 114.314 39.622 114.195 39.2027" stroke="#2D2D2D" stroke-width="0.655263" stroke-linecap="round" stroke-linejoin="round"/>
<path d="M126.994 29.6075C127.127 33.8405 126.463 36.9648 125.268 37.1107C123.741 37.2977 121.914 32.6453 121.184 26.7191C120.454 20.7929 121.101 15.8321 122.628 15.6469C123.84 15.4993 125.234 18.3693 126.114 22.5027" stroke="#2D2D2D" stroke-width="0.655263" stroke-linecap="round" stroke-linejoin="round"/>
<path d="M115.523 30.9179C114.146 29.5567 113.681 25.7387 114.677 23.9957" stroke="#2D2D2D" stroke-width="0.655263" stroke-linecap="round" stroke-linejoin="round"/>
<path d="M105.879 31.4324C104.883 29.7724 104.634 26.6516 105.497 25.1244" stroke="#2D2D2D" stroke-width="0.655263" stroke-linecap="round" stroke-linejoin="round"/>
<path d="M120.87 21.8049C125.069 21.3899 128.688 23.1154 129.004 25.7723C129.319 28.4292 126.248 30.9681 122.065 31.5657" stroke="#2D2D2D" stroke-width="0.655263" stroke-linecap="round" stroke-linejoin="round"/>
<path d="M113.946 31.1184L115.523 30.9192L124.537 36.8786" stroke="#2D2D2D" stroke-width="0.655263" stroke-linecap="round" stroke-linejoin="round"/>
<path d="M121.981 16.0448L114.677 23.9953L104.767 25.2071C100.417 25.7383 100.783 32.2787 105.182 32.1625" stroke="#2D2D2D" stroke-width="0.655263" stroke-linecap="round" stroke-linejoin="round"/>
<path d="M101.745 45.4772C100.119 45.8092 98.9566 46.4898 99.0064 47.104C99.0728 47.9174 101.164 48.6426 106.908 48.3988C111.29 48.2127 114.317 47.0883 114.361 46.1412C114.388 45.576 113.332 45.0622 110.809 44.8796" stroke="#2D2D2D" stroke-width="0.655263" stroke-linecap="round" stroke-linejoin="round"/>
<path d="M69.5082 71.5054C69.8016 71.2793 70.0023 70.9537 70.0726 70.5899C70.1429 70.2262 70.078 69.8493 69.89 69.53C69.1255 68.3287 66.4345 67.7652 62.3038 70.111C58.4831 72.2804 56.6196 75.6974 57.689 77.0664C58.1913 77.7104 59.1332 77.9628 61.0256 77.3818" stroke="#2D2D2D" stroke-width="0.655263" stroke-linecap="round" stroke-linejoin="round"/>
<path d="M66.57 68.5172C68.5122 70.6088 71.1891 73.111 74.0566 75.871C74.5167 76.3508 74.8619 76.9288 75.0661 77.5614C75.2703 78.194 75.3281 78.8648 75.2352 79.523C75.1356 80.9838 74.206 89.4166 74.0566 90.6118C73.8574 92.1049 72.1345 92.9017 72.2472 82.013" stroke="#2D2D2D" stroke-width="0.655263" stroke-linecap="round" stroke-linejoin="round"/>
<path d="M58.0376 74.0612C58.8777 75.4509 60.0021 76.6474 61.337 77.5722C62.672 78.497 64.1873 79.1292 65.7837 79.4273" stroke="#2D2D2D" stroke-width="0.655263" stroke-linecap="round" stroke-linejoin="round"/>
<path d="M66.0894 78.6437C65.9898 78.9591 65.4586 80.2041 65.3905 80.391" stroke="#2D2D2D" stroke-width="0.655263" stroke-linecap="round" stroke-linejoin="round"/>
<path d="M63.2666 78.6774C63.1504 80.022 63.4326 81.6977 64.7108 82.5452C66.2878 83.5936 66.9684 83.093 68.5952 79.607" stroke="#2D2D2D" stroke-width="0.655263" stroke-linecap="round" stroke-linejoin="round"/>
<path d="M66.653 82.7609C68.5122 83.8565 69.3422 83.4914 70.9192 79.8062" stroke="#2D2D2D" stroke-width="0.655263" stroke-linecap="round" stroke-linejoin="round"/>
<path d="M68.977 83.026C70.6702 83.987 71.6662 83.7896 73.2432 79.9218" stroke="#2D2D2D" stroke-width="0.655263" stroke-linecap="round" stroke-linejoin="round"/>
<path d="M68.099 77.2816C69.8844 77.2606 71.6694 77.3481 73.4442 77.5437" stroke="#2D2D2D" stroke-width="0.655263" stroke-linecap="round" stroke-linejoin="round"/>
<path d="M58.4692 56.366C61.1584 59.1871 68.3794 67.7204 69.89 69.4966" stroke="#2D2D2D" stroke-width="0.655263" stroke-linecap="round" stroke-linejoin="round"/>
<path d="M61.009 59.187C62.7852 58.5562 71.55 55.867 74.5878 55.0204C73.8058 56.6482 72.9472 58.238 72.0148 59.7846" stroke="#2D2D2D" stroke-width="0.655263" stroke-linecap="round" stroke-linejoin="round"/>
<path d="M74.2392 89.1346C75.009 93.3164 76.1991 97.4097 77.7916 101.352" stroke="#2D2D2D" stroke-width="0.655263" stroke-linecap="round" stroke-linejoin="round"/>
<path d="M68.7979 56.7482C71.1883 58.7236 76.8987 64.849 80.3847 68.916C77.7632 70.9196 75.7982 73.6589 74.7407 76.7844" stroke="#2D2D2D" stroke-width="0.655263" stroke-linecap="round" stroke-linejoin="round"/>
<path d="M53.788 72.8339C53.456 69.3479 60.179 63.2059 65.6404 64.5339" stroke="#2D2D2D" stroke-width="0.655263" stroke-linecap="round" stroke-linejoin="round"/>
<path d="M102.011 48.3321C101.945 47.2365 101.629 44.6137 101.579 42.4059C101.496 38.7207 101.76 37.8068 102.708 36.028C103.568 34.4006 104.615 32.8797 105.829 31.4962C106.484 30.9239 108.136 30.7701 109.464 30.6496C110.527 30.5535 110.733 30.8794 110.909 31.4796C111.17 32.6503 111.276 33.8499 111.224 35.0486C111.189 36.0612 110.062 37.2564 109.016 33.1265C109.547 35.5999 109.298 37.757 107.34 39.0675" stroke="#2D2D2D" stroke-width="0.655263" stroke-linecap="round" stroke-linejoin="round"/>
<path d="M114.179 34.9523C115.059 35.2677 115.067 36.4751 114.146 37.0937C113.432 37.5659 112.629 37.8878 111.787 38.0399C110.439 38.2915 109.363 37.1933 111.322 35.9483" stroke="#2D2D2D" stroke-width="0.655263" stroke-linecap="round" stroke-linejoin="round"/>
<path d="M114.142 37.0941C114.337 37.1883 114.502 37.3343 114.619 37.5161C114.736 37.698 114.8 37.9085 114.806 38.1247C114.811 38.3409 114.756 38.5543 114.648 38.7415C114.54 38.9287 114.382 39.0824 114.192 39.1857C113.547 39.5969 112.823 39.8683 112.067 39.9825C110.805 40.1782 109.942 39.1193 111.785 38.0403" stroke="#2D2D2D" stroke-width="0.655263" stroke-linecap="round" stroke-linejoin="round"/>
<path d="M111.025 31.8148C111.777 31.3671 112.625 31.1064 113.498 31.0547C114.726 30.9822 114.826 32.6273 113.648 33.0965C112.881 33.4431 112.062 33.6618 111.224 33.7439" stroke="#2D2D2D" stroke-width="0.655263" stroke-linecap="round" stroke-linejoin="round"/>
<path d="M114.029 32.8601C114.909 33.2253 114.909 34.4869 113.946 35.1177C113.465 35.4331 111.954 36.1661 110.925 35.8647" stroke="#2D2D2D" stroke-width="0.655263" stroke-linecap="round" stroke-linejoin="round"/>
<path d="M90.7064 45.2281C93.462 47.8011 96.4334 50.0588 96.6824 65.779C127.127 82.2296 127.807 85.8318 127.492 92.7706C127.193 99.3442 124.969 119.231 124.085 124.178C120.366 125.904 112.099 124.908 107.617 121.173C108.182 116.193 110.273 98.2154 110.439 96.3605C107.634 95.6799 97.5578 93.0405 96.2962 92.7251" stroke="#2D2D2D" stroke-width="0.655263" stroke-linecap="round" stroke-linejoin="round"/>
<path d="M108.302 115.429C111.29 118.733 120.022 120.459 124.902 118.517" stroke="#2D2D2D" stroke-width="0.655263" stroke-linecap="round" stroke-linejoin="round"/>
<path d="M97.2635 80.5189C96.8651 85.1494 95.233 107.244 94.5909 112.939C93.6377 121.387 87.1645 124.637 77.9245 118.666C70.1329 113.629 51.9621 100.406 50.0863 98.9283C50.0425 96.0775 50.7825 93.2694 52.2257 90.8104C53.6689 88.3515 55.7597 86.3361 58.2701 84.9843C63.3663 87.9391 72.4465 93.4337 75.6669 95.2064" stroke="#2D2D2D" stroke-width="0.655263" stroke-linecap="round" stroke-linejoin="round"/>
<path d="M54.2529 102.016C54.2031 97.0026 57.855 89.7152 63.1338 87.8726" stroke="#2D2D2D" stroke-width="0.655263" stroke-linecap="round" stroke-linejoin="round"/>
<path d="M80.3812 68.9166C85.7264 70.6098 94.4248 69.564 96.6824 65.7958" stroke="#2D2D2D" stroke-width="0.655263" stroke-linecap="round" stroke-linejoin="round"/>
<path d="M82.7218 69.4468C76.5466 78.693 78.5054 93.1516 81.6096 108.507C71.9484 102.347 59.6312 94.9278 57.0905 93.135" stroke="#2D2D2D" stroke-width="0.655263" stroke-linecap="round" stroke-linejoin="round"/>
<path d="M109.249 122.317C108.386 125.026 106.71 126.816 106.112 128.16C108.702 133.589 118.994 142.735 124.92 146.321C124.538 136.448 118.313 131.48 118.877 125.023" stroke="#2D2D2D" stroke-width="0.655263" stroke-linecap="round" stroke-linejoin="round"/>
<path d="M56.9088 85.7807C55.5642 84.7183 54.6014 83.6061 53.7548 83.0251C47.9614 84.6353 35.196 93.8815 32.6562 98.4631C40.176 99.5116 45.4548 96.6205 50.3046 95.9565" stroke="#2D2D2D" stroke-width="0.655263" stroke-linecap="round" stroke-linejoin="round"/>
<path d="M114.361 46.1577C114.577 70.8751 114.129 73.4167 112.22 74.6267" stroke="#2D2D2D" stroke-width="0.655263" stroke-linecap="round" stroke-linejoin="round"/>
<path d="M99.0064 47.1194C99.687 50.9706 101.297 61.495 101.862 64.1178" stroke="#2D2D2D" stroke-width="0.655263" stroke-linecap="round" stroke-linejoin="round"/>
<path d="M100.036 53.3113C103.967 54.9381 112.286 54.6393 114.411 51.9135" stroke="#2D2D2D" stroke-width="0.655263" stroke-linecap="round" stroke-linejoin="round"/>
<path d="M96.7654 86.7954C100.467 90.3897 104.611 93.4969 109.099 96.0416" stroke="#2D2D2D" stroke-width="0.655263" stroke-linecap="round" stroke-linejoin="round"/>
<path d="M69.3755 91.5574C71.647 93.8482 74.5049 96.8196 77.2107 99.8408" stroke="#2D2D2D" stroke-width="0.655263" stroke-linecap="round" stroke-linejoin="round"/>
<path d="M96.4335 60.1007C97.2107 62.492 98.1252 64.8365 99.1725 67.1225" stroke="#2D2D2D" stroke-width="0.655263" stroke-linecap="round" stroke-linejoin="round"/>
<path d="M83.6025 33.4134C82.9983 33.1494 82.4105 32.8494 81.8421 32.5153C82.2603 33.5452 82.8655 34.4889 83.627 35.2988" stroke="#2D2D2D" stroke-width="0.655263" stroke-linecap="round" stroke-linejoin="round"/>
<path d="M57.5998 76.9394C51.7112 70.7476 48.8071 66.9855 45.903 63.3885C41.255 57.6283 44.0263 52.8956 50.053 48.9963C56.3435 44.9276 65.2551 42.2349 72.5128 39.4015C77.9226 37.289 79.2026 33.1931 80.2816 28.9269C77.277 27.9659 78.5849 24.9648 80.099 26.1215C81.5397 27.2215 81.06 25.7231 80.929 24.1461C82.8609 23.5906 84.8484 23.251 86.8552 23.1335C89.8336 32.143 88.5746 35.5521 83.6024 33.4107C83.2818 37.6044 85.3419 39.4994 87.4362 40.6623C90.474 42.3555 95.5702 45.1111 99.7036 51.2863" stroke="#2D2D2D" stroke-width="0.655263" stroke-linecap="round" stroke-linejoin="round"/>
<path d="M71.5832 39.7657C76.613 41.4257 83.4653 45.7583 87.0544 48.6135C87.8502 46.2114 88.2917 43.7062 88.365 41.1767" stroke="#2D2D2D" stroke-width="0.655263" stroke-linecap="round" stroke-linejoin="round"/>
<path d="M65.8396 41.8883C65.2168 41.5742 64.73 41.0437 64.4704 40.3963C64.2108 39.7489 64.1963 39.0291 64.4294 38.3717C61.6738 39.5005 59.5656 36.6785 61.1094 34.0907C58.3372 34.6219 56.1792 30.9201 58.2044 28.6625C55.3824 28.2143 54.7971 24.9773 57.1752 23.3505C55.15 21.9526 54.7018 18.9349 57.806 17.8393C55.6812 15.9172 56.395 12.7265 59.6984 12.2477C58.6194 9.90709 61.0264 6.30664 63.63 7.76569C63.3976 4.97689 66.8006 2.13829 69.309 4.7078C69.0268 2.0186 73.0772 0.673996 74.9198 3.0312C75.3182 0.275596 79.6674 0.358596 80.2816 3.0976C82.5392 0.476543 85.5237 1.4542 86.1414 4.14602C87.6022 2.32002 90.9056 3.49862 90.8392 6.22102C93.4602 5.10882 95.1202 6.70242 94.7402 9.12602C97.6784 8.71102 98.8238 11.3836 97.3962 13.2926C99.9526 13.1598 100.55 16.6624 98.525 17.675C100.534 18.374 101.779 21.7752 98.9566 22.8044C99.2618 22.9705 99.5245 23.2047 99.7245 23.4888C99.9244 23.773 100.056 24.0994 100.109 24.4428C100.163 24.7861 100.136 25.1371 100.032 25.4685C99.927 25.7998 99.7475 26.1026 99.507 26.3533C99.1844 26.6887 98.766 26.916 98.3092 27.0042C100.102 27.9836 100.202 30.4116 97.7448 30.9882C99.2886 32.5154 98.9068 35.7061 96.0184 35.7358C96.2242 36.322 96.2412 36.958 96.0671 37.5543C95.893 38.1507 95.5365 38.6776 95.0477 39.0611C94.5581 39.4437 93.9609 39.6634 93.3401 39.6892C92.7192 39.7151 92.1059 39.5458 91.5862 39.2052C91.7066 39.8135 91.5897 40.4448 91.2594 40.9695C90.9291 41.4943 90.4105 41.8727 89.81 42.0272" stroke="#2D2D2D" stroke-width="0.655263" stroke-linecap="round" stroke-linejoin="round"/>
<path d="M64.4452 134.237L59.4818 130.751C58.9379 130.356 58.5708 129.763 58.4596 129.101C58.3483 128.438 58.5018 127.758 58.8869 127.207C59.2721 126.656 59.8581 126.278 60.5188 126.155C61.1796 126.032 61.8623 126.173 62.42 126.549L63.1836 127.08L63.7148 126.316C64.1108 125.776 64.7028 125.412 65.364 125.302C66.0252 125.193 66.7029 125.347 67.252 125.731C67.8012 126.115 68.178 126.699 68.3018 127.358C68.4257 128.016 68.2866 128.697 67.9146 129.254L64.4452 134.237Z" stroke="#2D2D2D" stroke-width="0.655263" stroke-linejoin="round"/>
</svg>
