<svg width="147" height="174" viewBox="0 0 147 174" fill="none" xmlns="http://www.w3.org/2000/svg">
<path d="M112.589 120.822C105.847 120.459 94.1783 120.207 91.8733 119.994C90.6876 114.559 88.7778 105.952 88.0209 101.913C88.0337 101.905 88.0461 101.897 88.0582 101.888C92.7364 98.8666 96.9313 90.5976 90.216 78.9451C81.2674 79.0205 73.0584 81.0284 65.4954 85.6776C65.6853 87.3867 65.8407 88.8368 65.927 89.7862C44.4346 99.508 40.2915 102.371 39.4974 107.187C38.5752 112.812 43.477 120.843 57.8134 144.51C63.2649 145.782 71.5684 142.665 73.4882 137.708C71.2949 133.277 63.6846 117.943 61.2833 113.661C67.7551 111.299 75.2754 108.368 81.4791 105.383C78.9424 107.823 73.9007 112.959 72.0726 115.128C74.7311 123.242 77.8385 132.664 81.2048 134.221C85.1362 136.038 86.9479 136.569 112.572 136.569C115.513 133.931 114.854 124.643 112.589 120.822Z" fill="#C7CDA7"/>
<path d="M31.6254 21.7329C30.9544 22.9677 30.3098 24.2167 29.692 25.479C25.0482 35.0599 24.1333 41.3955 24.1497 46.1255C24.1669 48.456 24.3913 50.3895 24.5131 52.1503V52.1676C24.8411 52.3574 25.1491 52.5473 25.5316 52.7718C26.2221 51.6815 26.7918 51.8913 28.4836 52.72C30.8141 53.8593 31.0385 53.9629 31.2093 55.6029C31.2266 55.81 31.2438 55.9999 31.2784 56.1898C32.9011 55.2749 34.7482 54.36 36.8543 53.0098C40.8421 50.4376 45.6412 46.2255 51.1135 37.0933C51.8041 35.9367 52.5118 34.731 53.2196 33.4163L31.6254 21.7329ZM38.5997 40.6359L37.4949 45.8838L35.0989 41.0847L29.7819 41.6889L33.598 37.9083L31.3883 33.0229L36.1529 35.4761L40.1061 31.8854L39.243 37.1851L43.904 39.8263L38.5997 40.6359Z" fill="#C7CDA7"/>
<path d="M120.875 14.6202C120.858 15.4257 120.858 16.2315 120.875 17.037C122.032 16.6917 122.567 16.2774 122.653 15.8631C122.811 15.1181 121.362 14.523 120.875 14.6202Z" fill="#5F6342"/>
<path d="M114.954 122.238C114.407 122.224 113.861 122.253 113.318 122.324C114.838 126.087 114.924 131.922 113.682 134.961C115.681 137.636 121.587 141.676 126.18 142.902C125.847 135.686 118.13 125.173 114.954 122.238Z" fill="#5F6342"/>
<path d="M110.724 14.9997C110.429 14.9906 109.271 15.2214 109.271 16.0173C109.271 16.4498 109.806 16.9331 111.118 17.2611C111.259 16.4842 111.12 15.6832 110.724 14.9997Z" fill="#5F6342"/>
<path d="M91.0274 63.1465C91.2691 66.72 91.6489 70.9839 91.6489 73.9359C92.9609 69.3267 94.5663 63.7507 95.4985 60.6606L91.0274 63.1465Z" fill="#5F6342"/>
<path d="M84.174 28.6201C84.174 27.4462 82.6548 27.0491 81.8435 28.3266C81.7744 27.2218 79.9791 26.9637 79.0987 28.4647C78.9088 27.2736 76.889 27.5325 76.1812 28.879C75.9741 27.826 74.2478 28.4129 73.9543 29.9839C73.6436 31.6411 73.3674 33.143 73.1775 34.4895C75.4082 33.8337 77.723 33.508 80.0481 33.5228C79.5648 35.3526 79.7756 37.8212 80.566 36.1467C81.3429 34.4722 83.3281 35.7324 81.9289 37.9248C81.7037 38.3788 81.6118 38.8874 81.6637 39.3915C81.7156 39.8956 81.9093 40.3747 82.2224 40.7732C82.4295 37.1653 85.2261 32.487 86.0893 30.5881C87.2641 28.0159 85.486 27.3254 84.174 28.6201Z" fill="#5F6342"/>
<path d="M70.4326 110.171C70.9505 111.707 71.5029 113.382 72.0681 115.125C74.1051 112.709 79.9918 106.995 82.1151 105.078C78.4081 106.891 74.3495 108.635 70.4326 110.171Z" fill="#5F6342"/>
<path d="M76.8935 44.0538C76.8797 44.841 76.8047 45.6259 76.6691 46.4015C77.8639 45.5596 78.7924 44.393 79.3449 43.0398C78.5553 43.4414 77.7358 43.7803 76.8935 44.0538Z" fill="#5F6342"/>
<path d="M72.6768 139.242C73.4992 139.88 74.2514 140.603 74.921 141.4C70.916 150.894 62.3363 158.887 58.9528 161.01C59.2907 155.435 60.4423 149.939 62.3708 144.697C66.255 144.179 70.6244 142.211 72.6768 139.242Z" fill="#5F6342"/>
<path d="M63.5447 69.052C61.7666 71.1926 56.8294 76.4924 52.2029 79.5479C56.3044 78.2229 60.3126 76.6248 64.2007 74.7642C63.9751 72.8609 63.7564 70.9569 63.5447 69.052Z" fill="#5F6342"/>
<path d="M33.628 58.0714C33.2482 57.8469 32.5922 58.1232 32.1089 58.8309C32.5064 59.5448 33.149 60.0906 33.9178 60.3673C34.1977 59.0208 34.0087 58.2958 33.628 58.0714Z" fill="#5F6342"/>
<path d="M29.433 69.1022C28.6389 69.9999 28.0338 70.2607 27.6377 70.138C27.0844 69.9672 27.0162 68.9296 27.3442 67.842C28.052 68.2564 28.7598 68.6707 29.433 69.1022Z" fill="#5F6342"/>
<path d="M16.365 133.286C17.0532 133.295 17.7364 133.168 18.3748 132.911C19.0133 132.654 19.5943 132.272 20.0842 131.789C20.5741 131.305 20.9631 130.729 21.2286 130.094C21.4941 129.459 21.6308 128.778 21.6308 128.09C21.6308 127.401 21.4941 126.72 21.2286 126.085C20.9631 125.45 20.5741 124.874 20.0842 124.391C19.5943 123.907 19.0133 123.526 18.3748 123.269C17.7364 123.012 17.0532 122.884 16.365 122.893C14.9987 122.911 13.6944 123.467 12.7346 124.439C11.7748 125.412 11.2366 126.723 11.2366 128.09C11.2366 129.456 11.7748 130.768 12.7346 131.74C13.6944 132.713 14.9987 133.268 16.365 133.286Z" fill="#5F6342"/>
<path d="M24.5131 66.2023C24.5476 64.6305 25.2899 62.9569 26.5119 60.6782C26.2578 59.8357 26.1934 58.9475 26.3233 58.0772C26.4532 57.2069 26.7742 56.3761 27.2633 55.6447C26.9536 56.1235 26.5929 56.5674 26.1876 56.9685C26.7055 58.0215 25.8596 59.627 24.3577 58.8674L24.5649 59.1945C26.3947 60.2303 25.1863 62.5789 23.2356 61.6476L23.599 61.9765C25.3944 62.926 24.2723 65.222 22.3388 64.3752C21.493 63.9963 20.8024 63.7201 20.2328 63.4784C18.7481 64.6687 16.901 64.9458 13.8282 64.5142L27.1552 71.7301C25.2554 69.5677 24.4613 67.9459 24.5131 66.2023Z" fill="#5F6342"/>
<path d="M13.3821 64.2773L10.1367 68.5249L25.8287 77.0356L27.6241 71.9939L13.3821 64.2773Z" fill="#5F6342"/>
<path d="M29.4331 69.1029C27.7976 68.0326 25.9114 67.0832 24.4958 66.1682" stroke="#2D2D2D" stroke-width="0.681434" stroke-linecap="round" stroke-linejoin="round"/>
<path d="M73.1084 35.0426L69.863 1L44.7626 63.9408" stroke="#2D2D2D" stroke-width="0.681434" stroke-linecap="round" stroke-linejoin="round"/>
<path d="M74.6448 51.3043L73.9543 43.8984" stroke="#2D2D2D" stroke-width="0.681434" stroke-linecap="round" stroke-linejoin="round"/>
<path d="M110.949 120.736L134.547 61.559L93.0989 68.8785" stroke="#2D2D2D" stroke-width="0.681434" stroke-linecap="round" stroke-linejoin="round"/>
<path d="M86.2628 135.79L89.8707 173.63L104.665 136.532" stroke="#2D2D2D" stroke-width="0.681434" stroke-linecap="round" stroke-linejoin="round"/>
<path d="M39.5147 77.0957L25.1691 113.072L39.5319 110.534" stroke="#2D2D2D" stroke-width="0.681434" stroke-linecap="round" stroke-linejoin="round"/>
<path d="M29.7092 25.5135L20.7325 20.6626C13.5547 33.9206 20.111 43.9676 24.1678 46.16" stroke="#2D2D2D" stroke-width="0.681434" stroke-linecap="round" stroke-linejoin="round"/>
<path d="M35.1126 41.1025L29.7956 41.6894L33.5934 37.9261L31.3838 33.0407L36.1483 35.492L40.1016 31.884L39.2384 37.1665L43.8994 39.825L38.5997 40.6364L37.5294 45.8843L35.1126 41.1025Z" stroke="#2D2D2D" stroke-width="0.681434" stroke-linecap="round" stroke-linejoin="round"/>
<path d="M51.1753 37.1161L60.0921 41.9652C52.9071 55.2231 40.9139 55.2231 36.8734 53.0307" stroke="#2D2D2D" stroke-width="0.681434" stroke-linecap="round" stroke-linejoin="round"/>
<path d="M23.5 147.859C29.1241 147.859 33.6843 143.3 33.6843 137.675C33.6843 132.05 29.1241 127.491 23.5 127.491C17.8759 127.491 13.3158 132.05 13.3158 137.675C13.3158 143.3 17.875 147.859 23.5 147.859Z" stroke="#2D2D2D" stroke-width="0.681434" stroke-linecap="round" stroke-linejoin="round"/>
<path d="M134.582 36.5447C135.415 36.5447 136.214 36.2137 136.804 35.6245C137.393 35.0353 137.724 34.2361 137.724 33.4028C137.724 32.5696 137.393 31.7704 136.804 31.1812C136.214 30.592 135.415 30.261 134.582 30.261C133.749 30.261 132.949 30.592 132.36 31.1812C131.771 31.7704 131.44 32.5696 131.44 33.4028C131.44 34.2361 131.771 35.0353 132.36 35.6245C132.949 36.2137 133.749 36.5447 134.582 36.5447Z" stroke="#2D2D2D" stroke-width="0.681434" stroke-linecap="round" stroke-linejoin="round"/>
<path d="M12.5671 88.8689C12.9929 88.8689 13.4013 88.6997 13.7024 88.3986C14.0034 88.0976 14.1726 87.6892 14.1726 87.2634C14.1726 86.8376 14.0034 86.4293 13.7024 86.1282C13.4013 85.8271 12.9929 85.658 12.5671 85.658C12.1413 85.658 11.733 85.8271 11.4319 86.1282C11.1308 86.4293 10.9617 86.8376 10.9617 87.2634C10.9617 87.6892 11.1308 88.0976 11.4319 88.3986C11.733 88.6997 12.1413 88.8689 12.5671 88.8689Z" stroke="#2D2D2D" stroke-width="0.681434" stroke-linecap="round" stroke-linejoin="round"/>
<path d="M94.6698 10.0116L93.0644 16.4334L97.9326 15.5703L96.3271 21.9921" stroke="#2D2D2D" stroke-width="0.681434" stroke-linecap="round" stroke-linejoin="round"/>
<path d="M23.2184 61.6275C25.1719 62.5542 26.3757 60.2146 24.5477 59.1743C23.1848 58.3993 22.1999 57.9132 21.0951 57.3444C20.7659 57.1544 20.3761 57.0986 20.0068 57.1887C19.6376 57.2788 19.3173 57.5078 19.1127 57.8281C18.908 58.1485 18.8348 58.5353 18.9082 58.9083C18.9817 59.2812 19.1961 59.6115 19.5069 59.8303C20.3864 60.3854 21.4258 60.777 23.2184 61.6275Z" stroke="#2D2D2D" stroke-width="0.681434" stroke-linecap="round" stroke-linejoin="round"/>
<path d="M25.5489 52.7893C24.8583 52.375 24.3595 52.0952 23.6844 51.699C23.3662 51.477 22.9729 51.3904 22.5909 51.4584C22.2088 51.5264 21.8695 51.7434 21.6474 52.0616C21.4254 52.3798 21.3388 52.7732 21.4068 53.1552C21.4748 53.5372 21.6917 53.8766 22.0099 54.0986C22.7483 54.5913 23.5214 55.0298 24.3232 55.4106" stroke="#2D2D2D" stroke-width="0.681434" stroke-linecap="round" stroke-linejoin="round"/>
<path d="M22.3552 64.3726C24.2714 65.2185 25.3926 62.9252 23.5982 61.9731C22.268 61.2671 21.2822 60.8219 20.2146 60.3158C19.8925 60.1348 19.5127 60.0859 19.1552 60.1793C18.7977 60.2727 18.4904 60.5012 18.298 60.8166C18.1056 61.1321 18.0431 61.5099 18.1237 61.8705C18.2043 62.2311 18.4216 62.5463 18.73 62.7499C19.5932 63.2496 20.5944 63.5958 22.3552 64.3726Z" stroke="#2D2D2D" stroke-width="0.681434" stroke-linecap="round" stroke-linejoin="round"/>
<path d="M24.2869 55.4818C23.5791 55.102 22.954 54.8158 22.2671 54.4461C21.9375 54.2414 21.5412 54.173 21.162 54.2553C20.7828 54.3376 20.4505 54.564 20.2353 54.8869C20.0201 55.2097 19.9388 55.6036 20.0087 55.9852C20.0786 56.3668 20.2942 56.7063 20.6099 56.9319C21.5066 57.5207 22.5297 57.9432 24.335 58.8481C25.8396 59.6013 26.6828 58.0022 26.1649 56.9492" stroke="#2D2D2D" stroke-width="0.681434" stroke-linecap="round" stroke-linejoin="round"/>
<path d="M32.0915 58.831C32.5922 58.1233 33.2445 57.8534 33.6279 58.0715C34.3121 58.4622 34.3693 60.4538 32.2469 64.6487C29.9845 69.1198 28.3963 70.3836 27.6204 70.1383C27.0844 69.9684 26.9989 68.9126 27.3269 67.8423" stroke="#2D2D2D" stroke-width="0.681434" stroke-linecap="round" stroke-linejoin="round"/>
<path d="M33.9177 60.368C32.7439 59.8846 31.5554 59.0233 31.2247 55.6034C31.0639 53.968 30.8286 53.8589 28.499 52.7205C25.7732 51.3894 25.9268 51.6302 23.8725 56.4665C23.3673 57.6559 25.219 58.8834 27.3596 55.4308C25.6851 58.072 25.9968 60.7005 27.5322 62.3705" stroke="#2D2D2D" stroke-width="0.681434" stroke-linecap="round" stroke-linejoin="round"/>
<path d="M117.507 8.02664C117.336 10.1845 114.719 10.2536 114.728 8.16475C114.734 6.61108 114.8 5.50625 114.866 4.26331C114.975 2.19175 117.738 2.20902 117.8 3.91805C117.84 4.95383 117.666 6.0414 117.507 8.02664Z" stroke="#2D2D2D" stroke-width="0.681434" stroke-linecap="round" stroke-linejoin="round"/>
<path d="M108.722 6.43948C108.705 5.67991 108.716 5.12568 108.705 4.40063C108.673 2.43265 111.477 2.34361 111.605 3.98632C111.664 4.82494 111.664 5.66719 111.605 6.50672" stroke="#2D2D2D" stroke-width="0.681434" stroke-linecap="round" stroke-linejoin="round"/>
<path d="M120.478 8.52665C120.262 10.6336 117.724 10.6327 117.802 8.5957C117.86 7.09382 117.955 6.02352 118.044 4.83237C118.194 2.8335 120.875 2.91618 120.875 4.5598C120.875 5.55742 120.675 6.61137 120.478 8.52665Z" stroke="#2D2D2D" stroke-width="0.681434" stroke-linecap="round" stroke-linejoin="round"/>
<path d="M111.674 6.48996C111.691 5.6786 111.759 4.98808 111.778 4.21125C111.827 2.10516 114.639 2.07064 114.747 3.79694C114.813 4.85089 114.66 5.95481 114.557 7.9764C114.563 8.2779 114.472 8.57343 114.298 8.81934C114.123 9.06524 113.874 9.24848 113.587 9.34199C113.301 9.43514 112.991 9.43329 112.706 9.33671C112.42 9.24014 112.173 9.05399 112.002 8.80593" stroke="#2D2D2D" stroke-width="0.681434" stroke-linecap="round" stroke-linejoin="round"/>
<path d="M110.707 15.0001C109.844 15.1382 109.292 15.5525 109.292 15.9841C109.292 16.761 110.966 17.6904 115.644 17.6068C120.616 17.516 122.5 16.6401 122.67 15.846C122.793 15.2763 122.066 14.7557 120.979 14.5858" stroke="#2D2D2D" stroke-width="0.681434" stroke-linecap="round" stroke-linejoin="round"/>
<path d="M111.139 17.2447C111.294 15.9845 111.132 14.5608 108.359 12.7736C107.027 11.915 107.046 11.6515 107.22 9.07931C107.425 6.04103 107.549 6.29725 112.744 6.55892C114.022 6.62343 114.16 8.82037 110.12 9.23468C113.228 8.88942 115.351 10.305 116.026 12.3938" stroke="#2D2D2D" stroke-width="0.681434" stroke-linecap="round" stroke-linejoin="round"/>
<path d="M120.892 17.0201C120.789 13.464 121.165 7.73266 120.892 4.97058" stroke="#2D2D2D" stroke-width="0.681434" stroke-linecap="round" stroke-linejoin="round"/>
<path d="M109.292 16.0016C109.326 20.3173 109.292 31.3656 108.998 36.5273C107.635 37.425 96.8804 42.7965 92.2703 44.9343C88.0972 46.8705 84.5692 46.4698 82.9256 43.8386C80.6541 40.2043 84.5329 34.0923 86.1056 30.5888C87.2622 28.0166 85.5014 27.3261 84.1894 28.6208C84.1894 27.4642 82.6703 27.0499 81.8589 28.3274C81.7726 27.2225 79.9772 26.9645 79.1141 28.4655C78.9069 27.2916 76.9044 27.5505 76.1967 28.8798C75.9895 27.844 74.275 28.4255 73.9697 29.9846C71.2285 43.9413 72.8794 46.2482 79.373 43.0354C78.8206 44.3886 77.892 45.5552 76.6973 46.3972" stroke="#2D2D2D" stroke-width="0.681434" stroke-linecap="round" stroke-linejoin="round"/>
<path d="M122.67 15.8639C122.67 40.1874 122.935 41.3813 121.652 43.7781C119.95 46.9582 116.594 48.9398 91.0274 63.1472C91.2863 66.7206 91.6488 70.9846 91.6488 73.9366" stroke="#2D2D2D" stroke-width="0.681434" stroke-linecap="round" stroke-linejoin="round"/>
<path d="M33.6279 58.0718C39.3247 61.4899 47.0585 65.0115 48.0253 65.4604C52.341 63.6995 66.6157 57.2577 72.466 53.4108C75.8832 51.1648 76.8681 46.5229 76.8853 44.037" stroke="#2D2D2D" stroke-width="0.681434" stroke-linecap="round" stroke-linejoin="round"/>
<path d="M72.4697 53.4251C74.7311 55.8074 83.4834 54.1519 85.7449 45.9502" stroke="#2D2D2D" stroke-width="0.681434" stroke-linecap="round" stroke-linejoin="round"/>
<path d="M73.1774 34.4907C75.4089 33.8382 77.7232 33.5126 80.0481 33.524C79.5647 35.3711 79.7755 37.857 80.566 36.1479C81.3565 34.4389 83.3362 35.7563 81.9289 37.926C81.7 38.3791 81.6059 38.8883 81.658 39.3933C81.71 39.8982 81.9059 40.3775 82.2223 40.7744" stroke="#2D2D2D" stroke-width="0.681434" stroke-linecap="round" stroke-linejoin="round"/>
<path d="M58.642 114.608C66.4449 111.811 79.2231 107.086 87.6956 102.126C92.4966 99.3162 97.1212 90.9055 90.2333 78.9422C91.528 74.3993 94.1865 65.0282 95.503 60.6616" stroke="#2D2D2D" stroke-width="0.681434" stroke-linecap="round" stroke-linejoin="round"/>
<path d="M74.4031 85.9685C45.4704 98.8467 40.4014 101.782 39.4974 107.185C38.726 111.795 40.6885 116.42 57.8134 144.527C62.578 145.822 71.5202 142.939 73.4882 137.713C68.3438 127.264 62.9923 116.725 61.2833 113.666" stroke="#2D2D2D" stroke-width="0.681434" stroke-linecap="round" stroke-linejoin="round"/>
<path d="M70.4499 110.171C73.4191 118.837 77.1307 132.319 81.222 134.218C85.3133 136.117 86.9015 136.497 112.568 136.566C115.14 134.598 115.226 125.052 112.568 120.805C105.754 120.425 94.321 120.201 91.8869 119.976C90.6957 114.452 88.7977 105.803 88.0709 101.868" stroke="#2D2D2D" stroke-width="0.681434" stroke-linecap="round" stroke-linejoin="round"/>
<path d="M72.6768 139.242C73.8988 140.255 75.0099 141.395 75.9913 142.643C73.9197 148.426 65.7244 159.37 58.9873 163.531C58.5902 159.06 60.2475 150.014 62.3535 144.697" stroke="#2D2D2D" stroke-width="0.681434" stroke-linecap="round" stroke-linejoin="round"/>
<path d="M107.22 120.581C109.499 123.136 110.621 131.854 106.875 136.549" stroke="#2D2D2D" stroke-width="0.681434" stroke-linecap="round" stroke-linejoin="round"/>
<path d="M54.7061 139.415C59.954 140.571 68.2439 138.465 70.8987 132.475" stroke="#2D2D2D" stroke-width="0.681434" stroke-linecap="round" stroke-linejoin="round"/>
<path d="M58.9182 161.01C62.2672 158.904 70.8987 150.894 74.9037 141.385" stroke="#2D2D2D" stroke-width="0.681434" stroke-linecap="round" stroke-linejoin="round"/>
<path d="M113.314 122.307C114.352 122.187 115.4 122.187 116.439 122.307C119.356 124.67 127.504 134.443 127.608 143.196C122.912 142.56 115.921 137.93 113.676 134.944" stroke="#2D2D2D" stroke-width="0.681434" stroke-linecap="round" stroke-linejoin="round"/>
<path d="M114.954 122.238C118.134 125.173 125.83 135.685 126.175 142.902" stroke="#2D2D2D" stroke-width="0.681434" stroke-linecap="round" stroke-linejoin="round"/>
<path d="M63.1822 65.4602C63.631 70.829 65.5445 85.3817 65.9079 89.7665" stroke="#2D2D2D" stroke-width="0.681434" stroke-linecap="round" stroke-linejoin="round"/>
<path d="M90.2333 78.9424C80.4624 79.0114 72.4179 81.4282 65.4954 85.6749" stroke="#2D2D2D" stroke-width="0.681434" stroke-linecap="round" stroke-linejoin="round"/>
<path d="M65.1329 138.051C61.3696 130.749 53.5667 114.09 51.8922 110.603C59.6951 106.667 79.5303 98.4151 82.9483 96.2918C86.3664 94.1684 87.7129 91.4409 84.0877 79.3223" stroke="#2D2D2D" stroke-width="0.681434" stroke-linecap="round" stroke-linejoin="round"/>
<path d="M27.6377 70.1426C43.9857 80.0297 46.6106 81.1019 50.701 79.9779C55.3322 78.6013 59.8463 76.8579 64.2007 74.7645" stroke="#2D2D2D" stroke-width="0.681434" stroke-linecap="round" stroke-linejoin="round"/>
<path d="M52.2029 79.5469C56.814 76.4914 61.7666 71.1744 63.5447 69.0529" stroke="#2D2D2D" stroke-width="0.681434" stroke-linecap="round" stroke-linejoin="round"/>
<path d="M72.0899 115.125C74.1269 112.709 80.0136 107.012 82.1369 105.078" stroke="#2D2D2D" stroke-width="0.681434" stroke-linecap="round" stroke-linejoin="round"/>
<path d="M6.42151 39.2892L7.02026 42.6736" stroke="#2D2D2D" stroke-width="0.681434" stroke-linecap="round" stroke-linejoin="round"/>
<path d="M14.1716 44.7107L10.7872 45.3094" stroke="#2D2D2D" stroke-width="0.681434" stroke-linecap="round" stroke-linejoin="round"/>
<path d="M8.75018 52.4623L8.15143 49.0769" stroke="#2D2D2D" stroke-width="0.681434" stroke-linecap="round" stroke-linejoin="round"/>
<path d="M1 47.0397L4.38627 46.4401" stroke="#2D2D2D" stroke-width="0.681434" stroke-linecap="round" stroke-linejoin="round"/>
<path d="M10.7872 45.3095C10.367 45.3841 9.93613 45.3751 9.51939 45.2829C9.10265 45.1908 8.70819 45.0173 8.3586 44.7725C8.00901 44.5276 7.71117 44.2162 7.48213 43.8561C7.25309 43.4959 7.09736 43.0941 7.02385 42.6737C7.09876 43.0941 7.08999 43.5252 6.99805 43.9422C6.9061 44.3592 6.73278 44.754 6.48802 45.1039C6.24326 45.4538 5.93186 45.752 5.57168 45.9814C5.21149 46.2108 4.80958 46.3669 4.38898 46.4407C4.80926 46.3659 5.24017 46.3748 5.65702 46.4668C6.07387 46.5588 6.46847 46.7322 6.81823 46.9769C7.16798 47.2217 7.466 47.533 7.69524 47.8932C7.92447 48.2533 8.08041 48.6551 8.15412 49.0755C8.07945 48.6553 8.08834 48.2245 8.18029 47.8078C8.27223 47.391 8.44543 46.9965 8.68998 46.6467C8.93452 46.2969 9.24562 45.9988 9.60548 45.7693C9.96533 45.5399 10.3669 45.3836 10.7872 45.3095Z" stroke="#2D2D2D" stroke-width="0.681434" stroke-linecap="round" stroke-linejoin="round"/>
<path d="M134.565 90.526L135.422 95.3796" stroke="#2D2D2D" stroke-width="0.681434" stroke-linecap="round" stroke-linejoin="round"/>
<path d="M145.677 98.3009L140.824 99.1586" stroke="#2D2D2D" stroke-width="0.681434" stroke-linecap="round" stroke-linejoin="round"/>
<path d="M137.904 109.414L137.045 104.56" stroke="#2D2D2D" stroke-width="0.681434" stroke-linecap="round" stroke-linejoin="round"/>
<path d="M126.79 101.638L131.646 100.781" stroke="#2D2D2D" stroke-width="0.681434" stroke-linecap="round" stroke-linejoin="round"/>
<path d="M140.824 99.1581C140.221 99.2651 139.603 99.2522 139.005 99.1204C138.407 98.9885 137.841 98.7401 137.339 98.3894C136.837 98.0387 136.409 97.5923 136.08 97.0757C135.751 96.5591 135.528 95.9826 135.422 95.3793C135.53 95.982 135.517 96.5999 135.385 97.1977C135.254 97.7956 135.006 98.3617 134.655 98.8637C134.304 99.3652 133.858 99.7927 133.342 100.122C132.825 100.451 132.249 100.675 131.646 100.781C132.554 100.62 133.489 100.732 134.333 101.102C135.177 101.473 135.892 102.086 136.387 102.863C136.716 103.38 136.94 103.956 137.045 104.56C136.938 103.957 136.951 103.339 137.083 102.741C137.215 102.143 137.463 101.577 137.814 101.075C138.164 100.573 138.611 100.145 139.127 99.8161C139.644 99.4871 140.22 99.2635 140.824 99.1581Z" stroke="#2D2D2D" stroke-width="0.681434" stroke-linecap="round" stroke-linejoin="round"/>
<path d="M31.6254 21.7329C30.9544 22.9677 30.3098 24.2167 29.692 25.479C25.0482 35.0599 24.1333 41.3955 24.1497 46.1255C24.1669 48.456 24.3913 50.3895 24.5131 52.1503V52.1676C24.8411 52.3574 25.1491 52.5473 25.5316 52.7718C26.2221 51.6815 26.7918 51.8913 28.4836 52.72C30.8141 53.8593 31.0385 53.9629 31.2093 55.6029C31.2266 55.81 31.2438 55.9999 31.2784 56.1898C32.9011 55.2749 34.7482 54.36 36.8543 53.0098C40.8421 50.4376 45.6412 46.2255 51.1135 37.0933C51.8041 35.9367 52.5118 34.731 53.2196 33.4163L31.6254 21.7329ZM38.5997 40.6359L37.4949 45.8838L35.0989 41.0847L29.7819 41.6889L33.598 37.9083L31.3883 33.0229L36.1529 35.4761L40.1061 31.8854L39.243 37.1851L43.904 39.8263L38.5997 40.6359Z" stroke="#2D2D2D" stroke-width="0.681434" stroke-linejoin="round"/>
<path d="M24.5131 66.2023C24.5477 64.6305 25.29 62.9569 26.512 60.6782C26.2579 59.8357 26.1934 58.9475 26.3233 58.0772C26.4533 57.2069 26.7743 56.3761 27.2634 55.6447C26.9537 56.1235 26.593 56.5674 26.1876 56.9685C26.7055 58.0215 25.8596 59.627 24.3578 58.8674L24.5649 59.1945C26.3948 60.2303 25.1864 62.5789 23.2357 61.6476L23.5991 61.9765C25.3944 62.926 24.2724 65.222 22.3389 64.3752C21.493 63.9963 20.8025 63.7201 20.2328 63.4784C18.7482 64.6687 16.9011 64.9458 13.8282 64.5142L27.1553 71.7301C25.2554 69.5677 24.4613 67.9459 24.5131 66.2023Z" stroke="#2D2D2D" stroke-width="0.681434" stroke-linejoin="round"/>
<path d="M13.3957 64.2782L10.1503 68.5258L25.8423 77.0365L27.6377 71.9948L13.3957 64.2782Z" stroke="#2D2D2D" stroke-width="0.681434" stroke-linejoin="round"/>
</svg>
