<svg width="165" height="145" viewBox="0 0 165 145" fill="none" xmlns="http://www.w3.org/2000/svg">
<path d="M58.4574 123.403L44.9415 129.625C45.2989 129.446 59.7895 120.317 59.7895 120.317C59.7895 116.953 57.4947 112.121 53.7138 111.464L55.6145 108.865C53.5588 105.957 50.5162 103.895 47.0534 103.064L38.9634 113.299C37.9146 109.722 35.801 106.548 32.904 104.201C30.9441 103.69 29.0478 102.96 27.2507 102.025C26.4812 105.088 25.5621 107.385 25.3697 109.823C25.0277 114.065 25.1021 123.161 26.5394 126.752C26.2145 128.068 22.5431 143.761 35.6691 143.777H58.8473C60.5077 137.094 60.0323 130.076 58.4574 123.403Z" fill="#C7CDA7"/>
<path d="M103.212 42.7961H65.8813V23.1713H103.212V42.7961Z" fill="#C7CDA7"/>
<path d="M95.5447 60.7461H73.437C72.8381 60.7461 72.2638 60.984 71.8403 61.4075C71.4168 61.8309 71.1789 62.4053 71.1789 63.0041C71.1789 63.603 71.4168 64.1774 71.8403 64.6008C72.2638 65.0243 72.8381 65.2622 73.437 65.2622H95.5464C96.1453 65.2622 96.7196 65.0243 97.1431 64.6008C97.5666 64.1774 97.8045 63.603 97.8045 63.0041C97.8045 62.4053 97.5666 61.8309 97.1431 61.4075C96.7196 60.984 96.1453 60.7461 95.5464 60.7461H95.5447Z" fill="#C7CDA7"/>
<path d="M35.9093 73.3223H22.5884C22.2918 73.3225 21.9981 73.2642 21.7241 73.1508C21.45 73.0374 21.201 72.8711 20.9913 72.6614C20.7815 72.4517 20.6152 72.2027 20.5018 71.9286C20.3884 71.6545 20.3302 71.3608 20.3304 71.0642C20.3303 70.7676 20.3886 70.474 20.502 70.2C20.6155 69.9259 20.7818 69.677 20.9915 69.4673C21.2012 69.2576 21.4502 69.0912 21.7242 68.9778C21.9982 68.8644 22.2919 68.806 22.5884 68.8062H35.9093C36.5082 68.8062 37.0826 69.0441 37.506 69.4675C37.9295 69.891 38.1674 70.4653 38.1674 71.0642C38.1674 71.6631 37.9295 72.2374 37.506 72.6609C37.0826 73.0844 36.5082 73.3223 35.9093 73.3223Z" fill="#C7CDA7"/>
<path d="M137.879 59.2193H124.932C124.48 59.2102 124.035 59.3373 123.656 59.584C123.277 59.8307 122.981 60.1856 122.806 60.6027C122.661 60.9493 122.604 61.3269 122.641 61.7011C122.678 62.0753 122.808 62.4342 123.019 62.7454C123.231 63.0565 123.516 63.31 123.85 63.4827C124.184 63.6555 124.556 63.7421 124.932 63.7346H137.879C138.331 63.7437 138.776 63.6166 139.155 63.3699C139.534 63.1232 139.83 62.7683 140.005 62.3512C140.15 62.0046 140.207 61.627 140.17 61.2528C140.133 60.8786 140.003 60.5197 139.792 60.2085C139.581 59.8974 139.295 59.6439 138.961 59.4712C138.627 59.2984 138.255 59.2119 137.879 59.2193Z" fill="#C7CDA7"/>
<path d="M28.8752 98.6456L31.1658 100.465C31.1658 100.075 31.1983 99.6853 31.2145 99.2638C30.4072 99.1817 29.6178 98.9731 28.8752 98.6456Z" fill="#6F7748"/>
<path d="M18.3648 92.5074C18.0723 93.5137 16.6548 99.2815 21.4188 102.302C20.964 102.497 18.7059 104.09 18.5118 104.236C16.4716 105.744 14.6924 107.577 13.245 109.66C10.2722 114.128 9.91479 120.821 14.4796 124.379C17.5012 126.718 22.992 126.913 25.8674 124.123C25.191 119.395 25.0276 114.607 25.38 109.844C25.575 107.342 26.4847 105.198 27.037 102.89C28.2879 97.7203 27.4602 96.3702 26.306 93.4855C24.1129 92.9502 24.8927 90.351 26.4035 91.2274C26.6155 91.3659 26.8532 91.46 27.102 91.5044C27.9305 87.2807 29.5387 86.9729 31.0008 88.3358C28.9112 85.5921 20.3843 85.6075 18.3648 92.5074Z" fill="#6F7748"/>
<path d="M57.8888 121.486C46.5498 128.703 45.6384 129.261 44.9091 129.625L58.4249 123.403L57.8888 121.486Z" fill="#6F7748"/>
<path d="M105.893 142.393C103.017 139.957 98.7963 137 95.0249 135.895C91.6069 136.879 87.981 136.879 84.5631 135.895C83.8944 137.801 83.4687 139.783 83.296 141.795C83.2661 142.157 83.3501 142.519 83.5362 142.83C83.7224 143.142 84.0013 143.387 84.334 143.532C84.5545 143.628 84.7931 143.677 85.0342 143.676C91.5809 143.692 97.2667 143.761 105.389 143.774C105.55 143.775 105.707 143.726 105.838 143.634C105.97 143.542 106.07 143.411 106.125 143.26C106.181 143.11 106.188 142.945 106.146 142.79C106.104 142.635 106.016 142.496 105.893 142.393Z" fill="#6F7748"/>
<path d="M125.501 122.786C125.489 122.63 125.429 122.483 125.329 122.363C125.23 122.244 125.095 122.158 124.944 122.12C124.793 122.08 124.634 122.088 124.489 122.144C124.343 122.199 124.219 122.299 124.133 122.428C121.696 125.305 118.739 132.127 117.635 135.895C118.575 139.503 118.642 140.395 117.651 143.775H125.431C126.105 143.839 126.704 129.496 125.501 122.786Z" fill="#6F7748"/>
<path d="M40.3117 26.8267C40.3117 27.4082 40.0807 27.9659 39.6695 28.3771C39.2583 28.7883 38.7006 29.0193 38.1191 29.0193C37.5376 29.0193 36.9799 28.7883 36.5687 28.3771C36.1575 27.9659 35.9265 27.4082 35.9265 26.8267C35.9265 26.2452 36.1575 25.6874 36.5687 25.2762C36.9799 24.865 37.5376 24.634 38.1191 24.634C38.7006 24.634 39.2583 24.865 39.6695 25.2762C40.0807 25.6874 40.3117 26.2452 40.3117 26.8267Z" fill="#6F7748"/>
<path d="M66.2713 130.925L60.2769 134.97C61.5076 133.646 62.6479 132.24 63.69 130.763C63.6721 130.778 64.663 130.811 66.2713 130.925Z" fill="#6F7748"/>
<path d="M33.2451 98.4021C35.6549 100.132 38.5477 101.059 41.5138 101.053H51.6028" stroke="#2D2D2D" stroke-width="0.64125" stroke-linecap="round" stroke-linejoin="round"/>
<path d="M59.3671 101.051H56.1344" stroke="#2D2D2D" stroke-width="0.64125" stroke-linecap="round" stroke-linejoin="round"/>
<path d="M59.9682 101.051H127.58C129.445 101.051 131.291 100.685 133.014 99.9714C134.737 99.2581 136.302 98.2123 137.621 96.8937C138.94 95.5752 139.985 94.0097 140.699 92.2868C141.412 90.5639 141.779 88.7173 141.778 86.8526V82.823" stroke="#2D2D2D" stroke-width="0.64125" stroke-linecap="round" stroke-linejoin="round"/>
<path d="M141.778 55.5314V31.635C141.779 29.7703 141.412 27.9236 140.699 26.2006C139.986 24.4776 138.94 22.912 137.622 21.5935C136.303 20.2749 134.737 19.2292 133.014 18.5161C131.291 17.8031 129.445 17.4366 127.58 17.4377H41.5138C39.6492 17.4371 37.8027 17.8038 36.0798 18.5171C34.357 19.2303 32.7916 20.276 31.473 21.5945C30.1545 22.9129 29.1087 24.4783 28.3953 26.2011C27.682 27.9239 27.3151 29.7704 27.3157 31.635V55.5323" stroke="#2D2D2D" stroke-width="0.64125" stroke-linecap="round" stroke-linejoin="round"/>
<path d="M27.3157 86.7056V82.823" stroke="#2D2D2D" stroke-width="0.64125" stroke-linecap="round" stroke-linejoin="round"/>
<path d="M26.536 126.751C26.2283 125.885 25.9994 124.993 25.852 124.086" stroke="#2D2D2D" stroke-width="0.64125" stroke-linecap="round" stroke-linejoin="round"/>
<path d="M28.293 104.007C29.5105 104.382 30.6989 104.844 31.8506 105.388C33.1213 106.037 34.1648 107.056 34.8431 108.312C36.963 112.232 39.2781 116.043 41.7797 119.732L53.6873 111.447C55.9454 111.838 57.6255 113.661 58.5771 115.655C59.3057 117.099 59.7104 118.684 59.763 120.3C58.8763 120.872 47.6536 128.002 46.0034 129.009C40.4263 132.41 36.0803 131.24 32.91 125.516C32.4064 124.606 27.6628 116.955 27.6628 116.955" stroke="#2D2D2D" stroke-width="0.64125" stroke-linecap="round" stroke-linejoin="round"/>
<path d="M31.1658 100.465L28.8752 98.6456C29.6233 98.9733 30.4181 99.1816 31.2307 99.2629" stroke="#2D2D2D" stroke-width="0.64125" stroke-linecap="round" stroke-linejoin="round"/>
<path d="M40.0518 117.117C39.5255 114.888 38.808 112.709 37.9075 110.603C35.7272 105.893 32.5706 104.177 31.7669 103.147C31.2466 102.356 31.0337 101.402 31.1684 100.465L31.2334 99.2632C31.6163 99.2952 32.0012 99.2335 32.355 99.0835C32.7088 98.9335 33.0207 98.6997 33.264 98.4022C34.9962 96.2015 33.1828 90.3772 31.0059 88.3303" stroke="#2D2D2D" stroke-width="0.64125" stroke-linecap="round" stroke-linejoin="round"/>
<path d="M31.0033 88.3303C29.5413 86.9623 27.933 87.2752 27.1045 91.4989C26.8554 91.4546 26.6178 91.3604 26.406 91.2219C24.8944 90.3464 24.1154 92.9439 26.3085 93.4799C26.7885 94.4195 27.154 95.4133 27.3969 96.44C27.8388 98.5841 27.7157 100.806 27.0395 102.888C26.4846 105.197 25.586 107.34 25.3826 109.842C25.0331 114.605 25.1965 119.392 25.8699 124.121C22.9945 126.915 17.5003 126.725 14.4822 124.377C9.91048 120.828 10.2687 114.124 13.245 109.66C14.6853 107.571 16.4642 105.738 18.5084 104.235C18.7024 104.087 20.9614 102.496 21.4154 102.301C16.6556 99.2794 18.068 93.5124 18.3613 92.5061C19.7207 87.8421 24.0137 86.3612 27.3123 86.6733C28.7129 86.7176 30.0394 87.3131 31.0033 88.3303Z" stroke="#2D2D2D" stroke-width="0.64125" stroke-linecap="round" stroke-linejoin="round"/>
<path d="M59.898 135.329C61.9586 133.501 66.031 127.48 67.5221 125.155C70.5522 129.235 77.0895 131.93 84.5306 135.892" stroke="#2D2D2D" stroke-width="0.64125" stroke-linecap="round" stroke-linejoin="round"/>
<path d="M95.0249 135.912C89.4016 133.422 76.6108 118.512 73.4353 114.956C71.9671 113.316 69.9745 112.236 67.7983 111.901" stroke="#2D2D2D" stroke-width="0.64125" stroke-linecap="round" stroke-linejoin="round"/>
<path d="M58.4104 123.41L44.9091 129.625" stroke="#2D2D2D" stroke-width="0.64125" stroke-linecap="round" stroke-linejoin="round"/>
<path d="M57.9051 121.486C59.9571 128.821 60.6855 136.385 58.8456 143.775H35.6656C21.9549 143.775 26.5522 126.668 26.5522 126.668C28.8633 126.86 31.188 126.81 33.4888 126.522" stroke="#2D2D2D" stroke-width="0.64125" stroke-linecap="round" stroke-linejoin="round"/>
<path d="M95.0249 135.895C98.7938 137 103.004 139.973 105.893 142.393C106.016 142.497 106.105 142.635 106.147 142.791C106.189 142.946 106.183 143.111 106.128 143.262C106.073 143.414 105.973 143.544 105.84 143.636C105.708 143.728 105.55 143.777 105.389 143.775C97.2667 143.767 91.581 143.69 85.0342 143.677C84.6712 143.679 84.3167 143.567 84.0208 143.357C83.725 143.146 83.5028 142.848 83.3858 142.505C83.307 142.277 83.2765 142.036 83.296 141.796C83.4749 139.785 83.9005 137.803 84.5631 135.896C87.9812 136.879 91.607 136.879 95.0249 135.895Z" stroke="#2D2D2D" stroke-width="0.64125" stroke-linecap="round" stroke-linejoin="round"/>
<path d="M117.641 135.896C118.745 132.127 121.718 125.317 124.138 122.428C124.225 122.299 124.35 122.201 124.495 122.146C124.64 122.091 124.799 122.082 124.95 122.121C125.1 122.16 125.234 122.246 125.334 122.365C125.434 122.484 125.494 122.631 125.507 122.786C126.717 129.494 126.105 143.84 125.442 143.775H117.661C118.645 140.396 118.581 139.502 117.641 135.896Z" stroke="#2D2D2D" stroke-width="0.64125" stroke-linecap="round" stroke-linejoin="round"/>
<path d="M117.64 135.896C107.975 136.464 98.5851 135.132 92.0871 134.015" stroke="#2D2D2D" stroke-width="0.64125" stroke-linecap="round" stroke-linejoin="round"/>
<path d="M63.737 110.391C66.0601 109.807 67.9838 110.812 67.847 111.707C67.818 111.888 67.7493 112.061 67.6458 112.212C67.5424 112.364 67.4067 112.491 67.2485 112.584" stroke="#2D2D2D" stroke-width="0.64125" stroke-linecap="round" stroke-linejoin="round"/>
<path d="M63.4933 108.978C65.9301 108.36 68.3993 109.546 67.3596 110.846" stroke="#2D2D2D" stroke-width="0.64125" stroke-linecap="round" stroke-linejoin="round"/>
<path d="M59.5458 118.481C61.0739 116.412 63.1657 114.827 65.571 113.916" stroke="#2D2D2D" stroke-width="0.64125" stroke-linecap="round" stroke-linejoin="round"/>
<path d="M63.672 112.064C65.9301 111.577 67.4409 112.422 67.3597 113.315C67.2622 114.387 65.1367 116.061 63.2984 115.053" stroke="#2D2D2D" stroke-width="0.64125" stroke-linecap="round" stroke-linejoin="round"/>
<path d="M55.1759 111.902C56.2156 110.829 61.8569 106.034 62.2425 106.411C62.67 106.829 61.7064 108.182 61.7064 108.182" stroke="#2D2D2D" stroke-width="0.64125" stroke-linecap="round" stroke-linejoin="round"/>
<path d="M55.1759 111.902C56.9734 110.429 58.9905 109.246 61.1541 108.397C63.8239 107.354 66.4375 106.172 68.9842 104.856C69.7537 104.403 68.6917 106.789 64.663 108.803" stroke="#2D2D2D" stroke-width="0.64125" stroke-linecap="round" stroke-linejoin="round"/>
<path d="M103.212 34.6893H141.778" stroke="#2D2D2D" stroke-width="0.64125" stroke-linecap="round" stroke-linejoin="round"/>
<path d="M27.3157 34.6893H65.8813" stroke="#2D2D2D" stroke-width="0.64125" stroke-linecap="round" stroke-linejoin="round"/>
<path d="M40.3117 26.8267C40.3117 27.4082 40.0807 27.9659 39.6695 28.3771C39.2583 28.7883 38.7006 29.0193 38.1191 29.0193C37.5376 29.0193 36.9799 28.7883 36.5687 28.3771C36.1575 27.9659 35.9265 27.4082 35.9265 26.8267C35.9265 26.2452 36.1575 25.6874 36.5687 25.2762C36.9799 24.865 37.5376 24.634 38.1191 24.634C38.7006 24.634 39.2583 24.865 39.6695 25.2762C40.0807 25.6874 40.3117 26.2452 40.3117 26.8267Z" stroke="#2D2D2D" stroke-width="0.64125" stroke-linecap="round" stroke-linejoin="round"/>
<path d="M46.9559 26.8267C46.9559 27.4082 46.7249 27.9659 46.3137 28.3771C45.9025 28.7883 45.3448 29.0193 44.7633 29.0193C44.1818 29.0193 43.6241 28.7883 43.2129 28.3771C42.8017 27.9659 42.5706 27.4082 42.5706 26.8267C42.5706 26.2452 42.8017 25.6874 43.2129 25.2762C43.6241 24.865 44.1818 24.634 44.7633 24.634C45.3448 24.634 45.9025 24.865 46.3137 25.2762C46.7249 25.6874 46.9559 26.2452 46.9559 26.8267Z" stroke="#2D2D2D" stroke-width="0.64125" stroke-linecap="round" stroke-linejoin="round"/>
<path d="M53.6326 26.8267C53.6326 27.4082 53.4016 27.9659 52.9904 28.3771C52.5792 28.7883 52.0215 29.0193 51.44 29.0193C50.8585 29.0193 50.3008 28.7883 49.8896 28.3771C49.4784 27.9659 49.2473 27.4082 49.2473 26.8267C49.2473 26.2452 49.4784 25.6874 49.8896 25.2762C50.3008 24.865 50.8585 24.634 51.44 24.634C52.0215 24.634 52.5792 24.865 52.9904 25.2762C53.4016 25.6874 53.6326 26.2452 53.6326 26.8267Z" stroke="#2D2D2D" stroke-width="0.64125" stroke-linecap="round" stroke-linejoin="round"/>
<path d="M38.9309 113.283L47.0209 103.049C50.4883 103.879 53.5363 105.94 55.5983 108.849L53.6814 111.448" stroke="#2D2D2D" stroke-width="0.64125" stroke-linecap="round" stroke-linejoin="round"/>
<path d="M55.6307 103.21C56.6867 98.6943 57.5776 95.0879 57.7751 93.9833C58.3197 90.9446 57.5186 91.013 56.313 93.5772C54.6426 97.4172 52.1791 100.861 49.084 103.682" stroke="#2D2D2D" stroke-width="0.64125" stroke-linecap="round" stroke-linejoin="round"/>
<path d="M57.5802 94.894C58.4117 94.1057 59.3462 93.4336 60.358 92.8959C60.6513 92.7668 61.1558 92.9463 59.8869 94.4349C59.0439 95.4267 57.4989 97.4274 56.7841 98.3987" stroke="#2D2D2D" stroke-width="0.64125" stroke-linecap="round" stroke-linejoin="round"/>
<path d="M55.8582 102.168C56.8229 101.915 57.7721 101.605 58.7011 101.242C59.8527 100.864 60.9394 100.459 58.5386 102.801C57.0704 104.261 55.7282 105.843 54.5261 107.528" stroke="#2D2D2D" stroke-width="0.64125" stroke-linecap="round" stroke-linejoin="round"/>
<path d="M94.7265 74.8801C94.6872 74.4634 94.5075 74.0724 94.2168 73.7712C93.9262 73.4699 93.5418 73.2764 93.1268 73.2223L76.3594 70.6393C75.4984 70.5093 74.8204 70.9813 74.8324 71.7123L74.9948 85.1957L64.0619 92.4213C63.4121 92.8274 63.7858 93.8183 64.6955 94.0783L81.6877 98.8663C81.911 98.9431 82.149 98.9669 82.383 98.9359C82.617 98.9049 82.8406 98.8199 83.0361 98.6876L94.7239 89.6716L94.7265 74.8801Z" stroke="#2D2D2D" stroke-width="0.64125" stroke-linecap="round" stroke-linejoin="round"/>
<path d="M94.724 89.6784L74.9948 85.1957" stroke="#2D2D2D" stroke-width="0.64125" stroke-linecap="round" stroke-linejoin="round"/>
<path d="M92.4419 87.1603C92.7343 87.2261 93.0191 87.0791 93.0191 86.8183V75.6751C93.0094 75.5399 92.9529 75.4124 92.8592 75.3145C92.7655 75.2167 92.6406 75.1546 92.5061 75.139L77.1708 72.7022C77.1137 72.6848 77.0534 72.6807 76.9946 72.6902C76.9357 72.6997 76.8798 72.7226 76.8311 72.7571C76.7825 72.7916 76.7424 72.8369 76.714 72.8893C76.6855 72.9417 76.6695 73 76.6672 73.0596L76.7646 83.1649C76.7792 83.2924 76.8344 83.4119 76.9222 83.5055C77.01 83.5991 77.1257 83.662 77.252 83.6847L92.4419 87.1603Z" stroke="#2D2D2D" stroke-width="0.64125" stroke-linecap="round" stroke-linejoin="round"/>
<path d="M52.4467 82.8228H15.0995V55.5312H52.4467V82.8228Z" stroke="#2D2D2D" stroke-width="0.64125" stroke-linecap="round" stroke-linejoin="round"/>
<path d="M74.9623 82.8228H65.8813V55.5312H103.212V82.8228H94.7487" stroke="#2D2D2D" stroke-width="0.64125" stroke-linecap="round" stroke-linejoin="round"/>
<path d="M153.978 82.8228H116.647V55.5312H153.978V82.8228Z" stroke="#2D2D2D" stroke-width="0.64125" stroke-linecap="round" stroke-linejoin="round"/>
<path d="M103.212 42.7961H65.8813V23.1713H103.212V42.7961Z" stroke="#2D2D2D" stroke-width="0.64125" stroke-linecap="round" stroke-linejoin="round"/>
<path d="M84.5468 42.7963V55.5315" stroke="#2D2D2D" stroke-width="0.64125" stroke-linecap="round" stroke-linejoin="round"/>
<path d="M94.4401 42.7963V49.1634H135.312V55.5315" stroke="#2D2D2D" stroke-width="0.64125" stroke-linecap="round" stroke-linejoin="round"/>
<path d="M75.3034 42.7963V49.1634H33.7812V55.5315" stroke="#2D2D2D" stroke-width="0.64125" stroke-linecap="round" stroke-linejoin="round"/>
<path d="M81.1679 36.6545L73.4515 32.8053L81.0704 29.1655" stroke="#2D2D2D" stroke-width="0.64125" stroke-linecap="round" stroke-linejoin="round"/>
<path d="M88.0233 36.6876L95.6422 32.7725L87.9258 29.1986" stroke="#2D2D2D" stroke-width="0.64125" stroke-linecap="round" stroke-linejoin="round"/>
<path d="M87.1786 25.9832L81.8177 39.9855" stroke="#2D2D2D" stroke-width="0.64125" stroke-linecap="round" stroke-linejoin="round"/>
<path d="M44.6979 65.2619C45.2966 65.2619 45.8709 65.024 46.2943 64.6007C46.7176 64.1773 46.9555 63.603 46.9555 63.0043C46.9555 62.4055 46.7176 61.8313 46.2943 61.4079C45.8709 60.9845 45.2966 60.7466 44.6979 60.7466H22.6047C22.3018 60.7364 22 60.7873 21.7171 60.8961C21.4343 61.005 21.1763 61.1696 20.9584 61.3803C20.7405 61.5909 20.5673 61.8433 20.449 62.1223C20.3306 62.4013 20.2697 62.7012 20.2697 63.0043C20.2697 63.3073 20.3306 63.6073 20.449 63.8863C20.5673 64.1653 20.7405 64.4176 20.9584 64.6282C21.1763 64.8389 21.4343 65.0036 21.7171 65.1124C22 65.2213 22.3018 65.2721 22.6047 65.2619H44.6979Z" stroke="#2D2D2D" stroke-width="0.64125" stroke-linecap="round" stroke-linejoin="round"/>
<path d="M95.5447 60.7461C96.1436 60.7461 96.7179 60.984 97.1414 61.4075C97.5649 61.8309 97.8028 62.4053 97.8028 63.0041C97.8028 63.603 97.5649 64.1774 97.1414 64.6008C96.7179 65.0243 96.1436 65.2622 95.5447 65.2622H73.437C72.8381 65.2622 72.2638 65.0243 71.8403 64.6008C71.4168 64.1774 71.1789 63.603 71.1789 63.0041C71.1789 62.4053 71.4168 61.8309 71.8403 61.4075C72.2638 60.984 72.8381 60.7461 73.437 60.7461H95.5447Z" stroke="#2D2D2D" stroke-width="0.64125" stroke-linecap="round" stroke-linejoin="round"/>
<path d="M35.9093 68.8062C36.3563 68.8079 36.7927 68.9419 37.1637 69.1911C37.5347 69.4404 37.8238 69.7938 37.9944 70.2069C38.165 70.62 38.2097 71.0743 38.1227 71.5128C38.0357 71.9512 37.821 72.3541 37.5056 72.6708C37.2956 72.8792 37.0465 73.044 36.7725 73.1558C36.4986 73.2676 36.2052 73.3242 35.9093 73.3223H22.6047C22.3029 73.3306 22.0026 73.2783 21.7213 73.1686C21.4401 73.0588 21.1837 72.8938 20.9674 72.6833C20.751 72.4728 20.579 72.2211 20.4616 71.943C20.3441 71.6649 20.2836 71.3661 20.2836 71.0642C20.2836 70.7623 20.3441 70.4635 20.4616 70.1854C20.579 69.9073 20.751 69.6556 20.9674 69.4451C21.1837 69.2346 21.4401 69.0696 21.7213 68.9599C22.0026 68.8501 22.3029 68.7978 22.6047 68.8062H35.9093Z" stroke="#2D2D2D" stroke-width="0.64125" stroke-linecap="round" stroke-linejoin="round"/>
<path d="M137.879 59.2203C138.331 59.2112 138.776 59.3383 139.155 59.585C139.534 59.8317 139.83 60.1866 140.005 60.6037C140.151 60.9503 140.207 61.3279 140.17 61.7021C140.133 62.0762 140.003 62.4352 139.792 62.7464C139.581 63.0575 139.295 63.311 138.961 63.4837C138.627 63.6565 138.255 63.743 137.879 63.7356H124.932C124.48 63.7446 124.035 63.6176 123.656 63.3709C123.277 63.1242 122.981 62.7693 122.806 62.3522C122.661 62.0055 122.604 61.628 122.641 61.2538C122.678 60.8796 122.808 60.5206 123.019 60.2095C123.231 59.8984 123.516 59.6449 123.85 59.4721C124.184 59.2994 124.556 59.2128 124.932 59.2203H137.879Z" stroke="#2D2D2D" stroke-width="0.64125" stroke-linecap="round" stroke-linejoin="round"/>
<path d="M143.987 67.2764C144.573 67.2961 145.128 67.5427 145.536 67.9641C145.943 68.3855 146.171 68.9487 146.171 69.5349C146.171 70.121 145.943 70.6842 145.536 71.1056C145.128 71.527 144.573 71.7736 143.987 71.7933H124.932C124.346 71.7736 123.791 71.527 123.383 71.1056C122.976 70.6842 122.748 70.121 122.748 69.5349C122.748 68.9487 122.976 68.3855 123.383 67.9641C123.791 67.5427 124.346 67.2961 124.932 67.2764H143.987Z" stroke="#2D2D2D" stroke-width="0.64125" stroke-linecap="round" stroke-linejoin="round"/>
<path d="M73.614 45.622L75.336 42.7963L76.9442 45.7033" stroke="#2D2D2D" stroke-width="0.64125" stroke-linecap="round" stroke-linejoin="round"/>
<path d="M82.8411 45.622L84.5631 42.7963L86.1551 45.7033" stroke="#2D2D2D" stroke-width="0.64125" stroke-linecap="round" stroke-linejoin="round"/>
<path d="M92.7831 45.622L94.5051 42.7963L96.0971 45.7033" stroke="#2D2D2D" stroke-width="0.64125" stroke-linecap="round" stroke-linejoin="round"/>
<path d="M151.346 42.9746L145.514 48.7578" stroke="#2D2D2D" stroke-width="0.64125" stroke-linecap="round" stroke-linejoin="round"/>
<path d="M151.33 48.7738L145.531 42.9598" stroke="#2D2D2D" stroke-width="0.64125" stroke-linecap="round" stroke-linejoin="round"/>
<path d="M18.186 44.8747L20.7527 48.4974L23.7581 43.2502" stroke="#2D2D2D" stroke-width="0.64125" stroke-linecap="round" stroke-linejoin="round"/>
<path d="M32.8878 104.202C30.928 103.689 29.0318 102.959 27.2345 102.025" stroke="#2D2D2D" stroke-width="0.64125" stroke-linecap="round" stroke-linejoin="round"/>
<path d="M84.8555 2.31291L81.4928 3.41757L83.4422 5.17203L80.8755 8.0474L82.2563 9.28202L84.823 6.40665L86.7724 8.14487L88.2182 1.20825L84.8555 2.31291Z" stroke="#2D2D2D" stroke-width="0.64125" stroke-linecap="round" stroke-linejoin="round"/>
<path d="M101.182 111.902C101.182 112.136 101.112 112.366 100.982 112.561C100.852 112.756 100.666 112.908 100.45 112.997C100.233 113.087 99.9945 113.111 99.7645 113.065C99.5345 113.019 99.3232 112.906 99.1573 112.74C98.9915 112.575 98.8785 112.363 98.8328 112.133C98.787 111.903 98.8105 111.665 98.9002 111.448C98.99 111.231 99.142 111.046 99.337 110.916C99.532 110.785 99.7613 110.716 99.9958 110.716C100.31 110.718 100.611 110.843 100.832 111.066C101.054 111.287 101.18 111.588 101.182 111.902Z" stroke="#2D2D2D" stroke-width="0.64125" stroke-linecap="round" stroke-linejoin="round"/>
<path d="M1.27499 143.774H163.725" stroke="#2D2D2D" stroke-width="0.64125" stroke-linecap="round" stroke-linejoin="round"/>
<path d="M66.2712 130.926L60.2606 134.987" stroke="#2D2D2D" stroke-width="0.64125" stroke-linecap="round" stroke-linejoin="round"/>
<path d="M63.6721 130.779C68.2882 130.992 72.8881 131.475 77.4478 132.225" stroke="#2D2D2D" stroke-width="0.64125" stroke-linecap="round" stroke-linejoin="round"/>
<path d="M67.5221 125.159L66.4337 123.582" stroke="#2D2D2D" stroke-width="0.64125" stroke-linecap="round" stroke-linejoin="round"/>
</svg>
