<svg width="178" height="150" viewBox="0 0 178 150" fill="none" xmlns="http://www.w3.org/2000/svg">
<path d="M143.742 60.7758L143.463 58.9158C143.412 58.5898 143.427 58.2571 143.506 57.9367C143.584 57.6164 143.726 57.3147 143.922 57.0493C144.316 56.513 144.908 56.1551 145.566 56.0542L141.784 56.6187C141.201 56.7095 140.668 57.0025 140.278 57.4466C139.889 57.8906 139.668 58.4574 139.654 59.0479L132.473 59.9779C133.374 60.826 134.205 61.6518 134.859 62.381L140.058 61.7523C140.236 62.3202 140.611 62.806 141.116 63.1219C141.62 63.4379 142.221 63.5633 142.809 63.4756L146.566 62.9092C146.24 62.9577 145.908 62.9407 145.589 62.8593C145.27 62.7779 144.97 62.6336 144.707 62.435C144.444 62.2364 144.223 61.9874 144.057 61.7025C143.892 61.4176 143.785 61.1026 143.742 60.7758Z" fill="#C7CDA7"/>
<path d="M59.2128 42.1872C54.7246 40.1244 47.9394 31.2327 46.6848 33.6359C46.0338 34.8727 54.4419 50.6687 55.078 52.9658C57.9553 51.0671 61.2346 49.8634 64.657 49.4495C63.5056 47.2054 63.6824 44.2546 59.2128 42.1872Z" fill="#C7CDA7"/>
<path d="M42.3557 79.8416C41.1926 79.6852 40.0102 79.7572 38.8747 80.0536C34.0685 81.1836 23.6795 78.3043 23.7502 81.0078C23.8032 82.7916 42.0906 90.0548 42.8328 90.796C43.8146 87.6853 45.4673 84.8281 47.6743 82.4261C46.0338 81.6616 44.7058 80.2127 42.3557 79.8416Z" fill="#C7CDA7"/>
<path d="M159.221 7.48181C157.786 7.5703 156.41 8.08255 155.266 8.95368C154.123 9.82482 153.264 11.0157 152.797 12.3755C152.448 13.3918 152.329 14.4729 152.448 15.5409C152.567 16.6089 152.922 17.6372 153.486 18.5516C154.051 19.4661 154.811 20.2439 155.712 20.8291C156.613 21.4143 157.633 21.7923 158.698 21.9358C159.763 22.08 160.847 21.9862 161.871 21.6611C162.895 21.336 163.835 20.7877 164.621 20.0558C165.408 19.3239 166.023 18.4265 166.421 17.4284C166.819 16.4303 166.991 15.3563 166.924 14.2838C166.805 12.3602 165.927 10.5625 164.483 9.28601C163.768 8.65399 162.935 8.1693 162.032 7.85971C161.129 7.55011 160.174 7.4217 159.221 7.48181ZM155.846 18.1396C155.532 18.0443 155.256 17.8505 155.061 17.5868C154.865 17.323 154.76 17.0034 154.759 16.6751C154.759 16.3467 154.865 16.027 155.06 15.7632C155.256 15.4994 155.531 15.3055 155.845 15.21C156.159 15.1146 156.496 15.1227 156.805 15.2331C157.114 15.3436 157.38 15.5505 157.562 15.8234C157.745 16.0963 157.835 16.4207 157.819 16.7487C157.803 17.0766 157.682 17.3908 157.474 17.6448C157.217 17.9586 156.845 18.1576 156.441 18.1982C156.24 18.2186 156.038 18.1982 155.846 18.1396ZM160.634 13.8988C160.215 13.7732 159.843 13.5261 159.564 13.1888C159.285 12.8515 159.112 12.4391 159.068 12.0037C159.023 11.5684 159.109 11.1296 159.314 10.7428C159.518 10.3561 159.833 10.0387 160.218 9.83081C160.604 9.62293 161.042 9.53387 161.477 9.5749C161.913 9.61592 162.327 9.78519 162.666 10.0613C163.006 10.3374 163.256 10.708 163.385 11.1262C163.514 11.5444 163.516 11.9914 163.391 12.4108C163.221 12.9723 162.836 13.4438 162.319 13.7226C161.803 14.0013 161.197 14.0646 160.634 13.8988ZM161.783 18.9208C161.676 18.8907 161.576 18.8397 161.489 18.7706C161.401 18.7015 161.329 18.6157 161.275 18.5183C161.221 18.4209 161.188 18.3138 161.176 18.2032C161.164 18.0926 161.174 17.9807 161.206 17.8741C161.237 17.7674 161.29 17.6681 161.36 17.582C161.431 17.4959 161.518 17.4247 161.616 17.3724C161.714 17.3202 161.822 17.288 161.932 17.2778C162.043 17.2676 162.155 17.2795 162.261 17.3128C162.471 17.3788 162.647 17.5248 162.75 17.7193C162.854 17.9137 162.876 18.141 162.814 18.3521C162.751 18.5632 162.608 18.7412 162.415 18.8476C162.222 18.954 161.995 18.9803 161.783 18.9208Z" fill="#C7CDA7"/>
<path d="M150.28 109.897C150.438 110.694 150.356 111.52 150.044 112.27C149.732 113.02 149.204 113.661 148.528 114.111C147.852 114.561 147.057 114.8 146.245 114.799C145.433 114.798 144.639 114.556 143.964 114.104C143.403 113.728 142.944 113.22 142.626 112.624C142.309 112.028 142.143 111.363 142.144 110.687C142.145 110.012 142.312 109.347 142.632 108.752C142.951 108.157 143.412 107.65 143.974 107.275C144.536 106.901 145.182 106.671 145.854 106.605C146.526 106.54 147.204 106.642 147.828 106.901C148.451 107.16 149.001 107.569 149.429 108.092C149.857 108.615 150.149 109.235 150.28 109.897Z" fill="#C7CDA7"/>
<path d="M126.901 30.2439C126.639 21.2499 133.3 23.0169 136.852 34.9441C135.438 28.901 144.241 21.5856 144.87 56.2866C144.545 56.4335 144.26 56.6567 144.04 56.9376C141.923 51.8691 137.885 54.9353 138.438 59.0766C138.512 59.6309 138.11 59.9238 137.273 59.0096C136.396 58.0285 135.374 58.5725 135.277 59.629L132.959 59.9117C129.579 56.5358 126.843 52.5714 124.886 48.2133C120.946 39.9614 123.172 30.3843 129.834 43.9548C128.005 39.609 127.01 34.9578 126.901 30.2439Z" fill="#5F6342"/>
<path d="M136.867 62.2953C137.226 63.4671 137.387 64.6919 137.343 65.9176C137.174 64.4715 136.488 63.4531 135.435 62.3409L136.867 62.2953Z" fill="#5F6342"/>
<path d="M113.14 36.5319C112.839 35.8809 112.396 34.9974 111.973 34.1846C113.333 34.3594 113.723 35.2773 113.14 36.5319Z" fill="#5F6342"/>
<path d="M107.185 68.4271C105.86 68.9925 105.489 71.484 105.983 74.965L113.811 73.6574C111.743 70.6005 109.005 67.6849 107.185 68.4271Z" fill="#5F6342"/>
<path d="M121.444 96.9479C121.143 98.6795 120.224 99.7574 118.528 99.0153C119.5 98.3419 120.472 97.6528 121.444 96.9479Z" fill="#5F6342"/>
<path d="M102.786 42.6296C101.178 42.5412 100.647 41.5517 101.424 40.0851C101.831 40.9574 102.285 41.8074 102.786 42.6296Z" fill="#5F6342"/>
<path d="M138.883 71.8723C138.883 72.0716 138.804 72.2627 138.663 72.4036C138.522 72.5446 138.331 72.6237 138.131 72.6237C137.932 72.6237 137.741 72.5446 137.6 72.4036C137.459 72.2627 137.38 72.0716 137.38 71.8723C137.38 71.673 137.459 71.4819 137.6 71.3409C137.741 71.2 137.932 71.1208 138.131 71.1208C138.331 71.1208 138.522 71.2 138.663 71.3409C138.804 71.4819 138.883 71.673 138.883 71.8723Z" fill="#5F6342"/>
<path d="M151.234 67.7027C151.219 67.8916 151.134 68.068 150.994 68.1967C150.855 68.3254 150.673 68.3968 150.483 68.3968C150.294 68.3968 150.111 68.3254 149.972 68.1967C149.833 68.068 149.747 67.8916 149.732 67.7027C149.744 67.5114 149.828 67.3318 149.968 67.2005C150.107 67.0692 150.292 66.9961 150.483 66.9961C150.675 66.9961 150.859 67.0692 150.999 67.2005C151.138 67.3318 151.222 67.5114 151.234 67.7027Z" fill="#5F6342"/>
<path d="M156.145 54.3091C156.145 54.4102 156.125 54.5102 156.086 54.6031C156.046 54.6961 155.988 54.7802 155.916 54.8504C155.843 54.9205 155.757 54.9753 155.662 55.0115C155.568 55.0477 155.467 55.0645 155.367 55.0609C155.266 55.0573 155.166 55.0335 155.075 54.9908C154.983 54.948 154.901 54.8873 154.834 54.8122C154.766 54.7371 154.714 54.6492 154.682 54.5536C154.649 54.4581 154.635 54.3569 154.643 54.2561C154.656 54.0616 154.745 53.8801 154.89 53.7497C155.035 53.6193 155.225 53.5502 155.42 53.5571C155.614 53.564 155.799 53.6462 155.934 53.7865C156.07 53.9268 156.145 54.1142 156.145 54.3091Z" fill="#5F6342"/>
<path d="M167.77 47.5946C167.759 47.7859 167.675 47.9655 167.535 48.0968C167.395 48.2281 167.211 48.3012 167.019 48.3012C166.828 48.3012 166.643 48.2281 166.504 48.0968C166.364 47.9655 166.28 47.7859 166.268 47.5946C166.28 47.4034 166.364 47.2238 166.504 47.0925C166.643 46.9612 166.828 46.8881 167.019 46.8881C167.211 46.8881 167.395 46.9612 167.535 47.0925C167.675 47.2238 167.759 47.4034 167.77 47.5946Z" fill="#5F6342"/>
<path d="M135.827 84.4002C135.82 84.5948 135.737 84.779 135.597 84.9143C135.457 85.0495 135.27 85.1252 135.075 85.1256C134.881 85.1248 134.694 85.0489 134.554 84.9137C134.415 84.7785 134.332 84.5946 134.325 84.4002C134.332 84.2058 134.414 84.0217 134.554 83.8865C134.694 83.7512 134.881 83.6754 135.075 83.6748C135.27 83.6756 135.457 83.7515 135.597 83.8866C135.737 84.0218 135.819 84.2058 135.827 84.4002Z" fill="#5F6342"/>
<path d="M122.592 79.8773C122.585 80.0718 122.503 80.2561 122.362 80.3913C122.222 80.5266 122.035 80.6023 121.841 80.6027C121.646 80.6018 121.459 80.5259 121.32 80.3907C121.18 80.2556 121.098 80.0716 121.09 79.8773C121.097 79.6828 121.179 79.4987 121.319 79.3635C121.459 79.2283 121.646 79.1524 121.841 79.1519C122.035 79.1527 122.222 79.2286 122.362 79.3637C122.502 79.4988 122.584 79.6828 122.592 79.8773Z" fill="#5F6342"/>
<path d="M126.515 66.8163C126.503 67.0076 126.419 67.1872 126.279 67.3185C126.14 67.4498 125.955 67.5229 125.764 67.5229C125.572 67.5229 125.388 67.4498 125.248 67.3185C125.109 67.1872 125.024 67.0076 125.013 66.8163C125.024 66.6251 125.109 66.4455 125.248 66.3142C125.388 66.1829 125.572 66.1097 125.764 66.1097C125.955 66.1097 126.14 66.1829 126.279 66.3142C126.419 66.4455 126.503 66.6251 126.515 66.8163Z" fill="#5F6342"/>
<path d="M123.069 53.1781C123.054 53.3671 122.969 53.5435 122.83 53.6722C122.69 53.8008 122.508 53.8723 122.318 53.8723C122.129 53.8723 121.946 53.8008 121.807 53.6722C121.668 53.5435 121.582 53.3671 121.567 53.1781C121.579 52.9869 121.663 52.8073 121.803 52.676C121.942 52.5447 122.127 52.4716 122.318 52.4716C122.51 52.4716 122.694 52.5447 122.834 52.676C122.973 52.8073 123.058 52.9869 123.069 53.1781Z" fill="#5F6342"/>
<path d="M108.616 47.5946C108.604 47.7859 108.52 47.9655 108.381 48.0968C108.241 48.2281 108.057 48.3012 107.865 48.3012C107.673 48.3012 107.489 48.2281 107.35 48.0968C107.21 47.9655 107.126 47.7859 107.114 47.5946C107.126 47.4034 107.21 47.2238 107.35 47.0925C107.489 46.9612 107.673 46.8881 107.865 46.8881C108.057 46.8881 108.241 46.9612 108.381 47.0925C108.52 47.2238 108.604 47.4034 108.616 47.5946Z" fill="#5F6342"/>
<path d="M118.175 68.3121H115.453L122.592 75.1764L118.175 68.3121Z" fill="#5F6342"/>
<path d="M141.321 66.854C140.655 66.6765 140.014 66.4153 139.413 66.0765L141.215 68.462C141.168 67.9237 141.203 67.3813 141.321 66.854Z" fill="#5F6342"/>
<path d="M141.745 71.3073C142.387 74.5715 141.836 77.9577 140.19 80.849L142.664 78.6756C142.993 76.1813 142.676 73.6445 141.745 71.3073Z" fill="#5F6342"/>
<path d="M144.873 56.2884C144.237 21.5856 135.438 28.901 136.852 34.9441C133.3 23.0169 126.64 21.2499 126.901 30.2439C127.011 34.9577 128.006 39.6087 129.834 43.9548C123.172 30.3853 120.948 39.9605 124.886 48.2133C126.837 52.5614 129.564 56.5175 132.934 59.8875M137.343 65.9176C137.174 64.4678 136.483 63.4494 135.427 62.3334" stroke="#2D2D2D" stroke-width="0.697497" stroke-linecap="round" stroke-linejoin="round"/>
<path d="M50.6605 99.3307C44.8574 99.7365 39.0434 98.7102 33.7299 96.3421C28.4164 93.974 23.7662 90.3367 20.1881 85.7499C16.61 81.1631 14.2137 75.7675 13.21 70.0374C12.2062 64.3074 12.6257 58.4184 14.4316 52.8885C15.9326 48.2847 18.3595 44.0366 21.563 40.4054C24.7666 36.7742 28.679 33.8367 33.0598 31.7734C37.4406 29.7102 42.1971 28.5648 47.0369 28.4078C51.8767 28.2508 56.6974 29.0855 61.2027 30.8604C65.708 32.6354 69.8026 35.3132 73.2348 38.7292C76.6669 42.1451 79.364 46.227 81.1603 50.7238C82.9566 55.2207 83.814 60.0374 83.6799 64.8779C83.5458 69.7184 82.4229 74.4803 80.3804 78.8708" stroke="#2D2D2D" stroke-width="0.697497" stroke-linecap="round" stroke-linejoin="round"/>
<path d="M58.3646 70.8824C53.1697 74.01 47.586 77.1553 42.3557 79.8411" stroke="#2D2D2D" stroke-width="0.697497" stroke-linecap="round" stroke-linejoin="round"/>
<path d="M74.3057 39.8904C85.7028 35.5799 93.7975 34.3235 95.4557 37.1869C97.6328 40.9488 88.0343 50.8105 72.4327 61.7658" stroke="#2D2D2D" stroke-width="0.697497" stroke-linecap="round" stroke-linejoin="round"/>
<path d="M30.9595 85.3369C15.0389 92.4569 3.02426 95.2879 0.95688 91.7148C-0.721764 88.8169 4.59689 82.28 14.2968 74.4169" stroke="#2D2D2D" stroke-width="0.697497" stroke-linecap="round" stroke-linejoin="round"/>
<path d="M115.453 68.3125L122.592 75.1768L101.283 42.0112" stroke="#2D2D2D" stroke-width="0.697497" stroke-linecap="round" stroke-linejoin="round"/>
<path d="M145.103 62.6841C145.138 69.5223 139.413 66.0767 139.413 66.0767" stroke="#2D2D2D" stroke-width="0.697497" stroke-linecap="round" stroke-linejoin="round"/>
<path d="M139.413 66.0767L141.216 68.4221" stroke="#2D2D2D" stroke-width="0.697497" stroke-linecap="round" stroke-linejoin="round"/>
<path d="M144.06 56.889C142.037 51.96 137.808 54.8133 138.433 59.1452C138.494 59.5721 138.154 59.9822 137.276 59.0094C136.407 58.0422 135.392 58.5742 135.284 59.6148M135.579 66.1648C136.746 67.3487 138.142 67.384 136.869 62.2951C136.81 62.2521 136.751 62.2081 136.693 62.163" stroke="#2D2D2D" stroke-width="0.697497" stroke-linecap="round" stroke-linejoin="round"/>
<path d="M113.245 34.8733C118.246 43.4358 129.972 62.4375 138.036 68.3029C138.482 68.674 139.007 68.9384 139.571 69.0762C140.135 69.214 140.723 69.2215 141.291 69.0981C141.177 68.3474 141.189 67.5831 141.326 66.8363" stroke="#2D2D2D" stroke-width="0.697497" stroke-linecap="round" stroke-linejoin="round"/>
<path d="M142.523 78.8132C143.495 75.7033 141.745 71.3035 141.745 71.3035C141.745 71.3035 145.892 84.6712 120.791 98.7663" stroke="#2D2D2D" stroke-width="0.697497" stroke-linecap="round" stroke-linejoin="round"/>
<path d="M118.175 68.3121H108.232" stroke="#2D2D2D" stroke-width="0.697497" stroke-linecap="round" stroke-linejoin="round"/>
<path d="M140.19 80.8487C140.19 80.8487 157.966 66.0618 170.299 46.0929C168.748 43.4238 166.28 41.4082 163.356 40.4199C159.456 46.044 155.233 51.4365 150.708 56.5702" stroke="#2D2D2D" stroke-width="0.697497" stroke-linecap="round" stroke-linejoin="round"/>
<path d="M113.831 97.0859C102.735 100.585 90.8597 102.446 78.4749 103.571C75.9982 103.793 73.5177 103.187 71.423 101.847C69.3282 100.507 67.7377 98.5088 66.9011 96.1671C62.6045 84.1004 58.6195 72.4401 53.2785 54.3089C55.2635 52.663 57.5285 51.3878 59.9652 50.5443C62.112 49.8094 64.3518 49.3814 66.6184 49.2729L80.5572 79.2402L113.811 73.6602" stroke="#2D2D2D" stroke-width="0.697497" stroke-linecap="round" stroke-linejoin="round"/>
<path d="M118.528 99.0124C123.528 101.2 121.518 89.8268 118.175 81.8735C116.288 77.3844 110.392 66.5732 107.026 68.5243C105.83 69.2172 105.509 71.6445 105.983 74.9822" stroke="#2D2D2D" stroke-width="0.697497" stroke-linecap="round" stroke-linejoin="round"/>
<path d="M64.1064 88.2336L48.8229 81.2587C45.4847 84.4185 43.1809 88.5145 42.2143 93.0082C53.2413 101.622 65.0282 109.215 77.4296 115.696C78.9068 116.484 80.5426 116.93 82.2155 117C83.8885 117.07 85.5559 116.763 87.0941 116.102C99.2074 110.986 110.725 104.562 121.444 96.944" stroke="#2D2D2D" stroke-width="0.697497" stroke-linecap="round" stroke-linejoin="round"/>
<path d="M64.6542 49.45C61.2318 49.8637 57.9525 51.0675 55.0752 52.9663C54.4391 50.6692 46.031 34.8742 46.682 33.6363C47.9431 31.236 54.7228 40.1175 59.21 42.1923C63.6842 44.2522 63.5057 47.2059 64.6542 49.45Z" stroke="#2D2D2D" stroke-width="0.697497" stroke-linecap="round" stroke-linejoin="round"/>
<path d="M42.3557 79.8416C41.1926 79.6852 40.0102 79.7572 38.8747 80.0536C34.0685 81.1836 23.6795 78.3043 23.7502 81.0078C23.8032 82.7916 42.0906 90.0548 42.8328 90.796C43.8146 87.6853 45.4673 84.8281 47.6743 82.4261C46.0338 81.6616 44.7058 80.2127 42.3557 79.8416Z" stroke="#2D2D2D" stroke-width="0.697497" stroke-linecap="round" stroke-linejoin="round"/>
<path d="M105.011 24.9071C105.011 24.9071 105.011 22.8044 104.994 19.5354C104.975 16.1074 106.305 15.4509 106.814 19.341C106.869 19.7651 107.521 24.0236 107.715 25.2781C107.821 25.9673 108.315 27.87 108.952 27.7891C110.699 27.5613 113.992 23.7381 115.029 24.8736C115.705 25.6176 113.672 28.3034 112.167 30.1216C111.742 30.6324 111.479 31.2576 111.41 31.9181C111.341 32.5786 111.469 33.2447 111.779 33.8323C111.831 33.9364 113.046 36.3795 113.14 36.5292" stroke="#2D2D2D" stroke-width="0.697497" stroke-linecap="round" stroke-linejoin="round"/>
<path d="M105.275 25.7737C105.275 25.7737 103.014 18.6173 102.871 18.1403C101.75 14.3914 100.552 15.2433 101.104 18.6173C101.631 21.8342 102.22 25.756 102.22 25.756" stroke="#2D2D2D" stroke-width="0.697497" stroke-linecap="round" stroke-linejoin="round"/>
<path d="M102.785 26.9191C101.691 24.7406 100.728 22.4984 99.902 20.2045C98.5554 16.531 97.5482 17.4489 98.1704 20.8229C98.5089 22.9076 99.0064 24.9633 99.6584 26.9721" stroke="#2D2D2D" stroke-width="0.697497" stroke-linecap="round" stroke-linejoin="round"/>
<path d="M101.414 40.104C100.652 41.5604 101.185 42.5424 102.786 42.6299C106.041 42.8066 111.772 39.4521 113.14 36.5319C113.727 35.2792 113.333 34.3613 111.973 34.1846" stroke="#2D2D2D" stroke-width="0.697497" stroke-linecap="round" stroke-linejoin="round"/>
<path d="M100.91 28.8148C99.6259 27.1123 98.5526 25.2605 97.7137 23.2999C96.1802 19.6729 95.2158 20.669 96.0704 24.1127C96.2983 25.0316 96.5354 25.8258 96.7419 26.4982C97.3464 28.4233 97.9258 30.3679 98.4735 32.3116C99.0725 34.4506 101.158 40.2454 102.786 42.6345" stroke="#2D2D2D" stroke-width="0.697497" stroke-linecap="round" stroke-linejoin="round"/>
<path d="M106.425 25.4196C103.138 26.4621 101.283 28.1407 99.145 30.8619" stroke="#2D2D2D" stroke-width="0.697497" stroke-linecap="round" stroke-linejoin="round"/>
<path d="M107.238 26.9568C106.08 28.1254 105.179 29.5225 104.592 31.059C104.005 32.5954 103.744 34.2374 103.828 35.8801" stroke="#2D2D2D" stroke-width="0.697497" stroke-linecap="round" stroke-linejoin="round"/>
<path d="M164.098 40.7211C164.098 40.7211 166.324 36.6217 165.67 33.4067C164.893 29.5937 165.519 29.5146 167.419 32.8412C168.679 35.0463 169.398 40.3324 169.398 40.3324" stroke="#2D2D2D" stroke-width="0.697497" stroke-linecap="round" stroke-linejoin="round"/>
<path d="M169.769 45.2443C169.769 45.2443 173.161 39.7136 173.974 35.9852C174.68 32.7516 173.462 34.2015 173.02 35.2412" stroke="#2D2D2D" stroke-width="0.697497" stroke-linecap="round" stroke-linejoin="round"/>
<path d="M170.147 33.2808C170.321 32.0823 170.378 30.8697 170.317 29.6603C170.087 26.2323 169.271 26.4611 168.726 29.4129C168.48 30.7982 168.15 32.1672 167.737 33.5123" stroke="#2D2D2D" stroke-width="0.697497" stroke-linecap="round" stroke-linejoin="round"/>
<path d="M169.504 32.5413C171.019 34.1616 171.978 36.2222 172.243 38.4244" stroke="#2D2D2D" stroke-width="0.697497" stroke-linecap="round" stroke-linejoin="round"/>
<path d="M170.317 31.4455C170.582 30.7015 170.83 29.871 171.061 28.9541C171.87 25.7372 172.58 26.3919 172.421 29.2898C172.295 31.3249 171.931 33.3384 171.338 35.2892" stroke="#2D2D2D" stroke-width="0.697497" stroke-linecap="round" stroke-linejoin="round"/>
<path d="M172.243 31.3923C173.073 27.8937 173.906 28.4591 173.674 31.622C173.475 33.743 172.957 35.8218 172.137 37.7879" stroke="#2D2D2D" stroke-width="0.697497" stroke-linecap="round" stroke-linejoin="round"/>
<path d="M47.3739 116.221L47.798 118.66" stroke="#2D2D2D" stroke-width="0.697497" stroke-linecap="round" stroke-linejoin="round"/>
<path d="M45.9074 121.364L43.4512 121.806" stroke="#2D2D2D" stroke-width="0.697497" stroke-linecap="round" stroke-linejoin="round"/>
<path d="M52.9576 120.127L50.5015 120.551" stroke="#2D2D2D" stroke-width="0.697497" stroke-linecap="round" stroke-linejoin="round"/>
<path d="M49.0349 125.711L48.6108 123.254" stroke="#2D2D2D" stroke-width="0.697497" stroke-linecap="round" stroke-linejoin="round"/>
<path d="M50.4978 120.551C50.0432 120.635 49.5738 120.581 49.1503 120.395C48.7268 120.21 48.3685 119.902 48.1216 119.511C47.9574 119.252 47.8461 118.963 47.7943 118.66C47.85 118.962 47.8451 119.272 47.78 119.572C47.7148 119.872 47.5907 120.156 47.4147 120.408C47.2388 120.659 47.0146 120.873 46.7552 121.038C46.4957 121.202 46.2063 121.313 45.9036 121.364C46.2054 121.309 46.5151 121.315 46.8148 121.38C47.1145 121.445 47.3983 121.569 47.6501 121.744C47.9018 121.92 48.1161 122.144 48.2804 122.403C48.4447 122.663 48.5557 122.952 48.6071 123.255C48.5514 122.953 48.5562 122.643 48.6214 122.343C48.6866 122.043 48.8107 121.759 48.9867 121.507C49.1626 121.256 49.3868 121.042 49.6462 120.877C49.9056 120.713 50.1951 120.602 50.4978 120.551Z" stroke="#2D2D2D" stroke-width="0.697497" stroke-linecap="round" stroke-linejoin="round"/>
<path d="M82.6775 11.3898L82.9779 13.1038" stroke="#2D2D2D" stroke-width="0.697497" stroke-linecap="round" stroke-linejoin="round"/>
<path d="M81.635 15.0121L79.921 15.3125" stroke="#2D2D2D" stroke-width="0.697497" stroke-linecap="round" stroke-linejoin="round"/>
<path d="M86.617 14.1465L84.8863 14.4469" stroke="#2D2D2D" stroke-width="0.697497" stroke-linecap="round" stroke-linejoin="round"/>
<path d="M83.8438 18.0871L83.5434 16.3555" stroke="#2D2D2D" stroke-width="0.697497" stroke-linecap="round" stroke-linejoin="round"/>
<path d="M84.8863 14.4469C84.6727 14.4847 84.4538 14.4799 84.2421 14.4328C84.0304 14.3857 83.8302 14.2972 83.6528 14.1724C83.4755 14.0475 83.3245 13.8889 83.2087 13.7056C83.0929 13.5222 83.0144 13.3178 82.9779 13.104C83.016 13.3177 83.0114 13.5369 82.9644 13.7489C82.9174 13.9608 82.829 14.1614 82.7042 14.339C82.5794 14.5167 82.4206 14.6679 82.2371 14.7839C82.0536 14.8999 81.849 14.9785 81.635 15.0151C81.8486 14.9774 82.0675 14.9822 82.2792 15.0293C82.4908 15.0764 82.6911 15.1649 82.8685 15.2897C83.0458 15.4145 83.1968 15.5732 83.3126 15.7565C83.4284 15.9399 83.5068 16.1443 83.5434 16.3581C83.5053 16.1443 83.5099 15.9252 83.5569 15.7132C83.6038 15.5012 83.6923 15.3007 83.8171 15.123C83.9419 14.9454 84.1007 14.7942 84.2842 14.6782C84.4677 14.5621 84.6723 14.4835 84.8863 14.4469Z" stroke="#2D2D2D" stroke-width="0.697497" stroke-linecap="round" stroke-linejoin="round"/>
<path d="M167.578 59.5574L168.338 63.8326" stroke="#2D2D2D" stroke-width="0.697497" stroke-linecap="round" stroke-linejoin="round"/>
<path d="M165.016 68.5685L160.741 69.3283" stroke="#2D2D2D" stroke-width="0.697497" stroke-linecap="round" stroke-linejoin="round"/>
<path d="M177.349 66.3944L173.073 67.1542" stroke="#2D2D2D" stroke-width="0.697497" stroke-linecap="round" stroke-linejoin="round"/>
<path d="M170.511 76.1482L169.751 71.8721" stroke="#2D2D2D" stroke-width="0.697497" stroke-linecap="round" stroke-linejoin="round"/>
<path d="M173.071 67.1546C172.542 67.2474 172 67.2351 171.476 67.1184C170.951 67.0017 170.455 66.7829 170.016 66.4744C169.576 66.166 169.201 65.7739 168.913 65.3206C168.625 64.8673 168.429 64.3617 168.336 63.8326C168.523 64.9011 168.278 66 167.655 66.888C167.032 67.776 166.082 68.3803 165.014 68.5682C165.543 68.4753 166.085 68.4876 166.609 68.6043C167.134 68.721 167.63 68.9399 168.07 69.2484C168.509 69.5568 168.884 69.9489 169.172 70.4022C169.46 70.8555 169.657 71.3611 169.749 71.8901C169.562 70.8217 169.807 69.7227 170.43 68.8348C171.053 67.9468 172.003 67.3425 173.071 67.1546Z" stroke="#2D2D2D" stroke-width="0.697497" stroke-linecap="round" stroke-linejoin="round"/>
<path d="M146.251 110.692L113.474 124.155" stroke="#2D2D2D" stroke-width="0.697497" stroke-linecap="round" stroke-linejoin="round"/>
<path d="M105.736 134.174L146.251 110.692L96.9009 149.069" stroke="#2D2D2D" stroke-width="0.697497" stroke-linecap="round" stroke-linejoin="round"/>
<path d="M150.28 109.897C150.438 110.694 150.356 111.52 150.044 112.27C149.732 113.02 149.204 113.661 148.528 114.111C147.852 114.561 147.057 114.8 146.245 114.799C145.433 114.798 144.639 114.556 143.964 114.104C143.403 113.728 142.944 113.22 142.626 112.624C142.309 112.028 142.143 111.363 142.144 110.687C142.145 110.012 142.312 109.347 142.632 108.752C142.951 108.157 143.412 107.65 143.974 107.275C144.536 106.901 145.182 106.671 145.854 106.605C146.526 106.54 147.204 106.642 147.828 106.901C148.451 107.16 149.001 107.569 149.429 108.092C149.857 108.615 150.149 109.235 150.28 109.897Z" stroke="#2D2D2D" stroke-width="0.697497" stroke-linecap="round" stroke-linejoin="round"/>
<path d="M147.753 55.7582C167.437 36.2683 133.194 20.4184 152.877 0.930298" stroke="#2D2D2D" stroke-width="0.697497" stroke-linecap="round" stroke-linejoin="round"/>
<path d="M61.3146 50.1216L74.0546 84.7007" stroke="#2D2D2D" stroke-width="0.697497" stroke-linecap="round" stroke-linejoin="round"/>
<path d="M74.0546 84.7003C74.6891 86.4151 75.8993 87.8564 77.4784 88.7779C79.0576 89.6995 80.9078 90.0441 82.7129 89.753" stroke="#2D2D2D" stroke-width="0.697497" stroke-linecap="round" stroke-linejoin="round"/>
<path d="M82.7306 89.7535L118.97 83.8527" stroke="#2D2D2D" stroke-width="0.697497" stroke-linecap="round" stroke-linejoin="round"/>
<path d="M134.855 62.3843L140.12 61.7482L139.713 59.0447L132.47 59.9812L134.855 62.3843Z" stroke="#2D2D2D" stroke-width="0.697497" stroke-linecap="round" stroke-linejoin="round"/>
<path d="M145.562 56.076L141.781 56.6415C141.29 56.717 140.832 56.9362 140.466 57.2713C140.1 57.6065 139.841 58.0426 139.722 58.5247C139.643 58.8451 139.628 59.1779 139.678 59.504L139.957 61.364C140.054 62.0219 140.408 62.6145 140.941 63.0118C141.475 63.4091 142.144 63.5787 142.802 63.4835L146.566 62.9097" stroke="#2D2D2D" stroke-width="0.697497" stroke-linecap="round" stroke-linejoin="round"/>
<path d="M149.396 62.4901C149.722 62.4406 150.036 62.3272 150.318 62.1565C150.6 61.9857 150.846 61.7609 151.041 61.495C151.434 60.958 151.599 60.2868 151.499 59.6285L151.22 57.7685C151.124 57.1102 150.77 56.5171 150.237 56.1195C149.703 55.7219 149.034 55.5523 148.375 55.6481L145.566 56.0722C145.075 56.1477 144.618 56.3669 144.251 56.702C143.885 57.0372 143.626 57.4733 143.507 57.9554C143.428 58.2757 143.413 58.6086 143.463 58.9347L143.742 60.79C143.811 61.2793 144.024 61.7369 144.353 62.1051C144.683 62.4733 145.114 62.7355 145.593 62.8584C145.911 62.9393 146.242 62.9569 146.566 62.9104L149.396 62.4901Z" stroke="#2D2D2D" stroke-width="0.697497" stroke-linecap="round" stroke-linejoin="round"/>
<path d="M159.221 7.48181C157.786 7.5703 156.41 8.08255 155.266 8.95368C154.123 9.82482 153.264 11.0157 152.797 12.3755C152.448 13.3918 152.329 14.4729 152.448 15.5409C152.567 16.6089 152.922 17.6372 153.486 18.5516C154.051 19.4661 154.811 20.2439 155.712 20.8291C156.613 21.4143 157.633 21.7923 158.698 21.9358C159.763 22.08 160.847 21.9862 161.871 21.6611C162.895 21.336 163.835 20.7877 164.621 20.0558C165.408 19.3239 166.023 18.4265 166.421 17.4284C166.819 16.4303 166.991 15.3563 166.924 14.2838C166.805 12.3602 165.927 10.5625 164.483 9.28601C163.768 8.65399 162.935 8.1693 162.032 7.85971C161.129 7.55011 160.174 7.4217 159.221 7.48181ZM155.846 18.1396C155.532 18.0443 155.256 17.8505 155.061 17.5868C154.865 17.323 154.76 17.0034 154.759 16.6751C154.759 16.3467 154.865 16.027 155.06 15.7632C155.256 15.4994 155.531 15.3055 155.845 15.21C156.159 15.1146 156.496 15.1227 156.805 15.2331C157.114 15.3436 157.38 15.5505 157.562 15.8234C157.745 16.0963 157.835 16.4207 157.819 16.7487C157.803 17.0766 157.682 17.3908 157.474 17.6448C157.217 17.9586 156.845 18.1576 156.441 18.1982C156.24 18.2186 156.038 18.1982 155.846 18.1396ZM160.634 13.8988C160.215 13.7732 159.843 13.5261 159.564 13.1888C159.285 12.8515 159.112 12.4391 159.068 12.0037C159.023 11.5684 159.109 11.1296 159.314 10.7428C159.518 10.3561 159.833 10.0387 160.218 9.83081C160.604 9.62293 161.042 9.53387 161.477 9.5749C161.913 9.61592 162.327 9.78519 162.666 10.0613C163.006 10.3374 163.256 10.708 163.385 11.1262C163.514 11.5444 163.516 11.9914 163.391 12.4108C163.221 12.9723 162.836 13.4438 162.319 13.7226C161.803 14.0013 161.197 14.0646 160.634 13.8988ZM161.783 18.9208C161.676 18.8907 161.576 18.8397 161.489 18.7706C161.401 18.7015 161.329 18.6157 161.275 18.5183C161.221 18.4209 161.188 18.3138 161.176 18.2032C161.164 18.0926 161.174 17.9807 161.206 17.8741C161.237 17.7674 161.29 17.6681 161.36 17.582C161.431 17.4959 161.518 17.4247 161.616 17.3724C161.714 17.3202 161.822 17.288 161.932 17.2778C162.043 17.2676 162.155 17.2795 162.261 17.3128C162.471 17.3788 162.647 17.5248 162.75 17.7193C162.854 17.9137 162.876 18.141 162.814 18.3521C162.751 18.5632 162.608 18.7412 162.415 18.8476C162.222 18.954 161.995 18.9803 161.783 18.9208Z" stroke="#2D2D2D" stroke-width="0.697497"/>
</svg>
