<svg width="197" height="139" viewBox="0 0 197 139" fill="none" xmlns="http://www.w3.org/2000/svg">
<path d="M121.905 78.8009C119.447 80.3149 111.655 81.3171 108.343 81.5014H123.277C122.884 80.5699 122.425 79.6675 121.905 78.8009Z" fill="#C7CDA7"/>
<path d="M124.352 84.908H75.389L57.3856 122.286C58.2398 123.041 59.1475 123.733 60.1015 124.357L57.4051 130.034C61.2791 131.098 65.3601 131.159 69.2639 130.21L70.2568 127.894C71.2469 127.991 72.2417 128.033 73.2364 128.018L80.2875 115.114L78.1678 125.826C79.1205 126.296 80.1004 126.708 81.1021 127.062L80.3204 130.208C83.85 131.216 87.5918 131.216 91.1225 130.208L91.4541 128.726C92.408 128.721 93.3614 128.681 94.3122 128.603L102.081 97.1757L104.429 97.5279L120.77 96.2168C124.129 93.4699 125.593 90.0556 124.352 84.908Z" fill="#C7CDA7"/>
<path d="M62.2975 53.7343C62.2384 54.4521 61.9716 55.1372 61.5296 55.7059C61.0876 56.2746 60.4895 56.7022 59.8085 56.9365C59.1274 57.1709 58.3928 57.2018 57.6945 57.0255C56.9962 56.8492 56.3643 56.4733 55.8761 55.9437C55.3879 55.4142 55.0645 54.7539 54.9454 54.0436C54.8263 53.3333 54.9166 52.6036 55.2054 51.9438C55.4942 51.284 55.9689 50.7225 56.5716 50.3281C57.1742 49.9337 57.8787 49.7233 58.5989 49.7227C59.6213 49.7644 60.5852 50.2105 61.2787 50.9627C61.9723 51.715 62.3387 52.7119 62.2975 53.7343Z" fill="#C7CDA7"/>
<path d="M60.8298 48.0402C60.2365 48.4779 59.5114 48.6994 58.775 48.6664C58.8471 47.9331 59.1726 47.2482 59.6948 46.7291C60.2878 46.2913 61.0131 46.0703 61.7495 46.1029C61.6774 46.8359 61.3522 47.5209 60.8298 48.0402Z" fill="#C7CDA7"/>
<path d="M103.862 44.0908C103.829 44.6049 103.725 45.112 103.553 45.5976L105.432 43.8364C104.921 43.9863 104.394 44.0718 103.862 44.0908Z" fill="#5F6342"/>
<path d="M111.337 60.6818V69.8009C111.846 69.7226 112.355 69.6444 112.864 69.5465C112.591 66.5557 112.081 63.5914 111.337 60.6818Z" fill="#5F6342"/>
<path d="M99.9286 74.2035L97.5412 73.3229C97.2644 73.0853 96.9968 72.8372 96.7388 72.5793C97.3671 69.8592 99.048 70.8768 99.9286 74.2035Z" fill="#5F6342"/>
<path d="M81.6904 40.5445V65.2797C81.6898 66.1826 81.3309 67.0484 80.6925 67.6868C80.054 68.3253 79.1883 68.6842 78.2854 68.6847H76.9938C77.8967 68.6842 78.7625 68.3253 79.4009 67.6868C80.0393 67.0484 80.3983 66.1826 80.3988 65.2797V40.5445C80.3983 39.6416 80.0393 38.7759 79.4009 38.1374C78.7625 37.499 77.8967 37.1401 76.9938 37.1395H78.2854C79.1883 37.1401 80.054 37.499 80.6925 38.1374C81.3309 38.7759 81.6898 39.6416 81.6904 40.5445Z" fill="#5F6342"/>
<path d="M69.3421 80.6412H66.7981C66.3902 80.6448 65.9956 80.4965 65.691 80.2253C65.3864 79.954 65.1937 79.5791 65.1502 79.1735L64.078 68.7062H62.7865L64.215 81.7391H70.4184C70.4214 81.5959 70.3958 81.4536 70.343 81.3204C70.2903 81.1873 70.2115 81.066 70.1112 80.9637C70.0109 80.8615 69.8913 80.7802 69.7592 80.7249C69.6271 80.6695 69.4853 80.641 69.3421 80.6412Z" fill="#5F6342"/>
<path d="M112.805 37.0229C113.036 36.7452 113.16 36.3942 113.155 36.0331C113.15 35.672 113.017 35.3244 112.778 35.0531C112.54 34.7817 112.213 34.6044 111.855 34.5529C111.498 34.5015 111.134 34.5793 110.829 34.7725C110.995 34.4749 111.056 34.1299 111.001 33.7934C110.947 33.4569 110.78 33.1486 110.529 32.9186C110.278 32.6883 109.957 32.549 109.617 32.5233C109.278 32.4975 108.939 32.5866 108.656 32.7764C109.569 31.1337 106.953 29.7298 105.979 31.3088C105.376 33.0914 104.623 34.8197 103.728 36.475C106.233 32.9731 107.916 36.6902 107.759 38.8819C107.779 39.3125 107.994 39.4299 108.699 38.9211C110.147 37.8644 111.184 40.3301 108.483 41.5433C107.651 43.1442 107.408 44.987 107.798 46.7487C107.779 46.4747 107.466 41.015 113.63 39.88C113.949 39.8125 114.235 39.6379 114.442 39.3851C114.648 39.1324 114.761 38.8167 114.763 38.4906C114.765 38.2524 114.712 38.017 114.606 37.8035C114.501 37.59 114.346 37.4044 114.155 37.2618C113.965 37.1188 113.743 37.0226 113.509 36.9811C113.274 36.9396 113.033 36.9539 112.805 37.0229Z" fill="#5F6342"/>
<path d="M106.621 53.1082C106.621 53.2953 106.547 53.4748 106.414 53.6071C106.282 53.7394 106.103 53.8137 105.916 53.8137C105.728 53.8137 105.549 53.7394 105.417 53.6071C105.284 53.4748 105.21 53.2953 105.21 53.1082C105.21 52.9211 105.284 52.7417 105.417 52.6093C105.549 52.477 105.728 52.4027 105.916 52.4027C106.103 52.4027 106.282 52.477 106.414 52.6093C106.547 52.7417 106.621 52.9211 106.621 53.1082Z" fill="#5F6342"/>
<path d="M99.8502 59.6249C99.8502 59.8121 99.7759 59.9915 99.6436 60.1238C99.5113 60.2561 99.3318 60.3305 99.1447 60.3305C98.9576 60.3305 98.7782 60.2561 98.6458 60.1238C98.5135 59.9915 98.4392 59.8121 98.4392 59.6249C98.4392 59.4378 98.5135 59.2584 98.6458 59.1261C98.7782 58.9938 98.9576 58.9194 99.1447 58.9194C99.3318 58.9194 99.5113 58.9938 99.6436 59.1261C99.7759 59.2584 99.8502 59.4378 99.8502 59.6249Z" fill="#5F6342"/>
<path d="M105.114 67.0019C105.114 67.189 105.04 67.3685 104.908 67.5008C104.775 67.6331 104.596 67.7074 104.409 67.7074C104.222 67.7074 104.042 67.6331 103.91 67.5008C103.778 67.3685 103.703 67.189 103.703 67.0019C103.703 66.8148 103.778 66.6353 103.91 66.503C104.042 66.3707 104.222 66.2964 104.409 66.2964C104.596 66.2964 104.775 66.3707 104.908 66.503C105.04 66.6353 105.114 66.8148 105.114 67.0019Z" fill="#5F6342"/>
<path d="M143.818 69.2131H136.773C136.524 69.2131 136.285 69.3121 136.109 69.4883C135.932 69.6644 135.834 69.9033 135.834 70.1524V80.5632C135.834 80.8123 135.932 81.0512 136.109 81.2273C136.285 81.4035 136.524 81.5025 136.773 81.5025H143.818C144.066 81.4993 144.303 81.3993 144.478 81.2238C144.654 81.0483 144.754 80.8113 144.757 80.5632V70.1483C144.755 69.9002 144.655 69.6628 144.48 69.4877C144.304 69.3126 144.066 69.2139 143.818 69.2131Z" fill="#5F6342"/>
<path d="M142.788 19.6814L133.258 22.2841C133.088 22.3305 132.933 22.4207 132.808 22.5457C132.684 22.6706 132.595 22.826 132.549 22.9963C132.504 23.1665 132.503 23.3458 132.549 23.5161C132.594 23.6864 132.683 23.8419 132.807 23.967L141.379 32.4599C141.472 32.5535 141.583 32.6278 141.705 32.6784C141.827 32.7291 141.958 32.7552 142.09 32.7552C142.222 32.7552 142.353 32.7291 142.475 32.6784C142.597 32.6278 142.708 32.5535 142.801 32.4599C142.926 32.3352 143.015 32.18 143.062 32.0099L145.606 22.3036L142.788 19.6814Z" fill="#5F6342"/>
<path d="M149.391 15.6993C149.045 15.3598 148.579 15.1714 148.095 15.1752C147.611 15.1791 147.148 15.375 146.808 15.7199L142.835 19.7305L145.513 22.2157L149.407 18.2824C149.743 17.9352 149.929 17.4704 149.926 16.9875C149.923 16.5045 149.731 16.0421 149.391 15.6993Z" fill="#5F6342"/>
<path d="M65.3503 2.58405C65.3499 2.74866 65.3171 2.91157 65.2537 3.06349C65.1903 3.21541 65.0977 3.35336 64.981 3.46947C64.8643 3.58557 64.7259 3.67756 64.5737 3.74018C64.4214 3.8028 64.2584 3.83482 64.0937 3.83441C63.9291 3.83401 63.7662 3.80118 63.6143 3.73781C63.4624 3.67445 63.3244 3.58178 63.2083 3.4651C63.0922 3.34842 63.0002 3.21001 62.9376 3.05778C62.875 2.90555 62.843 2.74248 62.8434 2.57787C62.8442 2.24544 62.9771 1.92695 63.2127 1.69246C63.4483 1.45797 63.7675 1.3267 64.0999 1.32752C64.4324 1.32834 64.7509 1.46118 64.9853 1.69683C65.2198 1.93248 65.3511 2.25162 65.3503 2.58405Z" fill="#5F6342"/>
<path d="M91.1224 130.21C87.5918 131.219 83.851 131.219 80.3204 130.21C77.0132 131.169 70.5163 135.787 70.5163 135.787H92.3749C92.168 133.887 91.7479 132.016 91.1224 130.21Z" fill="#5F6342"/>
<path d="M69.264 130.21C65.3605 131.159 61.2788 131.098 57.4051 130.034C53.8585 131.197 50.6299 133.166 47.9729 135.787H70.4968C70.2223 133.901 69.8103 132.037 69.264 130.21Z" fill="#5F6342"/>
<path d="M108.304 97.2163L104.429 97.5294L102.081 97.1772L102.57 95.2007L108.304 97.2163Z" fill="#5F6342"/>
<path d="M176.071 81.5031H23.9421C23.4905 81.5031 23.0575 81.6824 22.7382 82.0017C22.4189 82.321 22.2396 82.754 22.2396 83.2056C22.2396 83.6571 22.4189 84.0901 22.7382 84.4094C23.0575 84.7287 23.4905 84.9081 23.9421 84.9081H44.7913L35.1942 138.038C35.1778 138.135 35.1716 138.234 35.1747 138.331H38.6188L48.2632 84.9081H151.786L161.434 138.351H164.878C164.858 138.253 164.858 138.155 164.839 138.042L155.243 84.9122H176.071C176.513 84.8968 176.931 84.7107 177.237 84.3931C177.544 84.0755 177.716 83.6512 177.716 83.2097C177.716 82.7681 177.544 82.3438 177.237 82.0262C176.931 81.7086 176.513 81.5225 176.071 81.5072V81.5031Z" fill="#5F6342"/>
<path d="M65.3502 2.58405C65.3498 2.74866 65.317 2.91157 65.2536 3.06349C65.1902 3.21541 65.0976 3.35336 64.9809 3.46947C64.8642 3.58557 64.7258 3.67756 64.5736 3.74018C64.4213 3.8028 64.2583 3.83482 64.0937 3.83441C63.9291 3.83401 63.7661 3.80118 63.6142 3.73781C63.4623 3.67445 63.3243 3.58178 63.2082 3.4651C63.0921 3.34842 63.0001 3.21001 62.9375 3.05778C62.8749 2.90555 62.8429 2.74248 62.8433 2.57787C62.8441 2.24544 62.977 1.92695 63.2126 1.69246C63.4483 1.45797 63.7674 1.3267 64.0998 1.32752C64.4323 1.32834 64.7508 1.46118 64.9852 1.69683C65.2197 1.93248 65.351 2.25162 65.3502 2.58405Z" stroke="#2D2D2D" stroke-width="0.77246"/>
<path d="M149.391 15.6993C149.045 15.3598 148.579 15.1714 148.095 15.1752C147.611 15.1791 147.148 15.375 146.808 15.7199L142.835 19.7305L145.513 22.2157L149.407 18.2824C149.743 17.9352 149.929 17.4704 149.926 16.9875C149.923 16.5045 149.731 16.0421 149.391 15.6993Z" stroke="#2D2D2D" stroke-width="0.77246" stroke-linejoin="round"/>
<path d="M176.071 81.5031H23.9421C23.4905 81.5031 23.0575 81.6824 22.7382 82.0017C22.4189 82.321 22.2396 82.754 22.2396 83.2056C22.2396 83.6571 22.4189 84.0901 22.7382 84.4094C23.0575 84.7287 23.4905 84.9081 23.9421 84.9081H44.7913L35.1942 138.038C35.1778 138.135 35.1716 138.234 35.1747 138.331H38.6188L48.2632 84.9081H151.786L161.434 138.351H164.878C164.858 138.253 164.858 138.155 164.839 138.042L155.243 84.9122H176.071C176.513 84.8968 176.931 84.7107 177.237 84.3931C177.544 84.0755 177.716 83.6512 177.716 83.2097C177.716 82.7681 177.544 82.3438 177.237 82.0262C176.931 81.7086 176.513 81.5225 176.071 81.5072V81.5031Z" stroke="#2D2D2D" stroke-width="0.77246" stroke-linejoin="round"/>
<path d="M95.4863 78.8417C94.674 79.9418 93.5573 80.7801 92.2741 81.2531C90.9909 81.726 89.5974 81.8129 88.2654 81.5031" stroke="#2D2D2D" stroke-width="0.77246" stroke-linecap="round" stroke-linejoin="round"/>
<path d="M51.2254 75.5533C51.2254 75.5533 41.7097 74.6737 40.3986 81.5022" stroke="#2D2D2D" stroke-width="0.77246" stroke-linecap="round" stroke-linejoin="round"/>
<path d="M54.6068 77.08C54.3133 76.9235 54.0764 76.7711 53.8436 76.63C52.7374 75.9615 52.3368 75.5145 51.3583 74.8687C50.4174 74.2449 49.545 73.5234 48.7557 72.7162C46.5825 70.4863 47.3076 70.0939 49.7537 71.5616C49.7685 71.5638 49.7822 71.5706 49.7928 71.5812C51.417 72.565 53.111 73.4286 54.8612 74.1653" stroke="#2D2D2D" stroke-width="0.77246" stroke-linecap="round" stroke-linejoin="round"/>
<path d="M53.8436 76.6296C51.7057 75.6839 49.5028 74.8923 47.252 74.2607C45.3548 73.7272 45.6865 73.2998 45.9996 73.2431C47.1556 73.1553 48.3178 73.2012 49.4633 73.3801" stroke="#2D2D2D" stroke-width="0.77246" stroke-linecap="round" stroke-linejoin="round"/>
<path d="M54.2546 80.6415C53.8586 80.589 53.4602 80.5563 53.0609 80.5436C49.6775 80.42 50.8702 79.6671 52.0433 79.3303C52.651 79.1563 53.6479 78.9585 54.4503 78.6846" stroke="#2D2D2D" stroke-width="0.77246" stroke-linecap="round" stroke-linejoin="round"/>
<path d="M127.443 99.2124L133.02 138.35" stroke="#2D2D2D" stroke-width="0.77246" stroke-linecap="round" stroke-linejoin="round"/>
<path d="M133.489 70.7984L124.331 70.1331" stroke="#2D2D2D" stroke-width="0.77246" stroke-linecap="round" stroke-linejoin="round"/>
<path d="M91.4541 128.728L91.1225 130.21" stroke="#2D2D2D" stroke-width="0.77246" stroke-linecap="round" stroke-linejoin="round"/>
<path d="M80.3008 130.21L81.1021 127.064" stroke="#2D2D2D" stroke-width="0.77246" stroke-linecap="round" stroke-linejoin="round"/>
<path d="M70.262 127.881L69.264 130.21" stroke="#2D2D2D" stroke-width="0.77246" stroke-linecap="round" stroke-linejoin="round"/>
<path d="M57.3855 130.053L60.1014 124.357" stroke="#2D2D2D" stroke-width="0.77246" stroke-linecap="round" stroke-linejoin="round"/>
<path d="M80.3008 115.064L73.2363 128.019C67.4119 128.219 61.7345 126.165 57.3855 122.286L75.3889 84.9081" stroke="#2D2D2D" stroke-width="0.77246" stroke-linecap="round" stroke-linejoin="round"/>
<path d="M88.696 128.65L95.9169 94.4182C96.022 93.9182 96.2253 93.444 96.5151 93.0231C96.8048 92.6022 97.1752 92.243 97.6048 91.9664C98.0344 91.6897 98.5146 91.501 99.0176 91.4113C99.5206 91.3216 100.036 91.3326 100.535 91.4437C106.611 92.8022 118.033 94.0505 119.182 84.953" stroke="#2D2D2D" stroke-width="0.77246" stroke-linecap="round" stroke-linejoin="round"/>
<path d="M63.2469 72.7814L85.4279 69.1766C89.0873 63.6148 93.4336 50.7323 99.7328 48.9422C100.766 48.6789 101.706 48.1374 102.453 47.3767" stroke="#2D2D2D" stroke-width="0.77246" stroke-linecap="round" stroke-linejoin="round"/>
<path d="M103.862 44.0916C104.381 44.0731 104.896 43.9971 105.398 43.865L103.544 45.5984" stroke="#2D2D2D" stroke-width="0.77246" stroke-linecap="round" stroke-linejoin="round"/>
<path d="M108.108 47.5308C108.411 48.0869 108.915 48.5072 109.517 48.7049C112.647 49.8732 115.548 51.5813 118.088 53.7516C120.987 56.411 123.547 66.1553 124.664 72.577C124.934 74.0866 124.624 75.6425 123.797 76.9339C122.97 78.2254 121.686 79.1573 120.202 79.5436C116.33 80.6188 112.355 81.2749 108.343 81.5005" stroke="#2D2D2D" stroke-width="0.77246" stroke-linecap="round" stroke-linejoin="round"/>
<path d="M115.094 69.0959C109.414 70.1915 103.656 70.8328 97.8737 71.0137" stroke="#2D2D2D" stroke-width="0.77246" stroke-linecap="round" stroke-linejoin="round"/>
<path d="M112.844 69.5308C112.59 66.5376 112.079 63.5719 111.318 60.666V69.8047" stroke="#2D2D2D" stroke-width="0.77246" stroke-linecap="round" stroke-linejoin="round"/>
<path d="M66.6221 72.2277C68.405 74.9608 69.0378 78.2869 68.3833 81.4838" stroke="#2D2D2D" stroke-width="0.77246" stroke-linecap="round" stroke-linejoin="round"/>
<path d="M90.8094 73.6757C89.3026 74.341 85.4475 75.4379 83.3732 76.1022C82.3948 76.4112 84.1364 77.5308 90.0462 75.8283" stroke="#2D2D2D" stroke-width="0.77246" stroke-linecap="round" stroke-linejoin="round"/>
<path d="M91.1028 75.202C89.6743 76.1022 87.601 77.1383 85.7213 78.1374C84.8407 78.606 85.6431 79.6246 90.8484 77.472" stroke="#2D2D2D" stroke-width="0.77246" stroke-linecap="round" stroke-linejoin="round"/>
<path d="M91.514 76.63C90.69 77.6476 89.9763 78.6343 88.5982 80.1133C87.9566 80.8023 89.1348 81.2205 93.4905 78.1564C94.2938 77.5909 94.7264 78.211 95.78 79.0957C97.1736 80.2647 98.1087 81.6201 99.1263 81.4831" stroke="#2D2D2D" stroke-width="0.77246" stroke-linecap="round" stroke-linejoin="round"/>
<path d="M94.0579 72.0703C92.4923 68.4655 93.5099 68.2595 94.0579 69.1741C94.9866 70.6733 96.1113 72.0418 97.4021 73.2434" stroke="#2D2D2D" stroke-width="0.77246" stroke-linecap="round" stroke-linejoin="round"/>
<path d="M96.7387 72.5792C97.2269 70.4575 98.3588 70.61 99.2508 72.3588C100.281 74.3816 101.22 81.5027 99.0675 81.5027" stroke="#2D2D2D" stroke-width="0.77246" stroke-linecap="round" stroke-linejoin="round"/>
<path d="M99.8565 74.1764C97.5546 73.3175 93.8612 71.8158 92.8642 71.8158C92.4924 71.8158 88.2459 73.0517 86.1912 73.6161C84.8409 73.989 84.1961 74.6121 86.3868 74.5359C87.3066 74.504 88.3242 74.3793 89.2439 74.2619" stroke="#2D2D2D" stroke-width="0.77246" stroke-linecap="round" stroke-linejoin="round"/>
<path d="M95.5647 58.9226C94.716 63.0666 94.7694 67.3448 95.7213 71.4663" stroke="#2D2D2D" stroke-width="0.77246" stroke-linecap="round" stroke-linejoin="round"/>
<path d="M64.2151 81.4836H54.1567L55.4091 68.7051H62.8062L64.2151 81.4836Z" stroke="#2D2D2D" stroke-width="0.77246" stroke-linecap="round" stroke-linejoin="round"/>
<path d="M62.2975 53.7343C62.2384 54.4521 61.9716 55.1372 61.5296 55.7059C61.0876 56.2746 60.4895 56.7022 59.8085 56.9365C59.1274 57.1709 58.3928 57.2018 57.6945 57.0255C56.9962 56.8492 56.3643 56.4733 55.8761 55.9437C55.3879 55.4142 55.0645 54.7539 54.9454 54.0436C54.8263 53.3333 54.9166 52.6036 55.2054 51.9438C55.4942 51.284 55.9689 50.7225 56.5716 50.3281C57.1742 49.9337 57.8787 49.7233 58.5989 49.7227C59.6213 49.7644 60.5852 50.2105 61.2787 50.9627C61.9723 51.715 62.3387 52.7119 62.2975 53.7343Z" stroke="#2D2D2D" stroke-width="0.77246" stroke-linecap="round" stroke-linejoin="round"/>
<path d="M60.8298 48.0402C60.2365 48.4779 59.5114 48.6994 58.775 48.6664C58.8471 47.9331 59.1726 47.2482 59.6948 46.7291C60.2878 46.2913 61.0131 46.0703 61.7495 46.1029C61.6774 46.8359 61.3522 47.5209 60.8298 48.0402Z" stroke="#2D2D2D" stroke-width="0.77246" stroke-linecap="round" stroke-linejoin="round"/>
<path d="M103.725 36.4935C104.618 34.8373 105.371 33.1092 105.975 31.3273C106.115 31.123 106.301 30.955 106.518 30.8371C106.735 30.7191 106.978 30.6547 107.225 30.6492C107.472 30.6437 107.717 30.6971 107.94 30.8052C108.162 30.9133 108.355 31.0728 108.504 31.2706C108.702 31.5353 108.81 31.8577 108.813 32.1883C108.811 32.4003 108.757 32.6085 108.656 32.795C108.939 32.6061 109.277 32.5177 109.616 32.544C109.955 32.5702 110.276 32.7096 110.526 32.9397C110.777 33.1699 110.943 33.4775 110.998 33.8131C111.052 34.1488 110.993 34.4932 110.828 34.791C111.134 34.5979 111.498 34.52 111.855 34.5714C112.213 34.6229 112.54 34.8003 112.778 35.0716C113.017 35.343 113.15 35.6905 113.155 36.0516C113.16 36.4127 113.036 36.7637 112.805 37.0414C112.993 36.9813 113.191 36.9594 113.388 36.977C113.585 36.9947 113.776 37.0516 113.951 37.1443C114.125 37.237 114.279 37.3637 114.404 37.5169C114.529 37.6701 114.622 37.8467 114.677 38.0364C114.759 38.3225 114.753 38.6267 114.661 38.9095C114.568 39.1923 114.392 39.4407 114.156 39.6225C113.999 39.7425 113.82 39.8297 113.629 39.8789C111.962 40.0594 110.428 40.8724 109.343 42.1504C108.258 43.4283 107.705 45.0738 107.797 46.7476" stroke="#2D2D2D" stroke-width="0.77246" stroke-linecap="round" stroke-linejoin="round"/>
<path d="M108.108 47.5312L107.737 50.4665L104.742 48.0987L101.357 49.8012L102.453 47.3746" stroke="#2D2D2D" stroke-width="0.77246" stroke-linecap="round" stroke-linejoin="round"/>
<path d="M104.742 48.0986C102.277 54.3216 101.396 62.1296 101.357 70.8182" stroke="#2D2D2D" stroke-width="0.77246" stroke-linecap="round" stroke-linejoin="round"/>
<path d="M144.761 72.5597C145.504 72.5597 146.215 72.8543 146.74 73.3795C147 73.6391 147.206 73.9475 147.347 74.287C147.488 74.6265 147.561 74.9905 147.561 75.3581C147.561 75.7256 147.488 76.0896 147.347 76.4291C147.206 76.7686 147 77.077 146.74 77.3366C146.215 77.8619 145.504 78.1564 144.761 78.1564" stroke="#2D2D2D" stroke-width="0.77246" stroke-linecap="round" stroke-linejoin="round"/>
<path d="M170.416 46.5917C170.416 46.8464 170.36 47.0981 170.252 47.3284C170.143 47.5588 169.984 47.7621 169.787 47.9238C169.59 48.0854 169.36 48.2013 169.113 48.263C168.866 48.3247 168.608 48.3308 168.358 48.2808C168.108 48.2315 167.872 48.1273 167.667 47.9757C167.463 47.8241 167.294 47.6289 167.174 47.4042C167.054 47.1795 166.985 46.9309 166.973 46.6764C166.96 46.4218 167.005 46.1678 167.103 45.9325C167.234 45.6182 167.455 45.3496 167.738 45.1607C168.021 44.9717 168.354 44.8708 168.695 44.8707C169.035 44.8706 169.368 44.9713 169.652 45.16C169.935 45.3488 170.156 45.6172 170.287 45.9315C170.374 46.1405 170.417 46.3651 170.416 46.5917Z" stroke="#2D2D2D" stroke-width="0.77246" stroke-linecap="round" stroke-linejoin="round"/>
<path d="M156.581 76.532L168.694 48.3135" stroke="#2D2D2D" stroke-width="0.77246" stroke-linecap="round" stroke-linejoin="round"/>
<path d="M168.694 44.8695L151.043 25.0657" stroke="#2D2D2D" stroke-width="0.77246" stroke-linecap="round" stroke-linejoin="round"/>
<path d="M148.929 23.7156L145.935 21.7979" stroke="#2D2D2D" stroke-width="0.77246" stroke-linecap="round" stroke-linejoin="round"/>
<path d="M138.89 29.9969C138.573 30.2452 138.197 30.4083 137.799 30.4708C137.401 30.5332 136.993 30.493 136.615 30.3538C136.237 30.2147 135.9 29.9812 135.638 29.6756C135.375 29.37 135.194 29.0023 135.114 28.6075C135.045 28.2743 135.05 27.9302 135.128 27.5991C135.205 27.2679 135.354 26.9576 135.564 26.6897" stroke="#2D2D2D" stroke-width="0.77246" stroke-linecap="round" stroke-linejoin="round"/>
<path d="M151.336 24.2631C151.337 24.4514 151.295 24.6374 151.215 24.8076C151.135 24.9779 151.018 25.1282 150.872 25.2476C150.727 25.367 150.556 25.4525 150.374 25.498C150.191 25.5434 150 25.5477 149.816 25.5104C149.504 25.4508 149.227 25.2769 149.037 25.0229C148.847 24.7689 148.759 24.453 148.79 24.1374C148.821 23.8218 148.969 23.5292 149.205 23.3171C149.441 23.105 149.747 22.9888 150.064 22.9911C150.4 22.9959 150.721 23.1315 150.958 23.369C151.196 23.6065 151.331 23.9272 151.336 24.2631Z" stroke="#2D2D2D" stroke-width="0.77246" stroke-linecap="round" stroke-linejoin="round"/>
<path d="M157.833 77.804C157.834 77.9923 157.792 78.1783 157.712 78.3485C157.632 78.5188 157.515 78.6691 157.369 78.7885C157.224 78.9079 157.053 78.9934 156.871 79.0389C156.688 79.0843 156.497 79.0886 156.313 79.0513C156.066 79.0026 155.839 78.8814 155.662 78.7032C155.529 78.57 155.428 78.4091 155.365 78.2321C155.302 78.0551 155.278 77.8663 155.297 77.6793C155.315 77.4922 155.375 77.3116 155.471 77.1503C155.568 76.989 155.699 76.851 155.855 76.7463C156.099 76.582 156.393 76.5078 156.686 76.5366C156.979 76.5653 157.253 76.6952 157.461 76.9038C157.579 77.022 157.673 77.1624 157.737 77.3169C157.801 77.4713 157.833 77.6369 157.833 77.804Z" stroke="#2D2D2D" stroke-width="0.77246" stroke-linecap="round" stroke-linejoin="round"/>
<path d="M104.429 101.894L102.081 138.351" stroke="#2D2D2D" stroke-width="0.77246" stroke-linecap="round" stroke-linejoin="round"/>
<path d="M66.0938 19.8805H54.4307V8.21741H66.0938V19.8805Z" stroke="#2D2D2D" stroke-width="0.77246" stroke-linecap="round" stroke-linejoin="round"/>
<path d="M60.2622 10.8782L63.6672 3.69641" stroke="#2D2D2D" stroke-width="0.77246" stroke-linecap="round" stroke-linejoin="round"/>
<path d="M26.7014 103.919H17.7975" stroke="#2D2D2D" stroke-width="0.77246" stroke-linecap="round" stroke-linejoin="round"/>
<path d="M22.2396 108.371V99.467" stroke="#2D2D2D" stroke-width="0.77246" stroke-linecap="round" stroke-linejoin="round"/>
<path d="M170.768 98.2729C170.803 98.6549 170.753 99.0399 170.622 99.4001C170.49 99.7603 170.28 100.087 170.007 100.356C169.733 100.625 169.404 100.83 169.042 100.957C168.679 101.083 168.294 101.128 167.912 101.087C167.402 101.032 166.92 100.828 166.526 100.5C166.132 100.171 165.844 99.7338 165.698 99.2421C165.59 98.8743 165.564 98.4871 165.623 98.1083C165.683 97.7295 165.825 97.3685 166.04 97.0513C166.256 96.7341 166.539 96.4685 166.869 96.2737C167.199 96.0789 167.569 95.9597 167.95 95.9246C168.463 95.8718 168.979 95.9746 169.432 96.2195C169.884 96.4644 170.253 96.8401 170.489 97.2976C170.646 97.6004 170.741 97.932 170.768 98.2729Z" stroke="#2D2D2D" stroke-width="0.77246" stroke-linecap="round" stroke-linejoin="round"/>
<path d="M0.65509 138.351H196.345" stroke="#2D2D2D" stroke-width="0.77246" stroke-linecap="round" stroke-linejoin="round"/>
<path d="M70.5162 135.787H92.3748" stroke="#2D2D2D" stroke-width="0.77246" stroke-linecap="round" stroke-linejoin="round"/>
<path d="M47.9534 135.787H70.4773" stroke="#2D2D2D" stroke-width="0.77246" stroke-linecap="round" stroke-linejoin="round"/>
<path d="M70.5153 135.757C70.3079 133.866 69.8882 132.006 69.2639 130.209C65.3604 131.158 61.2788 131.097 57.4051 130.033C52.7625 131.61 48.6724 134.491 45.6246 138.331C54.6655 138.331 60.6732 138.351 67.4832 138.331" stroke="#2D2D2D" stroke-width="0.77246" stroke-linecap="round" stroke-linejoin="round"/>
<path d="M91.1224 130.21C87.5918 131.219 83.851 131.219 80.3203 130.21C75.4466 131.623 69.2103 136.604 67.4831 138.331C77.8155 138.331 84.3124 138.233 92.4335 138.233C92.5052 135.5 92.0604 132.778 91.1224 130.21Z" stroke="#2D2D2D" stroke-width="0.77246" stroke-linecap="round" stroke-linejoin="round"/>
<path d="M102.081 97.1771L102.57 95.2007L108.304 97.2163" stroke="#2D2D2D" stroke-width="0.77246" stroke-linecap="round" stroke-linejoin="round"/>
<path d="M102.081 97.1772L104.429 97.5294L125.561 95.8032" stroke="#2D2D2D" stroke-width="0.77246" stroke-linecap="round" stroke-linejoin="round"/>
<path d="M128.284 96.0033L121.631 95.514" stroke="#2D2D2D" stroke-width="0.77246" stroke-linecap="round" stroke-linejoin="round"/>
<path d="M66.8178 127.294L83.3732 99.5258" stroke="#2D2D2D" stroke-width="0.77246" stroke-linecap="round" stroke-linejoin="round"/>
<path d="M102.942 70.7009C104.703 73.3036 105.154 76.9043 104.253 81.503" stroke="#2D2D2D" stroke-width="0.77246" stroke-linecap="round" stroke-linejoin="round"/>
<path d="M101.005 101.502L104.429 101.893L125.852 100.113C126.302 100.078 126.729 99.9019 127.074 99.6103C127.418 99.3188 127.661 98.9262 127.77 98.4884L137.026 53.6167C137.18 52.8906 137.09 52.1342 136.772 51.4638C136.454 50.7934 135.924 50.246 135.265 49.9058C134.828 49.679 134.348 49.5497 133.856 49.5268L108.774 48.3135" stroke="#2D2D2D" stroke-width="0.77246" stroke-linecap="round" stroke-linejoin="round"/>
<path d="M92.8836 84.3204C90.8794 84.7066 89.036 85.6819 87.5893 87.1217C86.1426 88.5614 85.1583 90.4001 84.7625 92.4024L78.1708 125.826C83.1988 128.206 88.781 129.167 94.3152 128.607C94.3152 128.51 100.309 104.341 102.084 97.1793" stroke="#2D2D2D" stroke-width="0.77246" stroke-linecap="round" stroke-linejoin="round"/>
<path d="M76.9937 37.1395C77.8966 37.1401 78.7623 37.499 79.4008 38.1374C80.0392 38.7759 80.3981 39.6416 80.3987 40.5445V65.2993C80.3987 66.2026 80.04 67.0688 79.4015 67.7077C78.763 68.3466 77.8969 68.7058 76.9937 68.7064H43.1589C42.2551 68.7058 41.3884 68.3472 40.7485 67.709C40.1086 67.0708 39.7476 66.2051 39.7446 65.3014V40.5445C39.7438 40.0977 39.8311 39.655 40.0015 39.242C40.172 38.8289 40.4222 38.4535 40.7379 38.1372C41.0536 37.8209 41.4286 37.57 41.8413 37.3988C42.2541 37.2276 42.6966 37.1395 43.1434 37.1395H76.9937Z" stroke="#2D2D2D" stroke-width="0.77246" stroke-linecap="round" stroke-linejoin="round"/>
<path d="M81.6903 40.5445V65.2797C81.6898 66.1826 81.3309 67.0484 80.6924 67.6868C80.054 68.3253 79.1882 68.6842 78.2853 68.6847H76.9938C77.8967 68.6842 78.7624 68.3253 79.4009 67.6868C80.0393 67.0484 80.3982 66.1826 80.3988 65.2797V40.5445C80.3982 39.6416 80.0393 38.7759 79.4009 38.1374C78.7624 37.499 77.8967 37.1401 76.9938 37.1395H78.2853C79.1882 37.1401 80.054 37.499 80.6924 38.1374C81.3309 38.7759 81.6898 39.6416 81.6903 40.5445Z" stroke="#2D2D2D" stroke-width="0.77246" stroke-linecap="round" stroke-linejoin="round"/>
<path d="M108.696 38.9416C110.138 37.8787 111.168 40.3351 108.481 41.5638C108.107 41.7348 106.955 45.4972 108.109 47.5375C106.266 48.1441 104.039 48.5056 102.454 47.3809C103.291 46.4812 103.789 45.3181 103.862 44.0913C98.774 44.1696 103.627 36.479 103.725 36.479C106.212 33.0008 107.889 36.6602 107.759 38.8396C107.721 39.4833 108.172 39.3257 108.696 38.9416Z" stroke="#2D2D2D" stroke-width="0.77246" stroke-linecap="round" stroke-linejoin="round"/>
<path d="M120.874 96.1548C122.174 95.1806 123.212 93.8991 123.895 92.4252C124.578 90.9512 124.885 89.3309 124.788 87.7093C124.717 86.783 124.582 85.8627 124.383 84.9552" stroke="#2D2D2D" stroke-width="0.77246" stroke-linecap="round" stroke-linejoin="round"/>
<path d="M121.905 78.7999C122.435 79.6638 122.898 80.567 123.29 81.5015" stroke="#2D2D2D" stroke-width="0.77246" stroke-linecap="round" stroke-linejoin="round"/>
<path d="M144.761 80.5632C144.761 80.8124 144.662 81.0513 144.486 81.2274C144.31 81.4036 144.071 81.5025 143.822 81.5025H136.777C136.528 81.5025 136.289 81.4036 136.113 81.2274C135.937 81.0513 135.838 80.8124 135.838 80.5632V70.1484C135.838 69.8993 135.937 69.6604 136.113 69.4842C136.289 69.3081 136.528 69.2091 136.777 69.2091H143.818C144.067 69.2094 144.306 69.3084 144.482 69.4845C144.658 69.6606 144.757 69.8994 144.757 70.1484L144.761 80.5632Z" stroke="#2D2D2D" stroke-width="0.77246" stroke-linecap="round" stroke-linejoin="round"/>
<path d="M165.426 79.0564C165.503 79.0585 165.576 79.0873 165.632 79.1367C165.659 79.1604 165.68 79.1892 165.695 79.2214C165.71 79.2537 165.718 79.2886 165.72 79.3242V81.2327C165.718 81.2682 165.71 81.3032 165.695 81.3354C165.68 81.3677 165.659 81.3965 165.632 81.4201C165.575 81.4703 165.502 81.4987 165.426 81.5005H147.716C147.64 81.4987 147.567 81.4703 147.51 81.4201C147.484 81.3965 147.462 81.3677 147.447 81.3354C147.432 81.3032 147.424 81.2682 147.423 81.2327V79.3242C147.424 79.2886 147.432 79.2537 147.447 79.2214C147.462 79.1892 147.484 79.1604 147.51 79.1367C147.567 79.0866 147.64 79.0581 147.716 79.0564H165.426Z" stroke="#2D2D2D" stroke-width="0.77246" stroke-linecap="round" stroke-linejoin="round"/>
<path d="M104.429 101.894V97.5299" stroke="#2D2D2D" stroke-width="0.77246" stroke-linecap="round" stroke-linejoin="round"/>
<path d="M142.788 19.6814L133.257 22.2841C133.087 22.3305 132.933 22.4207 132.808 22.5457C132.684 22.6706 132.595 22.826 132.549 22.9963C132.504 23.1665 132.503 23.3458 132.549 23.5161C132.594 23.6864 132.683 23.8419 132.807 23.967L141.379 32.4599C141.472 32.5535 141.583 32.6278 141.705 32.6784C141.827 32.7291 141.958 32.7552 142.09 32.7552C142.222 32.7552 142.353 32.7291 142.475 32.6784C142.597 32.6278 142.708 32.5535 142.801 32.4599C142.926 32.3352 143.015 32.18 143.062 32.0099L145.606 22.3036L142.788 19.6814Z" stroke="#2D2D2D" stroke-width="0.77246" stroke-linejoin="round"/>
</svg>
