<svg width="209" height="217" viewBox="0 0 209 217" fill="none" xmlns="http://www.w3.org/2000/svg">
<path d="M70.9202 165.007C72.8162 164.336 74.7587 163.804 76.7325 163.415L76.9713 164.291C76.998 164.394 77.0609 164.484 77.1485 164.545C77.2364 164.606 77.3429 164.632 77.449 164.621L85.2629 163.711C87.4127 158.808 91.3595 151.381 91.4164 151.267C91.3595 149.413 91.4164 147.855 91.4164 146.081C86.9463 147.741 78.6775 150.892 74.3552 152.905C74.2574 152.968 74.1819 153.061 74.1391 153.169C74.0963 153.277 74.0883 153.395 74.1164 153.508C74.1164 153.508 74.196 153.792 74.2984 154.202C72.1828 154.202 65.8473 153.895 64.3231 155.339C64.0861 155.669 63.9697 156.071 63.9933 156.477C63.9023 158.046 64.6871 170.24 65.9383 173.822C66.5866 175.699 67.9515 175.495 68.8842 173.697C69.9637 170.991 70.6567 168.146 70.943 165.246C70.943 165.098 70.9088 165.11 70.9202 165.007ZM69.6122 154.827C70.9998 154.714 71.4321 154.736 74.4121 154.646C74.9467 156.67 76.05 160.833 76.6187 162.96C74.6119 163.271 72.6311 163.731 70.6927 164.336C70.0886 161.199 69.7274 158.02 69.6122 154.827Z" fill="#2D2D2D"/>
<path d="M175.608 55.28C175.893 54.8819 175.529 54.3701 175.222 53.972C176.092 53.0773 177.057 52.2801 178.099 51.5947C179.86 50.7177 181.468 49.566 182.865 48.1825C183.445 47.5796 184.537 46.3398 184.128 45.6119C183.718 44.8839 182.99 44.8384 182.001 45.2593C182.429 44.8093 182.78 44.29 183.036 43.7238C183.354 42.8366 182.604 42.12 180.977 42.7797C181.569 41.8356 181.705 40.8461 180.704 40.3684C179.897 39.9816 178.714 40.903 178.031 41.5058C176.691 42.6767 175.433 43.9384 174.266 45.282C173.55 43.7806 172.412 42.0518 170.991 42.5977C169.569 43.1437 170.672 45.5891 171.4 46.9199L168.818 48.7057C168.428 48.4949 167.987 48.3967 167.544 48.4213C164.61 48.9218 151.131 59.1814 149.766 59.1814C148.72 59.1814 133.774 52.0156 120.853 49.9455C120.828 49.8679 120.782 49.7993 120.719 49.7469C120.657 49.6946 120.581 49.6609 120.5 49.6497C118.246 49.2651 115.962 49.0939 113.676 49.1379C113.607 49.1427 113.539 49.1623 113.479 49.1956C113.417 49.2291 113.365 49.2754 113.323 49.3313H112.368C112.14 48.41 111.298 46.283 111.003 45.464C111.776 44.7929 112.845 44.4517 113.403 43.3712C114.426 41.3693 114.381 37.8888 114.096 35.6594C115.382 34.6812 115.416 33.1116 115.12 31.5078C115.006 30.8595 114.654 29.3922 114.108 29.0282C113.801 28.8235 113.152 29.0282 112.595 29.233C112.038 27.9363 112.038 28.5278 112.265 28.0046C112.372 27.7634 112.433 27.5053 112.447 27.2425C113.05 27.4245 114.301 26.2188 113.869 24.6264C113.643 24.0564 113.365 23.5082 113.039 22.9885C113.198 22.6018 113.539 22.1354 112.47 20.7137C112.009 20.2169 111.411 19.8684 110.752 19.7127H110.229C109.852 19.1649 109.298 18.7633 108.66 18.5753C107.697 18.3296 106.675 18.4727 105.816 18.9734C105.589 19.144 105.407 19.3715 105.179 19.5307C104.664 19.2185 104.075 19.0534 103.473 19.0534C102.871 19.0534 102.282 19.2185 101.767 19.5307C101.466 19.6488 101.191 19.8267 100.961 20.0533C100.731 20.2802 100.548 20.5511 100.425 20.8501C99.8673 20.6578 99.2759 20.5838 98.6883 20.6328C98.1014 20.6818 97.53 20.8526 97.0124 21.1345C95.0475 22.2 93.5774 23.9923 92.9177 26.1278C92.8997 26.4498 92.8997 26.7726 92.9177 27.0946H92.7925C91.0864 26.8444 88.9139 30.8936 90.6542 34.0443C90.8589 34.4196 91.1205 34.7722 91.3708 35.1817C92.0987 36.3191 91.8143 36.6604 93.4409 38.048C93.9186 38.4575 93.9982 38.4234 94.2939 38.6736C94.5897 38.9238 94.4759 38.7987 94.6465 39.4357C94.7394 39.8108 94.9063 40.164 95.1367 40.4744C95.367 40.7849 95.657 41.0465 95.9887 41.2442C96.1101 42.3568 96.5841 43.4011 97.3422 44.2242C97.5821 44.4931 97.8626 44.723 98.1726 44.9067C98.2561 44.9538 98.3498 44.9811 98.4455 44.9863C98.7868 47.1019 99.2076 49.8545 99.3896 51.026L98.3773 51.572C97.0531 52.1049 95.7651 52.7243 94.5214 53.426C94.4238 53.4936 94.3547 53.5947 94.3281 53.7104C93.1224 54.3473 91.985 54.9501 91.3366 55.3369C82.3057 60.6941 56.6565 96.0112 56.3949 97.6263C56.3662 97.7192 56.3662 97.8178 56.3949 97.9107C56.7626 98.4974 57.2106 99.0293 57.7257 99.4917C57.5671 99.7819 57.3762 100.052 57.157 100.299C54.8822 101.789 51.4701 104.007 49.6388 105.986C49.5102 106.101 49.4138 106.247 49.3592 106.41C49.3044 106.573 49.2931 106.748 49.3264 106.916C49.3597 107.085 49.4364 107.242 49.5491 107.373C49.6618 107.503 49.8063 107.602 49.9685 107.658C50.3097 107.772 50.3668 107.738 52.5848 106.521C51.9751 107.056 51.4765 107.705 51.1175 108.432C50.9696 109.057 51.5383 109.421 52.2549 109.308C52.658 109.202 53.0418 109.033 53.3923 108.807C53.187 109.124 53.078 109.494 53.078 109.871C53.078 110.248 53.187 110.618 53.3923 110.934C54.5298 112.367 57.5098 107.852 59.0795 106.737C59.7164 107.545 60.5807 109.433 61.9569 108.932C63.1512 108.489 61.8432 105.861 61.9569 105.099C62.4198 104.655 62.914 104.244 63.4358 103.871C64.3131 104.521 65.3163 104.983 66.3815 105.224C68.2583 105.224 87.8447 85.4559 89.3348 83.8749C88.8002 88.9023 86.1045 110.479 86.6732 114.676C86.9348 116.576 91.4959 116.849 93.4181 116.951C92.838 130.6 92.4513 151.279 92.3489 151.495C89.3348 157.989 88.5158 159.764 87.5035 161.732C85.6609 165.258 77.9036 178.27 77.0278 181.227C76.9027 181.693 76.8913 181.875 77.3804 182.74C75.9148 184.281 74.5544 185.919 73.3087 187.642C72.6831 188.78 75.3672 199.38 77.2667 203.134C77.6989 203.976 78.4041 205.272 79.3482 205.239C82.1917 205.136 82.1804 194.922 82.1007 192.067C82.1003 191.979 82.0681 191.894 82.0097 191.828C82.5253 191.058 83.0874 190.322 83.6931 189.621C84.0548 189.871 84.4352 190.091 84.8306 190.281C85.2173 190.452 85.6495 190.156 85.968 189.894C89.7556 186.914 110.184 161.459 114.563 149.447C116.553 143.965 119.204 136.39 119.954 131.021C120.413 127.627 120.456 124.189 120.079 120.784C120.079 120.736 120.098 120.69 120.133 120.655C120.167 120.621 120.213 120.602 120.261 120.602C120.31 120.602 120.356 120.621 120.39 120.655C120.425 120.69 120.443 120.736 120.443 120.784C121.013 124.208 121.124 127.693 120.773 131.146C119.931 138.596 114.051 154.122 110.912 159.832C113.619 159.332 119.124 158.24 121.785 157.444C130.657 154.748 138.847 146.706 139.563 137.675C139.796 133.42 139.796 129.157 139.563 124.902C139.487 119.028 138.724 113.183 137.289 107.488C139.7 106.18 141.907 104.644 142.623 103.234C144.159 100.22 140.098 82.8739 139.211 78.0058C144.068 78.5403 152.337 79.5072 156.193 76.493C160.606 72.9442 170.137 62.9576 175.608 55.28ZM81.4865 191.441C79.4392 190.201 76.5729 187.255 76.1406 184.946C76.607 184.355 77.0961 183.809 77.551 183.195C79.0926 185.547 81.0146 187.627 83.2382 189.348C82.6136 190.011 82.0286 190.709 81.4865 191.441ZM171.912 47.2384C171.971 47.201 172.013 47.1422 172.029 47.0746C172.046 47.0068 172.037 46.9352 172.003 46.8744C171.605 46.1351 170.41 43.5304 171.241 43.2347C171.718 43.0527 172.139 43.3484 172.492 43.7465C173.03 44.4296 173.449 45.1987 173.732 46.0214C173.753 46.0882 173.791 46.1481 173.845 46.1947C173.897 46.2412 173.961 46.2724 174.029 46.2854C174.099 46.2983 174.17 46.2921 174.236 46.2677C174.301 46.2433 174.359 46.2013 174.403 46.1465C175.54 44.8839 178.202 42.0063 179.703 41.2328C180.841 40.6413 181.114 41.7333 178.327 44.2811C177.687 44.7692 177.072 45.2893 176.484 45.8394C176.452 45.884 176.434 45.9378 176.434 45.993C176.434 46.048 176.452 46.1018 176.484 46.1465C176.484 46.4422 176.723 46.7721 177.133 46.465C178.121 45.597 179.167 44.7954 180.261 44.065C180.819 43.6683 181.468 43.4179 182.149 43.337C181.807 44.3835 178.634 47.227 178.361 47.5455C178.275 47.6233 178.222 47.7316 178.214 47.8477C178.208 47.9637 178.245 48.078 178.321 48.1659C178.398 48.2538 178.505 48.3084 178.621 48.3179C178.737 48.3274 178.852 48.291 178.941 48.2166C180.204 47.3976 182.41 45.4868 183.172 45.7711C183.934 46.0555 181.671 48.1711 181.102 48.6716C177.838 51.5038 178.679 49.6839 174.903 53.5284C173.26 51.7277 171.372 50.1657 169.296 48.8877L171.912 47.2384ZM122.491 101.641C122.297 100.072 122.058 98.377 121.763 96.614L122.252 95.9657C124.527 93.0425 125.209 88.3904 124.993 84.7393C126.21 90.0738 127.177 95.3174 127.916 100.527L122.491 101.641ZM105.577 62.696C102.586 60.4212 97.7745 56.497 94.9764 53.8127L99.5261 51.5379C103.704 55.4403 107.28 59.9403 110.138 64.8912C114.509 72.9196 117.751 81.5123 119.772 90.4264L103.553 67.4846L105.668 63.0941C105.697 63.0265 105.702 62.9518 105.686 62.8807C105.67 62.8091 105.632 62.7448 105.577 62.696ZM113.266 49.7976C113.334 49.9227 114.119 51.5947 115.314 54.5179C115.314 54.643 115.097 57.4866 114.995 58.4875C113.543 57.9122 112.174 57.1472 110.923 56.2127C111.173 55.2231 112.299 50.7303 112.379 49.718L113.266 49.7976ZM109.228 62.0136C109.308 61.8088 109.388 61.5358 109.479 61.2174L110.241 61.6155C110.673 61.8998 110.502 61.0354 110.889 63.5377C110.889 63.9585 111.003 64.4249 111.025 64.9367C110.502 63.9927 109.854 62.9804 109.24 62.0136H109.228ZM108.591 61.0581C106.443 58.0102 103.996 55.1832 101.289 52.6184L109.854 56.3378C109.524 57.1226 109.046 59.5226 108.603 61.0581H108.591ZM117.338 67.7234C116.201 64.6183 115.325 61.1491 114.893 60.2392C114.918 59.9554 114.918 59.6698 114.893 59.3861C115.058 59.4473 115.229 59.4856 115.405 59.4998C115.515 59.5011 115.621 59.4626 115.704 59.3915C115.788 59.3205 115.843 59.2217 115.86 59.1131C115.951 58.7378 116.098 56.8383 116.121 56.4174C119.43 64.7713 122.192 73.3316 124.39 82.0436C117.964 68.3718 118.953 72.33 117.35 67.7234H117.338ZM126.745 89.4369C124.151 77.0048 119.59 61.5017 114.404 50.0137C116.309 50.0148 118.21 50.167 120.091 50.4687C121.058 59.1131 120.25 58.8174 120.898 59.1586C121.547 59.4998 125.448 61.0695 126.028 61.3083C125.971 62.1842 126.79 87.2303 126.756 89.4369H126.745ZM113.653 29.7562C114.246 31.0502 114.455 32.487 114.256 33.8964C114.163 34.2552 113.973 34.5811 113.706 34.838C113.439 35.095 113.106 35.2729 112.744 35.3519C112.383 35.4309 112.006 35.4079 111.656 35.2855C111.306 35.1631 110.998 34.9459 110.764 34.6585C110.221 33.5153 109.813 32.3129 109.547 31.0756C109.854 30.6775 113.13 29.8813 113.653 29.7562ZM98.0019 41.1304C97.5869 40.9412 97.1613 40.7743 96.728 40.63C96.437 40.5104 96.1783 40.326 95.9699 40.0906C95.7612 39.8553 95.6096 39.5755 95.5263 39.2723C95.4427 38.9693 95.4295 38.6513 95.4882 38.3423C95.547 38.0335 95.675 37.7422 95.8636 37.4907C96.5802 36.8878 97.2285 36.922 97.82 37.8205C98.1953 38.5144 98.1839 38.5712 98.3545 38.6395C98.404 38.661 98.4569 38.6719 98.5101 38.6713C98.5632 38.6707 98.6161 38.6587 98.6645 38.6362C98.7129 38.6136 98.7566 38.5807 98.7907 38.5402C98.8256 38.4997 98.8513 38.4521 98.8664 38.4006C99.0351 37.6888 99.0616 36.9505 98.946 36.2281C98.8095 35.4433 98.7868 31.9628 98.8095 31.849C99.1423 32.0242 99.5147 32.1067 99.8901 32.0879C101.949 32.0083 102.358 30.9505 103.177 30.086C104.121 30.177 104.315 30.632 105.384 30.086C105.884 29.8013 106.344 29.4493 106.749 29.0396C107.076 29.1734 107.391 29.3333 107.693 29.5173C108.374 29.8451 109.143 29.9458 109.886 29.8046C110.629 29.6633 111.308 29.2876 111.822 28.7325C111.947 28.9714 112.061 29.2102 112.163 29.4605C111.117 29.7849 110.134 30.2806 109.251 30.9277C109.058 31.1666 109.342 32.4633 109.41 32.7704C108.458 32.8903 107.535 33.1873 106.692 33.6462C106.521 33.0547 106.146 31.9514 105.554 31.6443C105.376 31.5899 105.187 31.5899 105.008 31.6443C103.985 31.8035 100.311 32.9069 99.8673 33.5097C99.4806 33.9305 100.584 37.1836 100.925 37.7182C102.233 39.7428 106.066 39.1513 106.783 36.7855C106.96 35.9915 106.96 35.1681 106.783 34.3741C107.113 34.3741 108.102 34.0215 108.216 33.9874C109.001 35.7504 109.228 35.8528 110.138 37.7523C110.013 37.8547 109.808 38.0253 109.638 38.139C108.83 38.6736 108.66 38.5826 108.705 38.8101C108.718 38.8552 108.748 38.894 108.788 38.9191C108.827 38.9443 108.875 38.954 108.921 38.9466C109.399 38.8783 109.865 38.7485 110.309 38.5599C110.574 38.4608 110.793 38.266 110.923 38.0139C111.242 37.2973 109.479 34.6016 108.785 33.794C108.921 33.794 109.24 33.5666 109.479 33.4414C109.797 34.7154 110.013 35.7163 111.242 36.2168C111.597 36.3508 111.975 36.4118 112.354 36.3963C112.733 36.3805 113.105 36.2885 113.448 36.1258C113.63 38.1276 113.596 41.3807 112.641 43.1551C112.152 44.0764 110.946 44.429 110.172 45.191C109.945 45.4072 110.093 45.7143 110.172 46.0441C111.435 49.5588 111.458 49.5474 111.389 50.0023C111.055 51.8907 110.588 53.7532 109.99 55.5757C109.706 55.4506 106.51 53.7559 100.254 51.3218C100.061 50.0365 99.0256 43.1778 98.6958 41.9153C98.7185 41.4717 98.6616 41.3693 98.0019 41.0736V41.1304ZM105.964 36.4897C105.6 37.7295 103.882 38.2641 102.654 37.9229C101.426 37.5817 101.346 36.9561 100.766 35.4774C100.494 34.9126 100.306 34.3109 100.209 33.6917C100.584 33.2822 104.69 32.4405 105.202 32.3609C105.919 33.5891 106.19 35.0283 105.964 36.4329V36.4897ZM61.4567 104.781C61.0245 105.202 61.6043 106.578 61.6953 107.772C61.6953 107.875 61.6953 108.318 61.6271 108.352C61.0015 108.557 60.4214 107.613 60.0688 107.044C59.7162 106.475 59.3636 105.702 58.8063 105.907C57.6689 106.441 55.03 109.945 53.995 110.309C53.4718 109.308 56.4634 106.453 56.5658 106.294C56.6096 106.221 56.6326 106.136 56.6321 106.052C56.6317 105.967 56.6079 105.882 56.5635 105.81C56.5188 105.737 56.4551 105.678 56.3794 105.639C56.3035 105.6 56.2185 105.583 56.1335 105.588C55.9288 105.588 55.7921 105.77 55.4736 106.055C54.5049 107 53.3963 107.79 52.1865 108.398C53.2834 107.139 54.4572 105.95 55.7011 104.838C55.7627 104.774 55.806 104.696 55.8264 104.61C55.8264 104.61 55.5876 104.007 55.1212 104.246C54.4615 104.61 51.2538 106.464 50.2417 106.942C50.1052 106.851 50.1848 106.714 50.2417 106.578C51.8452 104.61 55.3715 102.222 57.5324 100.709C57.7861 100.447 57.9973 100.149 58.1579 99.8216C59.6548 101.214 61.2513 102.496 62.9351 103.655C62.4165 103.995 61.9224 104.371 61.4567 104.781ZM87.9244 115.12C87.6741 114.961 87.4921 114.813 87.458 114.608C86.8324 109.967 90.3129 83.6701 90.2561 82.6351C90.2561 82.5743 90.2439 82.5143 90.2201 82.4583C90.1973 82.4024 90.1622 82.3517 90.1188 82.3094C90.0751 82.267 90.0238 82.2337 89.967 82.2113C89.9111 82.1892 89.8505 82.1787 89.7897 82.1801C89.2096 82.1801 90.2333 82.1801 75.7427 96.0567C74.7873 96.9553 67.4848 103.939 66.2678 104.405C64.5958 104.28 58.3058 99.2642 57.2821 97.6832C59.2612 93.6795 83.2609 60.7396 91.5641 55.7008C92.2011 55.3141 93.293 54.7113 94.4873 54.0743C94.9007 54.4639 95.3451 54.8176 95.8181 55.1321C98.4569 57.6345 102.131 60.751 104.917 63.0941L102.745 67.405C102.712 67.462 102.695 67.5268 102.695 67.5927C102.695 67.6585 102.712 67.7232 102.745 67.7803C120.386 93.088 120.125 92.8036 120.239 92.8036C121.369 98.6519 122.073 104.574 122.343 110.525C122.343 112.128 122.343 111.992 122.411 111.878C122.479 111.765 122.411 111.958 122.411 111.958C119.659 114.961 92.4172 117.759 87.9244 115.12ZM150.801 77.437C145.649 78.1536 139.825 77.0844 138.699 77.0389C138.073 74.0068 136.826 71.1372 135.036 68.6106C135.009 68.5738 134.969 68.5486 134.924 68.5403C134.879 68.5318 134.833 68.5407 134.794 68.5651C134.755 68.5895 134.727 68.6278 134.714 68.672C134.703 68.7163 134.708 68.7634 134.729 68.804C135.389 70.1461 137.596 75.9356 138.142 77.346C137.971 77.892 143.283 99.8557 141.781 102.813C140.439 105.486 132.625 108.853 129.804 109.82C129.247 103.487 128.335 97.1912 127.075 90.961C127.461 87.6852 126.961 68.2125 126.813 61.0126C126.808 60.9291 126.781 60.8482 126.732 60.78C126.684 60.7113 126.618 60.6582 126.54 60.6259L121.433 58.4762C121.41 55.7732 121.239 53.0734 120.921 50.3891C133.672 52.5957 148.526 59.8866 149.766 59.8979C151.563 59.8979 164.917 49.6611 167.681 49.2516C168.909 49.0583 174.187 53.6649 174.801 54.9388C169.409 62.4685 159.935 72.3641 155.544 75.7878C154.13 76.7335 152.497 77.3012 150.801 77.437Z" fill="#2D2D2D"/>
<path d="M104.792 34.2149C104.778 34.1403 104.75 34.0691 104.708 34.0057C104.666 33.942 104.612 33.8872 104.55 33.8443C104.486 33.8018 104.416 33.7718 104.341 33.7563C104.267 33.7407 104.191 33.7401 104.116 33.7544C104.041 33.7685 103.97 33.7972 103.906 33.839C103.843 33.8807 103.788 33.9343 103.745 33.9972C103.702 34.06 103.672 34.1308 103.657 34.2052C103.642 34.2797 103.641 34.3564 103.655 34.4311C103.882 35.5685 103.928 35.8301 104.428 35.8301C104.523 35.8303 104.616 35.8071 104.7 35.7625C104.783 35.7176 104.854 35.6529 104.905 35.5737C104.957 35.4947 104.989 35.4039 104.997 35.3096C105.005 35.2153 104.989 35.1205 104.952 35.0339C104.917 34.8519 104.815 34.3173 104.792 34.2149ZM108.273 41.7447C109.012 41.9608 109.717 41.6082 109.695 41.4262C109.672 41.2442 109.695 41.3352 108.694 40.9599C108.023 40.7096 107.283 39.8224 107.022 39.9589C106.76 40.0954 107.158 40.8234 107.249 40.9599C107.493 41.329 107.853 41.6055 108.273 41.7447ZM129.076 30.9392C127.586 37.1836 126.494 42.484 126.312 43.5418C126.191 44.002 126.168 44.4826 126.244 44.9522C126.847 46.2375 134.638 48.774 135.628 48.2735C136.618 47.7731 139.188 41.9836 142.18 36.0121C144.012 36.0706 145.846 35.9372 147.651 35.614C149.551 35.2653 151.4 34.6807 153.156 33.8737C157 32.0993 161.209 24.5013 161.777 20.6796C162.204 16.5303 161.325 12.3514 159.264 8.72527C149.721 -7.82429 121.729 1.08175 124.003 19.4625C124.653 23.6683 126.403 27.6278 129.076 30.9392ZM136.015 44.4859C136.015 44.6679 135.81 44.6451 134.877 44.4859C132.969 44.2462 131.122 43.6562 129.429 42.7456C128.633 42.3134 128.417 42.2224 128.496 42.0291C128.576 41.8357 128.747 41.9039 129.975 42.2452C130.089 42.2452 133.615 43.3826 134.627 43.7352C135.935 44.3267 136.015 44.3267 136.015 44.4859ZM135.81 25.98C137.024 26.0429 138.235 25.7924 139.325 25.252C140.337 25.7426 141.433 26.0398 142.555 26.1279C140.644 29.688 136.765 36.9448 135.514 40.812L130.692 39.4812C131.829 36.6832 134.343 30.1316 135.787 25.98H135.81ZM135.412 25.0359C134.562 24.9077 133.779 24.5044 133.181 23.8882C132.583 23.2717 132.204 22.4763 132.102 21.6236C131.783 19.3488 133.239 16.801 135.435 17.4038C136.811 17.7792 136.982 18.8711 136.743 20.2474C136.538 21.2483 135.799 23.762 135.389 24.9904L135.412 25.0359ZM138.506 22.3061C138.627 21.5618 138.907 20.8521 139.325 20.2246C139.524 19.8826 139.815 19.6032 140.164 19.4183C140.514 19.2332 140.909 19.1501 141.304 19.1782C142.145 19.4284 142.509 21.0208 141.816 22.0217C141.148 22.9067 140.319 23.6557 139.37 24.2284C139.043 24.0368 138.783 23.75 138.625 23.4063C138.467 23.0628 138.417 22.6788 138.483 22.3061H138.506ZM128.053 7.84945C133.148 1.71871 142.737 -0.71538 149.664 1.8097C153.427 3.10143 156.592 5.71686 158.57 9.16886C160.531 12.6193 161.37 16.5944 160.97 20.5431C160.447 24.0805 156.42 31.4283 152.883 33.0548C149.649 34.5301 146.12 35.2459 142.566 35.1476C142.18 35.1476 141.77 35.1476 141.622 35.4206C140.951 36.7855 139.723 39.4244 138.517 41.9039C137.684 41.5019 136.821 41.1671 135.935 40.903C137.255 37.1268 141.417 29.7107 143.397 26.1165C145.111 26.2633 146.835 25.9657 148.401 25.252C148.824 25.0293 149.175 24.6906 149.413 24.2753C149.65 23.8602 149.764 23.386 149.742 22.9083C149.719 22.4308 149.56 21.9696 149.285 21.5788C149.009 21.1881 148.628 20.8839 148.185 20.7023C146.422 19.8379 144.841 21.908 143.92 23.6483C143.67 24.1032 143.385 24.6378 143.067 25.2407C142.146 25.1803 141.239 24.9927 140.371 24.6833C141.235 24.0753 142.003 23.3391 142.646 22.4995C143.006 21.9556 143.188 21.3134 143.168 20.6616C143.147 20.0095 142.925 19.38 142.532 18.8597C142.223 18.5009 141.794 18.267 141.325 18.2021C140.855 18.1371 140.379 18.2457 139.984 18.5071C139.187 18.9966 138.549 19.7055 138.145 20.5489C137.743 21.3922 137.591 22.3342 137.709 23.2615C137.833 23.785 138.115 24.2577 138.517 24.6151C137.771 24.924 136.97 25.0789 136.163 25.07C136.618 23.7279 137.357 21.3052 137.55 20.3156C137.672 19.7514 137.698 19.1712 137.63 18.5981C137.542 18.1063 137.313 17.6503 136.972 17.2851C136.632 16.9197 136.192 16.661 135.708 16.5394C132.944 15.7545 130.908 18.8142 131.306 21.6691C131.418 22.6922 131.857 23.6518 132.558 24.4058C133.258 25.1598 134.183 25.6679 135.196 25.8549C133.74 29.9496 131.465 36.558 130.328 39.3789L127.825 38.7305C129.429 30.6776 129.622 30.8709 129.395 30.7685C126.81 27.4735 125.157 23.5457 124.606 19.3943C124.338 17.3358 124.507 15.2439 125.1 13.255C125.693 11.2658 126.7 9.42402 128.053 7.84945ZM143.84 25.3089C144.636 23.8644 146.229 20.7023 147.776 21.4758C148.085 21.6005 148.355 21.8073 148.555 22.0739C148.756 22.3404 148.879 22.6566 148.913 22.9886C148.89 24.9904 145.774 25.343 143.795 25.3089H143.84ZM187.381 30.325C188.751 29.5188 190.37 29.2436 191.931 29.5515C193.644 29.5821 195.281 30.2673 196.506 31.4665C197.731 32.6658 198.449 34.2879 198.515 36.0007C197.485 35.4028 196.28 35.1778 195.104 35.3637C192.249 35.614 188.518 37.1609 189.019 39.9134C189.428 42.1883 192.431 41.8812 194.706 41.267C196.981 40.6528 198.788 39.5381 199.256 37.3429C202.018 39.3561 202.668 42.8821 202.782 46.3285C202.782 46.3767 202.8 46.423 202.835 46.4572C202.868 46.4913 202.916 46.5105 202.964 46.5105C203.011 46.5105 203.059 46.4913 203.092 46.4572C203.127 46.423 203.146 46.3767 203.146 46.3285C203.224 42.4726 202.531 38.6964 199.38 36.5012C199.413 35.5137 199.243 34.5299 198.885 33.6092C198.528 32.6887 197.984 31.8505 197.293 31.1453C196.601 30.4403 195.772 29.8832 194.858 29.5075C193.945 29.1319 192.964 28.9456 191.976 28.96C190.397 28.7295 188.788 29.0595 187.426 29.8927C187.005 30.0975 187.199 30.4046 187.381 30.325ZM197.754 38.4803C196.469 40.1637 192.829 41.0395 191.146 40.7551C190.52 40.6528 190.008 40.3912 189.872 39.7428C189.462 37.468 193.386 36.2282 195.73 36.1486C196.683 36.0754 197.634 36.3194 198.437 36.8424C198.35 37.4372 198.116 38.0005 197.754 38.4803ZM182.171 17.0285C183.388 15.5271 182.57 12.911 179.169 12.8996C177.849 12.8996 177.212 14.2418 177.303 15.5271C177.508 18.5867 180.954 18.4957 182.171 17.0285ZM178.099 15.4702C178.099 14.7195 178.452 13.7413 179.237 13.7527C181.068 13.7527 181.91 14.6058 181.91 15.5498C181.864 17.6995 177.952 18.8142 178.099 15.4702ZM177.633 144.42C167.635 140.428 162.994 159.753 154.828 176.359C154.776 177.057 154.799 177.759 154.896 178.452C154.896 180.192 155.089 191.714 156.102 193.022C156.375 193.545 157.523 193.022 158.058 192.692C162.598 189.882 166.877 186.669 170.843 183.093C170.877 183.054 170.901 183.009 170.918 182.96C170.933 182.911 170.938 182.859 170.934 182.808C173.049 179.794 180.977 164.098 182.899 156.227C184.242 150.653 182.911 146.502 177.633 144.42ZM181.205 158.865C175.852 158.179 170.677 156.489 165.952 153.883C168.613 148.845 171.9 143.101 177.326 145.262C183.366 147.662 183.241 152.632 181.205 158.831V158.865ZM162.278 188.438C161.928 188.146 161.547 187.893 161.14 187.688C159.603 186.907 157.828 186.735 156.17 187.21C156.056 185.856 155.408 177.053 155.408 176.973C163.927 180.09 161.3 178.736 169.739 182.933C168.852 183.775 165.52 186.107 162.278 188.416V188.438ZM168.147 155.521C169.256 156.127 170.395 156.678 171.559 157.171C168.952 161.265 166.648 165.547 164.666 169.978C162.756 173.97 162.824 173.948 160.879 178.304C159.741 177.94 158.604 177.599 157.467 177.258C158.695 174.812 167.43 156.932 168.147 155.499V155.521ZM161.322 178.418C165.019 171.786 168.784 163.54 172.014 157.318C173.152 157.796 174.289 158.183 175.426 158.524C174.824 159.662 173.061 162.687 172.594 163.563C172.128 164.439 167.453 173.652 167.123 174.357C166.6 175.495 165.167 178.668 164.723 179.68C163.563 179.168 162.448 178.782 161.277 178.395L161.322 178.418ZM165.133 179.828C165.827 178.566 168.682 173.265 169.034 172.583C169.569 171.525 175.529 159.343 175.859 158.638C176.905 158.934 178.008 159.184 178.714 159.32C176.632 165.007 170.638 175.961 168.477 181.364C166.509 180.442 166.065 180.215 165.087 179.805L165.133 179.828ZM165.827 154.213L167.863 155.351C163.759 162.338 160.186 169.622 157.171 177.144L155.465 176.621C162.073 162.539 162.38 160.697 165.781 154.191L165.827 154.213ZM170.513 182.353L168.795 181.534C170.649 177.894 176.45 168.556 179.1 159.4C179.737 159.514 180.363 159.616 180.966 159.696C178.043 167.495 174.534 175.061 170.467 182.33L170.513 182.353ZM134.877 189.735C135.33 189.36 135.654 188.852 135.803 188.282C135.952 187.712 135.919 187.111 135.708 186.562C135.611 185.769 135.248 185.033 134.677 184.475C134.107 183.916 133.363 183.568 132.568 183.49C131.774 183.41 130.976 183.603 130.307 184.038C129.637 184.472 129.134 185.122 128.883 185.879C127.427 184.935 125.846 183.934 124.333 182.979C125.471 181.466 128.815 182.137 129.156 183.377C129.164 183.425 129.19 183.469 129.229 183.497C129.269 183.526 129.318 183.538 129.366 183.531C129.415 183.523 129.457 183.496 129.487 183.458C129.515 183.418 129.528 183.368 129.52 183.32C129.349 181.341 125.232 180.181 123.571 182.512C122.104 181.614 120.284 180.522 118.76 179.692C120.068 178.554 122.991 179.191 123.31 180.374C123.325 180.415 123.353 180.448 123.391 180.47C123.428 180.491 123.473 180.498 123.514 180.49C123.557 180.481 123.595 180.458 123.622 180.424C123.649 180.391 123.663 180.348 123.662 180.306C123.514 178.463 119.704 177.223 117.975 179.248C117.251 178.842 116.489 178.507 115.7 178.247C115.556 178.187 115.398 178.17 115.244 178.199C115.091 178.227 114.949 178.299 114.836 178.406C111.958 181.989 102.256 191.293 97.7745 192.374C97.6617 192.391 97.5554 192.437 97.4663 192.509C97.3774 192.58 97.3091 192.673 97.2674 192.779C97.2256 192.885 97.2124 193.001 97.2295 193.112C97.2475 193.225 97.2938 193.331 97.365 193.42C98.3487 194.419 99.4758 195.267 100.709 195.934C99.5716 197.071 98.6844 198.095 98.0247 198.834C97.6835 199.198 97.5015 206.159 97.7972 207.696C97.8408 207.845 97.9384 207.975 98.0702 208.06C99.5033 209.038 117.964 217.023 119.852 215.954C121.114 215.236 136.185 199.551 136.424 199.073C136.788 198.323 136.663 193.318 136.64 191.316C136.549 190.713 135.423 190.065 134.877 189.735ZM98.4797 204.761V202.224C103.2 204.499 114.006 209.14 118.1 210.436C119.147 210.777 119.238 210.732 119.784 210.436C122.912 208.434 133.956 195.991 135.981 194.091V196.491C129.838 202.646 119.408 213.429 119.215 212.814C118.089 212.746 99.4578 205.216 98.4797 204.761ZM134.593 185.902C135.001 186.591 135.221 187.376 135.23 188.177C135.226 188.432 135.163 188.682 135.047 188.91C134.93 189.136 134.764 189.333 134.559 189.485C133.603 188.848 131.795 187.665 129.656 186.277C130.828 183.968 133.433 183.934 134.547 185.902H134.593ZM98.1953 193.181C103.041 191.748 112.243 182.876 115.336 179.032C116.08 179.24 116.799 179.533 117.475 179.908C116.337 182.023 117.554 184.344 117.986 184.014C118.225 183.832 117.793 183.764 117.725 182.649C117.696 181.835 117.88 181.027 118.259 180.306C119.829 181.125 121.672 182.194 123.23 183.093C122.275 185.219 123.423 187.324 123.821 187.017C124.22 186.71 123.64 186.778 123.571 185.663C123.544 184.932 123.683 184.204 123.981 183.536C125.585 184.48 127.222 185.458 128.724 186.38C128.493 186.947 128.401 187.561 128.456 188.17C128.511 188.78 128.712 189.367 129.042 189.883C129.057 189.902 129.075 189.919 129.097 189.931C129.118 189.943 129.142 189.951 129.166 189.954C129.19 189.957 129.215 189.956 129.239 189.949C129.262 189.943 129.284 189.932 129.304 189.917C129.323 189.902 129.34 189.884 129.351 189.862C129.364 189.841 129.372 189.818 129.375 189.793C129.378 189.769 129.377 189.745 129.37 189.721C129.364 189.697 129.353 189.674 129.338 189.655C129.133 189.203 129.033 188.711 129.042 188.216C129.052 187.72 129.172 187.233 129.395 186.789C132.045 188.404 134.183 189.758 134.843 190.201C134.718 190.315 122.855 200.87 118.817 204.011C116.167 203.316 102.256 196.412 98.1953 193.181ZM98.6275 199.517C103.78 201.792 115.484 207.069 118.18 207.582C118.646 207.673 118.828 207.706 119.715 207.001C123.503 203.965 135.821 191.077 135.935 191.214C135.941 191.248 135.941 191.282 135.935 191.316V193.591C133.399 195.627 119.295 210.436 119.067 209.731C117.93 209.731 99.4465 202.191 98.5024 201.769C98.4797 201.291 98.582 200.017 98.6275 199.517ZM119.34 215.191C118.203 215.84 100.88 208.798 98.5593 207.365C98.472 206.639 98.4304 205.911 98.4342 205.181C103.416 207.638 117.907 213.757 119.238 213.702C121.183 213.598 134.934 198.118 135.912 197.037C135.924 197.618 135.866 198.199 135.742 198.766C135.548 199.142 120.091 214.771 119.34 215.191ZM25.1039 151.074C25.1836 152.291 25.2404 153.349 25.2404 154.338C25.2404 154.489 25.3004 154.634 25.4069 154.74C25.5136 154.847 25.6582 154.907 25.8091 154.907C25.9599 154.907 26.1047 154.847 26.2112 154.74C26.3179 154.634 26.3779 154.489 26.3779 154.338C26.3779 153.281 26.321 152.234 26.2414 150.994C26.2308 150.844 26.1607 150.703 26.0466 150.604C25.9324 150.504 25.7837 150.455 25.6327 150.466C25.482 150.476 25.3416 150.546 25.2423 150.66C25.143 150.775 25.0934 150.923 25.1039 151.074ZM198.414 128.269C198.339 128.273 198.267 128.292 198.199 128.325C198.133 128.358 198.073 128.403 198.025 128.46C197.975 128.516 197.938 128.582 197.915 128.652C197.893 128.723 197.884 128.798 197.891 128.871C197.959 129.918 198.027 131.044 198.027 132.136C198.027 132.287 198.087 132.432 198.195 132.538C198.3 132.645 198.445 132.705 198.596 132.705C198.747 132.705 198.892 132.645 198.997 132.538C199.105 132.432 199.165 132.287 199.165 132.136C199.165 130.998 199.096 129.861 199.016 128.792C199.012 128.718 198.993 128.645 198.96 128.579C198.927 128.511 198.881 128.452 198.825 128.403C198.77 128.354 198.703 128.317 198.633 128.294C198.563 128.272 198.488 128.262 198.414 128.269ZM22.158 148.242C22.3088 148.242 22.4535 148.182 22.56 148.075C22.6668 147.969 22.7267 147.824 22.7267 147.673C22.7267 147.522 22.6668 147.377 22.56 147.271C22.4535 147.164 22.3088 147.104 22.158 147.104C20.7817 147.104 19.6329 147.207 18.4955 147.184C18.3435 147.184 18.1977 147.244 18.0893 147.35C17.9808 147.456 17.9183 147.601 17.9154 147.753C17.9154 147.903 17.9754 148.048 18.0819 148.155C18.1886 148.262 18.3332 148.321 18.4841 148.321C19.6557 148.344 20.941 148.299 22.158 148.242ZM194.888 124.902C193.523 124.902 192.374 124.981 191.225 124.993C191.075 124.993 190.93 125.053 190.824 125.16C190.716 125.266 190.657 125.411 190.657 125.562C190.657 125.712 190.716 125.857 190.824 125.963C190.93 126.071 191.075 126.13 191.225 126.13C192.454 126.13 193.728 126.13 194.956 126.039C195.107 126.03 195.248 125.962 195.348 125.849C195.448 125.736 195.499 125.587 195.491 125.436C195.481 125.286 195.413 125.144 195.3 125.044C195.186 124.944 195.039 124.892 194.888 124.902ZM24.7968 141.213C24.8651 142.259 24.9333 143.385 24.9333 144.477C24.9362 144.627 24.997 144.77 25.1031 144.876C25.209 144.982 25.3521 145.043 25.502 145.046C25.6528 145.046 25.7976 144.986 25.9041 144.879C26.0108 144.773 26.0708 144.628 26.0708 144.477C26.0708 143.34 26.0025 142.202 25.9343 141.133C25.9237 140.982 25.8536 140.842 25.7395 140.742C25.6253 140.643 25.4766 140.594 25.3256 140.604C25.1749 140.614 25.0345 140.685 24.9352 140.798C24.8359 140.913 24.7863 141.062 24.7968 141.213ZM198.856 122.274C198.856 121.137 198.788 120 198.71 118.93C198.699 118.78 198.629 118.639 198.515 118.54C198.401 118.44 198.253 118.391 198.102 118.402C197.951 118.412 197.81 118.482 197.711 118.596C197.611 118.711 197.562 118.859 197.572 119.01C197.64 120.056 197.709 121.182 197.709 122.274C197.709 122.425 197.769 122.57 197.876 122.676C197.982 122.783 198.126 122.843 198.277 122.843C198.428 122.843 198.575 122.783 198.683 122.677C198.792 122.571 198.854 122.426 198.856 122.274ZM33.191 148.094C33.2657 148.091 33.3391 148.073 33.4069 148.042C33.4748 148.011 33.536 147.966 33.5867 147.911C33.6373 147.856 33.6768 147.793 33.7025 147.721C33.7283 147.651 33.7401 147.577 33.737 147.502C33.7254 147.354 33.6582 147.214 33.5484 147.113C33.4388 147.013 33.2949 146.957 33.1455 146.957C31.7693 147.013 30.6205 147.059 29.4717 147.036C29.3207 147.036 29.1761 147.096 29.0694 147.203C28.9629 147.309 28.9029 147.454 28.9029 147.605C28.9029 147.756 28.9629 147.901 29.0694 148.007C29.1761 148.114 29.3207 148.174 29.4717 148.174C30.6887 148.196 31.9626 148.151 33.191 148.094ZM205.921 124.754C204.783 124.811 203.52 124.845 202.258 124.845C202.184 124.842 202.109 124.854 202.037 124.881C201.967 124.908 201.905 124.948 201.849 124.999C201.795 125.052 201.752 125.114 201.723 125.183C201.694 125.253 201.677 125.327 201.677 125.402C201.677 125.554 201.737 125.7 201.845 125.809C201.95 125.917 202.095 125.98 202.246 125.982C203.543 125.982 204.589 125.982 205.966 125.891C206.041 125.889 206.113 125.871 206.181 125.839C206.25 125.808 206.312 125.763 206.361 125.709C206.413 125.654 206.452 125.59 206.477 125.519C206.504 125.449 206.514 125.375 206.512 125.3C206.498 125.152 206.43 125.015 206.32 124.914C206.212 124.813 206.07 124.756 205.921 124.754ZM7.05292 114.392C7.20079 114.506 39.2763 109.751 40.6525 108.91C40.7289 108.854 40.7897 108.78 40.8294 108.695C40.8691 108.609 40.8867 108.514 40.88 108.421C40.88 106.953 38.9578 93.1791 38.0365 89.744C37.9227 89.3232 37.809 88.9023 37.5474 88.7545C35.8071 87.708 5.14207 93.4862 3.31082 94.6691C3.26122 94.6985 3.21829 94.7384 3.18502 94.7847C3.15166 94.8321 3.12872 94.8852 3.11743 94.9421C2.73071 96.3184 6.06336 113.71 7.05292 114.392ZM3.81128 95.2151C5.99514 94.2255 33.828 89.1298 37.0128 89.5279C37.7862 91.5184 39.8563 106.1 39.9928 108.239C38.4118 108.705 7.48517 114.017 7.37142 114.039C7.25768 114.062 7.24631 114.199 7.00745 113.482C6.00651 110.479 3.75441 97.7856 3.81128 95.2151Z" fill="#2D2D2D"/>
<path d="M43.155 109.922C43.2168 109.807 43.2445 109.676 43.2346 109.547C43.2346 107.738 40.6413 87.6625 39.72 86.0587C39.6478 85.9404 39.5456 85.8434 39.4236 85.7775C39.3018 85.7115 39.1647 85.679 39.0261 85.6834C35.2158 85.217 3.07213 91.4956 0.956521 92.9629C0.66079 93.1676 0.706287 93.6795 0.740409 94.2254C0.922397 97.2169 4.15269 116.894 5.29011 116.781C5.41523 116.781 5.36973 116.69 5.074 117.292C3.29962 120.944 -0.0671626 132.636 0.00108292 134.991C0.00108292 135.98 0.228568 137.266 1.20675 137.197C8.22467 136.333 42.6318 130.873 52.5274 128.837C52.9141 128.758 53.1643 128.405 53.153 127.825C53.0361 126.858 52.7433 125.922 52.2885 125.061C50.9009 122.456 45.1455 112.14 43.155 109.922ZM5.35836 116.428C4.47116 115.291 1.20675 95.6927 1.45699 93.5202C3.95932 92.2236 35.6707 86.0929 38.992 86.5933C39.902 89.0957 42.2564 107.169 42.4043 109.342C38.3778 110.729 10.4995 115.234 5.35836 116.428ZM5.85882 116.769C6.81426 116.53 39.356 111.082 42.336 110.297C43.9626 111.81 51.3103 124.879 51.788 125.994C45.2592 127.131 6.5299 133.603 0.831404 134.468C0.911023 131.021 4.44842 118.976 5.85882 116.769Z" fill="#2D2D2D"/>
<path d="M10.1362 128.564C11.1258 128.417 32.1226 125.891 39.7093 123.833C39.756 123.82 39.7961 123.79 39.8207 123.749C39.8451 123.708 39.8522 123.657 39.8402 123.611C39.828 123.564 39.798 123.524 39.7562 123.5C39.7146 123.475 39.665 123.468 39.6183 123.48C38.1283 123.787 19.9522 126.21 10.1135 128.212C10.0863 128.207 10.0583 128.208 10.0318 128.215C10.0052 128.223 9.98069 128.236 9.96013 128.255C9.93945 128.273 9.92334 128.296 9.91283 128.322C9.90239 128.347 9.89784 128.375 9.89964 128.402C9.90146 128.43 9.90942 128.457 9.92315 128.481C9.9368 128.505 9.95577 128.525 9.97851 128.541C10.0013 128.557 10.0274 128.567 10.0547 128.571C10.082 128.575 10.1099 128.573 10.1362 128.564ZM25.4801 49.4224C25.0551 50.3819 24.6979 51.3703 24.4109 52.3797C24.3939 52.5416 24.4386 52.7041 24.536 52.8346C25.6848 54.5635 37.4572 67.8373 40.5282 69.7026C40.9491 69.9643 41.4495 70.1462 41.7566 69.7709C43.9874 66.995 46.899 64.8438 50.2077 63.5264C52.9007 62.5737 55.7242 62.0403 58.5792 61.9454C60.854 61.7407 61.2521 61.5132 62.1279 60.0232C63.1611 58.0622 64.5318 56.2988 66.1772 54.8138C68.2752 52.9794 70.6038 51.4269 73.1041 50.1958C73.2166 50.1321 73.3047 50.0324 73.3541 49.9129C73.4035 49.7934 73.4116 49.6608 73.377 49.5361C72.9926 48.5577 72.4841 47.6327 71.8643 46.7835C72.2738 46.647 72.7287 46.5219 72.7287 46.1124C72.7287 44.975 62.8104 30.6207 60.0578 27.9137C59.7734 27.6293 59.364 27.2539 58.9886 27.2767C53.3015 27.5952 47.7622 32.9638 44.5547 37.65C40.8808 37.5135 38.5036 37.1837 34.3179 38.9467C31.3628 40.2009 28.6988 42.0521 26.4924 44.3836C26.1512 44.7362 23.8308 47.193 23.7967 47.3864C23.7626 47.5797 23.8308 47.5797 25.4801 49.4224ZM70.9771 49.1039C66.234 49.9114 63.2085 53.8583 60.9791 58.1464C59.9896 60.0573 60.0806 60.1483 59.0341 60.1255C57.2043 60.0219 55.3687 60.0906 53.5517 60.3303C52.2189 60.5294 50.9086 60.8572 49.639 61.3084C46.7499 62.3321 43.44 65.6079 41.677 68.042C41.6396 68.092 41.5918 68.1336 41.5372 68.164C41.4826 68.1944 41.4222 68.2128 41.3598 68.2182C41.2975 68.2236 41.2349 68.2157 41.1757 68.1952C41.1168 68.1746 41.0628 68.1419 41.0173 68.0989C37.3207 64.2885 30.7805 57.6004 27.4933 53.7559C27.3341 53.5853 27.6071 53.3351 27.7663 53.5171C29.8933 55.7919 35.3871 61.2402 41.2789 67.1662C43.2694 64.6297 46.3405 61.5587 49.3774 60.4895C51.0335 59.8989 52.7568 59.5167 54.5072 59.3521C56.1465 59.2276 57.7929 59.2276 59.4322 59.3521C60.1033 58.5786 63.4246 49.7977 70.9543 48.8195C70.9763 48.8357 70.9945 48.8565 71.0073 48.8807C71.0203 48.9049 71.0273 48.9316 71.0284 48.9589C71.0296 48.9862 71.0244 49.0135 71.0137 49.0385C71.0027 49.0638 70.9864 49.0859 70.9657 49.1039H70.9771ZM58.9773 28.198C61.2521 29.7904 70.5107 43.4964 71.7164 45.8963C69.6244 46.5591 67.6047 47.4319 65.6881 48.501C63.8731 49.411 62.2841 50.7141 61.0366 52.3158C59.789 53.9175 58.9146 55.7773 58.4768 57.7597C54.3934 51.1171 48.6949 43.8035 44.9073 38.4235C45.1348 38.2756 51.5271 28.6416 58.9773 28.198ZM34.5681 39.5723C38.7197 37.9002 41.0173 38.287 44.4523 38.4348C47.8646 44.2584 53.9953 52.4707 58.0332 57.8507C54.3064 56.9689 50.3847 57.5082 47.0343 59.3635C45.021 60.5009 42.5642 63.2307 41.0514 64.9255C38.8676 63.1738 26.2649 49.7522 24.2403 47.4774C27.3568 43.9513 30.2345 41.3011 34.5681 39.5268V39.5723ZM13.7532 68.497C13.4722 68.2997 13.1399 68.1882 12.7966 68.1762C12.4533 68.164 12.1139 68.2517 11.8196 68.4287C11.6054 68.5243 11.4118 68.6612 11.2505 68.8316C11.0889 69.002 10.9627 69.2024 10.8787 69.4216C10.7947 69.6406 10.7547 69.8743 10.7611 70.1088C10.7673 70.3435 10.8197 70.5745 10.9154 70.789C11.0109 71.0032 11.1479 71.1966 11.3181 71.3581C11.4885 71.5194 11.6889 71.6458 11.9081 71.7297C12.1273 71.8139 12.3608 71.8538 12.5955 71.8474C12.8301 71.8412 13.0613 71.7887 13.2755 71.6931C13.618 71.6183 13.9296 71.441 14.1689 71.185C14.4084 70.929 14.5643 70.6064 14.616 70.2598C14.6679 69.9132 14.6131 69.5589 14.4591 69.2442C14.305 68.9292 14.0589 68.6688 13.7532 68.497ZM13.0025 70.7718C12.2063 71.0221 11.7286 70.7718 11.5353 70.3851C11.1713 69.5775 11.6262 68.3377 12.8092 68.7017C13.6395 69.0088 14.3106 70.4078 13.0025 70.8287V70.7718ZM71.5913 16.4484C71.9212 17.1195 73.4567 16.8693 74.1278 16.6531C74.4804 16.5394 74.7078 16.4143 74.742 16.0731C74.8443 15.22 74.9581 7.82675 74.5713 7.11018C74.5314 7.035 74.4702 6.97339 74.3951 6.93292C74.3203 6.89245 74.2353 6.87491 74.1505 6.88269C72.937 6.87928 71.7294 7.05568 70.5676 7.40591C70.1013 7.69026 71.1818 15.6977 71.5913 16.4484ZM70.8065 7.67889C71.8572 7.52856 72.9198 7.47907 73.9799 7.53102C74.0481 8.37272 73.8661 15.6636 73.8548 15.7773C73.3742 15.9496 72.8611 16.0118 72.3534 15.9593C72.2738 15.6977 72.1373 14.9925 71.9666 14.1053C71.4653 11.9855 71.0782 9.84018 70.8065 7.67889ZM12.6499 58.8971C12.7591 58.9532 12.8799 58.9821 13.0025 58.9821C13.1252 58.9821 13.2459 58.9532 13.3551 58.8971C13.7946 58.626 14.1431 58.23 14.3561 57.7597C14.385 57.6844 14.3939 57.6029 14.3819 57.5233C14.3699 57.4435 14.3377 57.3682 14.2878 57.3047C13.7419 56.6564 7.78175 49.7522 7.0538 50.1844C6.15999 50.7631 5.31203 51.4095 4.51734 52.1181C4.48531 52.1468 4.45962 52.1818 4.44201 52.2208C4.42436 52.2601 4.41518 52.3025 4.41498 52.3455C4.39223 52.937 11.012 58.2374 12.6499 58.8971ZM7.19029 50.4802C8.02061 51.083 10.8187 54.5408 13.412 57.6004C13.3005 57.776 13.1624 57.9334 13.0025 58.0668C10.2759 56.3218 7.67266 54.391 5.21117 52.2887C5.82824 51.6407 6.48955 51.0365 7.19029 50.4802ZM25.0592 25.3886C25.3095 20.9754 27.8801 18.928 30.5644 18.4048C29.8023 21.2028 29.9274 24.8426 32.6914 25.309C34.0108 25.5251 34.6591 24.8426 35.6145 24.0464C39.6979 20.6341 36.3994 17.2219 31.7928 17.4607C33.5103 12.7518 37.4799 8.91868 42.7462 8.79356C42.7944 8.79356 42.8407 8.77441 42.8748 8.74029C42.909 8.70609 42.9282 8.65982 42.9282 8.61158C42.9282 8.56333 42.909 8.51698 42.8748 8.48286C42.8407 8.44874 42.7944 8.42959 42.7462 8.42959C37.0591 8.31585 32.589 12.4106 30.826 17.529C27.7891 18.0522 24.7749 20.327 24.6953 25.3203C24.6907 25.3443 24.6909 25.3687 24.6961 25.3925C24.7011 25.4163 24.7108 25.4388 24.7244 25.4591C24.7383 25.4792 24.7556 25.4963 24.7761 25.5096C24.7964 25.5228 24.8193 25.5321 24.8431 25.5364C24.8671 25.541 24.8915 25.5406 24.9153 25.5356C24.9391 25.5306 24.9616 25.5209 24.9819 25.5073C25.002 25.4934 25.0191 25.476 25.0324 25.4556C25.0456 25.4353 25.0547 25.4126 25.0592 25.3886ZM31.5312 18.2683C33.226 18.1545 35.751 18.6778 36.4449 20.2133C36.843 21.0891 36.4449 22.1697 35.0345 23.3526C34.6515 23.7362 34.2147 24.0619 33.7378 24.3194C32.0317 25.0473 30.1435 22.9431 31.5312 18.2683ZM34.7842 179.134C33.6853 178.84 32.5387 178.768 31.4117 178.924C30.2846 179.079 29.2001 179.459 28.2219 180.039C27.2437 180.62 26.3915 181.39 25.7156 182.306C25.0396 183.221 24.5534 184.261 24.2858 185.367C23.7806 187.665 24.2084 190.069 25.4755 192.05C26.7426 194.032 28.7449 195.429 31.0421 195.934C33.3393 196.439 35.7432 196.012 37.7246 194.745C39.7064 193.477 41.1035 191.475 41.6088 189.178C41.8247 188.07 41.8191 186.93 41.5922 185.824C41.3656 184.718 40.9222 183.669 40.2879 182.735C39.6534 181.802 38.8405 181.003 37.896 180.385C36.9513 179.766 35.8937 179.342 34.7842 179.134ZM38.2989 188.404C37.8424 190.224 36.7499 191.821 35.2187 192.906C33.6875 193.991 31.8186 194.492 29.9502 194.319C28.2349 193.649 26.8109 192.395 25.9289 190.779C25.0468 189.162 24.7629 187.286 25.1275 185.481C25.5531 183.617 26.6355 181.968 28.1768 180.836C29.7181 179.704 31.6154 179.165 33.5217 179.316C35.2539 180.032 36.6781 181.335 37.5436 182.998C38.4091 184.66 38.6606 186.575 38.2534 188.404H38.2989Z" fill="#2D2D2D"/>
<path d="M49.9344 182.376C48.9442 182.035 47.8829 181.952 46.852 182.137C46.4245 181.157 45.8988 180.223 45.2823 179.35C46.0217 178.679 48.0463 176.814 47.5572 175.938C45.8165 173.856 43.7499 172.07 41.4376 170.649C40.4723 170.108 39.4093 169.764 38.3099 169.637C37.582 169.739 35.8529 172.571 35.4662 173.208C35.2159 173.208 34.3289 172.924 34.2607 172.89C34.2607 172.071 34.0218 169.114 33.2825 168.772C32.4557 168.468 31.5972 168.258 30.7233 168.147C29.9157 168.022 22.6476 169.352 22.113 170.331C21.7604 170.99 22.5793 173.481 22.8182 174.175C22.2048 174.513 21.6156 174.893 21.0552 175.312C19.9178 176.12 20.2249 176.086 20.0201 175.995C19.7726 175.876 19.5075 175.8 19.2353 175.767C18.3266 175.235 17.2614 175.034 16.2211 175.199C15.1747 175.54 12.7065 181.159 12.3084 182.603C12.1781 182.967 12.1429 183.359 12.206 183.741C12.479 184.492 14.2989 185.094 15.061 185.333C14.8504 186.797 14.8504 188.283 15.061 189.746C14.06 190.019 11.9783 190.634 12.0921 191.657C12.2058 192.681 14.8674 199.437 15.9707 199.972C16.5752 200.31 17.2436 200.518 17.9331 200.582C18.6225 200.647 19.3178 200.567 19.9746 200.347C20.3444 200.162 20.7018 199.954 21.0438 199.722C21.4988 200.063 21.9765 200.37 22.4656 200.666C22.113 201.542 21.3282 203.498 21.5784 204.385C21.7035 204.852 22.0789 204.999 22.6021 205.194C24.0466 205.717 31.8266 207.582 33.0095 207.378C33.4531 207.309 33.692 206.842 33.8285 206.399C34.0812 205.388 34.2299 204.356 34.2719 203.316C34.8561 203.258 35.437 203.171 36.0123 203.055C36.3637 203.672 36.8131 204.23 37.3431 204.704C37.9232 205.113 38.4123 204.908 39.072 204.488C39.3905 204.898 39.8682 205.467 40.38 205.522C41.6653 205.671 46.9771 200.666 47.5231 199.642C47.978 198.789 46.3174 197.265 45.5781 196.594C46.3778 195.39 47.0056 194.081 47.4434 192.704C48.2638 192.827 49.0942 192.873 49.923 192.84C50.2984 192.84 50.7306 192.704 50.8898 192.351C51.5837 190.77 51.3789 184.776 50.8898 183.252C50.8216 182.808 50.3097 182.512 49.9344 182.376ZM50.2074 183.422C50.5941 184.901 50.719 190.486 50.1503 191.93C49.167 192.027 48.1747 191.982 47.2044 191.794C47.101 191.776 46.9945 191.797 46.9062 191.854C46.8177 191.911 46.7537 192 46.7269 192.101C46.274 193.638 45.5706 195.091 44.6452 196.4C44.5794 196.488 44.5496 196.596 44.5625 196.705C44.5751 196.813 44.6295 196.911 44.7136 196.98C45.5117 197.613 46.1896 198.383 46.7155 199.255C46.1468 200.188 41.6994 204.261 40.471 204.602C40.289 204.602 39.7886 203.92 39.6635 203.738C39.2432 203.105 38.8635 202.449 38.526 201.769C38.4768 201.67 38.3922 201.593 38.2892 201.554C38.186 201.513 38.0717 201.513 37.9685 201.554C34.67 202.793 33.419 202.065 33.419 202.884C33.4204 204.11 33.2207 205.328 32.8273 206.49C30.1544 206.199 27.5224 205.611 24.9793 204.739C25.1021 203.523 25.4409 202.34 25.9802 201.246C26.3215 200.484 24.9565 200.7 22.4087 198.106C22.3266 198.031 22.2191 197.988 22.1074 197.988C21.9955 197.988 21.888 198.031 21.8059 198.106C20.6685 199.039 19.1898 199.949 18.8941 199.801C18.314 199.517 15.641 193.454 15.4818 192.226C16.2908 191.662 17.2092 191.274 18.1775 191.089C18.2807 191.059 18.3698 190.994 18.4286 190.904C18.4869 190.814 18.5111 190.706 18.496 190.599C18.2172 188.989 18.2172 187.342 18.496 185.731C18.5133 185.632 18.4925 185.53 18.4377 185.446C18.3826 185.362 18.2979 185.301 18.2002 185.276C17.3426 185.052 16.5173 184.719 15.7434 184.287C15.4932 184.105 15.5159 184.116 15.5387 183.923C16.2749 181.268 17.4555 178.756 19.0306 176.495C19.6448 176.325 21.3054 177.542 21.8741 177.974C21.9335 178.032 22.0131 178.064 22.0958 178.064C22.1788 178.064 22.2584 178.032 22.3177 177.974C22.8403 177.432 23.403 176.931 24.0011 176.473C25.73 175.165 26.1963 175.335 26.0485 174.88C25.5255 173.739 25.2318 172.506 25.184 171.252C25.3602 171.105 25.5604 170.99 25.7755 170.911C26.8374 170.491 27.9283 170.149 29.0399 169.887C30.3872 169.512 31.772 169.286 33.1688 169.216C33.4076 169.318 33.6237 170.353 33.6806 170.672C34.1014 172.947 33.8171 173.413 34.1469 173.447C37.3886 173.766 38.0483 174.664 38.2758 174.266C38.9066 173.163 39.6417 172.123 40.471 171.161C40.7099 170.922 40.6985 170.808 41.4151 171.218C43.5559 172.617 45.4732 174.331 47.1022 176.302C47.2728 176.598 45.7942 178.167 44.7136 179.089C44.3383 179.419 44.8729 179.566 45.851 181.432C46.8292 183.297 46.6015 183.82 47.1248 183.707C48.1335 183.465 49.1715 183.369 50.2074 183.422ZM208.07 88.3791C205.685 87.4052 203.187 86.7437 200.633 86.4113C198.768 86.1156 196.571 85.8199 194.717 85.581C196.503 83.0559 201.791 76.6636 202.678 75.1053C202.928 74.6845 202.453 74.093 202.099 73.7404C200.12 71.6248 196.298 70.8286 193.364 70.3736C191.68 70.1007 184.651 69.2362 183.457 69.8049C182.024 70.4874 171.423 86.4113 171.104 88.8341C171.104 89.2435 171.241 89.4028 171.639 89.5506C173.311 90.1648 180.852 91.1203 182.535 91.5184C180.261 95.4994 170.149 108.955 169.159 110.855C168.92 111.332 169.068 111.617 169.353 111.708C170.376 112.114 171.429 112.441 172.503 112.686C172.913 112.811 173.811 112.254 175.119 111.457C180.989 107.931 206.171 91.3023 208.105 89.1525C208.159 89.1023 208.2 89.0409 208.229 88.9726C208.256 88.9046 208.268 88.8314 208.264 88.758C208.262 88.6847 208.241 88.6128 208.208 88.5474C208.175 88.4821 208.127 88.4248 208.07 88.3791ZM183.627 102.028C173.959 108.409 170.695 110.275 170.581 110.354C172.139 107.977 181.819 94.7145 183.479 91.5411C183.508 91.4795 183.523 91.4131 183.523 91.3449C183.523 91.2777 183.507 91.2105 183.478 91.1497C183.448 91.088 183.406 91.0351 183.353 90.9923C183.3 90.9497 183.239 90.9193 183.172 90.9042C182.035 90.4947 173.755 89.6075 171.798 88.9137C172.048 86.7981 182.376 70.8059 183.627 70.1689C184.879 69.532 197.015 70.9765 199.291 72.603C198.095 74.9347 191.498 83.1014 190.429 85.0009C190.213 85.3877 190.145 85.763 190.566 85.8654C190.986 85.9677 201.677 87.2189 204.01 87.981C201.166 90.3582 186.812 99.8898 183.627 101.983V102.028ZM110.662 32.486C110.662 32.5884 110.73 32.7135 110.9 33.3732C110.945 33.5163 111.043 33.6365 111.175 33.7087C111.306 33.7806 111.461 33.799 111.606 33.7599C111.751 33.7178 111.873 33.6197 111.945 33.4874C112.018 33.3552 112.035 33.1995 111.992 33.0547C111.879 32.6111 111.776 32.2358 111.708 32.0538C111.642 31.9289 111.532 31.8331 111.398 31.7854C111.265 31.7374 111.119 31.7407 110.988 31.7947C110.858 31.8487 110.751 31.9494 110.692 32.0772C110.631 32.205 110.62 32.3508 110.662 32.486Z" fill="#2D2D2D"/>
</svg>
