<svg width="188" height="217" viewBox="0 0 188 217" fill="none" xmlns="http://www.w3.org/2000/svg">
<path fill-rule="evenodd" clip-rule="evenodd" d="M135.634 207.5C138.146 205.069 146.517 196.081 149.224 193.98C149.307 193.891 149.419 193.834 149.54 193.82C149.66 193.806 149.782 193.835 149.883 193.902C149.984 193.969 150.058 194.07 150.093 194.186C150.127 194.303 150.118 194.428 150.069 194.54C148.721 196.972 136.97 208.015 136.285 208.665C135.816 209.249 133.807 211.67 133.258 212.172C133.275 212.627 133.157 213.076 132.917 213.462C132.676 213.85 132.326 214.155 131.911 214.342C130.439 214.843 128.999 215.426 127.594 216.088C127.388 216.271 127.149 216.088 127.206 215.895C127.91 215.013 128.501 214.045 128.964 213.017C129.064 212.336 129.41 211.716 129.936 211.271C130.461 210.829 131.131 210.592 131.819 210.607C131.899 210.459 134.926 207.97 135.634 207.5ZM131.785 210.789C131.168 210.825 130.584 211.082 130.141 211.512C129.696 211.942 129.42 212.515 129.364 213.132C129.107 213.906 128.721 214.633 128.222 215.279C131.111 214.078 132.093 214.251 132.722 213.279C132.921 212.957 133.045 212.594 133.087 212.218C132.288 212 131.728 210.652 131.785 210.789ZM135.405 207.924C134.515 208.734 133.59 209.602 132.231 210.779C132.43 211.176 132.729 211.514 133.098 211.761L136.079 208.574C135.816 208.406 135.591 208.184 135.417 207.924H135.405ZM130.323 194.471C131.625 193.615 149.292 181.989 149.464 182.56C149.635 183.131 132.128 196.378 131.979 196.47C131.237 197.315 126.269 202.671 125.618 202.899C124.79 202.868 124.005 202.521 123.426 201.927C122.632 201.118 122.044 200.126 121.713 199.039C121.496 198.263 129.615 194.768 130.323 194.471ZM122.272 199.553C122.497 200.277 122.904 200.931 123.454 201.452C124.003 201.975 124.678 202.347 125.413 202.534C124.59 201.757 122.855 200.101 122.272 199.553ZM125.698 196.915C124.445 197.513 123.241 198.212 122.101 199.005C122.249 199.496 122.101 199.005 123.243 199.953C124.17 200.68 124.982 201.541 125.653 202.511C126.224 202.087 128.542 199.781 128.405 199.907C127.549 198.858 126.634 197.859 125.664 196.915H125.698ZM130.369 194.631C128.485 195.51 127.228 196.127 125.801 196.824C126.933 197.547 127.853 198.56 128.462 199.759C129.147 199.073 131.477 196.709 131.819 196.333C131.488 196.013 130.62 195.019 130.335 194.654L130.369 194.631ZM158.04 181.578C158.623 176.461 159.479 170.1 160.176 170.066C160.872 170.032 160.119 176.461 159.399 181.612C161.683 181.806 164.401 183.062 163.967 185.232C163.988 185.619 163.938 186.006 163.819 186.374C164.961 194.128 163.944 195.727 164.024 195.602C163.359 196.403 162.527 197.048 161.586 197.494C160.645 197.94 159.618 198.175 158.577 198.183C157.532 198.188 156.497 197.97 155.542 197.546C154.588 197.121 153.734 196.496 153.038 195.716C152.09 194.288 152.696 188.258 152.878 186.58C152.777 186.226 152.719 185.862 152.707 185.495C152.569 184.894 152.647 184.264 152.927 183.715C153.207 183.166 153.67 182.733 154.237 182.491C155.405 181.865 156.715 181.55 158.04 181.578ZM163.602 191.605C162.7 193.455 160.176 194.037 158.143 194.037C158.115 194.584 158.054 195.13 157.96 195.67C157.869 196.104 157.766 196.481 157.321 196.47C156.678 196.339 156.112 195.962 155.745 195.419C155.448 194.974 155.516 194.745 155.893 193.763C155.398 193.634 154.938 193.398 154.544 193.073C154.149 192.747 153.83 192.34 153.609 191.879C153.614 192.899 153.718 193.916 153.917 194.916C154.158 195.37 154.503 195.762 154.922 196.058C157.503 198.16 160.633 197.566 163.248 195.316C163.362 194.471 163.522 192.815 163.602 191.605ZM153.118 187.036C153.038 188.418 152.73 194.254 153.506 195.396C154.104 196.091 154.86 196.631 155.71 196.972C154.819 196.537 154.094 195.823 153.643 194.939C153.447 193.716 153.382 192.476 153.449 191.239C153.377 190.893 153.39 190.534 153.488 190.193C153.585 189.853 153.764 189.542 154.009 189.286C154.82 188.35 155.014 188.887 154.272 188.373C153.786 188.045 153.389 187.602 153.118 187.082V187.036ZM156.19 193.774C156.052 194.145 155.948 194.527 155.882 194.916C155.882 195.305 156.91 196.173 157.366 196.127C157.526 196.127 157.572 195.887 157.629 195.602C157.731 195.085 157.799 194.562 157.835 194.037C157.28 194.026 156.729 193.953 156.19 193.82V193.774ZM163.682 186.762C163.29 187.486 162.689 188.075 161.957 188.453C163.271 188.864 164.139 189.743 163.785 191.079C163.785 191.799 163.785 192.507 163.716 193.146C163.602 195.533 163.522 195.43 163.636 195.259C164.173 193.226 163.899 188.955 163.682 186.808V186.762ZM161.763 188.555C160.695 189.072 159.524 189.341 158.337 189.343C158.339 190.026 158.251 190.705 158.074 191.365C158.121 192.125 158.121 192.888 158.074 193.649C159.505 193.697 160.919 193.337 162.151 192.61C163.967 191.468 164.253 189.4 161.763 188.601V188.555ZM157.047 191.41C156.978 191.57 156.407 193.158 156.304 193.443C156.816 193.568 157.342 193.633 157.869 193.637C157.869 193.078 157.983 192.004 157.972 191.445C157.667 191.511 157.353 191.515 157.047 191.456V191.41ZM154.911 188.761C152.718 190.268 153.643 192.667 156.053 193.398C156.293 192.792 156.67 191.947 156.944 191.365C156.975 190.682 157.051 190.004 157.172 189.332C156.392 189.272 155.627 189.079 154.911 188.761ZM157.275 189.343L157.172 191.193C157.366 191.193 157.994 191.285 157.926 191.193C157.857 191.102 158.074 190.12 158.154 189.366C157.857 189.389 157.561 189.378 157.275 189.355V189.343ZM163.488 186.317C161.455 188.864 155.311 188.898 153.209 186.317C153.431 186.889 153.797 187.395 154.272 187.784C154.745 188.175 155.312 188.436 155.916 188.544C158.52 189.252 162.437 188.681 163.488 186.328V186.317ZM159.228 182.8C158.885 185.164 158.588 187.082 158.486 187.71C160.21 187.71 162.517 187.082 163.316 185.689C163.065 183.907 161.032 182.982 159.228 182.811V182.8ZM157.903 182.8C156.96 182.846 156.047 183.145 155.259 183.666C154.472 184.186 153.839 184.908 153.426 185.757C154.157 186.899 155.996 187.528 157.412 187.665C157.469 187.036 157.652 185.141 157.903 182.811V182.8ZM158.017 181.795C156.773 181.84 155.559 182.197 154.488 182.834C153.472 183.485 152.787 184.49 153.346 185.575C153.736 184.675 154.371 183.904 155.179 183.348C155.987 182.792 156.935 182.476 157.915 182.434L158.017 181.795ZM159.399 181.909C159.399 182.103 159.342 182.297 159.308 182.491C161.192 182.663 163.168 183.633 163.476 185.46C163.887 184.421 163.202 183.485 162.243 182.88C161.376 182.355 160.406 182.024 159.399 181.909ZM170.34 186.545C169.803 183.885 165.463 164.059 166.914 162.906C167.429 162.622 167.989 162.429 168.57 162.335C170.168 161.992 180.367 160.622 180.835 162.003C181.303 163.385 178.551 184.433 178.345 185.563C178.345 186.328 178.06 188.464 178.06 188.464C177.764 189.084 177.324 189.623 176.779 190.04C176.233 190.457 175.596 190.737 174.92 190.86C174.245 190.983 173.55 190.943 172.893 190.745C172.235 190.547 171.634 190.196 171.139 189.72C170.757 188.694 170.49 187.629 170.34 186.545ZM180.252 164.539C175.88 164.597 171.516 164.978 167.199 165.681C167.553 170.477 169.632 181.669 170.534 186.443C171.723 187.093 173.078 187.375 174.427 187.255C175.778 187.135 177.061 186.619 178.117 185.769C178.242 184.798 180.161 165.818 180.252 164.539ZM179.225 171.162C179.225 171.162 179.293 170.386 178.334 170.58C177.375 170.774 175.627 172.419 173.48 172.236C171.333 172.053 169.289 170.854 168.65 171.653C168.01 172.453 170.717 174.977 174.223 174.383C178.242 173.709 179.305 172.053 179.225 171.162ZM167.919 163.054C167.747 163.054 167.279 163.237 167.233 163.385C167.136 164.11 167.136 164.842 167.233 165.567L168.375 165.35C168.118 164.609 167.963 163.836 167.919 163.054ZM169.894 162.632C169.312 162.734 168.627 162.86 168.067 163.008C168.237 163.762 168.363 164.524 168.444 165.292C168.878 165.212 170.088 165.007 170.443 164.973C170.408 164.893 170.134 163.945 169.894 162.632ZM172.076 162.346C171.356 162.426 170.671 162.517 170.043 162.609C170.322 163.373 170.492 164.172 170.545 164.984L172.464 164.744C172.395 164.367 172.156 163.18 172.076 162.346ZM174.211 162.14C173.823 162.14 173.001 162.232 172.224 162.323C172.465 163.103 172.584 163.916 172.578 164.733L174.634 164.539C174.599 164.345 174.36 163.317 174.245 162.14H174.211ZM176.495 161.992L174.36 162.129C174.606 162.905 174.736 163.713 174.748 164.527C175.41 164.527 176.141 164.436 176.792 164.413C176.792 164.39 176.529 162.14 176.529 161.992H176.495ZM179.259 161.992C179.218 162.792 179.13 163.589 178.996 164.379H180.264C180.264 164.093 180.458 162.175 180.264 162.095C179.933 162.029 179.597 161.999 179.259 162.003V161.992ZM179.11 161.992H176.655C176.876 162.779 176.961 163.597 176.906 164.413H178.893C178.859 163.6 178.932 162.786 179.11 161.992ZM93.1619 177.718C94.6579 177.718 95.8799 178.266 95.8799 178.962C95.8799 179.659 94.6579 180.207 93.1619 180.207C91.6658 180.207 90.4553 179.648 90.4553 178.962C90.4553 178.277 91.6201 177.718 93.1619 177.718ZM64.2916 171.14C64.2916 171.391 63.8234 171.619 63.2295 171.642C62.6357 171.665 62.0875 171.471 62.0875 171.208C62.1104 170.603 64.2688 170.489 64.2916 171.14Z" fill="#2D2D2D"/>
<path d="M75.1069 199.964C75.8386 199.964 76.4316 199.611 76.4316 199.176C76.4316 198.741 75.8386 198.388 75.1069 198.388C74.3754 198.388 73.7821 198.741 73.7821 199.176C73.7821 199.611 74.3754 199.964 75.1069 199.964Z" fill="#2D2D2D"/>
<path fill-rule="evenodd" clip-rule="evenodd" d="M132.139 161.353C133.281 161.353 134.263 161.684 134.263 162.083C134.263 162.483 133.316 162.826 132.139 162.826C130.963 162.826 130.026 162.495 130.026 162.083C130.026 161.672 130.974 161.353 132.139 161.353ZM59.4271 132.197C59.4271 132.482 59.2558 134.641 59.3471 137.793C59.3471 138.215 59.4271 139.654 59.4271 139.654C59.4271 139.654 59.5641 139.734 59.5641 139.654C59.5641 139.574 59.6327 138.215 59.6441 137.793C59.7126 135.166 59.5641 132.083 59.5641 132.197C59.5641 132.179 59.5571 132.162 59.544 132.148C59.5311 132.136 59.5137 132.128 59.4956 132.128C59.4773 132.128 59.4601 132.136 59.4472 132.148C59.4344 132.162 59.4271 132.179 59.4271 132.197ZM106.992 7.40839C108.419 7.79668 110.943 8.60751 111.857 9.78379C111.89 9.82692 111.908 9.87953 111.908 9.93379C111.908 9.98803 111.892 10.041 111.86 10.0846C111.827 10.1283 111.782 10.1605 111.73 10.1762C111.678 10.192 111.623 10.1906 111.571 10.1721C107.003 8.31059 99.7287 10.686 95.1152 12.6046C93.2879 13.3697 104.251 1.00164 112.131 2.94308C112.185 2.9595 112.232 2.99278 112.266 3.03799C112.299 3.08329 112.318 3.13801 112.318 3.19434C112.318 3.25059 112.299 3.30541 112.266 3.35061C112.232 3.39592 112.185 3.42912 112.131 3.44558C110.34 3.86566 108.581 4.41136 106.866 5.07867C108.18 5.13577 111.206 5.32992 112.222 6.22069C112.263 6.25553 112.292 6.3013 112.307 6.3526C112.321 6.40381 112.321 6.45815 112.305 6.50906C112.289 6.55987 112.26 6.60507 112.219 6.63906C112.177 6.67303 112.127 6.69436 112.074 6.70034C110.369 6.84853 108.673 7.08483 106.992 7.40839ZM110.783 3.26286C108.54 3.25468 106.334 3.83759 104.388 4.95305C100.906 6.80065 97.8056 9.29245 95.2522 12.2962C99.6259 10.4005 105.85 8.25349 110.521 9.32698C109.048 8.57439 107.481 8.02139 105.861 7.68248C105.802 7.67002 105.75 7.63767 105.712 7.59084C105.674 7.54411 105.653 7.48567 105.653 7.42552C105.653 7.36528 105.674 7.30696 105.712 7.26014C105.75 7.2134 105.802 7.18105 105.861 7.16857C107.602 6.69967 109.378 6.37877 111.172 6.20927C109.421 5.79625 107.627 5.58926 105.827 5.59258C105.769 5.5942 105.711 5.57622 105.664 5.54148C105.617 5.50666 105.583 5.45708 105.566 5.40064C105.551 5.3441 105.555 5.28397 105.577 5.22981C105.6 5.17556 105.64 5.13046 105.69 5.10151C107.314 4.29981 109.023 3.68304 110.783 3.26286ZM33.6631 98.7927C32.5273 98.9412 31.3824 99.0107 30.2371 98.9983C30.1789 99.0002 30.1216 98.9831 30.0753 98.9478C30.029 98.9127 29.9962 98.8623 29.9827 98.8052C29.9692 98.7489 29.9759 98.6891 30.0014 98.6368C30.0269 98.5843 30.0699 98.5425 30.1229 98.5186C31.539 97.7535 34.8737 96.9998 36.5867 95.8121L40.8236 92.9799C40.8321 92.9703 40.8427 92.9628 40.8545 92.957C40.8664 92.9514 40.8792 92.9485 40.8921 92.9485C40.9052 92.9485 40.9179 92.9514 40.9297 92.957C40.9415 92.9628 40.9521 92.9703 40.9606 92.9799C41.0863 93.1283 40.8236 93.1397 39.3961 95.0241C38.4484 96.1908 37.6787 97.4919 37.112 98.8841C36.4997 100.34 35.9621 101.827 35.5018 103.338C35.5018 103.681 34.6795 103.932 34.9079 102.059C35.0026 101.36 35.132 100.667 35.2962 99.9804C34.1114 100.836 32.8631 101.599 31.5618 102.264C31.5149 102.291 31.4609 102.304 31.4071 102.299C31.3534 102.293 31.3023 102.272 31.2612 102.237C31.2198 102.202 31.1906 102.155 31.1769 102.103C31.1632 102.05 31.1661 101.995 31.185 101.945C31.769 100.725 32.6152 99.6484 33.6631 98.7927ZM40.127 93.7336C34.5311 97.6736 37.0321 96.246 31.4476 98.473C32.5163 98.4701 33.5786 98.3093 34.5996 97.9933L34.7252 97.8905C34.9765 97.6964 35.4218 98.0847 34.9308 98.4044C33.8332 99.2676 32.8639 100.283 32.0529 101.419C33.3176 100.772 34.502 99.9786 35.5817 99.0554C35.622 99.0089 35.6772 98.9773 35.7381 98.968C35.7989 98.9574 35.8612 98.9688 35.9144 99.0002C35.9673 99.0317 36.0078 99.0811 36.0284 99.1393C36.0489 99.1972 36.0487 99.2601 36.0271 99.3181C35.7908 100.179 35.6004 101.052 35.4561 101.933C36.3589 98.8756 37.9575 96.0691 40.127 93.7336ZM40.9035 88.4004C42.8402 85.2625 45.607 82.721 48.8977 81.0572C53.3287 78.9673 54.9504 81.1942 52.9404 85.1913C51.2288 88.3844 48.7822 91.1242 45.8028 93.1854C46.1383 94.3569 46.2733 95.577 46.2025 96.7942C45.9056 97.9362 40.3211 99.8548 39.556 99.7634C39.498 99.7605 39.4418 99.7425 39.3936 99.7103C39.3454 99.6779 39.3068 99.633 39.2819 99.5807C39.1677 99.3181 39.4303 99.0782 39.6816 98.8841C41.0759 97.8658 42.537 96.9427 44.0555 96.1204L43.9756 94.2247L43.3246 94.5444C43.2823 94.5558 43.2374 94.5558 43.1951 94.5436C43.1529 94.5322 43.1147 94.5083 43.0848 94.4759L39.4874 90.9699C39.4706 90.951 39.4613 90.9271 39.4613 90.9014C39.4613 90.8756 39.4706 90.852 39.4874 90.8329C39.4874 90.8329 39.6016 90.593 39.8415 90.1705H37.8429C37.546 90.7872 35.5589 94.8071 34.9194 95.0812C34.8735 95.1032 34.8228 95.1146 34.7719 95.1125C34.7209 95.1117 34.6708 95.0984 34.6262 95.0737C34.5813 95.0488 34.5433 95.0137 34.5149 94.9717C34.4864 94.929 34.4684 94.8804 34.4626 94.8299C34.3255 93.9734 36.0157 88.3889 37.1349 88.0577C38.3776 87.9435 39.6305 88.0285 40.8464 88.309C40.8645 88.3163 40.8797 88.3289 40.8898 88.3453C40.9002 88.3617 40.905 88.381 40.9035 88.4004ZM45.5516 93.2654C45.0983 93.5681 44.6294 93.8459 44.1469 94.099L44.3867 96.2574C44.3867 96.4287 44.3867 96.326 42.1027 97.8334C41.406 98.2788 40.698 98.747 40.2183 99.1011C41.9513 98.6233 43.6224 97.9447 45.1975 97.0797C45.3231 96.9998 45.6543 96.7714 45.7 96.6229C45.8207 95.5029 45.7706 94.3704 45.5516 93.2654ZM40.5153 89.531C40.0699 90.1933 39.7958 90.673 39.693 90.8671L43.2333 94.1447C43.6444 93.9391 44.0898 93.6879 44.558 93.4024C43.0829 92.2519 41.7285 90.9547 40.5153 89.531ZM40.8008 88.5602C39.6228 88.3931 38.427 88.3931 37.2491 88.5602C36.8494 88.6973 36.1642 90.5131 36.0385 90.8443C35.6353 91.9196 35.311 93.0226 35.0678 94.1447C35.753 93.1283 37.6259 89.805 37.546 89.9649C37.5616 89.9325 37.5859 89.906 37.6164 89.8879C37.6467 89.8698 37.6818 89.8613 37.7173 89.8621L39.9442 89.9763C40.1726 89.5424 40.4467 89.097 40.8008 88.5602ZM47.0933 82.6332C44.5046 84.3902 42.3047 86.6603 40.6295 89.3026C42.1458 90.4666 43.5321 91.7913 44.7636 93.2539C47.3694 91.5361 49.6061 89.3158 51.3416 86.7216L47.0933 82.6332ZM45.0491 85.4996C44.8294 85.7299 44.6573 86.0011 44.5422 86.2978C44.4274 86.5945 44.3722 86.9112 44.3796 87.2293C44.3869 87.5474 44.4569 87.8609 44.5856 88.152C44.7141 88.4431 44.8987 88.7058 45.129 88.9257C45.3593 89.1456 45.6305 89.3179 45.9272 89.4329C46.2241 89.5471 46.5403 89.6024 46.8587 89.5957C47.1768 89.5881 47.4903 89.5177 47.7814 89.3891C48.0725 89.2608 48.3354 89.076 48.5551 88.8457C48.9988 88.3808 49.2397 87.7588 49.2247 87.1161C49.2098 86.4737 48.94 85.8634 48.4751 85.4197C48.0102 84.976 47.3881 84.7351 46.7455 84.75C46.103 84.765 45.4928 85.0347 45.0491 85.4996ZM48.2353 85.6824C48.6028 86.0598 48.8086 86.5659 48.8086 87.0928C48.8086 87.6196 48.6028 88.1256 48.2353 88.5031C47.8748 88.8372 47.4004 89.0218 46.9089 89.0181C46.4172 89.0141 45.9454 88.8239 45.59 88.484C45.2343 88.1445 45.0217 87.6821 44.9955 87.1911C44.9693 86.7002 45.1313 86.2176 45.4488 85.8422C45.8022 85.46 46.2901 85.2295 46.8099 85.1998C47.3296 85.1699 47.8406 85.3429 48.2353 85.6824ZM47.6072 86.3333C47.7627 86.4946 47.8674 86.6981 47.9081 86.9186C47.9486 87.1389 47.9236 87.3663 47.836 87.5725C47.7484 87.7787 47.602 87.9548 47.4151 88.0783C47.228 88.2021 47.009 88.2679 46.7849 88.2679C46.5609 88.2679 46.3416 88.2021 46.1547 88.0783C45.9681 87.9548 45.8217 87.7787 45.7341 87.5725C45.6462 87.3663 45.6211 87.1389 45.662 86.9186C45.7025 86.6981 45.8072 86.4946 45.9627 86.3333C46.0692 86.2228 46.1969 86.135 46.3383 86.0748C46.4795 86.0148 46.6315 85.9838 46.7849 85.9838C46.9384 85.9838 47.0904 86.0148 47.2316 86.0748C47.373 86.135 47.5007 86.2228 47.6072 86.3333Z" fill="#2D2D2D"/>
<path fill-rule="evenodd" clip-rule="evenodd" d="M83.7632 8.76741C83.6587 8.67881 83.5769 8.5667 83.524 8.44042C83.4712 8.31403 83.449 8.17699 83.4594 8.04052C83.4696 7.90396 83.5121 7.77176 83.5832 7.65481C83.6544 7.53775 83.7522 7.43924 83.8687 7.36729C83.9851 7.29526 84.117 7.25187 84.2534 7.24063C84.3898 7.2294 84.5273 7.25054 84.654 7.30249C84.7806 7.35436 84.8932 7.43544 84.9824 7.53926C85.0719 7.643 85.1355 7.76644 85.1681 7.89947C85.1762 8.04318 85.1502 8.18679 85.0925 8.3187C85.0346 8.45051 84.9465 8.56689 84.835 8.65817C84.7237 8.74943 84.5925 8.81309 84.4519 8.84403C84.3111 8.87497 84.1654 8.8721 84.0261 8.83593C84.0261 8.95013 83.8548 10.2178 83.5121 11.7024C85.0987 11.7084 86.6307 12.2839 87.829 13.3241C87.8462 13.2922 87.8747 13.2678 87.9089 13.2555C96.8167 11.9993 97.7415 14.9457 94.875 17.3097C91.6545 19.9706 81.7647 23.0198 76.3058 22.3003C74.8783 22.129 72.6628 21.4666 72.6399 20.119C72.6399 18.3832 77.2881 16.4532 77.4709 16.3618C78.2153 14.4764 79.6538 12.9479 81.4906 12.0907C80.6797 11.2113 79.8348 9.93227 79.6407 9.71528C78.67 10.2406 77.7564 8.99581 78.4987 8.35628C78.6621 8.21287 78.8753 8.13911 79.0925 8.15072C79.2736 8.11399 79.4615 8.1394 79.6266 8.22277C79.7914 8.30614 79.9233 8.4426 80.0012 8.6102C80.079 8.77769 80.0981 8.9666 80.0556 9.14637C80.013 9.32615 79.911 9.48632 79.7661 9.60108C80.1505 9.87785 80.4929 10.2086 80.7827 10.5832C82.4272 12.5703 81.034 11.8851 83.0668 11.7252C83.1272 10.7066 83.3626 9.70596 83.7632 8.76741ZM77.2765 16.6816C76.2487 17.184 72.9368 18.9656 72.9825 20.1076C72.9825 20.4845 73.3137 20.8613 73.919 21.1925C78.1673 23.4766 90.8096 19.8906 94.4755 16.91C96.5654 15.2312 96.3482 13.621 92.374 13.3355C90.8501 13.2664 89.3232 13.3122 87.8059 13.4725C87.5204 14.1349 84.7682 19.3425 77.2765 16.6816ZM76.1345 19.3996C76.0849 19.5053 76.0579 19.6203 76.0554 19.737C76.0529 19.8537 76.0751 19.9697 76.1202 20.0773C76.1656 20.1849 76.2329 20.2818 76.3178 20.362C76.403 20.4419 76.5039 20.5032 76.6143 20.5416C76.7238 20.5688 76.8376 20.5742 76.9491 20.5574C77.0608 20.5405 77.1677 20.5019 77.2643 20.4436C77.361 20.3852 77.4449 20.3082 77.5118 20.2172C77.5786 20.1263 77.6266 20.0231 77.6534 19.9135C77.7217 19.7121 77.707 19.4918 77.6127 19.3011C77.5184 19.1105 77.3523 18.9652 77.1511 18.8971C76.9495 18.829 76.7294 18.8435 76.5388 18.9378C76.3482 19.032 76.2028 19.1982 76.1345 19.3996ZM77.0712 19.0798C77.5736 19.3082 77.2308 20.2218 76.7512 20.0848C76.2715 19.9477 76.523 18.977 77.0712 19.0798ZM84.9509 18.4288C84.8701 18.3686 84.7769 18.3275 84.6783 18.308C84.5792 18.2887 84.4775 18.2916 84.3801 18.3169C84.2825 18.3421 84.1918 18.3888 84.1147 18.4536C84.0375 18.5185 83.976 18.5997 83.9345 18.6915C83.8469 18.8962 83.8381 19.1261 83.9098 19.3371C83.9814 19.5478 84.1286 19.7247 84.323 19.8335C84.4156 19.891 84.52 19.927 84.6286 19.9388C84.737 19.9506 84.8466 19.938 84.9496 19.9016C85.0526 19.8655 85.1463 19.8067 85.2235 19.7299C85.3008 19.6529 85.3599 19.5594 85.3963 19.4567C85.4604 19.2604 85.4505 19.0476 85.3684 18.8585C85.2864 18.6691 85.138 18.5163 84.9509 18.4288ZM84.8597 18.5887C85.3165 18.9313 85.0196 19.7307 84.54 19.4567C84.0603 19.1826 84.3116 18.3603 84.8597 18.6002V18.5887ZM90.9695 15.3226C90.9031 15.2605 90.8233 15.214 90.7366 15.187C90.65 15.1598 90.5582 15.1525 90.4683 15.1656C90.3782 15.1789 90.2924 15.2121 90.217 15.263C90.1417 15.3138 90.0788 15.3811 90.0331 15.4596C89.9446 15.6425 89.9261 15.8512 89.9808 16.0468C90.0354 16.2424 90.1595 16.4112 90.3298 16.5217C90.406 16.5838 90.4949 16.628 90.5902 16.6515C90.6855 16.6749 90.7849 16.6768 90.8811 16.6573C90.9772 16.6375 91.0677 16.5966 91.1464 16.5377C91.2249 16.4787 91.2893 16.4031 91.335 16.3161C91.3769 16.227 91.4008 16.1305 91.4052 16.0321C91.4095 15.9336 91.3944 15.8352 91.3605 15.7428C91.3265 15.6502 91.2743 15.5655 91.2073 15.4932C91.14 15.4212 91.0592 15.363 90.9695 15.3226ZM90.878 15.471C91.2206 15.7908 90.9809 16.4303 90.5812 16.1562C90.1815 15.8821 90.4097 15.2426 90.878 15.471ZM79.0925 8.32202C79.2402 8.32746 79.3805 8.38778 79.4862 8.49133C79.5917 8.59478 79.655 8.73392 79.6633 8.88161C79.6575 9.0139 79.6008 9.13875 79.5049 9.23032C79.4092 9.32177 79.2821 9.37278 79.1496 9.37268C79.0807 9.3764 79.0116 9.36649 78.9464 9.34357C78.8812 9.32062 78.8211 9.28514 78.7697 9.23898C78.6658 9.14581 78.6031 9.01523 78.5956 8.8759C78.588 8.73657 78.6361 8.59993 78.7294 8.496C78.8224 8.39216 78.9532 8.32954 79.0925 8.32202ZM84.1517 7.35131C84.2993 7.35675 84.4397 7.41706 84.5454 7.52061C84.6508 7.62406 84.7142 7.7632 84.7225 7.91089C84.7167 8.04318 84.66 8.16804 84.564 8.2596C84.4683 8.35105 84.3413 8.40207 84.2088 8.40196C84.1351 8.41625 84.0593 8.41463 83.9862 8.39713C83.9131 8.3797 83.8448 8.34677 83.7856 8.30061C83.7264 8.25446 83.6776 8.19621 83.643 8.12969C83.6081 8.06318 83.5881 7.98998 83.584 7.91509C83.5798 7.84009 83.5917 7.76519 83.6191 7.69526C83.6463 7.62539 83.6882 7.5621 83.742 7.50978C83.7958 7.45743 83.8601 7.41717 83.931 7.39186C84.0016 7.36644 84.0769 7.35654 84.1517 7.36273V7.35131ZM140.51 64.0525C141.046 63.0594 141.925 62.2955 142.983 61.9026C144.04 61.5098 145.205 61.5154 146.259 61.9178C147.313 62.3206 148.185 63.0928 148.711 64.0907C149.238 65.0888 149.384 66.2441 149.121 67.3415C150.801 68.1588 152.405 69.1218 153.918 70.2194C154.58 70.8133 154.489 71.3614 153.312 71.2815C151.27 71.0994 149.25 70.7167 147.283 70.1395C146.653 70.5992 145.918 70.8934 145.145 70.9947C144.372 71.0961 143.586 71.0014 142.859 70.7192C142.132 70.4372 141.488 69.9769 140.986 69.3805C140.484 68.7844 140.139 68.0714 139.985 67.3073C138.843 66.7591 134.88 64.7149 134.64 63.5614C134.56 63.1389 134.972 62.9448 135.405 62.8991C137.16 62.9913 138.886 63.3814 140.51 64.0525ZM149.03 67.5813C148.807 68.3573 148.385 69.0618 147.808 69.6256C149.748 70.1849 151.736 70.5672 153.746 70.7676C153.095 69.9225 149.966 68.1181 149.03 67.5813ZM140.396 67.4786C140.582 68.1212 140.912 68.7124 141.363 69.2063C141.814 69.7003 142.373 70.0836 142.995 70.3266C143.618 70.5697 144.289 70.6658 144.956 70.6077C145.622 70.5493 146.265 70.3384 146.837 69.991C144.631 69.3143 142.477 68.4744 140.396 67.4786ZM147.454 69.5228C148.256 68.8077 148.767 67.822 148.89 66.7541C149.012 65.6862 148.737 64.6106 148.116 63.7327C147.791 63.2533 147.371 62.8453 146.883 62.5336C146.394 62.222 145.847 62.0133 145.275 61.9203C144.703 61.8272 144.118 61.8519 143.557 61.9927C142.994 62.1335 142.467 62.3876 142.006 62.7392C141.386 63.1958 140.897 63.8077 140.588 64.5133C140.279 65.219 140.162 65.9935 140.248 66.7591C142.572 67.8729 144.981 68.7971 147.454 69.5228ZM140.396 64.2809C139.551 64.0068 135.828 62.9333 135.154 63.4587C135.417 64.2809 139.128 66.2109 139.985 66.5649C139.92 65.7807 140.061 64.9931 140.396 64.2809ZM57.5995 134.664C58.9785 135.57 60.4299 136.36 61.9392 137.028C61.9539 137.032 61.9697 137.031 61.984 137.027C61.9984 137.021 62.0104 137.01 62.0183 136.997C62.0262 136.984 62.0295 136.969 62.0277 136.953C62.0258 136.938 62.0187 136.924 62.0077 136.913C60.6273 136.009 59.1761 135.219 57.668 134.549C57.6535 134.545 57.6377 134.546 57.6234 134.55C57.6089 134.556 57.5968 134.567 57.5889 134.58C57.581 134.592 57.5777 134.608 57.5798 134.624C57.5817 134.639 57.5885 134.653 57.5995 134.664ZM32.8406 34.3943C32.8406 31.6306 33.0004 29.0268 33.0004 29.141C33.0079 29.1181 33.0224 29.0982 33.042 29.0841C33.0615 29.07 33.0849 29.0625 33.109 29.0625C33.1331 29.0625 33.1564 29.07 33.1759 29.0841C33.1954 29.0982 33.2099 29.1181 33.2174 29.141C33.2174 29.9747 33.3659 30.717 33.3773 34.577C34.2214 34.0278 35.0943 33.5245 35.9925 33.0695C36.0046 33.0621 36.0179 33.0571 36.0318 33.0546C36.0459 33.0523 36.0602 33.0527 36.0739 33.0558C36.0876 33.0591 36.1007 33.065 36.1123 33.0733C36.1238 33.0814 36.1335 33.0917 36.141 33.1038C36.1485 33.1158 36.1537 33.1291 36.1559 33.1432C36.1584 33.1569 36.1578 33.1713 36.1547 33.1852C36.1516 33.1989 36.1456 33.212 36.1375 33.2234C36.1292 33.235 36.1188 33.2448 36.1067 33.2523C35.3758 33.8519 34.6132 34.4123 33.8227 34.931C35.4672 35.8332 35.7984 36.073 36.5864 36.5527C37.3744 37.0323 37.3858 37.0323 37.3287 37.1465C37.2716 37.2607 37.2145 37.2151 36.4265 36.8496C35.6385 36.4842 35.1017 36.2558 33.3773 35.3079C33.3773 39.6818 33.206 41.6804 33.206 41.5662C33.1985 41.589 33.184 41.6089 33.1645 41.623C33.145 41.6372 33.1217 41.6446 33.0976 41.6446C33.0735 41.6446 33.0501 41.6372 33.0305 41.623C33.011 41.6089 32.9965 41.589 32.989 41.5662C32.989 40.7439 32.8291 40.0244 32.8291 35.5706C31.9381 36.1609 31.0156 36.7022 30.0654 37.1922C30.0534 37.1997 30.0401 37.2049 30.0262 37.2072C30.0123 37.2095 29.998 37.209 29.9843 37.2059C29.9703 37.2026 29.9573 37.1968 29.9458 37.1885C29.9344 37.1804 29.9245 37.17 29.917 37.158C29.9095 37.1459 29.9045 37.1326 29.9022 37.1187C29.8997 37.1048 29.9002 37.0905 29.9035 37.0766C29.9066 37.0629 29.9124 37.0498 29.9207 37.0384C29.9288 37.0267 29.9392 37.017 29.9512 37.0095C30.8505 36.2732 31.7924 35.5905 32.772 34.9653C31.847 34.4514 31.5501 34.2687 30.8192 33.8233C30.0883 33.3779 29.8485 33.2408 29.9056 33.1152C29.9272 33.0994 29.9531 33.0909 29.9799 33.0909C30.0065 33.0909 30.0326 33.0994 30.054 33.1152C31.493 33.652 32.3495 34.143 32.8406 34.3943Z" fill="#2D2D2D"/>
<path fill-rule="evenodd" clip-rule="evenodd" d="M34.1466 137.899C35.4259 137.228 36.6381 136.436 37.7668 135.535C37.8467 135.535 37.7668 135.375 37.6983 135.421C36.4198 136.092 35.2076 136.884 34.0781 137.784C34.0095 137.83 34.0781 137.944 34.1466 137.899ZM69.5492 69.0347C69.5492 72.2438 69.6634 72.7577 69.6634 73.3401C69.6584 73.3524 69.6567 73.3655 69.658 73.3786C69.6594 73.3914 69.664 73.4039 69.6713 73.4147C69.6787 73.4257 69.6885 73.4344 69.7001 73.4404C69.7116 73.4467 69.7244 73.4498 69.7375 73.4498C69.7506 73.4498 69.7635 73.4467 69.7749 73.4404C69.7865 73.4344 69.7965 73.4257 69.8037 73.4147C69.811 73.4039 69.8156 73.3914 69.817 73.3786C69.8185 73.3655 69.8166 73.3524 69.8118 73.3401C69.8118 73.4543 69.9375 71.6043 69.9375 68.8406C70.8226 69.3414 71.7338 69.7951 72.6669 70.1996C72.7583 70.1996 72.8382 70.1082 72.7468 70.0626C71.9428 69.5256 71.1119 69.03 70.2572 68.5779C70.8228 68.2289 71.3681 67.8475 71.8903 67.4359C71.9057 67.4243 71.9163 67.4073 71.9202 67.3879C71.924 67.3688 71.9206 67.3489 71.9107 67.3323C71.9009 67.3155 71.8853 67.3028 71.8669 67.2966C71.8484 67.2906 71.8282 67.2914 71.8104 67.2989C71.8104 67.2989 70.8739 67.7785 69.9375 68.3838C69.9375 65.5402 69.8233 64.9577 69.8233 64.4781C69.8233 64.4571 69.8147 64.4368 69.7998 64.4216C69.7848 64.4067 69.7645 64.3981 69.7433 64.3981C69.7221 64.3981 69.7018 64.4067 69.6868 64.4216C69.6717 64.4368 69.6634 64.4571 69.6634 64.4781C69.6634 64.3639 69.5606 66.3167 69.5492 68.2582C69.218 68.0869 68.5556 67.7328 67.5506 67.2989C67.4593 67.2989 67.3793 67.3902 67.4707 67.4359C67.5621 67.4816 68.3158 68.0183 69.5035 68.6693C68.8002 69.0952 68.1214 69.5605 67.4707 70.0626C67.3793 70.0626 67.4707 70.2567 67.5506 70.1996C67.4364 70.2567 68.293 69.8341 69.5492 69.0347ZM98.2593 149.73C97.0145 149.216 83.8813 148.405 83.7671 148.394C83.4131 148.394 80.855 148.908 80.6837 148.953C80.5124 148.999 80.6837 148.953 80.6837 149.011C81.682 149.466 82.7127 149.848 83.7671 150.153C84.9091 150.392 87.1932 150.415 98.0195 151.58C98.2251 151.58 98.659 150.872 98.4078 149.844C98.3964 149.81 98.3164 149.764 98.2593 149.73ZM83.71 150.038L81.9856 149.433C82.0522 149.342 82.096 149.236 82.1112 149.125C82.1274 149.013 82.116 148.899 82.0769 148.794C82.6355 148.681 83.1998 148.6 83.7671 148.554C84.0412 148.828 83.3103 148.931 83.8585 149.285C83.927 149.285 83.9384 149.285 83.8585 149.365C83.8298 149.379 83.8043 149.399 83.7833 149.424C83.7613 149.448 83.7461 149.477 83.7366 149.508C83.727 149.539 83.7233 149.572 83.727 149.603C83.7299 149.636 83.7405 149.667 83.7557 149.696C83.8471 149.856 83.9498 149.924 83.71 150.038ZM83.847 150.038C84.1668 149.867 83.7328 149.604 83.9498 149.467C84.4295 149.136 82.1454 149.228 97.2315 150.609C97.2002 150.844 97.2525 151.083 97.38 151.283L83.847 150.038ZM97.2429 150.518C96.729 150.461 84.0869 149.262 84.0069 149.193C83.927 149.125 83.7214 149.068 83.8242 148.931C83.927 148.794 83.9841 148.668 83.8242 148.531C83.9384 148.531 95.1416 149.422 97.5284 149.821C97.3619 150.026 97.262 150.277 97.2429 150.541V150.518ZM97.9738 151.306C97.8939 151.226 97.8825 151.249 97.8025 151.02C97.7226 150.792 97.8025 150.016 98.168 150.016C98.224 150.236 98.2355 150.466 98.2022 150.691C98.169 150.917 98.0918 151.134 97.9738 151.329V151.306ZM105.911 117.605C105.898 117.563 105.877 117.524 105.847 117.492C105.818 117.459 105.782 117.434 105.741 117.416C105.701 117.399 105.657 117.392 105.612 117.395C105.568 117.397 105.525 117.408 105.487 117.429C105.448 117.45 105.415 117.478 105.388 117.514C105.363 117.549 105.345 117.59 105.336 117.633C105.327 117.675 105.328 117.72 105.339 117.763C105.349 117.806 105.369 117.845 105.397 117.879C105.511 118.062 105.625 118.245 105.751 118.427C105.768 118.466 105.794 118.501 105.826 118.53C105.859 118.558 105.897 118.579 105.938 118.592C105.979 118.604 106.023 118.608 106.065 118.601C106.108 118.596 106.149 118.579 106.185 118.557C106.221 118.533 106.252 118.501 106.274 118.465C106.297 118.429 106.312 118.388 106.317 118.345C106.323 118.302 106.319 118.259 106.306 118.218C106.293 118.177 106.272 118.139 106.242 118.107C106.185 117.948 106.014 117.776 105.911 117.605ZM91.6813 93.3485C91.7498 92.8118 92.3779 90.0823 92.1381 90.0252C92.1248 90.0194 92.1105 90.0176 92.0962 90.0176C92.0818 90.0186 92.0677 90.0223 92.0544 90.029C92.0409 90.0356 92.0295 90.0444 92.021 90.0558C92.0114 90.0672 92.0048 90.0794 92.0011 90.0938C91.6776 90.8913 91.429 91.7163 91.2588 92.5605C91.194 92.8575 91.1522 93.1592 91.1331 93.4627C91.135 93.5092 91.1483 93.5549 91.1722 93.595C91.1958 93.6349 91.2301 93.6673 91.2702 93.6911C91.5567 93.8367 91.8659 93.9339 92.1838 93.9766C92.435 93.9766 93.3258 94.0452 93.223 93.8053C93.1202 93.5655 92.9832 93.9995 91.6813 93.3485ZM96.809 91.6926V91.0988C96.809 90.6876 96.238 90.6305 96.2265 91.0988V91.7497C96.2236 91.7925 96.2294 91.8363 96.2456 91.8762C96.2608 91.9173 96.2847 91.9534 96.315 91.9837C96.3463 92.0142 96.3835 92.0371 96.4244 92.0514C96.4653 92.0657 96.5091 92.0713 96.5519 92.0666C96.5949 92.0628 96.6366 92.0485 96.6738 92.0267C96.711 92.0047 96.7434 91.9752 96.767 91.9391C96.7917 91.9038 96.8079 91.8629 96.8156 91.8211C96.8233 91.7782 96.8204 91.7345 96.809 91.6926ZM97.5627 94.8446C97.1973 96.215 96.7062 96.4206 96.1123 96.4891C95.9905 96.4986 95.8688 96.4986 95.7469 96.4891C95.7203 96.4795 95.6898 96.4824 95.664 96.4947C95.6383 96.5082 95.6194 96.53 95.6098 96.5576C95.6013 96.5852 95.6032 96.6147 95.6155 96.6404C95.629 96.666 95.6518 96.6851 95.6784 96.6946C96.6719 97.2657 98.0309 96.569 97.7797 94.8446C97.772 94.8217 97.7579 94.8018 97.7388 94.7875C97.7188 94.7731 97.695 94.7655 97.6711 94.7655C97.6474 94.7655 97.6235 94.7731 97.6046 94.7875C97.5845 94.8018 97.5704 94.8217 97.5627 94.8446ZM101.857 109.12C101.85 109.083 101.836 109.047 101.816 109.014C101.795 108.983 101.768 108.954 101.737 108.933C101.705 108.911 101.67 108.896 101.633 108.888C101.596 108.88 101.558 108.879 101.52 108.886C101.483 108.892 101.447 108.907 101.414 108.926C101.383 108.947 101.355 108.974 101.333 109.006C101.311 109.037 101.296 109.072 101.288 109.109C101.28 109.146 101.279 109.185 101.286 109.223C101.334 109.435 101.396 109.645 101.468 109.851C101.472 109.895 101.485 109.937 101.507 109.975C101.529 110.013 101.559 110.046 101.595 110.071C101.631 110.096 101.673 110.113 101.716 110.12C101.76 110.128 101.803 110.125 101.846 110.113C101.888 110.101 101.927 110.079 101.96 110.05C101.994 110.021 102.019 109.986 102.038 109.945C102.055 109.905 102.063 109.861 102.061 109.816C102.059 109.773 102.048 109.73 102.028 109.691C101.959 109.497 101.902 109.303 101.857 109.12ZM90.6192 89.991C90.6277 89.9482 90.6269 89.9034 90.6163 89.8606C90.6059 89.8178 90.586 89.7788 90.5573 89.7445C90.5297 89.7103 90.4946 89.6835 90.4556 89.6646C90.4155 89.6455 90.3717 89.6359 90.3279 89.6359C90.2843 89.6359 90.2405 89.6455 90.2015 89.6646C90.1614 89.6835 90.1263 89.7103 90.0987 89.7445C90.0711 89.7788 90.0511 89.8178 90.0405 89.8606C90.0291 89.9034 90.0283 89.9482 90.0368 89.991V90.6419C90.0283 90.6847 90.0291 90.7296 90.0405 90.7723C90.0511 90.8141 90.0711 90.8542 90.0987 90.8884C90.1263 90.9216 90.1614 90.9492 90.2015 90.9684C90.2405 90.9875 90.2843 90.9968 90.3279 90.9968C90.3717 90.9968 90.4155 90.9875 90.4556 90.9684C90.4946 90.9492 90.5297 90.9216 90.5573 90.8884C90.586 90.8542 90.6059 90.8141 90.6163 90.7723C90.6269 90.7296 90.6277 90.6847 90.6192 90.6419C90.6059 90.425 90.6059 90.208 90.6192 89.991ZM180.896 137.83C180.827 137.842 180.896 137.83 180.896 137.83V137.83Z" fill="#2D2D2D"/>
<path fill-rule="evenodd" clip-rule="evenodd" d="M186.594 137.099C185.327 136.483 182.312 136.997 180.884 137.293C180.36 136.707 179.698 136.261 178.959 135.994C178.22 135.727 177.425 135.648 176.647 135.763C175.368 136.083 175.06 137.659 175.117 138.984C174.295 138.835 173.404 138.732 172.582 138.652C172.65 138.401 172.867 138.047 172.799 137.796C172.762 137.706 172.706 137.625 172.635 137.56C172.564 137.493 172.479 137.444 172.387 137.413C172.294 137.383 172.197 137.372 172.1 137.384C172.004 137.394 171.911 137.426 171.828 137.476C171.601 137.658 171.39 137.861 171.2 138.081C171.2 137.682 171.531 137.042 171.131 136.939C170.732 136.837 169.487 137.956 169.133 138.356C166.51 138.067 163.864 138.067 161.242 138.356C157.808 138.602 154.572 140.054 152.105 142.455C165.992 126.467 172.091 115.481 171.931 101.788C171.771 88.0953 155.497 81.5629 148.805 81.3916C142.307 81.2318 135.603 84.8177 135.261 84.8177C129.391 85.9597 113.996 84.2581 110.764 85.6057C110.804 84.1584 110.544 82.7189 110.002 81.3767C109.46 80.0345 108.646 78.8188 107.612 77.8057C105.762 75.7843 102.804 75.0306 99.8009 75.1562C95.5184 75.3504 91.2701 77.1433 89.1459 80.8663C88.4416 82.0719 88.0278 83.4244 87.9354 84.8177C87.9354 85.1717 87.2045 90.996 89.0774 95.4042C89.4999 96.5205 90.1756 97.5236 91.0512 98.3334C91.9277 99.1442 92.9793 99.7401 94.1251 100.075C92.2788 102.523 90.5859 105.082 89.0545 107.738C88.7005 108.48 88.9632 108.88 89.4771 108.88C89.991 108.88 90.6762 108.743 91.1559 108.766C90.4021 110.833 88.4835 116.223 88.0153 118.359C85.6675 119.94 83.5529 121.843 81.7342 124.012C78.3081 127.94 76.7093 132.2 72.8264 134.473L71.6844 135.112C73.2376 130.396 76.1726 121.031 75.1105 121.02C74.0484 121.008 71.4677 130.019 69.8232 136.129C68.0644 137.099 67.1735 137.716 66.5568 139.635C66.3558 140.12 66.2524 140.64 66.2524 141.165C66.2524 141.69 66.3558 142.21 66.5568 142.695C66.6301 142.85 66.7422 142.985 66.8821 143.085C67.0221 143.185 67.1855 143.247 67.3564 143.266C67.4934 143.266 67.4934 143.141 67.1166 143.974C66.937 144.026 66.7671 144.107 66.6139 144.214L61.121 140.868C60.9953 140.868 62.5711 140.651 29.1442 145.002C28.5161 144.534 27.8537 144.043 27.1685 143.506C10.7463 130.727 64.3755 117.011 68.6695 99.5497C72.5181 83.9155 50.3972 80.7635 55.3079 66.0772C60.2186 51.3908 92.3321 55.5021 122.561 53.7434C152.791 51.9846 164.816 21.4699 142.809 5.57295C120.803 -10.324 98.1907 12.2538 92.846 18.021C87.5014 23.7882 81.3345 31.3369 64.0217 30.5832C46.7087 29.8295 24.0508 32.7645 15.7483 57.866C11.7513 69.8801 15.3372 78.3082 20.6704 84.989C22.4568 83.1715 24.6661 81.8256 27.1 81.0719C28.5161 80.7293 29.9208 80.912 30.3205 82.3167C31.0742 84.8976 27.9451 88.9061 26.1293 90.9047C30.6974 95.3129 35.0827 99.0358 36.8072 102.884C39.6851 109.348 25.8895 114.133 20.0652 117.913C14.2409 121.693 5.34455 133.388 10.8034 144.739C11.2135 145.609 11.6711 146.455 12.1738 147.275C0.593746 148.771 0.194039 148.771 0.079941 148.839C-0.0342609 148.908 -3.48083e-07 149.113 0.079941 149.228H0C1.02771 150.37 31.2798 193.606 49.849 215.579L50.1802 215.647C54.2001 213.716 127.152 178.303 123.269 176.122C123.269 176.122 69.9371 146.35 68.6695 145.596C68.868 145.255 69.0397 144.9 69.1834 144.534C69.2467 144.529 69.3063 144.503 69.3522 144.459C69.3979 144.415 69.4272 144.357 69.4349 144.294V143.677C70.1429 143.917 71.2507 143.232 71.8217 142.718C72.9637 141.667 74.6765 138.744 75.9442 138.356C78.4718 137.726 80.9653 136.963 83.413 136.072C93.5884 132.257 97.8138 127.986 102.245 121.088C102.978 120.011 103.601 118.863 104.106 117.662C106.692 120.454 109.836 122.673 113.334 124.172C104.106 134.827 105.557 141.587 108.891 145.276C111.941 148.645 116.886 147.457 117.696 147.206C117.696 152.277 119.409 163.537 119.98 164.668C120.277 165.319 119.284 165.81 119.078 167.1C118.971 167.756 119.055 168.429 119.323 169.037C119.59 169.646 120.029 170.163 120.586 170.526C121.853 171.326 124.012 171.371 123.167 170.104C122.885 169.741 122.567 169.409 122.219 169.11C122.55 169.213 122.915 169.35 123.361 169.51C127.529 171.143 128.077 171.885 128.842 171.668C128.945 171.644 129.041 171.598 129.124 171.533C129.207 171.468 129.275 171.386 129.322 171.291C129.413 171.354 129.517 171.398 129.626 171.418C129.735 171.438 129.846 171.435 129.955 171.409C130.063 171.384 130.163 171.335 130.251 171.267C130.34 171.2 130.412 171.114 130.464 171.017C130.503 170.943 130.524 170.861 130.524 170.777C130.524 170.694 130.503 170.612 130.464 170.538C130.609 170.294 130.658 170.005 130.601 169.727C130.601 168.699 126.673 165.341 125.873 164.679C125.987 163.537 126.593 161.002 128.1 154.264C135.889 163.046 162.075 150.838 163.503 150.221C163.743 150.472 173.415 146.35 174.535 145.756C174.42 145.756 186.8 140.16 187.268 138.104C187.268 137.625 186.96 137.316 186.594 137.099ZM142.421 33.7009C142.61 33.7067 142.789 33.7869 142.919 33.9235C143.049 34.0603 143.121 34.2429 143.118 34.4318C143.121 34.5257 143.105 34.6193 143.072 34.7071C143.038 34.7948 142.987 34.8751 142.923 34.9432C142.858 35.0111 142.78 35.0657 142.694 35.1033C142.608 35.1409 142.515 35.161 142.421 35.1627C142.327 35.161 142.234 35.1411 142.147 35.1035C142.06 35.0659 141.981 35.0117 141.916 34.9438C141.85 34.8759 141.799 34.7958 141.763 34.708C141.729 34.6201 141.712 34.5261 141.713 34.4318C141.712 34.3373 141.729 34.2433 141.763 34.1554C141.799 34.0676 141.85 33.9875 141.916 33.9196C141.981 33.8517 142.06 33.7975 142.147 33.7599C142.234 33.7223 142.327 33.7024 142.421 33.7009ZM135.969 13.7612C136.061 13.7611 136.152 13.7796 136.238 13.8153C136.324 13.851 136.401 13.9033 136.466 13.9693C136.53 14.0351 136.582 14.1133 136.616 14.1991C136.65 14.2849 136.667 14.3768 136.665 14.4693C136.678 14.5674 136.67 14.6671 136.641 14.7618C136.612 14.8565 136.564 14.944 136.498 15.0183C136.432 15.0926 136.352 15.1522 136.262 15.1929C136.171 15.2338 136.073 15.2548 135.974 15.2548C135.875 15.2548 135.777 15.2338 135.687 15.1929C135.597 15.1522 135.517 15.0926 135.451 15.0183C135.386 14.944 135.338 14.8565 135.308 14.7618C135.28 14.6671 135.271 14.5674 135.283 14.4693C135.282 14.3777 135.299 14.2868 135.332 14.2018C135.366 14.1167 135.416 14.039 135.479 13.9733C135.543 13.9075 135.619 13.855 135.703 13.8185C135.787 13.7822 135.877 13.7627 135.969 13.7612ZM114.499 45.2696C114.417 45.2546 114.344 45.2116 114.29 45.1481C114.237 45.0844 114.208 45.0042 114.208 44.9212C114.208 44.8383 114.237 44.7579 114.29 44.6944C114.344 44.6307 114.417 44.5877 114.499 44.5729C114.594 44.5729 114.686 44.6107 114.753 44.6782C114.82 44.7457 114.858 44.8373 114.858 44.9326C114.858 45.0281 114.82 45.1197 114.753 45.1869C114.686 45.2544 114.594 45.2924 114.499 45.2924V45.2696ZM111.392 13.8983C111.392 13.4415 112.534 13.2131 113.037 13.1445C113.867 13.0348 114.708 13.0348 115.538 13.1445C116.053 12.1999 116.686 11.3248 117.422 10.5407C117.662 10.3466 117.879 10.2781 118.096 10.5407C118.613 11.5837 118.945 12.7079 119.078 13.864C120.848 14.3208 123.315 15.1659 121.83 16.228C121.374 16.5592 120.563 16.9018 119.683 17.37C119.783 18.2916 119.813 19.2191 119.775 20.1452C119.775 20.5677 119.661 21.2072 119.238 21.2872C118.382 21.4356 117.719 20.2479 116.372 19.0831C115.081 19.7226 112.5 21.1387 112.443 19.7797C112.583 18.6205 112.928 17.4953 113.459 16.4564C112.146 15.2116 111.312 14.6063 111.392 13.9211V13.8983ZM110.25 34.9C110.248 35.6972 110.04 36.4802 109.646 37.1733C109.253 37.8666 108.688 38.4467 108.004 38.8579C107.321 39.2688 106.544 39.4966 105.747 39.5196C104.95 39.5424 104.161 39.3595 103.455 38.9885L110.102 33.7123C110.204 34.1079 110.258 34.5142 110.262 34.9229L110.25 34.9ZM109.965 33.2898C108.138 34.6945 105.682 36.7158 103.227 38.8514C103.042 38.7399 102.866 38.6139 102.702 38.4746C105.088 36.0649 107.43 33.3469 108.88 31.6224C109.358 32.1046 109.731 32.68 109.976 33.3126L109.965 33.2898ZM108.629 31.3826C108.172 31.8737 104.198 36.3504 102.485 38.2347C101.997 37.7869 101.608 37.2424 101.343 36.6359C103.079 35.3797 105.443 33.6324 108.069 31.5653L108.48 31.2342L108.629 31.3826ZM105.625 30.2406C106.542 30.2396 107.437 30.5141 108.195 31.0286L106.585 32.1706C106.219 32.4447 103.444 34.6259 101.251 36.339C101.019 35.643 100.954 34.9017 101.063 34.1758C101.172 33.4501 101.451 32.7605 101.878 32.1633C102.305 31.5662 102.866 31.0786 103.518 30.7404C104.169 30.4024 104.891 30.2232 105.625 30.2178V30.2406ZM94.6162 28.3677C94.7551 28.3631 94.8921 28.4001 95.0092 28.4738C95.1272 28.5475 95.2196 28.6546 95.2756 28.7815C95.3319 28.9084 95.3489 29.049 95.3253 29.1856C95.3003 29.3222 95.2366 29.4485 95.1396 29.5481C95.0435 29.648 94.9197 29.7165 94.7837 29.7454C94.6475 29.7742 94.5067 29.7618 94.3782 29.7097C94.2497 29.6578 94.1394 29.5687 94.0614 29.4534C93.9843 29.3386 93.9424 29.203 93.9424 29.0643C93.9538 28.8905 94.0319 28.7277 94.1583 28.609C94.286 28.4902 94.4534 28.4244 94.6276 28.4248L94.6162 28.3677ZM88.3236 45.6579C88.59 45.6668 88.849 45.754 89.066 45.9087C89.2829 46.0634 89.4505 46.2787 89.5466 46.5277C89.6417 46.7766 89.6627 47.0482 89.6056 47.3088C89.5475 47.5694 89.4152 47.8071 89.2229 47.9928C89.0317 48.1782 88.789 48.3032 88.5273 48.352C88.2647 48.4008 87.9935 48.3715 87.7479 48.2673C87.5024 48.1632 87.2929 47.9892 87.1455 47.7669C86.9979 47.5445 86.919 47.2837 86.919 47.0169C86.9285 46.6512 87.0807 46.3038 87.3434 46.0497C87.606 45.7955 87.9582 45.6547 88.3236 45.6579ZM70.5538 42.4374C71.0449 42.4374 71.0449 43.3167 70.5538 43.3167C70.0628 43.3167 70.0513 42.4374 70.5538 42.4374ZM24.1079 67.6874C24.0539 67.697 23.9983 67.6945 23.9451 67.6801C23.892 67.666 23.8426 67.6403 23.8004 67.6048C23.7583 67.5695 23.7244 67.5252 23.7012 67.4754C23.6779 67.4256 23.6659 67.3712 23.6659 67.3161C23.6659 67.2611 23.6779 67.2067 23.7012 67.1569C23.7244 67.1071 23.7583 67.0628 23.8004 67.0275C23.8426 66.9922 23.892 66.9663 23.9451 66.9522C23.9983 66.9378 24.0539 66.9355 24.1079 66.9451C24.1623 66.9355 24.2178 66.9378 24.2711 66.9522C24.3241 66.9663 24.3735 66.9922 24.4156 67.0275C24.4578 67.0628 24.4916 67.1071 24.5149 67.1569C24.5384 67.2067 24.5502 67.2611 24.5502 67.3161C24.5502 67.3712 24.5384 67.4256 24.5149 67.4754C24.4916 67.5252 24.4578 67.5695 24.4156 67.6048C24.3735 67.6403 24.3241 67.666 24.2711 67.6801C24.2178 67.6945 24.1623 67.697 24.1079 67.6874ZM48.6613 112.523C48.5081 112.505 48.3629 112.444 48.2438 112.345C48.1248 112.247 48.0367 112.116 47.9902 111.969C47.9439 111.822 47.9412 111.664 47.9826 111.515C48.0239 111.366 48.1076 111.233 48.2232 111.13C48.3389 111.028 48.4817 110.961 48.6345 110.939C48.7874 110.916 48.9435 110.938 49.0841 111.001C49.2247 111.065 49.3436 111.169 49.4267 111.299C49.5099 111.429 49.5533 111.581 49.5521 111.735C49.5376 111.957 49.4356 112.164 49.2689 112.312C49.1021 112.46 48.8839 112.535 48.6613 112.523ZM51.3679 36.1448C51.5245 36.1426 51.6777 36.1868 51.8089 36.2719C51.94 36.3573 52.0427 36.4793 52.1042 36.6232C52.1655 36.7669 52.1829 36.9258 52.1536 37.0794C52.1246 37.2329 52.0504 37.3745 51.9408 37.4858C51.8309 37.5971 51.6906 37.6733 51.5373 37.7046C51.3843 37.736 51.2253 37.721 51.0805 37.6619C50.936 37.6025 50.8123 37.5016 50.7251 37.3718C50.6381 37.2418 50.5915 37.089 50.5913 36.9328C50.5913 36.7256 50.6729 36.5269 50.8183 36.3797C50.9636 36.232 51.1611 36.1477 51.3679 36.1448ZM52.0303 77.1547C52.0292 77.2663 51.9962 77.3751 51.9352 77.4685C51.8739 77.5617 51.7873 77.6354 51.6854 77.6809C51.5836 77.7266 51.4709 77.7418 51.3606 77.7249C51.2504 77.7081 51.1472 77.6604 51.0633 77.5866C50.9796 77.5129 50.9188 77.4168 50.8881 77.3094C50.8575 77.2023 50.8582 77.0885 50.8901 76.9816C50.9223 76.8748 50.9844 76.7795 51.0691 76.7069C51.1538 76.6342 51.2575 76.5875 51.3679 76.5723C51.4483 76.5659 51.5288 76.5763 51.605 76.6026C51.681 76.6292 51.7508 76.6712 51.8098 76.7258C51.8687 76.7806 51.9159 76.8468 51.9478 76.9207C51.98 76.9944 51.9964 77.0742 51.996 77.1547H52.0303ZM52.2929 94.0224C52.9782 93.4856 54.9995 91.8183 55.6048 92.3436C56.2101 92.8689 55.6847 93.9767 55.6048 95.5527C56.8724 96.158 59.4991 97.3114 58.4713 98.0423C57.465 98.5342 56.3847 98.8579 55.2736 99.0016C55.0795 100.658 55.0909 101.503 54.5313 101.788C54.143 101.971 53.2865 101.274 52.9667 100.977C52.3525 100.453 51.8143 99.8456 51.3679 99.1729C50.3249 99.2985 49.2705 99.2985 48.2274 99.1729C47.9533 99.1044 47.7477 98.9787 47.8048 98.7046C47.9304 98.0765 49.3465 96.7404 49.8148 96.295C49.5178 95.644 48.8212 94.011 49.061 93.36C49.4036 92.4578 50.8768 93.4514 52.2587 94.0224H52.2929ZM48.5814 57.2265C48.8212 57.2265 48.9468 57.3978 48.9126 57.6947C48.6738 58.5421 48.3121 59.35 47.8391 60.093C48.3289 60.6056 48.7475 61.1818 49.0839 61.806C50.2259 64.0101 48.6385 63.4505 46.2859 62.948C45.7313 63.7728 45.0262 64.4856 44.2075 65.0493C43.1454 65.5747 42.9056 63.3363 42.7228 62.0687C41.1126 61.6461 39.8335 61.7032 39.5023 61.0523C39.1711 60.4013 41.6379 59.4078 42.346 59.088C42.266 57.946 41.7749 56.4157 42.7571 56.4614C43.7525 56.762 44.6665 57.2853 45.4294 57.9917C46.4331 57.5714 47.4971 57.3131 48.5814 57.2265ZM34.0321 89.1345C33.9048 89.1551 33.7746 89.1478 33.6504 89.1129C33.526 89.0783 33.4108 89.017 33.3126 88.9333C33.2144 88.8499 33.1355 88.7458 33.0813 88.6287C33.0273 88.5116 32.9993 88.3841 32.9993 88.2552C32.9993 88.126 33.0273 87.9987 33.0813 87.8814C33.1355 87.7645 33.2144 87.6605 33.3126 87.5768C33.4108 87.4931 33.526 87.4319 33.6504 87.3972C33.7746 87.3625 33.9048 87.3551 34.0321 87.3758C34.1596 87.3551 34.29 87.3625 34.4141 87.3972C34.5383 87.4319 34.6535 87.4931 34.7517 87.5768C34.85 87.6605 34.9289 87.7645 34.9831 87.8814C35.037 87.9987 35.0651 88.126 35.0651 88.2552C35.0651 88.3841 35.037 88.5116 34.9831 88.6287C34.9289 88.7458 34.85 88.8499 34.7517 88.9333C34.6535 89.017 34.5383 89.0783 34.4141 89.1129C34.29 89.1478 34.1596 89.1551 34.0321 89.1345ZM27.5911 54.6341C27.5491 54.6235 27.5118 54.5995 27.485 54.5652C27.4584 54.5311 27.4439 54.489 27.4439 54.4456C27.4439 54.4022 27.4584 54.36 27.485 54.326C27.5118 54.2919 27.5491 54.2676 27.5911 54.2573C30.0921 54.086 32.9357 54.006 35.4367 54.006C33.3525 52.544 31.1212 51.3038 28.7788 50.3059C28.7294 50.2905 28.6874 50.2571 28.6612 50.2122C28.6353 50.1672 28.6274 50.114 28.6388 50.0636C28.6505 50.0129 28.6808 49.9685 28.7237 49.9394C28.7665 49.9101 28.8188 49.8983 28.8701 49.9062C31.4663 49.9338 34.0198 50.5673 36.3275 51.7562C34.8097 50.2436 33.2042 48.821 31.5196 47.4965C31.4837 47.4672 31.4592 47.4259 31.4509 47.3802C31.4426 47.3345 31.4511 47.2874 31.4744 47.2473C31.498 47.2073 31.535 47.1769 31.579 47.162C31.6228 47.1468 31.6708 47.1481 31.7138 47.1653C34.5927 48.0935 37.2949 49.4988 39.7079 51.3223C42.0901 53.0677 44.1564 55.2074 45.8177 57.6491C45.8177 57.7518 45.7149 57.8318 45.6464 57.729C43.9863 55.3031 41.9238 53.179 39.548 51.4479C37.4318 49.8956 35.1004 48.6607 32.6274 47.782C33.4611 48.4558 36.8414 51.2081 37.2868 52.2245C37.3782 52.4072 37.1498 52.5785 36.9556 52.4643C35.7362 51.7849 34.4405 51.2521 33.0956 50.8769C32.0479 50.5633 30.9671 50.3717 29.8751 50.3059C31.1884 50.934 35.2654 52.9325 36.0991 54.1202C36.1207 54.152 36.1325 54.1892 36.134 54.2274C36.1354 54.2656 36.1261 54.3036 36.107 54.3368C36.0881 54.3698 36.0603 54.3972 36.0264 54.4155C35.9928 54.4338 35.9548 54.4421 35.9164 54.44C35.7908 54.44 32.6388 54.44 29.2927 54.5542C33.2441 55.3079 38.4288 56.7583 41.7293 59.1223C41.8206 59.1908 41.7293 59.3278 41.6151 59.2593C38.0291 56.7583 31.828 55.2051 27.5911 54.6341ZM92.2522 78.2168C96.1465 75.2818 103.867 74.5053 107.247 78.2168C108.242 79.1873 109.025 80.3549 109.544 81.6448C110.063 82.9348 110.308 84.3187 110.262 85.7085C109.995 88.2269 108.913 90.5897 107.178 92.435C106.973 92.6405 106.973 92.435 107.041 92.3322C107.238 92.0496 107.368 91.7269 107.422 91.3872C107.476 91.0473 107.453 90.6999 107.354 90.3708C107.255 90.0415 107.084 89.7388 106.852 89.4852C106.62 89.2315 106.333 89.0336 106.014 88.9061C103.855 87.924 103.204 91.5442 101.628 91.9896C100.258 92.3893 100.772 89.1916 100.874 87.0561C101.018 86.1171 100.802 85.1586 100.269 84.3723C99.3203 83.3545 98.1479 82.5723 96.8431 82.0883C94.5562 81.1672 92.0732 80.841 89.6255 81.1404C90.2937 79.9977 91.1872 79.0029 92.2522 78.2168ZM89.5456 95.2443C87.6613 90.7905 88.4835 84.8748 88.4835 84.8748C88.5759 83.6736 88.9223 82.5058 89.4999 81.4487C91.9677 81.1979 94.4582 81.5914 96.7289 82.5908C97.9641 83.0532 99.0777 83.7913 99.9837 84.7492C101.126 86.2566 99.9837 89.1345 100.349 91.3843C100.486 92.2637 100.897 92.8232 101.754 92.5263C103.524 92.0238 104.118 88.6663 105.819 89.4429C107.521 90.2194 107.213 92.4464 105.203 93.2915C104.426 93.6227 104.495 94.365 105.088 94.4335C105.397 94.4335 106.002 94.2622 106.927 93.5199C108.282 92.196 109.347 90.6059 110.056 88.849C111.645 89.1844 113.181 89.7292 114.624 90.4707C116.657 91.3957 119.055 92.6862 120.951 93.794C118.062 94.4829 115.429 95.979 113.358 98.1089C111.287 100.238 109.865 102.912 109.257 105.819C108.823 105.819 108.857 105.203 108.56 104.974C108.263 104.746 108.081 104.974 107.727 105.089C107.734 104.807 107.671 104.529 107.544 104.278C107.544 103.615 106.459 104.004 105.831 104.209C105.838 103.926 105.796 103.644 105.705 103.376C105.968 102.53 104.438 102.953 103.581 103.193C103.646 102.868 103.646 102.535 103.581 102.211C103.661 101.548 102.211 101.971 101.605 102.211C101.658 101.829 101.634 101.441 101.537 101.069C101.217 100.623 99.5269 101.56 99.4583 101.137C99.4641 100.824 99.5258 100.515 99.6411 100.224C99.8352 99.5269 98.8873 99.9609 98.6132 99.9152C98.6029 99.9208 98.5914 99.9247 98.579 99.9247C98.5665 99.9247 98.5551 99.9208 98.5447 99.9152V99.7781C99.5003 99.5163 100.418 99.1328 101.274 98.6361C101.71 99.2775 102.363 99.7399 103.113 99.938C103.794 100.141 104.519 100.143 105.202 99.9436C105.884 99.7439 106.494 99.3508 106.958 98.813C107.423 98.2755 107.722 97.6139 107.82 96.9106C107.918 96.2065 107.81 95.4889 107.51 94.8446C107.51 94.719 107.258 94.8446 107.315 94.9246C107.464 95.3623 107.521 95.8249 107.486 96.2854C107.451 96.746 107.322 97.1943 107.109 97.6046C106.895 98.0136 106.601 98.3764 106.244 98.6693C105.887 98.9625 105.475 99.1804 105.031 99.3099L102.268 97.6083C102.165 97.5398 102.176 97.6083 101.571 97.9966C101.191 97.2466 101.09 96.3872 101.284 95.5689C101.479 94.7514 101.956 94.0301 102.633 93.5313C103.432 92.9964 104.38 92.7319 105.34 92.7776C105.363 92.7699 105.383 92.7556 105.397 92.7356C105.411 92.7167 105.419 92.6928 105.419 92.669C105.419 92.6453 105.411 92.6214 105.397 92.6025C105.383 92.5824 105.363 92.5681 105.34 92.5606C104.312 92.4358 103.271 92.6567 102.382 93.1887C101.575 93.7244 100.995 94.5419 100.757 95.4812C100.519 96.4196 100.638 97.4142 101.091 98.2707C99.0671 99.4222 96.7451 99.9436 94.422 99.7667C93.3084 99.4536 92.2854 98.8807 91.4376 98.0946C90.5896 97.3074 89.9416 96.3311 89.5456 95.2443ZM107.327 105.385C107.627 105.321 107.919 105.222 108.195 105.089C108.697 104.906 108.56 105.911 109.2 105.922C109.086 106.459 109.017 106.882 108.983 107.144C108.446 106.95 107.944 106.733 107.441 106.527C107.463 106.143 107.425 105.758 107.327 105.385ZM107.327 105.134C107.327 105.134 107.327 105.077 107.441 104.689C107.469 104.833 107.528 104.969 107.612 105.089L107.327 105.123V105.134ZM107.213 105.351C107.154 105.73 107.154 106.114 107.213 106.493C106.413 106.162 105.671 105.819 104.929 105.477C104.929 105.261 104.886 105.048 104.803 104.849C105.328 104.849 107.087 104.004 107.167 104.255C107.247 104.506 106.836 105.123 107.213 105.351ZM104.689 104.769C104.687 104.947 104.713 105.125 104.769 105.294C104.472 105.157 103.25 104.54 102.941 104.38C102.936 104.137 102.898 103.894 102.827 103.661C103.511 103.567 104.188 103.417 104.849 103.216C104.929 103.216 105.443 103.147 105.397 103.216C105.351 103.547 104.186 104.506 104.689 104.769ZM102.69 104.243C102.108 103.935 101.548 103.638 101.114 103.364C101.122 103.121 101.079 102.881 100.989 102.656C101.173 102.687 101.362 102.655 101.525 102.565C102.051 102.326 102.617 102.19 103.193 102.165C102.951 102.444 102.744 102.75 102.576 103.079C102.531 103.471 102.57 103.867 102.69 104.243ZM100.852 103.216L99.5839 102.45C99.6097 102.112 99.5754 101.772 99.4812 101.445C99.8466 101.525 100.794 101.149 101.228 101.183C101.022 101.463 100.835 101.757 100.669 102.062C100.669 102.454 100.731 102.844 100.852 103.216ZM101.343 101.56C101.314 101.787 101.314 102.017 101.343 102.245C101.263 102.245 101 102.371 100.977 102.245C100.954 102.119 101.206 101.697 101.343 101.56ZM103.353 102.542C103.346 102.765 103.373 102.989 103.433 103.204C103.258 103.269 103.072 103.304 102.884 103.307C102.884 103.307 102.839 103.147 103.353 102.542ZM105.545 103.684C105.56 103.871 105.602 104.056 105.671 104.232C105.444 104.319 105.211 104.391 104.974 104.449C105.111 104.243 105.294 103.981 105.545 103.672V103.684ZM99.2528 101.308C99.2472 101.651 99.2899 101.994 99.3784 102.325C99.1842 102.206 98.993 102.08 98.8074 101.948L98.5447 100.029C98.8302 100.029 99.4241 99.8581 99.4241 100.029C99.4241 100.201 98.9444 100.954 99.2528 101.297V101.308ZM101.697 98.225C101.857 98.1222 102.028 97.9966 102.188 97.871L104.7 99.4127C104.142 99.525 103.565 99.4775 103.034 99.2746C102.503 99.073 102.039 98.7246 101.697 98.2707V98.225ZM89.4657 108.366C89.1916 108.286 90.7676 105.842 90.9503 105.557C91.5099 104.655 94.2165 100.475 94.4449 100.132C95.389 100.187 96.3358 100.13 97.2657 99.9609C97.4484 106.722 98.6703 109.531 100.155 112.169C99.3898 111.929 98.6132 112.283 97.9394 112.043C96.9916 111.724 97.0258 110.353 95.6554 110.273C94.7599 110.379 93.8986 110.679 93.1315 111.153C92.8232 111.278 92.7547 111.153 92.6747 111.016C92.5616 110.243 92.394 109.479 92.1722 108.732C91.6469 107.829 90.0024 108.549 89.4657 108.366ZM60.9953 141.165L66.3855 144.42C66.0715 144.717 65.7314 144.984 65.3691 145.219C64.4897 145.687 63.5761 145.333 63.5647 146.03C58.6426 147.914 51.2309 156.605 60.4698 164.542C72.2783 174.672 85.7198 178.714 73.2147 188.376C69.7887 191.06 66.2598 190.66 62.1828 188.022C57.7061 185.087 57.7518 172.159 53.4578 164.177C46.3202 150.895 43.3738 155.372 29.5782 145.39L60.9953 141.165ZM76.8578 189.13C76.8426 189.13 76.8283 189.127 76.814 189.121C76.8007 189.115 76.7874 189.107 76.7768 189.096C76.7664 189.086 76.7579 189.073 76.7521 189.059C76.7465 189.045 76.7436 189.031 76.7436 189.016C76.7436 189 76.7465 188.986 76.7521 188.972C76.7579 188.957 76.7664 188.945 76.7768 188.935C76.7874 188.924 76.8007 188.916 76.814 188.91C76.8283 188.904 76.8426 188.901 76.8578 188.901C76.8806 188.909 76.9005 188.923 76.9149 188.943C76.9292 188.962 76.9367 188.986 76.9367 189.01C76.9367 189.034 76.9292 189.057 76.9149 189.076C76.9005 189.096 76.8806 189.111 76.8578 189.118V189.13ZM71.0106 192.556C70.9629 192.564 70.9137 192.563 70.8665 192.551C70.8194 192.539 70.7756 192.516 70.738 192.485C70.7006 192.454 70.6705 192.415 70.6498 192.371C70.6292 192.327 70.6184 192.279 70.6184 192.23C70.6184 192.182 70.6292 192.133 70.6498 192.089C70.6705 192.046 70.7006 192.007 70.738 191.975C70.7756 191.944 70.8194 191.922 70.8665 191.91C70.9137 191.897 70.9629 191.896 71.0106 191.905C71.1032 191.905 71.1917 191.942 71.2571 192.007C71.3225 192.072 71.3591 192.161 71.3591 192.253C71.3591 192.345 71.3225 192.434 71.2571 192.499C71.1917 192.564 71.1032 192.601 71.0106 192.601V192.556ZM56.3014 191.756C56.4185 191.417 56.5923 191.101 56.8153 190.82C56.3014 190.112 55.9933 189.758 56.8841 189.803C57.1451 189.823 57.4023 189.877 57.649 189.963C58.5626 188.958 58.7227 189.027 58.6885 190.397C58.9169 190.512 59.4534 190.786 59.5562 191.014C59.659 191.242 59.0765 191.38 58.6654 191.505C58.6654 191.779 58.5626 192.647 58.3 192.647C58.0373 192.647 57.889 192.225 57.5464 191.791C57.0782 191.916 56.2443 192.213 56.3014 191.802V191.756ZM56.153 177.207C56.1052 177.216 56.056 177.215 56.0089 177.202C55.9617 177.19 55.9179 177.167 55.8803 177.137C55.843 177.105 55.8129 177.066 55.7921 177.022C55.7715 176.979 55.7607 176.93 55.7607 176.881C55.7607 176.833 55.7715 176.784 55.7921 176.741C55.8129 176.697 55.843 176.658 55.8803 176.626C55.9179 176.595 55.9617 176.573 56.0089 176.561C56.056 176.548 56.1052 176.548 56.153 176.556C56.2456 176.556 56.334 176.593 56.3994 176.658C56.4648 176.724 56.5014 176.812 56.5014 176.904C56.5014 176.997 56.4648 177.085 56.3994 177.151C56.334 177.216 56.2456 177.253 56.153 177.253V177.207ZM42.3574 160.648C42.3096 160.656 42.2604 160.655 42.2133 160.643C42.1661 160.631 42.1223 160.608 42.0848 160.577C42.0474 160.546 42.0173 160.507 41.9965 160.463C41.9759 160.419 41.9651 160.371 41.9651 160.322C41.9651 160.274 41.9759 160.225 41.9965 160.181C42.0173 160.138 42.0474 160.099 42.0848 160.067C42.1223 160.036 42.1661 160.014 42.2133 160.002C42.2604 159.989 42.3096 159.988 42.3574 159.997C42.4053 159.988 42.4546 159.989 42.5017 160.002C42.5488 160.014 42.5926 160.036 42.6302 160.067C42.6676 160.099 42.6977 160.138 42.7185 160.181C42.7392 160.225 42.75 160.274 42.75 160.322C42.75 160.371 42.7392 160.419 42.7185 160.463C42.6977 160.507 42.6676 160.546 42.6302 160.577C42.5926 160.608 42.5488 160.631 42.5017 160.643C42.4546 160.655 42.4053 160.656 42.3574 160.648ZM37.7893 153.522C37.7416 153.53 37.6923 153.529 37.6452 153.517C37.5981 153.504 37.5543 153.481 37.5167 153.451C37.4793 153.42 37.4492 153.381 37.4284 153.337C37.4079 153.293 37.3971 153.245 37.3971 153.196C37.3971 153.148 37.4079 153.099 37.4284 153.055C37.4492 153.011 37.4793 152.972 37.5167 152.941C37.5543 152.91 37.5981 152.888 37.6452 152.875C37.6923 152.863 37.7416 152.861 37.7893 152.871C37.8366 152.859 37.8856 152.859 37.9332 152.869C37.9805 152.879 38.0252 152.899 38.064 152.928C38.1028 152.957 38.1346 152.994 38.1575 153.037C38.1803 153.08 38.1936 153.127 38.1961 153.175C38.1986 153.224 38.1905 153.272 38.1722 153.317C38.1541 153.363 38.1261 153.403 38.0908 153.436C38.0553 153.468 38.0129 153.493 37.9668 153.508C37.9207 153.523 37.8717 153.527 37.8236 153.522H37.7893ZM24.3934 151.238C24.4414 151.229 24.4906 151.23 24.5377 151.242C24.5849 151.255 24.6287 151.277 24.6663 151.308C24.7036 151.339 24.7337 151.378 24.7545 151.422C24.7753 151.466 24.7861 151.515 24.7861 151.563C24.7861 151.611 24.7753 151.66 24.7545 151.704C24.7337 151.747 24.7036 151.787 24.6663 151.818C24.6287 151.848 24.5849 151.871 24.5377 151.884C24.4906 151.896 24.4414 151.897 24.3934 151.888C24.3455 151.894 24.2967 151.89 24.2506 151.875C24.2043 151.86 24.1621 151.835 24.1266 151.803C24.0911 151.769 24.0633 151.729 24.045 151.684C24.0269 151.639 24.0188 151.59 24.0211 151.542C24.0238 151.494 24.0369 151.447 24.0597 151.404C24.0826 151.361 24.1146 151.324 24.1532 151.295C24.192 151.266 24.2367 151.246 24.2842 151.236C24.3315 151.226 24.3808 151.226 24.4277 151.238H24.3934ZM16.8675 128.397C17.3399 128.017 17.8781 127.726 18.4549 127.541C18.4549 126.056 18.3407 125.257 19.517 126.136C19.8606 126.416 20.1677 126.738 20.4306 127.095C20.9609 126.934 21.5101 126.847 22.0637 126.833C22.2236 126.833 22.3264 126.924 22.3149 127.084C22.12 127.673 21.8264 128.225 21.447 128.717C21.7765 129.229 21.98 129.812 22.0409 130.419C21.9381 130.978 21.0587 130.487 20.3507 130.281C20.0423 130.647 19.0945 131.857 18.7404 131.583C18.3864 131.309 18.5805 130.601 18.5349 129.642C17.8382 129.391 16.4221 128.934 16.9018 128.397H16.8675ZM12.6649 138.47C12.7129 138.46 12.7621 138.462 12.8092 138.475C12.8563 138.487 12.9001 138.509 12.9377 138.54C12.9751 138.571 13.0052 138.611 13.026 138.654C13.0467 138.698 13.0575 138.747 13.0575 138.795C13.0575 138.844 13.0467 138.892 13.026 138.936C13.0052 138.98 12.9751 139.019 12.9377 139.05C12.9001 139.081 12.8563 139.103 12.8092 139.116C12.7621 139.128 12.7129 139.129 12.6649 139.121C12.6169 139.126 12.5681 139.123 12.522 139.107C12.4757 139.092 12.4336 139.067 12.3981 139.035C12.3626 139.002 12.3347 138.962 12.3165 138.916C12.2984 138.871 12.2903 138.823 12.2926 138.774C12.2953 138.727 12.3084 138.679 12.3312 138.636C12.3541 138.593 12.386 138.556 12.4246 138.527C12.4635 138.498 12.5081 138.478 12.5557 138.468C12.603 138.458 12.6522 138.458 12.6991 138.47H12.6649ZM122.813 176.396C118.633 181.844 56.2215 212.13 50.146 215.064C35.8821 198.129 13.6813 167.249 0.662267 149.228L12.4251 147.686C19.7568 159.255 30.9943 156.571 37.0242 160.248C43.8077 164.394 47.3023 167.523 49.358 175.563C52.1559 186.492 48.6273 191.208 56.8041 194.691C64.6384 198.015 80.1925 196.678 86.4964 185.864C92.8004 175.049 80.4551 170.321 69.3661 165.307C58.2771 160.294 60.23 153.35 61.7374 151.386C62.8886 149.892 64.2239 148.548 65.7117 147.389C66.2746 147.391 66.8279 147.245 67.3167 146.966C67.8057 146.689 68.2129 146.287 68.4982 145.802C69.8344 146.521 120.517 175.083 122.847 176.396H122.813ZM80.5579 189.861C80.5731 189.861 80.5874 189.864 80.6017 189.869C80.6161 189.875 80.6283 189.883 80.6389 189.894C80.6493 189.904 80.6578 189.917 80.6636 189.931C80.6692 189.945 80.6721 189.96 80.6721 189.975C80.6721 189.99 80.6692 190.004 80.6636 190.019C80.6578 190.032 80.6493 190.045 80.6389 190.056C80.6283 190.066 80.6161 190.075 80.6017 190.08C80.5874 190.086 80.5731 190.089 80.5579 190.089C80.5428 190.088 80.5284 190.084 80.5151 190.078C80.5008 190.072 80.4894 190.062 80.479 190.052C80.4684 190.04 80.461 190.027 80.4562 190.013C80.4514 189.998 80.4485 189.984 80.4495 189.969C80.4504 189.954 80.4541 189.94 80.4607 189.925C80.4666 189.912 80.4761 189.9 80.4875 189.89C80.4979 189.88 80.5112 189.872 80.5255 189.867C80.5399 189.862 80.5542 189.86 80.5693 189.861H80.5579ZM83.4815 178.292C83.3444 178.383 83.1389 178.292 82.8191 178.132C82.3166 178.692 82.0768 178.852 82.1339 177.904C81.6428 177.744 81.3688 177.664 81.8256 177.401C81.9626 177.327 82.1082 177.269 82.2595 177.23C82.3851 176.442 82.4879 176.43 82.9219 177.093C83.1322 177.041 83.3511 177.041 83.5614 177.093C83.7213 177.184 83.4586 177.401 83.2759 177.618C83.3444 177.778 83.6185 178.212 83.4929 178.292H83.4815ZM66.6253 146.704C66.1849 146.849 65.7123 146.867 65.2617 146.756C64.8113 146.645 64.4013 146.41 64.0786 146.076H64.1814C66.3398 145.744 66.02 144.854 67.1392 144.305C67.242 144.42 67.1392 144.385 68.955 144.522C68.4965 145.528 67.6593 146.313 66.6253 146.704ZM69.2634 142.136C69.0983 142.443 69.0343 142.795 69.0808 143.141C69.0808 143.221 69.0007 143.586 68.955 143.929L67.7216 143.826C67.7216 143.769 68.5325 141.839 68.5896 141.656H69.3661L69.2634 142.136ZM69.0352 138.927C68.2472 140.4 67.8931 143.141 67.1965 142.661C66.9532 142.409 66.8144 142.075 66.8082 141.725C66.7715 141.066 66.8647 140.406 67.0823 139.783C67.2686 139.129 67.5962 138.524 68.0422 138.011C68.4882 137.498 69.0418 137.089 69.6633 136.814C69.058 139.144 69.2293 138.618 69.0352 138.972V138.927ZM69.8572 140.651C70.0399 140.114 70.2914 139.326 70.6454 138.298C70.7939 138.219 70.8279 138.298 71.0221 138.778C71.3304 139.578 69.526 141.61 69.526 141.61C69.6402 141.279 69.7658 140.959 69.8572 140.697V140.651ZM102.108 120.86C98.0765 126.924 95.0844 129.642 90.3793 132.28C85.7931 134.72 80.9157 136.569 75.8642 137.785C73.8314 138.413 72.13 142.924 69.9031 143.129C69.6518 143.129 69.4803 143.129 69.6859 142.558C70.1998 141.131 72.0613 139.943 71.5245 138.584C71.4564 138.379 71.3647 138.184 71.2505 138.002C71.1581 137.852 71.0169 137.739 70.8508 137.682C70.9193 137.453 71.1477 136.791 71.456 135.855C71.7187 135.672 71.9014 135.615 73.1005 134.907C77.1204 132.531 78.6964 128.272 82.0768 124.286C83.8621 122.102 85.9464 120.179 88.2665 118.576C88.4379 118.473 88.1523 118.644 89.4771 114.465C90.2422 112.055 91.133 109.508 91.3957 108.754C91.4451 108.761 91.4929 108.779 91.5338 108.807C91.5755 108.834 91.6108 108.872 91.6355 108.914C91.9324 109.474 91.8753 110.547 92.1266 111.198C92.7204 112.637 94.1936 110.707 95.5526 110.742C96.6946 110.742 96.6946 112.055 97.8367 112.386C98.6932 112.637 99.5497 112.112 100.349 112.489C101.397 114.269 102.629 115.935 104.026 117.457C103.508 118.669 102.864 119.825 102.108 120.906V120.86ZM109.12 121.225C105.663 118.754 102.774 115.573 100.646 111.895C99.2413 109.451 97.9394 106.722 97.4941 99.8695C97.7634 99.8228 98.0308 99.7609 98.2935 99.6868L98.5333 101.971C99.7914 102.923 101.12 103.778 102.508 104.529C102.508 104.529 101.537 110.022 105.934 117.091C108.046 120.563 109.12 121.271 109.12 121.271V121.225ZM130.35 135.957C130.556 138.447 128.294 152.037 127.986 153.887C127.968 153.894 127.952 153.904 127.937 153.918C127.924 153.932 127.913 153.949 127.906 153.967C128.054 153.407 125.485 162.052 125.291 164.759C125.291 164.976 125.291 164.873 127.244 166.563C127.906 167.146 130.179 169.076 130.293 169.75C130.345 169.925 130.345 170.111 130.293 170.286C129.273 169.205 128.056 168.33 126.707 167.705C126.683 167.69 126.654 167.686 126.626 167.692C126.597 167.698 126.574 167.715 126.558 167.74C126.543 167.763 126.539 167.793 126.545 167.82C126.552 167.849 126.569 167.873 126.593 167.888L127.518 168.642C128.443 169.27 129.294 170.002 130.053 170.823C129.939 171.109 129.688 171.132 129.391 171.052C129.391 170.458 126.787 169.019 125.965 168.528C125.839 168.459 125.725 168.642 125.85 168.71C126.997 169.373 128.066 170.162 129.037 171.063C128.671 171.885 127.563 170.709 123.532 169.053C122.806 168.727 122.037 168.503 121.248 168.391C121.195 168.387 121.142 168.4 121.097 168.43C121.051 168.458 121.016 168.5 120.997 168.551C120.894 168.847 121.214 168.836 122.242 169.875C122.46 170.067 122.649 170.29 122.801 170.538C122.117 170.618 121.426 170.457 120.848 170.081C120.391 169.774 120.03 169.345 119.807 168.842C119.584 168.338 119.51 167.781 119.592 167.237C119.786 166.095 120.917 165.513 120.449 164.496C119.98 163.48 119.021 156.879 118.884 155.931C117.616 147.355 118.096 147.172 117.856 147.103C117.856 135.204 118.233 135.158 118.142 134.541C118.142 134.416 115.584 116.851 115.561 116.714C116.315 116.714 116.851 117.548 117.274 118.233C117.891 119.215 118.416 119.855 119.649 119.478C120.883 119.101 121.933 118.062 123.075 117.651C124.217 117.24 124.823 117.651 126.067 118.05C126.547 118.28 127.089 118.344 127.609 118.235C128.129 118.126 128.599 117.848 128.945 117.445C130.932 115.789 129.996 115.378 134.062 116.977C133.274 120.049 131.503 128.728 131.469 128.865C130.748 131.161 130.371 133.551 130.35 135.957ZM115.424 116.155C114.528 116.478 113.655 116.859 112.809 117.297C112.614 117.297 112.534 117.297 112.477 117.068C112.123 115.435 116.28 96.1008 126.638 95.3699C131.366 95.0502 134.633 103.535 136.06 108.058C136.999 110.932 137.728 113.871 138.241 116.851C138.447 118.918 132.417 115.047 130.681 115.447C129.996 115.607 129.688 116.189 128.705 117.011C127.723 117.833 127.221 117.833 126.353 117.525C125.328 116.964 124.126 116.816 122.995 117.114C121.785 117.548 120.78 118.564 119.569 118.941C118.541 119.272 118.222 118.564 117.639 117.651C117.057 116.737 116.463 115.961 115.424 116.109V116.155ZM132.44 126.935C132.919 125.04 133.765 121.111 134.393 117C135.443 117.411 137.739 118.416 138.504 117.685C138.618 117.563 138.7 117.415 138.744 117.254C138.788 117.092 138.791 116.923 138.755 116.76C138.341 114.349 137.769 111.969 137.042 109.634C135.512 104.552 131.937 94.7875 126.616 95.1187C115.812 95.8724 111.598 115.367 111.963 117.125C111.974 117.239 112.01 117.347 112.07 117.444C112.129 117.541 112.21 117.623 112.306 117.684C112.402 117.744 112.511 117.782 112.624 117.794C112.736 117.807 112.85 117.793 112.957 117.754C113.608 117.594 114.533 116.886 115.378 116.691C115.504 118.77 115.744 121.534 116.246 125.108C114.32 124.351 112.459 123.433 110.684 122.367C107.101 118.887 104.576 114.465 103.398 109.611C102.997 108.022 102.767 106.395 102.713 104.757C104.787 105.916 106.94 106.926 109.154 107.784C109.191 107.798 109.23 107.804 109.27 107.8C109.309 107.796 109.347 107.784 109.381 107.762C109.414 107.741 109.441 107.712 109.462 107.678C109.482 107.645 109.494 107.606 109.497 107.567C109.914 104.34 111.282 101.311 113.425 98.8645C115.609 96.4443 118.511 94.7875 121.705 94.1366C121.756 94.1281 121.804 94.1031 121.841 94.067C121.878 94.0301 121.903 93.9823 121.911 93.931C121.921 93.8795 121.913 93.8264 121.89 93.7796C121.868 93.7321 121.83 93.6931 121.785 93.6683C119.523 92.3627 117.189 91.1843 114.796 90.1395C113.313 89.4506 111.758 88.9296 110.159 88.5864C110.468 87.7344 110.676 86.849 110.776 85.9483C113.06 84.9776 124.583 86.4051 132.348 85.5943C133.525 85.5214 134.691 85.3341 135.832 85.0347C142.832 84.8405 153.373 93.4514 155.314 97.3342C157.256 101.217 156.948 106.071 152.642 112.112C148.588 117.765 134.016 126.01 132.451 126.89L132.44 126.935ZM163.514 149.993C165.102 144.991 162.589 140.308 161.687 138.858L169.247 138.652C170.221 139.228 170.963 140.125 171.348 141.188C171.968 142.78 172.297 144.47 172.319 146.178C170.058 147.195 165.867 149.113 163.514 149.947V149.993ZM172.81 145.87C172.747 144.197 172.36 142.552 171.668 141.028C171.21 139.952 170.406 139.06 169.384 138.493C169.84 138.003 170.392 137.614 171.006 137.351C171.006 137.716 170.56 138.493 171.097 138.573C171.634 138.652 171.691 138.127 172.022 137.956C172.159 137.887 172.433 137.876 172.319 138.173C172.205 138.47 171.954 138.915 172.216 139.315C172.409 139.542 172.676 139.695 172.97 139.749C173.039 139.749 172.582 140.069 172.456 140.434C172.427 140.521 172.431 140.615 172.469 140.698C172.507 140.781 172.577 140.846 172.662 140.879C173.05 141.028 173.724 140.64 174.146 141.062C174.318 141.245 174.226 141.416 174.009 141.542C173.484 141.873 173.415 142.261 173.907 142.684C174.153 142.855 174.373 143.064 174.557 143.3C174.199 143.298 173.849 143.415 173.564 143.632C173.51 143.674 173.466 143.727 173.435 143.788C173.405 143.849 173.389 143.917 173.389 143.986C173.389 144.054 173.405 144.122 173.435 144.183C173.466 144.245 173.51 144.298 173.564 144.34C173.815 144.557 174.432 144.785 174.569 144.979C174.026 145.342 173.434 145.626 172.81 145.824V145.87ZM186.663 137.967C186.195 139.874 175.917 144.477 175.186 144.819C175.06 144.374 174.341 144.157 174.044 143.94C174.363 143.769 175.003 143.837 175.129 143.438C175.254 143.038 174.363 142.375 174.158 142.113C174.352 141.93 175.049 141.599 174.74 140.971C174.6 140.735 174.389 140.549 174.136 140.44C173.884 140.331 173.604 140.305 173.336 140.365H173.164C173.415 140.046 173.827 139.635 173.45 139.361C173.073 139.086 172.822 139.361 172.627 138.984C173.712 139.121 174.603 139.269 175.288 139.418C175.311 139.421 175.335 139.419 175.357 139.413C175.379 139.406 175.4 139.395 175.417 139.38C175.434 139.364 175.448 139.345 175.457 139.324C175.466 139.303 175.471 139.281 175.471 139.258C175.471 139.715 175.151 136.62 176.773 136.254C177.497 136.178 178.229 136.281 178.904 136.553C179.579 136.826 180.177 137.261 180.644 137.819C180.671 137.852 180.707 137.878 180.747 137.891C180.788 137.905 180.831 137.908 180.873 137.899C181.295 137.819 184.801 137.099 186.206 137.613C186.366 137.602 186.697 137.762 186.663 137.922V137.967Z" fill="#2D2D2D"/>
</svg>
