<svg width="25" height="25" viewBox="0 0 25 25" fill="none" xmlns="http://www.w3.org/2000/svg">
<g clip-path="url(#clip0_115_93)">
<path d="M7.425 10.0252V18.2752M17.325 18.2752V14.1502C17.325 13.275 16.9773 12.4356 16.3584 11.8167C15.7396 11.1979 14.9002 10.8502 14.025 10.8502C13.1498 10.8502 12.3104 11.1979 11.6915 11.8167C11.0727 12.4356 10.725 13.275 10.725 14.1502V18.2752V10.0252M6.6 7.55019H8.25M2.475 0.950195H22.275C22.7126 0.950195 23.1323 1.12403 23.4417 1.43347C23.7512 1.7429 23.925 2.16259 23.925 2.6002V22.4002C23.925 22.8378 23.7512 23.2575 23.4417 23.5669C23.1323 23.8764 22.7126 24.0502 22.275 24.0502H2.475C2.03739 24.0502 1.61771 23.8764 1.30827 23.5669C0.998836 23.2575 0.824997 22.8378 0.824997 22.4002V2.6002C0.824997 2.16259 0.998836 1.7429 1.30827 1.43347C1.61771 1.12403 2.03739 0.950195 2.475 0.950195Z" stroke="black" stroke-width="1.65"/>
</g>
<defs>
<clipPath id="clip0_115_93">
<rect width="24.75" height="24.75" fill="white" transform="translate(0 0.125)"/>
</clipPath>
</defs>
</svg>
