<svg width="30" height="25" viewBox="0 0 30 25" fill="none" xmlns="http://www.w3.org/2000/svg">
<path d="M6.677 5.40483C6.51992 5.32012 6.34353 5.27762 6.1651 5.28149C5.98667 5.28537 5.81231 5.33549 5.65905 5.42694C5.50579 5.5184 5.37889 5.64806 5.29076 5.80326C5.20263 5.95845 5.15628 6.13386 5.15625 6.31233V19.3748C5.15625 19.6483 5.2649 19.9106 5.4583 20.104C5.65169 20.2974 5.914 20.4061 6.1875 20.4061C6.461 20.4061 6.72331 20.2974 6.9167 20.104C7.1101 19.9106 7.21875 19.6483 7.21875 19.3748V8.03933L14.6355 12.0323C14.9408 12.1973 15.3092 12.1973 15.6145 12.0323L23.0312 8.03933V19.3748C23.0312 19.6483 23.1399 19.9106 23.3333 20.104C23.5267 20.2974 23.789 20.4061 24.0625 20.4061C24.336 20.4061 24.5983 20.2974 24.7917 20.104C24.9851 19.9106 25.0938 19.6483 25.0938 19.3748V6.31233C25.0937 6.13386 25.0474 5.95845 24.9592 5.80326C24.8711 5.64806 24.7442 5.5184 24.591 5.42694C24.4377 5.33549 24.2633 5.28537 24.0849 5.28149C23.9065 5.27762 23.7301 5.32012 23.573 5.40483L15.125 9.95333L6.677 5.40483Z" fill="black"/>
<path fill-rule="evenodd" clip-rule="evenodd" d="M22.4262 1.1182C17.5684 0.683907 12.6816 0.683907 7.82375 1.1182L5.7365 1.30383C4.64927 1.40091 3.62651 1.86164 2.83338 2.6116C2.04026 3.36156 1.52308 4.35698 1.36537 5.43708C0.680526 10.1211 0.680526 14.8798 1.36537 19.5638C1.52342 20.6439 2.04093 21.6391 2.8343 22.3889C3.62768 23.1386 4.6506 23.599 5.73787 23.6957L7.82238 23.8827C12.6816 24.3172 17.5684 24.3172 22.4276 23.8827L24.5135 23.6957C25.6005 23.5987 26.6231 23.1382 27.4162 22.3885C28.2093 21.6388 28.7266 20.6437 28.8846 19.5638C29.5695 14.8798 29.5695 10.1211 28.8846 5.43708C28.7269 4.35676 28.2095 3.36119 27.4161 2.6112C26.6227 1.86121 25.5996 1.40062 24.5121 1.30383L22.4276 1.1182H22.4262ZM8.008 3.17245C12.7441 2.749 17.5086 2.749 22.2447 3.17245L24.3306 3.35945C24.9559 3.41499 25.5443 3.6797 26.0006 4.11082C26.4569 4.54194 26.7546 5.1143 26.8455 5.73545C27.5015 10.2216 27.5015 14.7793 26.8455 19.2655C26.7546 19.8866 26.4569 20.459 26.0006 20.8901C25.5443 21.3212 24.9559 21.5859 24.3306 21.6415L22.2447 21.8285C17.5092 22.252 12.7435 22.252 8.008 21.8285L5.92212 21.6415C5.29682 21.5859 4.70849 21.3212 4.25217 20.8901C3.79585 20.459 3.49818 19.8866 3.40725 19.2655C2.75133 14.7793 2.75133 10.2216 3.40725 5.73545C3.49818 5.1143 3.79585 4.54194 4.25217 4.11082C4.70849 3.6797 5.29682 3.41499 5.92212 3.35945L8.008 3.17245Z" fill="black"/>
</svg>
