<svg width="26" height="25" viewBox="0 0 26 25" fill="none" xmlns="http://www.w3.org/2000/svg">
<path d="M21.7259 24.7882H4.02412C3.11244 24.7882 2.2381 24.426 1.59344 23.7814C0.948788 23.1367 0.586624 22.2624 0.586624 21.3507V3.64893C0.586624 2.73724 0.948788 1.8629 1.59344 1.21825C2.2381 0.57359 3.11244 0.211426 4.02412 0.211426H21.7259C22.6376 0.211426 23.5119 0.57359 24.1566 1.21825C24.8012 1.8629 25.1634 2.73724 25.1634 3.64893V21.3507C25.1634 22.2624 24.8012 23.1367 24.1566 23.7814C23.5119 24.426 22.6376 24.7882 21.7259 24.7882ZM4.02412 1.58643C3.47712 1.58643 2.95251 1.80372 2.56572 2.19052C2.17892 2.57731 1.96162 3.10192 1.96162 3.64893V21.3507C1.96162 21.8977 2.17892 22.4223 2.56572 22.8091C2.95251 23.1959 3.47712 23.4132 4.02412 23.4132H21.7259C22.2729 23.4132 22.7975 23.1959 23.1843 22.8091C23.5711 22.4223 23.7884 21.8977 23.7884 21.3507V3.64893C23.7884 3.10192 23.5711 2.57731 23.1843 2.19052C22.7975 1.80372 22.2729 1.58643 21.7259 1.58643H4.02412Z" fill="black"/>
<path d="M12.875 18.8164C11.6256 18.8151 10.4047 18.4433 9.36657 17.7482C8.32844 17.0531 7.5197 16.0657 7.04259 14.9111C6.56548 13.7564 6.44142 12.4862 6.6861 11.261C6.93077 10.0358 7.53319 8.91066 8.41721 8.0278C9.30122 7.14494 10.4271 6.54398 11.6526 6.30091C12.8781 6.05784 14.1482 6.18355 15.3023 6.66217C16.4563 7.14079 17.4426 7.95081 18.1364 8.98985C18.8301 10.0289 19.2003 11.2503 19.2 12.4997C19.1978 14.1757 18.5305 15.7824 17.3445 16.9668C16.1586 18.1512 14.5511 18.8164 12.875 18.8164ZM12.875 7.54967C11.8979 7.55103 10.9432 7.84193 10.1313 8.38561C9.3195 8.92929 8.687 9.70136 8.31372 10.6043C7.94044 11.5073 7.84312 12.5006 8.03407 13.4588C8.22503 14.4171 8.69567 15.2972 9.38657 15.9881C10.0775 16.679 10.9576 17.1497 11.9158 17.3406C12.8741 17.5316 13.8674 17.4342 14.7704 17.061C15.6733 16.6877 16.4454 16.0552 16.9891 15.2433C17.5328 14.4315 17.8236 13.4767 17.825 12.4997C17.825 11.1869 17.3035 9.9278 16.3752 8.9995C15.4469 8.07119 14.1878 7.54967 12.875 7.54967Z" fill="black"/>
<path d="M20.025 6.86934C20.8413 6.86934 21.5031 6.20756 21.5031 5.39121C21.5031 4.57486 20.8413 3.91309 20.025 3.91309C19.2087 3.91309 18.5469 4.57486 18.5469 5.39121C18.5469 6.20756 19.2087 6.86934 20.025 6.86934Z" fill="black"/>
</svg>
