<svg width="25" height="25" viewBox="0 0 25 25" fill="none" xmlns="http://www.w3.org/2000/svg">
<path d="M21.0187 3.93283C19.9109 2.81382 18.5914 1.92659 17.1371 1.32289C15.6828 0.719184 14.1229 0.41109 12.5483 0.416576C5.9508 0.416576 0.573718 5.79366 0.573718 12.3912C0.573718 14.5057 1.12955 16.5599 2.16872 18.3724L0.477051 24.5832L6.8208 22.9157C8.57288 23.8703 10.5425 24.3778 12.5483 24.3778C19.1458 24.3778 24.5229 19.0007 24.5229 12.4032C24.5229 9.20116 23.2783 6.19241 21.0187 3.93283ZM12.5483 22.3478C10.76 22.3478 9.00788 21.8645 7.4733 20.9582L7.1108 20.7407L3.3408 21.7316L4.34372 18.0582L4.10205 17.6837C3.10849 16.0971 2.58093 14.2632 2.57955 12.3912C2.57955 6.90533 7.05038 2.43449 12.5362 2.43449C15.1946 2.43449 17.6958 3.47366 19.5687 5.35866C20.4961 6.28178 21.231 7.37979 21.7309 8.58905C22.2308 9.7983 22.4857 11.0947 22.4808 12.4032C22.505 17.8891 18.0341 22.3478 12.5483 22.3478ZM18.01 14.9045C17.7079 14.7595 16.2337 14.0345 15.9679 13.9257C15.69 13.8291 15.4966 13.7807 15.2912 14.0707C15.0858 14.3728 14.5179 15.0495 14.3487 15.2428C14.1796 15.4482 13.9983 15.4724 13.6962 15.3153C13.3941 15.1703 12.4275 14.8441 11.2916 13.8291C10.3975 13.0316 9.80538 12.0528 9.62413 11.7507C9.45497 11.4487 9.59997 11.2916 9.75705 11.1345C9.88997 11.0016 10.0591 10.7841 10.2041 10.6149C10.3491 10.4457 10.4096 10.3128 10.5062 10.1195C10.6029 9.91407 10.5546 9.74491 10.4821 9.59991C10.4096 9.45491 9.80538 7.98074 9.56372 7.37658C9.32205 6.79658 9.0683 6.86908 8.88705 6.85699H8.30705C8.10163 6.85699 7.78747 6.92949 7.50955 7.23158C7.24372 7.53366 6.47038 8.25866 6.47038 9.73283C6.47038 11.207 7.5458 12.6328 7.6908 12.8262C7.8358 13.0316 9.80538 16.0524 12.8021 17.3453C13.515 17.6595 14.0708 17.8407 14.5058 17.9737C15.2187 18.2032 15.8712 18.167 16.3908 18.0945C16.9708 18.0099 18.1671 17.3695 18.4087 16.6687C18.6625 15.9678 18.6625 15.3757 18.5779 15.2428C18.4933 15.1099 18.312 15.0495 18.01 14.9045Z" fill="black"/>
</svg>
